<svg width="1510" height="460" viewBox="0 0 1510 460" fill="none" xmlns="http://www.w3.org/2000/svg">
<path d="M1367.61 366H142.395C66.7647 366 5 304.413 5 229C5 153.587 66.7647 92 142.395 92H1367.61C1443.24 92 1505 153.587 1505 229C1505 305.67 1443.24 366 1367.61 366Z" stroke="#1a2230" stroke-width="10" stroke-miterlimit="22.9256"/>
<path d="M754.5 458C880.145 458 982 355.473 982 229C982 102.527 880.145 0 754.5 0C628.855 0 527 102.527 527 229C527 355.473 628.855 458 754.5 458Z" fill="#F9F9F9"/>
<path d="M1079.01 303.26C1119.39 303.26 1152.13 270.526 1152.13 230.147C1152.13 189.767 1119.39 157.033 1079.01 157.033C1038.64 157.033 1005.9 189.767 1005.9 230.147C1005.9 270.526 1038.64 303.26 1079.01 303.26Z" stroke="#1a2230" stroke-width="5" stroke-miterlimit="22.9256"/>
<path d="M1079.01 265.443C1098.51 265.443 1114.31 249.64 1114.31 230.147C1114.31 210.653 1098.51 194.851 1079.01 194.851C1059.52 194.851 1043.72 210.653 1043.72 230.147C1043.72 249.64 1059.52 265.443 1079.01 265.443Z" stroke="#1a2230" stroke-width="5" stroke-miterlimit="22.9256"/>
<path d="M1122.34 195.008C1127.25 188.249 1125.75 178.789 1118.99 173.879C1112.24 168.968 1102.78 170.466 1097.87 177.225C1092.95 183.984 1094.45 193.443 1101.21 198.354C1107.97 203.265 1117.43 201.767 1122.34 195.008Z" stroke="#1a2230" stroke-width="5" stroke-miterlimit="22.9256"/>
<path d="M1135.41 228.044C1143.35 225.463 1147.7 216.929 1145.12 208.983C1142.54 201.037 1134.01 196.688 1126.06 199.27C1118.11 201.851 1113.77 210.386 1116.35 218.331C1118.93 226.277 1127.46 230.626 1135.41 228.044Z" stroke="#1a2230" stroke-width="5" stroke-miterlimit="22.9256"/>
<path d="M1145.29 251.417C1147.87 243.472 1143.52 234.937 1135.58 232.356C1127.63 229.774 1119.1 234.123 1116.52 242.069C1113.93 250.015 1118.28 258.549 1126.23 261.13C1134.17 263.712 1142.71 259.363 1145.29 251.417Z" stroke="#1a2230" stroke-width="5" stroke-miterlimit="22.9256"/>
<path d="M1119.34 286.385C1126.09 281.475 1127.59 272.015 1122.68 265.256C1117.77 258.497 1108.31 256.999 1101.55 261.91C1094.79 266.821 1093.3 276.28 1098.21 283.039C1103.12 289.798 1112.58 291.296 1119.34 286.385Z" stroke="#1a2230" stroke-width="5" stroke-miterlimit="22.9256"/>
<path d="M1079.01 299.479C1087.37 299.479 1094.14 292.706 1094.14 284.352C1094.14 275.998 1087.37 269.225 1079.01 269.225C1070.66 269.225 1063.89 275.998 1063.89 284.352C1063.89 292.706 1070.66 299.479 1079.01 299.479Z" stroke="#1a2230" stroke-width="5" stroke-miterlimit="22.9256"/>
<path d="M1058.49 283.452C1063.4 276.693 1061.91 267.233 1055.15 262.322C1048.39 257.412 1038.93 258.91 1034.02 265.668C1029.11 272.427 1030.6 281.887 1037.36 286.798C1044.12 291.708 1053.58 290.21 1058.49 283.452Z" stroke="#1a2230" stroke-width="5" stroke-miterlimit="22.9256"/>
<path d="M1032.18 262.065C1040.13 259.483 1044.47 250.949 1041.89 243.003C1039.31 235.057 1030.78 230.709 1022.83 233.29C1014.89 235.872 1010.54 244.406 1013.12 252.352C1015.7 260.298 1024.23 264.646 1032.18 262.065Z" stroke="#1a2230" stroke-width="5" stroke-miterlimit="22.9256"/>
<path d="M1041.51 217.728C1044.09 209.782 1039.74 201.248 1031.79 198.666C1023.85 196.085 1015.31 200.433 1012.73 208.379C1010.15 216.325 1014.5 224.859 1022.44 227.441C1030.39 230.022 1038.92 225.674 1041.51 217.728Z" stroke="#1a2230" stroke-width="5" stroke-miterlimit="22.9256"/>
<path d="M1054.93 198.458C1061.69 193.547 1063.19 184.087 1058.28 177.328C1053.37 170.57 1043.91 169.072 1037.15 173.982C1030.39 178.893 1028.89 188.353 1033.8 195.112C1038.71 201.87 1048.17 203.369 1054.93 198.458Z" stroke="#1a2230" stroke-width="5" stroke-miterlimit="22.9256"/>
<path d="M1079.01 191.069C1087.37 191.069 1094.14 184.296 1094.14 175.942C1094.14 167.587 1087.37 160.815 1079.01 160.815C1070.66 160.815 1063.89 167.587 1063.89 175.942C1063.89 184.296 1070.66 191.069 1079.01 191.069Z" stroke="#1a2230" stroke-width="5" stroke-miterlimit="22.9256"/>
<path d="M1235.33 305.781C1275.71 305.781 1308.44 273.047 1308.44 232.667C1308.44 192.288 1275.71 159.554 1235.33 159.554C1194.95 159.554 1162.21 192.288 1162.21 232.667C1162.21 273.047 1194.95 305.781 1235.33 305.781Z" stroke="#1a2230" stroke-width="5" stroke-miterlimit="22.9256"/>
<path d="M1235.33 267.964C1254.82 267.964 1270.62 252.161 1270.62 232.668C1270.62 213.174 1254.82 197.371 1235.33 197.371C1215.83 197.371 1200.03 213.174 1200.03 232.668C1200.03 252.161 1215.83 267.964 1235.33 267.964Z" stroke="#1a2230" stroke-width="5" stroke-miterlimit="22.9256"/>
<path d="M1278.93 198.011C1283.84 191.252 1282.34 181.792 1275.58 176.882C1268.82 171.971 1259.36 173.469 1254.45 180.228C1249.54 186.986 1251.04 196.446 1257.8 201.357C1264.56 206.268 1274.02 204.77 1278.93 198.011Z" stroke="#1a2230" stroke-width="5" stroke-miterlimit="22.9256"/>
<path d="M1291.77 230.753C1299.71 228.171 1304.06 219.637 1301.48 211.691C1298.9 203.745 1290.36 199.397 1282.42 201.978C1274.47 204.56 1270.12 213.094 1272.7 221.04C1275.29 228.985 1283.82 233.334 1291.77 230.753Z" stroke="#1a2230" stroke-width="5" stroke-miterlimit="22.9256"/>
<path d="M1302.05 254.489C1304.63 246.543 1300.28 238.009 1292.33 235.427C1284.39 232.846 1275.85 237.195 1273.27 245.14C1270.69 253.086 1275.04 261.62 1282.98 264.202C1290.93 266.783 1299.46 262.435 1302.05 254.489Z" stroke="#1a2230" stroke-width="5" stroke-miterlimit="22.9256"/>
<path d="M1275.78 289.255C1282.54 284.344 1284.04 274.884 1279.12 268.125C1274.21 261.366 1264.75 259.868 1258 264.779C1251.24 269.69 1249.74 279.15 1254.65 285.908C1259.56 292.667 1269.02 294.165 1275.78 289.255Z" stroke="#1a2230" stroke-width="5" stroke-miterlimit="22.9256"/>
<path d="M1235.33 302C1243.68 302 1250.45 295.227 1250.45 286.873C1250.45 278.518 1243.68 271.746 1235.33 271.746C1226.97 271.746 1220.2 278.518 1220.2 286.873C1220.2 295.227 1226.97 302 1235.33 302Z" stroke="#1a2230" stroke-width="5" stroke-miterlimit="22.9256"/>
<path d="M1215.82 285.435C1220.73 278.677 1219.23 269.217 1212.47 264.306C1205.72 259.395 1196.26 260.893 1191.35 267.652C1186.43 274.411 1187.93 283.871 1194.69 288.781C1201.45 293.692 1210.91 292.194 1215.82 285.435Z" stroke="#1a2230" stroke-width="5" stroke-miterlimit="22.9256"/>
<path d="M1188.54 264.775C1196.48 262.193 1200.83 253.659 1198.25 245.713C1195.67 237.767 1187.13 233.419 1179.19 236C1171.24 238.582 1166.89 247.116 1169.47 255.062C1172.06 263.008 1180.59 267.356 1188.54 264.775Z" stroke="#1a2230" stroke-width="5" stroke-miterlimit="22.9256"/>
<path d="M1198.26 220.8C1200.84 212.854 1196.49 204.32 1188.55 201.739C1180.6 199.157 1172.07 203.506 1169.49 211.452C1166.91 219.397 1171.25 227.932 1179.2 230.513C1187.15 233.095 1195.68 228.746 1198.26 220.8Z" stroke="#1a2230" stroke-width="5" stroke-miterlimit="22.9256"/>
<path d="M1212.39 200.587C1219.15 195.676 1220.65 186.216 1215.74 179.458C1210.83 172.699 1201.37 171.201 1194.61 176.111C1187.85 181.022 1186.35 190.482 1191.26 197.241C1196.17 204 1205.63 205.498 1212.39 200.587Z" stroke="#1a2230" stroke-width="5" stroke-miterlimit="22.9256"/>
<path d="M1235.33 193.589C1243.68 193.589 1250.45 186.817 1250.45 178.462C1250.45 170.108 1243.68 163.335 1235.33 163.335C1226.97 163.335 1220.2 170.108 1220.2 178.462C1220.2 186.817 1226.97 193.589 1235.33 193.589Z" stroke="#1a2230" stroke-width="5" stroke-miterlimit="22.9256"/>
<path d="M1391.64 307.041C1432.02 307.041 1464.75 274.307 1464.75 233.928C1464.75 193.548 1432.02 160.814 1391.64 160.814C1351.26 160.814 1318.52 193.548 1318.52 233.928C1318.52 274.307 1351.26 307.041 1391.64 307.041Z" stroke="#1a2230" stroke-width="5" stroke-miterlimit="22.9256"/>
<path d="M1391.64 269.224C1411.13 269.224 1426.93 253.421 1426.93 233.928C1426.93 214.434 1411.13 198.631 1391.64 198.631C1372.14 198.631 1356.34 214.434 1356.34 233.928C1356.34 253.421 1372.14 269.224 1391.64 269.224Z" stroke="#1a2230" stroke-width="5" stroke-miterlimit="22.9256"/>
<path d="M1436.19 198.63C1441.1 191.871 1439.6 182.411 1432.85 177.5C1426.09 172.59 1416.63 174.088 1411.72 180.846C1406.81 187.605 1408.3 197.065 1415.06 201.976C1421.82 206.886 1431.28 205.388 1436.19 198.63Z" stroke="#1a2230" stroke-width="5" stroke-miterlimit="22.9256"/>
<path d="M1448.11 232.162C1456.06 229.581 1460.41 221.047 1457.83 213.101C1455.24 205.155 1446.71 200.806 1438.76 203.388C1430.82 205.969 1426.47 214.503 1429.05 222.449C1431.63 230.395 1440.17 234.744 1448.11 232.162Z" stroke="#1a2230" stroke-width="5" stroke-miterlimit="22.9256"/>
<path d="M1457.5 255.791C1460.08 247.846 1455.73 239.312 1447.79 236.73C1439.84 234.149 1431.31 238.497 1428.72 246.443C1426.14 254.389 1430.49 262.923 1438.44 265.504C1446.38 268.086 1454.92 263.737 1457.5 255.791Z" stroke="#1a2230" stroke-width="5" stroke-miterlimit="22.9256"/>
<path d="M1433.21 290.046C1439.97 285.135 1441.46 275.675 1436.55 268.917C1431.64 262.158 1422.18 260.66 1415.42 265.571C1408.66 270.481 1407.17 279.941 1412.08 286.7C1416.99 293.459 1426.45 294.957 1433.21 290.046Z" stroke="#1a2230" stroke-width="5" stroke-miterlimit="22.9256"/>
<path d="M1391.64 303.26C1399.99 303.26 1406.77 296.487 1406.77 288.133C1406.77 279.779 1399.99 273.006 1391.64 273.006C1383.28 273.006 1376.51 279.779 1376.51 288.133C1376.51 296.487 1383.28 303.26 1391.64 303.26Z" stroke="#1a2230" stroke-width="5" stroke-miterlimit="22.9256"/>
<path d="M1372.34 287.075C1377.25 280.316 1375.76 270.856 1369 265.945C1362.24 261.035 1352.78 262.533 1347.87 269.292C1342.96 276.05 1344.45 285.51 1351.21 290.421C1357.97 295.332 1367.43 293.833 1372.34 287.075Z" stroke="#1a2230" stroke-width="5" stroke-miterlimit="22.9256"/>
<path d="M1344.49 264.985C1352.44 262.403 1356.79 253.869 1354.21 245.923C1351.62 237.977 1343.09 233.629 1335.14 236.21C1327.2 238.792 1322.85 247.326 1325.43 255.272C1328.01 263.217 1336.55 267.566 1344.49 264.985Z" stroke="#1a2230" stroke-width="5" stroke-miterlimit="22.9256"/>
<path d="M1354.91 222.492C1357.49 214.546 1353.14 206.012 1345.2 203.43C1337.25 200.849 1328.72 205.197 1326.14 213.143C1323.56 221.089 1327.9 229.623 1335.85 232.205C1343.8 234.786 1352.33 230.438 1354.91 222.492Z" stroke="#1a2230" stroke-width="5" stroke-miterlimit="22.9256"/>
<path d="M1368.8 202.119C1375.56 197.209 1377.06 187.749 1372.15 180.99C1367.24 174.231 1357.78 172.733 1351.02 177.644C1344.26 182.555 1342.76 192.015 1347.67 198.773C1352.58 205.532 1362.04 207.03 1368.8 202.119Z" stroke="#1a2230" stroke-width="5" stroke-miterlimit="22.9256"/>
<path d="M1391.64 194.85C1399.99 194.85 1406.77 188.077 1406.77 179.723C1406.77 171.368 1399.99 164.596 1391.64 164.596C1383.28 164.596 1376.51 171.368 1376.51 179.723C1376.51 188.077 1383.28 194.85 1391.64 194.85Z" stroke="#1a2230" stroke-width="5" stroke-miterlimit="22.9256"/>
<path d="M114.671 307.041C155.05 307.041 187.785 274.307 187.785 233.928C187.785 193.548 155.05 160.814 114.671 160.814C74.2913 160.814 41.5572 193.548 41.5572 233.928C41.5572 274.307 74.2913 307.041 114.671 307.041Z" stroke="#1a2230" stroke-width="5" stroke-miterlimit="22.9256"/>
<path d="M114.671 269.224C134.164 269.224 149.967 253.421 149.967 233.928C149.967 214.434 134.164 198.631 114.671 198.631C95.1772 198.631 79.3745 214.434 79.3745 233.928C79.3745 253.421 95.1772 269.224 114.671 269.224Z" stroke="#1a2230" stroke-width="5" stroke-miterlimit="22.9256"/>
<path d="M159.649 198.233C164.56 191.474 163.062 182.014 156.303 177.103C149.544 172.193 140.084 173.691 135.174 180.449C130.263 187.208 131.761 196.668 138.52 201.579C145.278 206.489 154.738 204.991 159.649 198.233Z" stroke="#1a2230" stroke-width="5" stroke-miterlimit="22.9256"/>
<path d="M170.886 230.865C178.832 228.283 183.181 219.749 180.599 211.803C178.018 203.858 169.484 199.509 161.538 202.09C153.592 204.672 149.243 213.206 151.825 221.152C154.406 229.098 162.94 233.446 170.886 230.865Z" stroke="#1a2230" stroke-width="5" stroke-miterlimit="22.9256"/>
<path d="M181.043 255.277C183.624 247.332 179.276 238.798 171.33 236.216C163.384 233.635 154.85 237.983 152.268 245.929C149.687 253.875 154.035 262.409 161.981 264.991C169.927 267.572 178.461 263.223 181.043 255.277Z" stroke="#1a2230" stroke-width="5" stroke-miterlimit="22.9256"/>
<path d="M156.6 289.86C163.358 284.949 164.856 275.489 159.946 268.731C155.035 261.972 145.575 260.474 138.816 265.385C132.058 270.295 130.56 279.755 135.47 286.514C140.381 293.273 149.841 294.771 156.6 289.86Z" stroke="#1a2230" stroke-width="5" stroke-miterlimit="22.9256"/>
<path d="M114.671 303.26C123.025 303.26 129.798 296.487 129.798 288.133C129.798 279.779 123.025 273.006 114.671 273.006C106.317 273.006 99.5439 279.779 99.5439 288.133C99.5439 296.487 106.317 303.26 114.671 303.26Z" stroke="#1a2230" stroke-width="5" stroke-miterlimit="22.9256"/>
<path d="M95.7998 286.678C100.711 279.919 99.2125 270.459 92.4538 265.548C85.6951 260.638 76.2352 262.136 71.3245 268.894C66.4138 275.653 67.9118 285.113 74.6705 290.024C81.4292 294.935 90.8891 293.436 95.7998 286.678Z" stroke="#1a2230" stroke-width="5" stroke-miterlimit="22.9256"/>
<path d="M67.6557 264.886C75.6015 262.305 79.9502 253.771 77.3687 245.825C74.7872 237.879 66.2531 233.53 58.3072 236.112C50.3613 238.693 46.0127 247.227 48.5942 255.173C51.1757 263.119 59.7098 267.468 67.6557 264.886Z" stroke="#1a2230" stroke-width="5" stroke-miterlimit="22.9256"/>
<path d="M77.2583 221.587C79.8398 213.641 75.4911 205.107 67.5452 202.526C59.5994 199.944 51.0653 204.293 48.4838 212.239C45.9023 220.184 50.2509 228.719 58.1968 231.3C66.1426 233.882 74.6768 229.533 77.2583 221.587Z" stroke="#1a2230" stroke-width="5" stroke-miterlimit="22.9256"/>
<path d="M92.1941 201.933C98.9528 197.023 100.451 187.563 95.5402 180.804C90.6295 174.045 81.1695 172.547 74.4108 177.458C67.6521 182.369 66.154 191.828 71.0647 198.587C75.9754 205.346 85.4354 206.844 92.1941 201.933Z" stroke="#1a2230" stroke-width="5" stroke-miterlimit="22.9256"/>
<path d="M114.671 194.85C123.025 194.85 129.798 188.077 129.798 179.723C129.798 171.368 123.025 164.596 114.671 164.596C106.317 164.596 99.5439 171.368 99.5439 179.723C99.5439 188.077 106.317 194.85 114.671 194.85Z" stroke="#1a2230" stroke-width="5" stroke-miterlimit="22.9256"/>
<path d="M272.243 309.563C312.623 309.563 345.357 276.829 345.357 236.45C345.357 196.07 312.623 163.336 272.243 163.336C231.864 163.336 199.13 196.07 199.13 236.45C199.13 276.829 231.864 309.563 272.243 309.563Z" stroke="#1a2230" stroke-width="5" stroke-miterlimit="22.9256"/>
<path d="M272.243 271.746C291.737 271.746 307.54 255.943 307.54 236.45C307.54 216.956 291.737 201.154 272.243 201.154C252.75 201.154 236.947 216.956 236.947 236.45C236.947 255.943 252.75 271.746 272.243 271.746Z" stroke="#1a2230" stroke-width="5" stroke-miterlimit="22.9256"/>
<path d="M316.237 201.237C321.148 194.478 319.65 185.018 312.891 180.108C306.132 175.197 296.673 176.695 291.762 183.454C286.851 190.213 288.349 199.672 295.108 204.583C301.867 209.494 311.327 207.996 316.237 201.237Z" stroke="#1a2230" stroke-width="5" stroke-miterlimit="22.9256"/>
<path d="M328.442 233.187C336.388 230.606 340.736 222.072 338.155 214.126C335.573 206.18 327.039 201.831 319.093 204.413C311.147 206.994 306.799 215.528 309.38 223.474C311.962 231.42 320.496 235.769 328.442 233.187Z" stroke="#1a2230" stroke-width="5" stroke-miterlimit="22.9256"/>
<path d="M338.19 257.151C340.771 249.205 336.423 240.671 328.477 238.089C320.531 235.508 311.997 239.857 309.415 247.802C306.834 255.748 311.182 264.282 319.128 266.864C327.074 269.445 335.608 265.097 338.19 257.151Z" stroke="#1a2230" stroke-width="5" stroke-miterlimit="22.9256"/>
<path d="M313.042 292.731C319.801 287.821 321.299 278.361 316.388 271.602C311.478 264.843 302.018 263.345 295.259 268.256C288.5 273.167 287.002 282.627 291.913 289.385C296.824 296.144 306.284 297.642 313.042 292.731Z" stroke="#1a2230" stroke-width="5" stroke-miterlimit="22.9256"/>
<path d="M272.243 305.782C280.598 305.782 287.37 299.009 287.37 290.655C287.37 282.301 280.598 275.528 272.243 275.528C263.889 275.528 257.117 282.301 257.117 290.655C257.117 299.009 263.889 305.782 272.243 305.782Z" stroke="#1a2230" stroke-width="5" stroke-miterlimit="22.9256"/>
<path d="M252.388 289.681C257.299 282.922 255.801 273.462 249.042 268.552C242.283 263.641 232.823 265.139 227.913 271.898C223.002 278.656 224.5 288.116 231.259 293.027C238.017 297.938 247.477 296.44 252.388 289.681Z" stroke="#1a2230" stroke-width="5" stroke-miterlimit="22.9256"/>
<path d="M225.212 267.208C233.158 264.627 237.507 256.093 234.926 248.147C232.344 240.201 223.81 235.852 215.864 238.434C207.918 241.015 203.569 249.549 206.151 257.495C208.733 265.441 217.267 269.79 225.212 267.208Z" stroke="#1a2230" stroke-width="5" stroke-miterlimit="22.9256"/>
<path d="M234.405 223.462C236.987 215.516 232.638 206.982 224.692 204.401C216.746 201.819 208.212 206.168 205.631 214.114C203.049 222.06 207.398 230.594 215.344 233.175C223.289 235.757 231.824 231.408 234.405 223.462Z" stroke="#1a2230" stroke-width="5" stroke-miterlimit="22.9256"/>
<path d="M248.637 204.804C255.396 199.893 256.894 190.433 251.983 183.675C247.072 176.916 237.612 175.418 230.854 180.328C224.095 185.239 222.597 194.699 227.507 201.458C232.418 208.216 241.878 209.715 248.637 204.804Z" stroke="#1a2230" stroke-width="5" stroke-miterlimit="22.9256"/>
<path d="M272.243 197.372C280.598 197.372 287.37 190.599 287.37 182.245C287.37 173.89 280.598 167.118 272.243 167.118C263.889 167.118 257.117 173.89 257.117 182.245C257.117 190.599 263.889 197.372 272.243 197.372Z" stroke="#1a2230" stroke-width="5" stroke-miterlimit="22.9256"/>
<path d="M753.784 458.312C628.986 462.094 530.661 352.423 526.879 238.971C523.098 105.349 631.508 4.50278 746.22 1.98162C882.363 -1.80012 978.167 106.61 983.21 220.062C989.513 353.684 878.581 463.354 753.784 458.312ZM873.539 231.407C872.279 228.886 872.278 227.626 872.278 226.365C862.194 202.414 852.109 177.202 842.025 151.991C840.764 148.209 836.982 144.427 833.201 143.167C810.51 133.082 787.82 124.258 765.129 114.173C758.826 111.652 753.784 110.392 746.22 112.913C723.53 122.997 700.84 131.821 678.149 141.906C673.107 144.427 670.586 146.948 668.064 151.991C659.24 173.421 649.156 193.59 640.332 215.02C637.811 220.062 634.029 225.104 636.55 231.407C646.635 256.619 655.459 281.83 665.543 305.782C666.804 309.563 670.586 313.345 674.367 314.606C698.318 325.951 722.269 336.035 747.481 346.12C750.002 347.381 755.045 347.381 757.566 346.12C781.517 337.296 806.728 327.212 830.679 317.127C834.461 315.866 839.503 312.084 840.764 308.303C849.588 289.394 857.152 269.225 865.976 250.316C868.497 245.274 871.018 238.971 873.539 231.407ZM608.817 73.8348C602.514 72.5742 602.514 77.6165 603.775 81.3982C606.296 106.61 607.557 133.082 610.078 158.294C610.078 163.336 612.599 164.597 616.381 162.075C630.247 155.773 644.113 150.73 659.24 144.427C663.022 143.167 668.064 140.646 669.325 136.864C676.889 121.737 683.191 106.61 689.494 91.4828C692.016 86.4405 689.494 83.9194 685.713 83.9194C680.67 82.6588 675.628 82.6588 670.586 82.6588C649.156 78.8771 628.986 76.3559 608.817 73.8348ZM907.575 76.3559C879.842 78.8771 854.63 81.3982 828.158 85.1799C823.116 85.1799 823.116 87.7011 824.376 91.4828C830.679 105.349 835.722 119.216 840.764 133.082C843.285 138.124 845.806 143.167 852.109 144.427C864.715 149.47 878.581 154.512 891.187 160.815C898.751 164.596 900.011 163.336 901.272 155.773C903.793 131.821 906.314 106.61 908.835 82.6588C910.096 80.1376 907.575 77.6165 907.575 76.3559ZM907.575 375.113C905.054 352.423 902.532 329.733 901.272 307.042C901.272 300.739 897.49 299.479 893.708 302C881.103 307.042 868.497 312.085 854.63 317.127C847.067 319.648 842.025 323.43 839.503 332.254C838.243 334.775 836.982 337.296 835.722 341.078C831.94 351.162 826.898 361.247 823.116 371.332C820.595 376.374 821.855 378.895 828.158 380.156C834.461 380.156 840.764 381.416 848.328 382.677C865.976 385.198 884.884 386.459 902.532 388.98C907.575 388.98 908.835 387.719 908.835 382.677C907.575 378.895 907.575 377.635 907.575 375.113ZM608.817 295.697C607.557 298.218 607.557 299.479 607.557 300.739C605.035 325.951 601.254 351.162 598.733 376.374C597.472 382.677 601.254 383.938 606.296 382.677C630.247 380.156 654.198 378.895 678.149 376.374C683.191 376.374 684.452 373.853 681.931 368.811C676.889 356.205 671.846 344.86 668.064 332.254C664.283 323.43 660.501 315.866 650.416 313.345C644.113 310.824 637.811 308.303 631.508 304.521C625.205 302 617.641 299.479 608.817 295.697ZM905.054 288.133C910.096 284.352 913.878 280.57 917.659 278.049C935.308 264.182 951.695 250.316 969.343 236.45C971.864 233.928 974.386 232.668 970.604 228.886C951.695 212.499 931.526 197.372 912.617 180.984C908.835 177.202 906.314 177.202 903.793 183.505C898.751 196.111 892.448 209.977 886.145 222.583C883.624 228.886 882.363 235.189 884.884 241.492C888.666 247.795 891.187 255.358 893.708 262.922C897.49 270.485 901.272 278.049 905.054 288.133ZM602.514 283.091C603.775 280.57 605.035 279.309 606.296 278.049C612.599 262.922 620.162 247.795 626.465 232.668C627.726 230.147 627.726 226.365 626.465 222.583C621.423 207.456 615.12 192.329 608.817 177.202C607.557 173.421 605.035 172.16 601.254 175.942C581.084 192.329 560.915 207.456 540.746 223.844C536.964 226.365 536.964 228.886 540.746 231.407C560.915 249.055 581.084 265.443 602.514 283.091ZM752.523 358.726C748.742 359.986 746.22 359.987 743.699 361.247C729.833 366.289 715.967 372.592 703.361 377.635C698.318 380.156 698.318 381.416 700.84 385.198C717.227 405.367 732.354 424.276 747.481 444.445C751.263 448.227 752.523 448.227 756.305 444.445C771.432 425.537 786.559 406.628 802.947 388.98C806.728 383.938 806.728 381.416 800.425 378.895C791.601 375.113 784.038 371.332 775.214 367.55C768.911 365.029 761.347 362.508 752.523 358.726ZM755.045 104.089C756.305 104.089 757.566 104.089 757.566 102.828C773.953 96.5252 790.341 88.9617 806.728 82.6588C810.51 81.3982 809.249 78.8771 807.989 76.3559C791.601 56.1866 775.214 36.0173 758.826 15.848C756.305 13.3268 755.045 13.3268 752.523 15.848C736.136 36.0173 719.748 54.926 704.621 75.0953C702.1 78.8771 702.1 81.3982 707.142 82.6588C718.488 87.7011 729.833 92.7434 741.178 96.5252C744.96 99.0463 750.002 101.567 755.045 104.089ZM594.951 78.877C592.43 80.1376 591.169 81.3982 591.169 82.6588C576.042 100.307 563.436 119.216 553.352 140.645C552.091 144.427 553.352 145.688 555.873 146.948C568.479 151.991 581.084 158.294 593.69 163.336C601.254 167.118 603.775 165.857 602.514 157.033C601.254 138.124 598.733 120.476 597.472 101.568C597.472 94.004 596.211 86.4405 594.951 78.877ZM534.443 237.71C534.443 240.231 533.182 241.492 533.182 242.752C534.443 265.443 539.485 288.133 547.049 309.563C548.309 313.345 550.831 313.345 553.352 312.084C565.957 307.042 578.563 302 591.169 296.957C598.733 294.436 598.733 293.176 592.43 288.133C573.521 273.006 555.873 257.879 538.225 241.492C538.225 238.971 536.964 238.971 534.443 237.71ZM603.775 391.501C606.296 394.022 607.557 396.543 608.817 397.804C625.205 411.67 642.853 423.016 661.762 431.84C665.543 433.1 668.064 433.1 669.325 429.318C674.367 415.452 680.67 402.846 685.713 388.98C688.234 383.938 686.973 382.677 681.931 383.937C663.022 386.459 644.113 387.719 625.205 388.98C618.902 390.24 612.599 390.24 603.775 391.501ZM814.292 387.719C796.644 409.149 778.996 429.318 761.347 450.748C763.869 452.009 765.129 452.009 767.65 452.009C789.08 450.748 809.25 446.967 829.419 439.403C834.461 436.882 834.461 434.361 833.201 430.579C828.158 419.234 823.116 406.628 818.074 395.283C818.074 392.762 815.552 390.24 814.292 387.719ZM763.869 8.28453C765.129 12.0663 766.39 13.3268 767.65 14.5874C782.777 33.4961 797.904 51.1443 811.771 70.053C814.292 73.8347 816.813 72.5742 818.074 68.7924C823.116 56.1866 829.419 42.3203 834.461 29.7145C835.722 25.9327 834.461 23.4115 830.679 22.1509C819.334 19.6297 807.989 14.5875 796.644 12.0663C786.559 10.8057 775.214 10.8057 763.869 8.28453ZM908.835 299.479C908.835 303.26 907.575 304.521 908.835 307.042C911.357 329.733 912.617 351.163 915.138 373.853C915.138 375.114 916.399 377.635 917.659 378.895C918.92 377.635 921.441 377.635 922.702 376.374C934.047 359.987 945.392 342.338 955.477 325.951C957.998 322.169 956.737 318.387 951.695 317.127C946.653 314.606 941.61 313.345 935.308 310.824C926.483 307.042 917.659 303.26 908.835 299.479ZM911.357 170.899C916.399 175.942 920.181 178.463 925.223 182.245C940.35 194.85 954.216 206.196 969.343 218.802C970.604 220.062 973.125 220.062 974.386 221.323C974.386 220.062 975.646 218.801 975.646 217.541C973.125 196.111 970.604 175.942 961.78 155.773C960.519 151.991 957.998 151.991 954.216 153.251C945.392 157.033 936.568 160.815 927.744 164.597C923.962 165.857 917.659 168.378 911.357 170.899ZM746.22 10.8057C743.699 10.8057 743.699 9.54509 742.439 9.54509C721.009 12.0662 700.84 14.5874 680.67 22.1509C675.628 23.4115 674.367 25.9327 676.889 30.975C681.931 42.3202 686.973 54.926 690.755 66.2712C693.276 73.8347 694.537 73.8348 699.579 67.5319C712.185 51.1443 726.051 36.0173 738.657 19.6298C741.178 17.1086 743.699 13.3269 746.22 10.8057ZM918.92 82.6588C917.659 83.9194 916.399 83.9193 916.399 85.1799C913.878 109.131 911.357 134.343 908.835 158.294C908.835 162.075 911.357 163.336 913.878 162.075C926.483 157.033 939.089 151.991 950.435 146.948C955.477 144.427 956.737 141.906 954.216 136.864C944.132 121.737 934.047 105.349 923.962 90.2223C923.962 87.7011 920.181 85.18 918.92 82.6588ZM905.054 70.053C902.533 66.2713 901.272 65.0107 900.011 63.7501C893.708 58.7078 887.406 52.4049 879.842 48.6232C871.018 42.3203 860.933 37.2779 850.849 30.975C845.806 28.4539 842.025 28.4538 840.764 34.7567C835.722 47.3625 830.679 59.9683 825.637 72.5741C824.376 76.3559 825.637 78.877 829.419 77.6165C844.546 76.3559 859.673 73.8347 874.8 72.5741C883.624 71.3135 893.708 71.3136 905.054 70.053ZM910.096 293.176C926.483 299.479 941.61 305.782 955.477 312.084C959.259 313.345 960.519 312.084 961.78 308.303C965.562 289.394 970.604 270.485 974.386 251.577C974.386 249.055 974.386 246.534 975.646 242.752C974.386 242.752 974.386 241.492 973.125 241.492C952.956 257.879 932.786 274.267 910.096 293.176ZM902.532 396.543C902.532 395.283 902.532 395.283 901.272 394.022C896.23 394.022 891.187 392.762 886.145 392.762C867.236 390.241 848.327 388.98 828.158 386.459C824.376 386.459 821.855 386.459 823.116 391.501C828.158 404.107 834.461 417.973 839.503 430.579C840.764 434.361 843.285 434.361 845.806 433.1C858.412 425.537 869.757 419.234 881.103 411.67C889.927 406.628 896.23 401.586 902.532 396.543ZM742.439 452.009C742.439 449.488 742.439 449.488 742.439 448.227C727.312 429.318 713.445 410.41 698.318 392.762C695.797 388.98 693.276 390.24 692.016 394.022C688.234 405.367 683.191 415.452 678.149 426.797C674.367 435.621 674.367 438.143 684.452 439.403C699.579 443.185 715.967 446.967 731.094 450.748C733.615 452.009 738.657 452.009 742.439 452.009ZM589.908 377.635C591.169 377.635 591.169 376.374 592.43 376.374C593.69 370.071 593.69 365.029 594.951 358.726C597.472 341.078 598.733 324.69 601.254 307.042C602.514 300.739 599.993 299.479 596.211 300.739C583.606 305.782 572.26 310.824 559.655 315.866C555.873 317.127 554.612 319.648 557.133 324.69C563.436 336.035 569.739 347.381 577.303 358.726C579.824 366.289 584.866 371.332 589.908 377.635ZM596.211 170.899C593.69 168.378 591.169 167.118 589.908 165.857C578.563 160.815 567.218 157.033 557.133 151.991C552.091 149.47 549.57 150.73 548.309 155.773C542.006 173.421 538.225 192.329 535.704 212.499C535.704 213.759 535.703 216.28 536.964 218.802C555.873 203.675 574.782 187.287 596.211 170.899ZM608.817 65.0107C611.338 66.2712 611.338 67.5319 612.599 67.5319C635.289 70.053 657.98 72.5742 680.67 75.0953C686.973 76.3559 686.973 73.8348 684.452 67.5319C680.67 57.4472 675.628 46.102 670.586 36.0174C666.804 28.4539 665.543 27.1933 657.98 32.2356C650.416 36.0173 641.592 41.0596 635.289 46.1019C625.205 51.1443 617.641 58.7077 608.817 65.0107ZM674.367 324.69C674.367 325.951 673.107 325.951 673.107 327.211C678.149 342.338 684.452 357.465 690.755 371.332C690.755 372.592 694.537 373.853 695.797 373.853C699.579 372.592 704.621 370.071 708.403 368.811C718.488 365.029 728.572 361.247 738.657 356.205C738.657 354.944 738.657 354.944 738.657 353.684C718.488 342.338 697.058 334.775 674.367 324.69ZM632.768 240.231C631.508 240.231 631.508 240.231 630.247 240.231C625.205 252.837 618.902 264.182 615.12 275.528C610.078 286.873 611.338 286.873 621.423 291.915C632.768 296.958 645.374 302 656.719 307.042C657.98 307.042 657.98 305.782 659.24 305.782C650.416 284.352 641.592 262.922 632.768 240.231ZM765.129 353.684C765.129 354.944 765.129 354.944 766.39 356.205C780.256 362.508 794.122 368.811 809.249 375.113C810.51 376.374 815.552 373.853 815.552 371.332C818.074 366.289 820.595 359.987 823.116 353.684C826.898 346.12 829.419 337.296 833.201 329.733C833.201 328.472 831.94 328.472 831.94 327.211C809.25 336.035 786.559 344.86 765.129 353.684ZM833.201 136.864C833.201 134.343 833.201 133.082 833.201 133.082C828.158 119.216 821.855 105.349 815.552 91.4828C815.552 90.2222 810.51 88.9617 809.249 88.9617C796.644 94.004 784.038 99.0463 771.432 104.089C770.172 104.089 768.911 106.61 768.911 107.87C768.911 109.131 771.432 110.392 772.693 111.652C777.735 114.173 782.777 115.434 789.08 117.955C802.947 124.258 818.074 130.561 833.201 136.864ZM848.328 312.084C852.109 310.824 852.109 310.824 853.37 310.824C865.976 305.782 878.581 300.739 891.187 295.697C897.49 293.176 897.49 290.655 894.969 285.612C889.927 274.267 884.884 262.922 881.103 251.577C879.842 250.316 878.581 249.055 877.321 247.795C876.06 249.055 873.539 250.316 873.539 252.837C868.497 262.922 864.715 273.006 860.933 283.091C857.152 290.655 853.37 300.739 848.328 312.084ZM852.109 151.991L850.849 153.251C850.849 155.772 852.109 158.294 853.37 159.554C857.152 169.639 860.933 178.463 865.976 188.548C869.757 196.111 872.279 204.935 876.06 212.499C877.321 213.759 878.581 215.02 879.842 216.28C879.842 216.28 882.363 215.02 882.363 213.759C887.405 201.153 893.708 187.287 898.751 174.681C900.011 170.899 898.751 168.378 894.969 167.118C889.927 164.596 884.884 163.336 879.842 160.815C869.757 159.554 860.933 155.772 852.109 151.991ZM630.247 215.02C631.508 215.02 631.508 215.02 632.768 215.02C642.853 194.85 651.677 173.421 661.762 151.991C659.24 151.991 659.24 150.73 657.98 150.73C644.113 155.772 630.247 162.075 617.641 167.118C613.86 168.378 613.86 172.16 615.12 174.681C617.641 179.724 618.902 186.026 621.423 192.329C625.205 201.153 627.726 208.717 630.247 215.02ZM676.889 134.343C680.67 133.082 683.191 133.082 685.713 131.821C702.1 124.258 719.748 117.955 736.136 110.392C737.396 109.131 738.657 107.87 739.918 106.61C738.657 105.349 737.396 104.089 736.136 102.828C724.791 97.7857 713.445 94.004 703.361 88.9617C699.579 87.7011 697.058 87.7012 694.537 92.7435C690.755 101.568 686.973 110.392 683.191 117.955C681.931 124.258 680.67 128.04 676.889 134.343Z" fill="#1a2230"/>
<path d="M753.784 458.312C628.986 462.094 530.661 352.423 526.879 240.232H525.619C529.401 353.684 627.726 463.354 753.784 459.573V458.312ZM528.14 240.232C524.358 107.871 631.508 7.02423 747.481 3.24249V1.98192C631.508 5.76367 523.098 106.61 526.879 240.232H528.14ZM746.22 3.24249C881.103 -0.539256 976.907 106.61 981.949 220.062H983.21C978.167 105.35 882.363 -3.06038 746.22 0.721363V3.24249ZM981.949 221.323C988.252 353.684 878.581 463.354 753.784 458.312V459.573C878.581 463.354 989.512 353.684 983.21 220.062L981.949 221.323ZM874.8 231.408C873.539 228.886 873.539 227.626 873.539 226.365H872.278C872.278 227.626 873.539 228.886 873.539 231.408H874.8ZM873.539 226.365C863.454 202.414 853.37 177.203 843.285 151.991H842.025C852.109 175.942 862.194 201.154 872.278 226.365H873.539ZM842.025 153.252C840.764 149.47 836.982 145.688 833.2 144.428V145.688C836.982 146.949 839.503 150.73 842.025 154.512V153.252ZM833.2 144.428C810.51 134.343 787.82 125.519 765.129 115.434V116.695C787.82 126.779 810.51 135.603 833.2 145.688V144.428ZM765.129 115.434C758.826 112.913 753.784 111.652 746.22 114.174V115.434C752.523 112.913 758.826 114.174 763.869 116.695L765.129 115.434ZM746.22 114.174C723.53 124.258 700.84 133.082 678.149 143.167V144.428C700.84 135.603 723.53 125.519 746.22 115.434V114.174ZM678.149 141.906C673.107 144.428 669.325 148.209 668.064 153.252L669.325 154.512C671.846 149.47 674.367 146.949 679.41 144.428L678.149 141.906ZM668.064 153.252C659.24 174.681 649.156 194.851 640.332 216.281H641.592C650.416 194.851 660.501 174.681 669.325 153.252H668.064ZM640.332 216.281C640.332 217.541 639.071 218.802 639.071 220.062C637.811 221.323 637.81 222.584 637.81 223.844C636.55 226.365 636.55 230.147 637.81 233.929H639.071C637.811 230.147 637.811 227.626 639.071 225.105C639.071 223.844 640.332 222.584 640.332 221.323C641.592 220.062 641.592 218.802 642.853 217.541L640.332 216.281ZM636.55 233.929C641.592 246.535 646.635 259.14 651.677 271.746C656.719 284.352 661.762 296.958 666.804 309.564H668.064C663.022 296.958 657.98 284.352 652.937 271.746C647.895 259.14 642.853 246.535 637.81 233.929H636.55ZM665.543 308.303C666.804 312.085 670.586 315.867 674.367 317.127V315.867C670.586 314.606 668.064 310.824 666.804 307.042L665.543 308.303ZM674.367 317.127C698.318 328.472 722.269 338.557 747.481 348.642V347.381C723.53 337.296 698.318 325.951 674.367 315.867V317.127ZM747.481 348.642C748.742 349.902 751.263 349.902 752.523 349.902C753.784 349.902 756.305 349.902 757.566 348.642V347.381C756.305 347.381 755.045 348.642 752.523 348.642C751.263 348.642 748.742 348.642 747.481 347.381V348.642ZM757.566 349.902C781.517 341.078 806.728 330.993 830.679 320.909V319.648C806.728 329.733 782.777 339.818 757.566 348.642V349.902ZM830.679 320.909C834.461 319.648 839.503 315.867 842.025 310.824L840.764 309.564C839.503 313.345 834.461 317.127 830.679 318.388V320.909ZM840.764 310.824C849.588 291.916 857.151 271.746 865.976 252.837H864.715C855.891 271.746 848.327 291.916 839.503 310.824H840.764ZM865.976 252.837C868.497 246.535 871.018 238.971 874.8 232.668H873.539C871.018 238.971 868.497 246.535 864.715 252.837H865.976ZM608.817 72.5744C607.557 72.5744 606.296 72.5744 605.035 72.5744C603.775 72.5744 603.775 73.8351 602.514 75.0956C602.514 76.3562 602.514 76.3562 601.254 77.6168C601.254 78.8773 601.254 80.138 601.254 80.138H602.514C602.514 78.8774 602.514 77.6168 602.514 77.6168C602.514 76.3562 602.514 76.3562 602.514 75.0956L603.775 73.8351C605.035 73.8351 605.035 73.8351 606.296 73.8351L608.817 72.5744ZM602.514 81.3985C603.775 94.0043 605.035 106.61 606.296 120.477C607.557 133.082 608.817 145.688 610.078 159.554H611.338C610.078 146.949 608.817 134.343 607.557 120.477C606.296 107.871 605.035 95.2649 603.775 81.3985H602.514ZM608.817 158.294C608.817 160.815 610.078 162.076 611.338 163.336C612.599 164.597 615.12 163.336 616.381 163.336V162.076C613.859 163.336 612.599 163.336 612.599 162.076C611.338 162.076 611.338 160.815 611.338 158.294H608.817ZM616.381 162.076C630.247 155.773 645.374 150.73 659.24 144.428V143.167C645.374 149.47 631.508 155.773 616.381 160.815V162.076ZM659.24 144.428C661.762 143.167 663.022 141.906 665.543 140.646C666.804 139.385 669.325 138.125 669.325 135.603H668.064C666.804 136.864 665.543 138.125 664.283 139.385C663.022 140.646 660.501 141.906 659.24 143.167V144.428ZM669.325 136.864C676.888 121.737 683.191 106.61 689.494 91.4831H688.234C681.931 106.61 675.628 121.737 668.064 136.864H669.325ZM689.494 91.4831C690.755 88.962 690.755 86.4408 689.494 85.1802C688.234 83.9196 686.973 82.6591 684.452 82.6591V83.9197C686.973 83.9197 688.234 85.1803 688.234 86.4409C688.234 87.7015 689.494 88.962 688.234 91.4831H689.494ZM684.452 82.6591C681.931 82.6591 679.41 82.6591 676.889 81.3985C674.367 81.3985 671.846 81.3986 669.325 80.138V81.3985C671.846 81.3985 674.367 81.3985 676.889 82.6591C679.41 82.6591 681.931 82.6591 684.452 83.9197V82.6591ZM669.325 80.138C649.156 77.6168 628.986 75.0956 608.817 72.5744V73.8351C628.986 76.3562 649.156 78.8774 669.325 81.3985V80.138ZM907.575 75.0956C893.708 76.3562 879.842 77.6167 867.236 78.8773C854.63 80.1379 840.764 81.3985 828.158 82.6591V83.9197C840.764 82.6591 854.63 81.3986 867.236 80.138C879.842 78.8774 893.708 77.6168 907.575 76.3562V75.0956ZM828.158 83.9197C826.898 83.9197 825.637 83.9196 825.637 85.1802C824.376 85.1802 824.376 86.4409 824.376 86.4409C824.376 87.7015 824.376 87.7014 824.376 88.962C824.376 90.2226 824.376 90.2225 825.637 91.4831H826.898C826.898 90.2225 825.637 90.2226 825.637 88.962C825.637 87.7014 825.637 87.7014 825.637 87.7014C825.637 87.7014 825.637 87.7015 826.898 86.4409C826.898 86.4409 828.158 86.4409 829.419 86.4409L828.158 83.9197ZM823.116 91.4831C829.419 105.35 834.461 119.216 839.503 133.082H840.764C835.722 119.216 829.419 105.35 824.376 91.4831H823.116ZM840.764 133.082C843.285 139.385 845.806 143.167 852.109 145.688V144.428C845.806 141.906 843.285 138.125 840.764 133.082ZM852.109 145.688C864.715 150.73 878.581 155.773 891.187 162.076V160.815C878.581 155.773 865.976 149.47 852.109 144.428V145.688ZM891.187 162.076C893.708 163.336 894.969 163.336 896.23 163.336C897.49 163.336 898.751 163.336 900.011 163.336C901.272 163.336 901.272 162.076 902.532 160.815C902.532 159.554 903.793 158.294 903.793 155.773H902.532C902.532 158.294 902.532 159.554 901.272 160.815C901.272 162.076 900.011 162.076 900.011 163.336C900.011 163.336 898.751 163.336 897.49 163.336C896.229 163.336 894.969 162.076 892.448 162.076H891.187ZM902.532 155.773C905.054 131.822 907.575 106.61 910.096 82.6591H908.835C906.314 106.61 903.793 131.822 901.272 155.773H902.532ZM910.096 82.6591C910.096 81.3985 910.096 80.1379 908.835 78.8773L907.575 77.6168C907.575 77.6168 907.575 76.3562 906.314 76.3562H905.054C905.054 76.3562 905.054 77.6168 906.314 77.6168C906.314 77.6168 906.314 78.8773 907.575 78.8773C907.575 80.1379 908.835 80.138 908.835 81.3985L910.096 82.6591ZM907.575 376.374C907.575 375.114 907.575 375.114 907.575 375.114V376.374C907.575 375.114 907.575 375.114 907.575 375.114V376.374ZM908.835 375.114C906.314 352.423 903.793 329.733 902.532 307.042H901.272C903.793 329.733 905.054 352.423 907.575 375.114H908.835ZM901.272 307.042C901.272 304.521 900.011 302 898.751 300.74C897.49 299.479 894.969 300.74 892.448 300.74V302C894.969 300.739 896.229 300.74 897.49 300.74C898.751 300.74 898.751 303.261 900.011 305.782L901.272 307.042ZM892.448 302C879.842 307.042 867.236 312.085 853.37 317.127V318.388C865.976 313.345 878.581 308.303 892.448 303.261V302ZM854.63 317.127C847.067 319.648 840.764 323.43 839.503 332.254H840.764C842.025 324.691 848.327 320.909 855.891 318.388L854.63 317.127ZM838.243 332.254C838.243 333.515 836.982 334.775 836.982 336.036C836.982 337.296 835.722 338.557 834.461 339.817H835.722C835.722 338.557 836.982 337.296 838.243 336.036C839.503 334.775 839.503 333.515 839.503 330.993L838.243 332.254ZM834.461 341.078C830.679 351.163 825.637 361.247 821.855 371.332H823.116C826.898 361.247 831.94 351.163 835.722 341.078H834.461ZM821.855 370.072C821.855 371.332 820.595 372.593 820.595 373.853C820.595 375.114 820.595 376.374 820.595 376.374C821.855 377.635 823.116 378.896 826.898 378.896V377.635C823.116 377.635 821.855 376.374 821.855 375.114C821.855 375.114 821.855 373.853 821.855 372.593C821.855 371.332 821.855 370.072 823.116 370.072H821.855ZM828.158 380.156C834.461 380.156 840.764 381.417 848.328 382.677V381.417C842.025 380.156 835.722 380.156 828.158 378.896V380.156ZM847.067 381.417C864.715 383.938 883.624 385.198 901.272 387.72V386.459C883.624 383.938 864.715 382.677 847.067 380.156V381.417ZM902.532 387.72C905.054 387.72 907.575 387.72 908.835 386.459C910.096 385.199 910.096 382.677 910.096 380.156H908.835C908.835 382.677 908.835 383.938 907.575 385.198C906.314 386.459 905.054 386.459 902.532 386.459V387.72ZM908.835 380.156C908.835 378.896 908.835 377.635 907.575 375.114H906.314C906.314 376.374 906.314 378.896 907.575 380.156H908.835ZM608.817 295.697C608.817 296.958 607.557 298.218 607.557 298.218C607.557 299.479 607.557 299.479 606.296 300.74H607.557V299.479C607.557 298.218 608.817 298.218 608.817 296.958V295.697ZM606.296 300.74C603.775 325.951 599.993 351.163 597.472 376.374H598.733C601.254 351.163 605.035 325.951 607.557 300.74H606.296ZM597.472 376.374C597.472 378.896 597.472 381.417 598.733 382.677C599.993 383.938 602.514 383.938 605.035 383.938V382.677C602.514 382.677 601.254 382.677 599.993 381.417C598.732 380.156 598.733 378.896 598.733 376.374H597.472ZM606.296 383.938C630.247 381.417 654.198 380.156 678.149 377.635V376.374C654.198 378.896 630.247 380.156 606.296 382.677V383.938ZM678.149 377.635C680.67 377.635 683.191 376.374 683.191 375.114C684.452 373.853 683.191 371.332 683.191 368.811H681.931C683.191 371.332 683.191 372.593 683.191 373.853C683.191 375.114 681.931 375.114 678.149 375.114V377.635ZM683.191 368.811C678.149 356.205 673.107 344.86 669.325 332.254H668.064C671.846 344.86 676.888 356.205 681.931 368.811H683.191ZM669.325 332.254C665.543 323.43 661.762 315.867 651.677 313.345V314.606C661.762 317.127 665.543 324.69 668.064 333.515L669.325 332.254ZM651.677 313.345C647.895 312.085 645.374 310.824 641.592 309.564C637.811 308.303 635.289 307.043 631.508 304.521V305.782C635.289 307.042 637.811 308.303 641.592 310.824C645.374 312.085 647.895 313.345 651.677 314.606V313.345ZM632.768 304.521C625.205 302 617.641 298.218 610.078 295.697V296.958C617.641 300.74 625.205 303.261 632.768 305.782V304.521ZM905.054 288.134C910.096 284.352 913.878 280.57 917.659 278.049L916.399 276.788C912.617 279.31 908.835 283.091 905.054 288.134ZM917.659 278.049C926.484 271.746 935.308 264.183 942.871 257.88C951.695 251.577 960.519 244.013 968.083 237.711L966.822 236.45C957.998 242.753 949.174 250.316 941.61 256.619C934.047 262.922 925.223 270.486 917.659 278.049ZM969.343 236.45C970.604 236.45 970.604 235.189 971.864 235.189C971.864 235.189 973.125 233.929 973.125 232.668C973.125 231.408 973.125 231.408 973.125 230.147C973.125 228.886 971.864 228.886 970.604 227.626L969.343 228.886C970.604 230.147 970.604 230.147 970.604 231.408V232.668C970.604 232.668 970.604 233.929 969.343 233.929C969.343 233.929 969.343 235.189 969.343 236.45ZM970.604 227.626C969.343 227.626 969.343 227.626 970.604 227.626C969.343 227.626 969.343 226.365 970.604 227.626C969.343 226.365 969.343 226.365 970.604 227.626C969.343 226.365 969.343 226.365 969.343 226.365L968.083 227.626C969.343 228.886 969.343 228.886 970.604 227.626ZM912.617 179.724C911.357 178.463 910.096 178.463 910.096 177.203C908.835 177.203 908.835 175.942 907.575 177.203C906.314 177.203 906.314 178.463 905.054 178.463C903.793 179.724 903.793 180.984 903.793 182.245H905.054C905.054 180.984 906.314 179.724 906.314 179.724L907.575 178.463H908.835C908.835 179.724 910.096 180.984 912.617 179.724ZM902.532 182.245C897.49 194.851 891.187 208.717 884.884 221.323H886.145C892.448 208.717 897.49 194.851 903.793 182.245H902.532ZM884.884 221.323C882.363 227.626 881.103 233.929 883.624 240.232L884.884 238.971C881.103 232.668 883.624 227.626 886.145 221.323H884.884ZM884.884 241.492C888.666 247.795 891.187 255.359 893.708 262.922H894.969C892.448 255.359 889.927 249.056 886.145 241.492H884.884ZM893.708 261.662C897.49 270.486 901.272 278.049 905.054 286.873H906.314C902.532 278.049 898.751 269.225 894.969 261.662H893.708ZM602.514 284.352C603.775 283.091 603.775 283.091 605.035 281.831C606.296 280.57 606.296 280.57 606.296 279.31L605.035 278.049C605.035 279.31 603.775 279.31 603.775 280.57C602.514 280.57 602.514 281.831 602.514 284.352ZM606.296 278.049C612.599 262.922 620.162 247.795 626.465 232.668H625.205C618.902 247.795 611.338 262.922 605.035 278.049H606.296ZM626.465 232.668C626.465 231.408 627.726 228.886 627.726 227.626C627.726 226.365 627.726 223.844 626.465 222.584H625.205C625.205 223.844 626.465 225.105 626.465 227.626C626.465 228.886 626.465 231.408 625.205 231.408L626.465 232.668ZM626.465 222.584C621.423 207.457 615.12 192.33 608.817 177.203H607.557C613.859 192.33 618.902 207.457 625.205 222.584H626.465ZM608.817 177.203C608.817 175.942 607.557 174.682 607.557 174.682C607.557 173.421 606.296 173.421 605.035 173.421C603.775 173.421 603.775 173.421 602.514 173.421C601.254 173.421 601.254 174.682 599.993 174.682L601.254 175.942C602.514 174.681 602.514 174.682 603.775 174.682H605.035C605.035 174.682 606.296 174.681 606.296 175.942C606.296 175.942 607.557 177.203 607.557 178.463L608.817 177.203ZM601.254 175.942C581.084 192.33 560.915 207.457 540.746 223.844L542.006 225.105C560.915 208.717 581.084 192.33 601.254 175.942ZM540.746 223.844C538.225 225.105 538.225 226.365 538.225 228.886C538.225 230.147 539.485 231.408 540.746 233.929L542.006 232.668C540.746 231.408 539.485 230.147 539.485 228.886C538.225 227.626 539.485 226.365 540.746 223.844ZM539.485 232.668C559.654 249.056 579.824 266.704 601.254 284.352L602.514 283.091C581.084 265.443 560.915 247.795 539.485 232.668ZM752.523 357.466C750.002 358.726 746.22 358.726 743.699 359.987V361.247C746.22 359.987 748.742 359.987 752.523 358.726V357.466ZM743.699 361.247C729.833 366.29 715.966 372.593 703.361 377.635V378.896C717.227 373.853 731.093 367.55 743.699 362.508V361.247ZM703.361 377.635C702.1 377.635 700.84 378.896 699.579 378.896C698.318 378.896 698.318 380.156 698.318 381.417C698.318 382.677 698.318 382.677 698.318 383.938C698.318 385.198 699.579 385.199 699.579 386.459L700.84 385.198C699.579 383.938 699.579 383.938 699.579 382.677C699.579 381.417 699.579 381.417 699.579 381.417C699.579 381.417 699.579 380.156 700.84 380.156C702.1 380.156 702.1 378.896 703.361 378.896V377.635ZM700.84 386.459C717.227 406.628 732.354 425.537 747.481 445.706L748.742 444.446C733.615 425.537 717.227 405.368 700.84 386.459ZM747.481 445.706C748.742 448.228 751.263 449.488 752.523 449.488C753.784 449.488 756.305 448.228 757.566 445.706L756.305 444.446C755.045 446.967 753.784 446.967 752.523 446.967C751.263 448.227 751.263 446.967 747.481 445.706ZM757.566 445.706C772.693 426.798 787.82 407.889 804.207 390.241L802.947 388.98C787.82 407.889 771.432 425.537 757.566 445.706ZM804.207 390.241C805.468 388.98 806.728 387.72 806.728 386.459C806.728 385.199 807.989 383.938 806.728 383.938C806.728 382.677 805.468 382.677 805.468 381.417C804.207 380.156 802.947 380.156 801.686 378.896V380.156C802.947 381.417 804.207 381.417 805.468 382.677C806.728 382.677 806.728 383.938 806.728 383.938C806.728 383.938 806.728 385.199 806.728 386.459C805.468 386.459 804.207 387.72 804.207 390.241ZM801.686 378.896C797.904 377.635 792.862 375.114 789.08 373.853C785.298 372.593 780.256 370.071 776.474 368.811V370.072C780.256 371.332 785.298 373.853 789.08 375.114C792.862 376.374 797.904 378.896 801.686 380.156V378.896ZM776.474 367.55C768.911 363.769 761.347 361.247 752.523 357.466V358.726C760.087 362.508 767.65 365.029 776.474 368.811V367.55ZM755.045 104.089C756.305 104.089 756.305 104.089 756.305 104.089H757.566L756.305 102.828C756.305 102.828 756.305 102.828 755.045 102.828H753.784L755.045 104.089ZM757.566 104.089C773.953 97.786 790.341 90.2226 806.728 83.9197V82.6591C790.341 90.2226 773.953 96.5255 757.566 102.828V104.089ZM806.728 82.6591C807.989 82.6591 807.989 81.3985 809.249 81.3985C809.249 80.138 810.51 80.1379 810.51 78.8773C810.51 77.6167 810.51 77.6168 810.51 76.3562C810.51 75.0956 809.249 75.0957 809.249 73.8351L807.989 75.0956L809.249 76.3562V77.6168V78.8773L807.989 80.138L806.728 82.6591ZM807.989 75.0956C791.601 54.9263 775.214 34.757 758.826 14.5877L757.566 15.8483C773.953 36.0176 790.341 56.1869 807.989 75.0956ZM758.826 14.5877C757.566 13.3271 756.305 12.0666 755.045 12.0666C753.784 12.0666 752.523 13.3271 751.263 14.5877L752.523 15.8483C753.784 14.5877 753.784 14.5877 755.045 14.5877C755.045 14.5877 756.305 14.5877 758.826 14.5877ZM751.263 14.5877C743.699 24.6724 734.875 34.757 727.312 44.8417C719.748 54.9263 710.924 65.011 703.361 75.0956L704.621 76.3562C712.185 66.2716 721.009 56.1869 728.572 46.1022C736.136 36.0176 744.96 25.933 751.263 14.5877ZM703.361 73.8351C702.1 75.0957 700.84 77.6167 700.84 78.8773C700.84 80.1379 702.1 81.3985 704.621 82.6591V81.3985C702.1 80.138 702.1 78.8773 700.84 78.8773C702.1 78.8773 703.361 76.3562 703.361 73.8351ZM704.621 83.9197C715.967 88.962 727.312 94.0043 738.657 97.786V96.5255C727.312 91.4831 715.967 86.4408 704.621 82.6591V83.9197ZM738.657 97.786C743.699 100.307 748.742 102.828 753.784 104.089V102.828C748.742 100.307 743.699 99.0466 738.657 96.5255V97.786ZM594.951 77.6168C593.69 78.8773 592.43 78.8774 592.43 80.138C591.169 80.138 591.169 81.3985 591.169 81.3985L592.43 82.6591L593.69 81.3985C593.69 80.138 594.951 80.1379 594.951 77.6168ZM591.169 81.3985C576.042 99.0467 563.436 117.955 553.352 139.385L554.612 140.646C563.436 119.216 577.303 100.307 591.169 81.3985ZM552.091 139.385C550.83 140.646 550.83 143.167 552.091 144.428C552.091 145.688 554.612 146.949 555.873 146.949V145.688C554.612 145.688 553.352 144.428 553.352 144.428C553.352 144.428 553.352 143.167 553.352 141.906L552.091 139.385ZM555.873 145.688C568.479 150.73 581.084 157.033 593.69 162.076V160.815C581.084 155.773 568.479 149.47 555.873 144.428V145.688ZM593.69 162.076C596.211 163.336 597.472 163.336 598.733 163.336C599.993 163.336 601.254 163.336 602.514 163.336C603.775 163.336 603.775 162.076 603.775 160.815C603.775 159.554 603.775 158.294 603.775 155.773H602.514C602.514 158.294 602.514 159.554 602.514 160.815C602.514 162.076 602.514 162.076 601.254 163.336C601.254 163.336 599.993 163.336 598.733 163.336C597.472 163.336 596.211 162.076 593.69 162.076ZM603.775 155.773C602.514 136.864 599.993 119.216 598.733 100.307H597.472C598.733 119.216 601.254 136.864 602.514 155.773H603.775ZM598.733 100.307C598.733 94.0043 597.472 86.4408 596.211 78.8773H594.951C596.211 87.7014 596.211 94.0043 597.472 100.307H598.733ZM534.443 237.711C534.443 238.971 534.443 238.971 533.182 240.232C533.182 241.492 533.182 241.492 533.182 242.753H534.443C534.443 242.753 534.443 241.492 534.443 240.232C534.443 238.971 534.443 238.971 535.703 237.711H534.443ZM533.182 242.753C534.443 265.443 539.485 288.134 547.049 309.564H548.309C539.485 288.134 535.703 265.443 534.443 242.753H533.182ZM547.049 309.564C548.309 310.824 548.309 312.085 549.57 313.345C550.83 313.345 552.091 313.345 554.612 312.085V310.824C553.352 312.085 552.091 312.085 550.83 312.085C549.57 312.085 549.57 310.824 548.309 309.564H547.049ZM554.612 312.085C567.218 307.042 579.824 302 592.43 296.958V295.697C579.824 300.739 567.218 305.782 554.612 310.824V312.085ZM592.43 296.958C594.951 295.697 596.211 295.697 597.472 294.437C598.733 293.176 598.732 293.176 599.993 291.916C599.993 290.655 599.993 289.394 598.733 289.394C597.472 288.134 596.211 286.873 594.951 285.613L593.69 286.873C594.951 288.134 596.211 289.394 597.472 289.394C598.733 290.655 598.733 290.655 598.733 290.655C598.733 290.655 598.733 291.916 597.472 291.916C596.211 291.916 594.951 293.176 593.69 294.437L592.43 296.958ZM594.951 285.613C586.127 278.049 577.303 270.486 567.218 262.922C558.394 255.359 549.57 247.795 539.485 240.232L538.225 241.492C547.049 249.056 555.873 256.619 565.957 264.183C574.781 271.746 583.606 279.31 594.951 285.613ZM539.485 238.971C539.485 238.971 538.225 237.711 536.964 237.711C535.703 237.711 535.703 236.45 534.443 236.45L533.182 237.711C534.443 237.711 534.443 238.971 535.703 238.971C536.964 240.232 538.225 240.232 539.485 238.971ZM603.775 391.501C603.775 392.762 605.035 392.762 605.035 394.022C605.035 395.283 606.296 395.283 606.296 395.283C607.557 396.544 607.557 397.804 608.817 397.804L610.078 396.544C608.817 395.283 608.817 395.283 607.557 394.022L606.296 392.762C605.035 392.762 605.035 391.501 603.775 391.501ZM608.817 397.804C625.205 411.671 642.853 423.016 661.762 431.84L663.022 430.579C642.853 423.016 625.205 410.41 608.817 397.804ZM661.762 433.101C664.283 434.361 665.543 434.361 666.804 434.361C668.064 434.361 669.325 431.84 670.586 430.579H669.325C668.064 433.101 668.064 433.1 666.804 434.361C665.543 434.361 664.283 434.361 663.022 433.101H661.762ZM670.586 429.319C675.628 415.452 681.931 402.847 686.973 388.98H685.713C680.67 402.847 674.367 415.452 669.325 429.319H670.586ZM686.973 388.98C686.973 387.72 688.234 386.459 688.234 386.459C688.234 385.199 688.234 385.198 688.234 383.938C688.234 383.938 686.973 382.677 685.713 382.677C684.452 382.677 683.191 382.677 681.931 382.677V383.938C683.191 383.938 684.452 383.938 684.452 383.938C685.713 383.938 685.713 383.938 685.713 383.938C685.713 383.938 685.713 383.938 685.713 385.198C685.713 386.459 685.713 386.459 684.452 387.72L686.973 388.98ZM681.931 382.677C663.022 385.198 644.113 386.459 625.205 387.72V388.98C644.113 387.72 663.022 385.198 681.931 383.938V382.677ZM625.205 387.72C621.423 387.72 618.902 388.98 615.12 388.98C611.338 388.98 607.557 390.241 603.775 390.241V391.501C607.557 391.501 611.338 390.241 615.12 390.241C618.902 390.241 621.423 388.98 625.205 388.98V387.72ZM813.031 387.72C804.207 397.804 795.383 409.149 786.559 419.234C777.735 429.319 768.911 440.664 760.087 450.749L761.347 452.009C770.171 441.925 778.996 430.579 787.82 420.495C796.644 409.15 805.468 399.065 813.031 387.72ZM761.347 452.009C762.608 452.009 763.869 453.27 765.129 453.27C766.39 453.27 766.39 453.27 767.65 453.27V452.009C767.65 452.009 766.39 452.009 765.129 452.009C763.869 452.009 762.608 450.749 761.347 450.749V452.009ZM767.65 453.27C789.08 452.009 809.249 448.227 830.679 440.664V439.403C810.51 446.967 790.341 450.749 768.911 452.009L767.65 453.27ZM830.679 440.664C833.201 439.403 834.461 438.143 835.722 436.882C835.722 435.622 835.722 433.101 834.461 430.579H833.2C834.461 433.101 834.461 434.361 834.461 435.622C834.461 436.882 833.201 438.143 830.679 439.403V440.664ZM834.461 430.579C831.94 424.277 829.419 419.234 826.898 412.931C824.376 406.628 821.855 401.586 819.334 395.283H818.074C820.595 401.586 823.116 406.628 825.637 412.931C828.158 419.234 830.679 424.277 833.2 430.579H834.461ZM819.334 395.283C818.074 392.762 816.813 390.241 814.292 387.72L813.031 388.98C815.552 391.501 816.813 394.023 816.813 395.283H819.334ZM762.608 9.54539C763.869 10.806 763.869 12.0666 765.129 13.3272C765.129 14.5877 766.39 14.5877 766.39 15.8483L767.65 14.5877C767.65 14.5877 766.39 13.3272 766.39 12.0666C766.39 10.806 765.129 9.54541 763.869 8.28483L762.608 9.54539ZM766.39 15.8483C773.953 24.6724 781.517 34.7571 789.08 43.5811C796.644 52.4052 804.207 62.4898 811.771 71.3139L813.031 70.0533C805.468 61.2292 797.904 51.1446 790.341 42.3206C782.777 33.4965 775.214 23.4118 766.39 15.8483ZM810.51 71.3139C811.771 72.5744 813.031 73.8351 815.552 73.8351C816.813 73.8351 818.074 72.5745 818.074 70.0533H816.813C816.813 71.3139 815.552 72.5744 814.292 72.5744C814.292 71.3138 813.031 71.3139 810.51 71.3139ZM819.334 70.0533C824.376 57.4475 830.679 43.5811 835.722 30.9753H834.461C829.419 43.5811 823.116 57.4475 818.074 70.0533H819.334ZM834.461 30.9753C835.722 28.4542 835.722 27.1936 834.461 25.933C833.2 24.6724 831.94 23.4119 829.419 23.4119V24.6724C831.94 24.6724 833.2 25.933 833.2 27.1935C833.2 28.4541 833.2 29.7147 833.2 30.9753H834.461ZM830.679 22.1512C824.376 20.8906 819.334 18.3695 814.292 17.1089C809.249 15.8484 802.947 13.3272 796.644 12.0666V13.3272C802.947 14.5877 807.989 15.8483 814.292 18.3695C819.334 19.6301 825.637 22.1513 831.94 23.4119L830.679 22.1512ZM796.644 12.0666C786.559 9.54545 776.474 9.54543 763.869 7.02427V8.28483C776.474 9.54541 786.559 10.806 796.644 13.3272V12.0666ZM907.575 299.479C907.575 300.74 907.575 302 907.575 303.261C907.575 304.521 907.575 305.782 907.575 307.042H908.835C908.835 305.782 908.835 304.521 908.835 303.261C908.835 302 908.835 300.74 908.835 298.218L907.575 299.479ZM907.575 307.042C910.096 329.733 911.357 351.163 913.878 373.853H915.138C912.617 351.163 911.356 329.733 908.835 307.042H907.575ZM913.878 373.853C913.878 375.114 913.878 376.374 915.138 376.374C915.138 377.635 916.399 377.635 916.399 378.896H917.659C917.659 377.635 916.399 377.635 916.399 376.374C916.399 375.114 915.138 375.114 915.138 373.853H913.878ZM916.399 380.156C917.659 380.156 917.659 380.156 916.399 380.156C917.659 378.896 918.92 378.896 918.92 378.896C920.181 378.896 920.181 377.635 921.441 376.374L920.181 375.114L918.92 376.374H917.659C917.659 376.374 916.399 376.374 916.399 377.635V380.156ZM921.441 377.635C932.786 361.247 944.132 343.599 954.216 327.212L952.956 325.951C942.871 342.339 931.526 359.987 921.441 377.635ZM955.477 327.212C956.737 324.69 957.998 323.43 956.737 320.909C955.477 319.648 954.216 317.127 951.695 317.127V318.388C954.216 319.648 955.477 320.909 955.477 322.169C955.477 322.169 955.477 323.43 955.477 327.212ZM951.695 315.867C946.653 313.345 941.61 312.085 935.307 309.564V310.824C940.35 313.345 945.392 315.867 951.695 317.127V315.867ZM935.307 309.564C926.483 305.782 917.659 303.261 908.835 298.218V299.479C918.92 303.261 927.744 307.043 935.307 310.824V309.564ZM911.357 172.16C916.399 177.203 920.181 179.724 925.223 183.506L926.483 182.245C921.441 178.463 917.659 174.681 911.357 172.16ZM925.223 183.506C940.35 196.111 954.216 207.457 969.343 220.062L970.604 218.802C955.477 206.196 940.35 194.851 925.223 183.506ZM969.343 220.062C970.604 221.323 970.604 221.323 971.864 221.323C973.125 221.323 973.125 222.584 974.386 222.584L975.646 221.323C974.386 221.323 973.125 220.062 973.125 220.062C970.604 218.802 970.604 218.802 969.343 220.062ZM975.646 221.323C975.646 220.062 975.646 220.062 976.907 218.802C976.907 217.541 978.167 217.541 976.907 216.281H975.646V217.541C975.646 217.541 974.386 218.802 974.386 220.062L975.646 221.323ZM976.907 217.541C974.386 196.111 971.864 174.681 963.04 154.512H961.78C969.343 174.681 973.125 194.851 975.646 216.281L976.907 217.541ZM963.04 154.512C961.78 151.991 960.519 150.73 959.259 150.73C957.998 150.73 955.477 150.73 954.216 151.991V153.252C955.477 151.991 956.737 151.991 957.998 151.991C959.259 151.991 960.519 153.252 960.519 154.512H963.04ZM954.216 151.991C950.434 153.252 945.392 155.773 941.61 157.033C937.829 158.294 932.786 160.815 929.005 162.076V163.336C932.786 162.076 937.829 159.555 941.61 158.294C945.392 157.033 950.434 154.512 954.216 153.252V151.991ZM927.744 162.076C922.702 164.597 917.659 167.118 911.357 169.639L912.617 170.9C918.92 167.118 923.962 165.857 929.005 163.336L927.744 162.076ZM746.22 9.54539C744.96 9.54539 744.96 9.54539 743.699 9.54539H742.439V10.806C742.439 10.806 742.439 10.806 743.699 10.806C743.699 10.806 744.96 10.806 746.22 10.806V9.54539ZM742.439 8.28483C721.009 10.806 700.84 13.3271 680.67 20.8906V22.1512C700.84 14.5877 721.009 10.806 742.439 9.54539V8.28483ZM679.41 22.1512C676.889 23.4118 675.628 24.6724 674.367 25.933C673.107 27.1936 674.367 29.7147 674.367 32.2359H675.628C674.367 29.7147 674.367 28.4541 675.628 27.1935C675.628 25.933 676.889 24.6724 679.41 24.6724V22.1512ZM675.628 30.9753C680.67 42.3205 685.713 54.9263 689.494 66.2715H690.755C685.713 54.9263 680.67 42.3205 676.889 30.9753H675.628ZM689.494 66.2715C690.755 67.5321 690.755 70.0533 692.015 70.0533C693.276 71.3139 693.276 71.3138 694.537 72.5744C695.797 72.5744 697.058 72.5744 697.058 71.3139C698.318 70.0533 699.579 68.7928 700.84 67.5322L699.579 66.2715C698.318 67.5321 697.058 68.7927 697.058 70.0533C695.797 71.3139 695.797 71.3139 695.797 71.3139C695.797 71.3139 694.537 71.3139 694.537 70.0533C694.537 68.7927 693.276 67.5321 692.015 66.2715H689.494ZM700.84 68.7927C713.445 52.4052 727.312 37.2782 739.918 20.8906L738.657 19.6301C724.791 36.0176 712.185 51.1446 700.84 68.7927ZM739.918 20.8906C742.439 18.3695 744.96 14.5878 747.481 10.806L746.22 9.54539C742.439 13.3271 739.918 17.1089 739.918 20.8906ZM917.659 82.6591C916.399 83.9197 916.399 83.9197 916.399 83.9197C916.399 83.9197 916.399 83.9196 916.399 85.1802H917.659C917.659 85.1802 917.659 83.9197 917.659 82.6591ZM915.138 85.1802C913.878 97.786 912.617 109.131 911.357 121.737C910.096 134.343 908.835 145.688 907.575 158.294H908.835C910.096 145.688 911.357 134.343 912.617 121.737C913.878 109.131 915.138 97.786 916.399 85.1802H915.138ZM907.575 158.294C907.575 159.555 907.575 160.815 907.575 160.815C907.575 162.076 908.835 162.076 908.835 162.076C910.096 162.076 912.617 162.076 913.878 162.076V160.815C912.617 160.815 911.356 162.076 910.096 160.815C910.096 160.815 908.835 160.815 908.835 159.554C908.835 159.554 908.835 158.294 908.835 157.033L907.575 158.294ZM913.878 162.076C920.181 159.555 926.483 157.033 932.786 154.512C939.089 151.991 945.392 149.47 951.695 146.949V145.688C945.392 148.209 939.089 150.73 932.786 153.252C926.483 155.773 920.181 158.294 913.878 160.815V162.076ZM951.695 146.949C954.216 145.688 956.737 144.428 956.737 143.167C957.998 140.646 956.737 139.385 955.477 136.864L954.216 138.125C955.477 140.646 955.477 141.906 955.477 143.167C955.477 144.428 952.956 145.688 950.435 146.949H951.695ZM955.477 136.864C945.392 121.737 935.308 105.35 925.223 90.2226L923.962 91.4831C934.047 106.61 944.132 121.737 954.216 138.125L955.477 136.864ZM925.223 90.2226C923.962 88.962 923.962 87.7015 922.702 86.4409C921.441 85.1803 920.181 83.9197 918.92 82.6591L917.659 83.9197C918.92 85.1802 920.181 86.4409 921.441 87.7014C922.702 88.962 923.962 90.2225 923.962 91.4831L925.223 90.2226ZM905.054 70.0533C903.793 68.7927 902.532 67.5321 901.272 66.2715C900.011 65.0109 900.011 65.011 898.751 63.7504L897.49 65.011C898.751 65.011 898.751 66.2716 900.011 67.5322C901.272 67.5322 902.532 68.7927 905.054 70.0533ZM900.011 63.7504C893.708 58.7081 887.406 52.4052 879.842 48.6235L878.581 49.884C886.145 53.6658 892.448 58.7081 900.011 63.7504ZM879.842 48.6235C871.018 42.3206 860.933 37.2782 850.849 30.9753L849.588 32.2359C859.673 37.2782 868.497 43.5811 878.581 49.884L879.842 48.6235ZM850.849 30.9753C848.327 29.7147 845.806 28.4542 844.546 29.7148C842.025 30.9753 840.764 32.2359 839.503 36.0177H840.764C842.025 33.4965 843.285 30.9753 844.546 30.9753C845.806 30.9753 848.327 30.9753 849.588 32.2359L850.849 30.9753ZM839.503 34.757C834.461 47.3628 829.419 59.9686 824.376 72.5744H825.637C830.679 59.9686 836.982 47.3628 840.764 34.757H839.503ZM823.116 72.5744C821.855 75.0956 821.855 76.3562 823.116 77.6168C823.116 77.6168 824.376 78.8773 825.637 78.8773C826.898 78.8773 826.898 78.8773 828.158 78.8773V77.6168C826.898 77.6168 826.898 77.6168 825.637 77.6168H824.376C824.376 77.6168 824.376 76.3562 824.376 73.8351L823.116 72.5744ZM828.158 78.8773C843.285 77.6167 858.412 75.0957 873.539 73.8351V72.5744C858.412 73.835 843.285 76.3562 828.158 77.6168V78.8773ZM874.8 73.8351C884.884 72.5745 893.708 71.3139 905.054 70.0533V68.7927C893.708 70.0533 884.884 70.0533 874.8 72.5744V73.8351ZM910.096 293.176C926.483 299.479 941.61 305.782 955.477 312.085V310.824C941.61 304.521 926.483 299.479 910.096 291.916V293.176ZM955.477 312.085C956.737 313.345 959.259 313.345 960.519 312.085C961.78 310.824 963.04 309.564 963.04 308.303H961.78C961.78 309.564 960.519 310.824 960.519 310.824C959.259 310.824 957.998 310.824 956.737 310.824L955.477 312.085ZM963.04 308.303C965.561 299.479 966.822 289.394 969.343 280.57C971.864 271.746 973.125 261.662 975.646 252.837H974.386C971.864 261.662 970.604 271.746 968.083 280.57C965.562 289.394 964.301 299.479 961.78 308.303H963.04ZM975.646 251.577C975.646 249.056 975.646 245.274 976.907 242.753H975.646C975.646 245.274 975.646 249.056 974.386 251.577H975.646ZM975.646 242.753C974.386 242.753 974.386 241.492 974.386 241.492L973.125 242.753C973.125 242.753 974.386 244.013 975.646 244.013V242.753ZM973.125 241.492C952.956 257.88 931.526 274.267 910.096 291.916L911.357 293.176C932.786 275.528 954.216 259.14 973.125 241.492ZM902.532 396.544C902.532 395.283 902.532 395.283 902.532 396.544C902.532 395.283 901.272 395.283 901.272 394.022L900.011 395.283C900.011 395.283 900.011 395.283 900.011 396.544V397.804L902.532 396.544ZM901.272 394.022C898.751 394.022 896.23 394.023 893.708 392.762C891.187 392.762 888.666 392.762 886.145 391.501V392.762C888.666 392.762 891.187 392.762 893.708 394.022C896.23 394.022 898.751 394.023 901.272 395.283V394.022ZM887.405 391.501C877.321 390.241 868.497 388.98 858.412 387.72C848.327 386.459 839.503 385.198 829.419 383.938V385.198C839.503 386.459 848.327 387.72 858.412 388.98C868.497 390.241 877.321 391.501 887.405 392.762V391.501ZM829.419 385.198C828.158 385.198 828.158 385.198 826.898 385.198C825.637 385.198 825.637 385.198 824.376 385.198C823.116 385.198 823.116 386.459 823.116 387.72C823.116 388.98 823.116 390.241 824.376 391.501H825.637C825.637 390.241 824.376 388.98 825.637 388.98V387.72H826.898C828.158 387.72 828.158 387.72 829.419 387.72V385.198ZM823.116 391.501C828.158 405.368 834.461 417.974 839.503 430.579H840.764C835.722 416.713 829.419 404.107 824.376 391.501H823.116ZM839.503 430.579C840.764 431.84 840.764 433.1 842.025 434.361C843.285 434.361 844.546 434.361 847.067 433.101L845.806 431.84C844.546 433.1 843.285 433.101 842.025 433.101C840.764 433.101 840.764 431.84 839.503 430.579ZM847.067 433.101C858.412 425.537 871.018 419.234 882.363 411.671L881.103 410.41C869.757 417.974 857.152 424.276 845.806 431.84L847.067 433.101ZM883.624 411.671C889.927 406.628 896.23 401.586 902.532 396.544L901.272 395.283C894.969 400.325 888.666 406.628 882.363 410.41L883.624 411.671ZM743.699 452.009C743.699 450.749 743.699 450.749 743.699 449.488C743.699 449.488 743.699 449.488 743.699 448.227C743.699 448.227 743.699 448.227 743.699 446.967L742.439 448.227C742.439 448.227 742.439 449.488 742.439 450.749L743.699 452.009ZM742.439 448.227C727.312 429.319 713.445 410.41 698.318 392.762L697.058 394.022C712.185 411.671 727.312 430.579 742.439 448.227ZM698.318 392.762C697.058 391.501 695.797 390.241 693.276 390.241C692.015 390.241 690.755 392.762 689.494 394.022H690.755C692.015 391.501 692.015 391.501 693.276 391.501C694.537 391.501 695.797 392.762 698.318 392.762ZM690.755 394.022C686.973 405.368 681.931 415.452 676.889 426.798H678.149C683.191 415.452 686.973 405.368 692.015 394.022H690.755ZM676.889 428.058C675.628 430.579 675.628 431.84 674.367 433.101C674.367 434.361 674.367 435.622 674.367 436.882C674.367 438.143 675.628 439.403 676.889 439.403C678.149 440.664 680.67 440.664 681.931 441.925V440.664C679.41 440.664 678.149 439.403 676.889 439.403C675.628 439.403 675.628 438.143 674.367 436.882C674.367 435.622 674.367 435.622 674.367 434.361C674.367 433.1 675.628 431.84 675.628 429.319L676.889 428.058ZM683.191 441.925C698.318 445.706 714.706 449.488 729.833 453.27V452.009C714.706 448.228 698.318 445.706 683.191 440.664V441.925ZM729.833 452.009C732.354 452.009 733.615 452.009 736.136 452.009C738.657 452.009 739.918 452.009 742.439 452.009V450.749C739.918 450.749 738.657 450.749 736.136 450.749C733.615 450.749 732.354 450.749 729.833 450.749V452.009ZM589.908 378.896C591.169 377.635 592.43 377.635 592.43 377.635L591.169 376.374H589.908H588.648L589.908 378.896ZM592.43 376.374C593.69 370.072 593.69 365.029 594.951 358.726H593.69C593.69 365.029 592.43 370.072 591.169 376.374H592.43ZM594.951 359.987C596.211 351.163 597.472 342.339 597.472 334.775C598.733 325.951 599.993 317.127 599.993 309.564H598.733C597.472 318.388 596.211 327.212 596.211 334.775C594.951 343.599 593.69 352.423 593.69 359.987H594.951ZM599.993 308.303C599.993 307.042 599.993 305.782 599.993 304.521C599.993 303.261 599.993 302 598.733 302C597.472 300.739 597.472 300.74 596.211 300.74C594.951 300.74 593.69 300.739 592.43 302V303.261C593.69 303.261 594.951 302 594.951 302C596.211 302 596.211 302 596.211 302C596.211 302 596.211 303.261 597.472 303.261C597.472 304.521 597.472 305.782 597.472 307.042L599.993 308.303ZM593.69 302C581.084 307.042 569.739 312.085 557.133 317.127V318.388C569.739 313.345 581.084 308.303 593.69 303.261V302ZM557.133 317.127C554.612 318.388 553.352 318.388 553.352 320.909C552.091 322.169 553.352 324.69 554.612 327.212L555.873 325.951C554.612 323.43 554.612 322.169 554.612 320.909C554.612 319.648 555.873 318.388 558.394 318.388L557.133 317.127ZM554.612 325.951C560.915 337.296 567.218 348.642 574.781 359.987L576.042 358.726C568.479 347.381 562.176 336.036 555.873 324.691L554.612 325.951ZM574.781 359.987C578.563 366.29 584.866 372.593 588.648 377.635L589.908 376.374C584.866 371.332 579.824 365.029 574.781 359.987ZM596.211 170.9C594.951 169.639 593.69 169.639 592.43 168.379C591.169 167.118 589.908 167.118 588.648 165.857V167.118C589.908 167.118 589.908 168.379 591.169 168.379C592.43 169.639 593.69 170.9 596.211 170.9ZM589.908 165.857C578.563 160.815 567.218 157.033 557.133 151.991V153.252C568.479 158.294 579.824 162.076 589.908 167.118V165.857ZM555.873 151.991C553.352 150.73 552.091 150.73 549.57 150.73C548.309 150.73 547.049 153.252 545.788 155.773H547.049C548.309 153.252 549.57 151.991 549.57 151.991C550.83 151.991 552.091 151.991 554.612 153.252L555.873 151.991ZM545.788 155.773C539.485 173.421 535.703 193.59 533.182 212.499H534.443C536.964 193.59 540.746 174.682 547.049 155.773H545.788ZM533.182 212.499C533.182 213.76 533.182 213.759 533.182 215.02C533.182 216.281 533.182 217.541 534.443 218.802H535.703C535.703 217.541 535.703 216.281 534.443 215.02C534.443 213.759 534.443 213.76 534.443 212.499H533.182ZM535.703 220.062C555.873 203.675 576.042 188.548 596.211 172.16L594.951 170.9C574.781 187.287 554.612 202.414 535.703 220.062ZM607.557 65.011C608.817 66.2715 608.817 66.2715 610.078 66.2715C610.078 66.2715 610.078 66.2715 611.338 66.2715C611.338 66.2715 611.338 66.2715 612.599 66.2715V65.011C610.078 66.2715 610.078 65.011 607.557 65.011ZM611.338 67.5322C634.029 70.0533 656.719 72.5745 679.41 75.0956V73.8351C656.719 71.3139 634.029 68.7927 611.338 66.2715V67.5322ZM679.41 76.3562C680.67 76.3562 681.931 76.3562 683.191 76.3562C684.452 76.3562 684.452 75.0956 685.713 75.0956C685.713 73.8351 685.713 73.835 685.713 72.5744C685.713 71.3138 685.713 70.0533 684.452 68.7927H683.191C683.191 70.0533 684.452 71.3138 684.452 72.5744C684.452 73.835 684.452 73.8351 684.452 73.8351C684.452 73.8351 684.452 75.0956 683.191 75.0956C681.931 75.0956 681.931 75.0956 679.41 75.0956V76.3562ZM684.452 67.5322C681.931 62.4898 679.41 57.4475 678.149 51.1446C675.628 46.1023 673.107 41.0599 671.846 34.757H670.586C673.107 39.7993 675.628 44.8417 676.889 51.1446C679.41 56.1869 681.931 61.2293 683.191 67.5322H684.452ZM668.064 30.9753C666.804 29.7147 666.804 28.4541 665.543 28.4541C664.283 28.4541 663.022 28.4541 661.762 28.4541C660.501 28.4541 659.24 29.7147 656.719 30.9753L657.98 32.2359C659.24 30.9753 661.762 30.9753 663.022 29.7148C664.283 29.7148 665.543 29.7148 665.543 29.7148C666.804 29.7148 666.804 30.9753 668.064 30.9753ZM656.719 30.9753C649.156 34.7571 640.332 39.7994 634.029 44.8417L635.289 46.1022C642.853 41.0599 650.416 37.2782 657.98 32.2359L656.719 30.9753ZM634.029 44.8417C625.205 51.1446 617.641 57.4475 607.557 63.7504L608.817 65.011C617.641 58.7081 626.465 51.1446 635.289 46.1022L634.029 44.8417ZM674.367 324.691C674.367 324.691 674.367 325.951 673.107 325.951C673.107 325.951 673.107 325.951 673.107 327.212L674.367 325.951C674.367 325.951 674.367 324.691 675.628 324.691H674.367ZM673.107 327.212C678.149 342.339 684.452 357.466 690.755 371.332H692.015C685.713 357.466 680.67 342.339 674.367 327.212H673.107ZM690.755 371.332L692.015 372.593L693.276 373.853H694.537H695.797V372.593H694.537H693.276C693.276 372.593 692.015 372.593 692.015 371.332C692.015 371.332 692.015 371.332 692.015 370.072L690.755 371.332ZM697.058 373.853C702.1 372.593 705.882 370.071 709.664 368.811V367.55C704.621 368.811 700.84 371.332 697.058 372.593V373.853ZM709.664 368.811C714.706 366.29 719.748 365.029 724.791 362.508C729.833 359.987 734.875 358.726 739.918 356.205V354.945C734.875 357.466 729.833 358.726 724.791 361.247C719.748 363.769 714.706 365.029 709.664 367.55V368.811ZM741.178 356.205C741.178 354.944 741.178 354.944 741.178 356.205C741.178 354.944 741.178 354.945 741.178 353.684H739.918V354.945V356.205H741.178ZM741.178 352.423C719.748 341.078 697.058 333.515 675.628 323.43V324.691C697.058 334.775 719.748 342.339 741.178 353.684V352.423ZM632.768 238.971C631.508 238.971 631.508 238.971 630.247 238.971V240.232C631.508 240.232 631.508 240.232 632.768 240.232V238.971ZM628.986 240.232C623.944 252.837 617.641 264.183 613.859 275.528H615.12C620.162 262.922 625.205 251.577 630.247 240.232H628.986ZM613.859 276.788C612.599 279.31 611.338 281.831 611.338 283.091C611.338 284.352 611.338 286.873 611.338 288.134C611.338 289.394 612.599 290.655 615.12 290.655C616.381 291.915 618.902 291.915 621.423 293.176V291.916C618.902 290.655 616.381 289.394 615.12 289.394C613.859 288.134 612.599 288.134 612.599 286.873C612.599 285.613 612.599 285.612 612.599 283.091C612.599 281.831 613.859 279.31 615.12 276.788H613.859ZM620.162 293.176C631.508 298.218 644.113 303.261 655.459 308.303V307.042C644.113 302 631.508 296.958 620.162 291.916V293.176ZM656.719 309.564C657.98 309.564 657.98 308.303 656.719 309.564C657.98 308.303 657.98 308.303 659.24 308.303L657.98 307.042C657.98 307.042 656.719 307.042 656.719 308.303C656.719 308.303 656.719 308.303 655.459 308.303L656.719 309.564ZM659.24 307.042C650.416 284.352 641.592 261.662 632.768 240.232H631.508C640.332 262.922 649.156 284.352 657.98 307.042H659.24ZM763.869 353.684V354.945V356.205H765.129V354.945V353.684H763.869ZM765.129 357.466C778.996 363.769 792.862 370.072 807.989 376.374V375.114C794.122 368.811 778.996 362.508 765.129 356.205V357.466ZM807.989 375.114C807.989 375.114 809.25 375.114 810.51 375.114C811.771 375.114 811.771 375.114 813.031 373.853C814.292 372.593 815.552 371.332 816.813 370.072L815.552 368.811C815.552 370.071 814.292 370.071 813.031 371.332C811.771 371.332 811.771 371.332 811.771 372.593H810.51L807.989 375.114ZM815.552 371.332C818.073 366.29 820.595 359.987 823.116 353.684H821.855C819.334 359.987 816.813 365.029 814.292 371.332H815.552ZM823.116 353.684C826.898 346.12 829.419 337.296 833.2 329.733H831.94C828.158 337.296 825.637 346.12 821.855 353.684H823.116ZM833.2 328.472C831.94 327.212 831.94 327.212 831.94 327.212L830.679 328.472C830.679 328.472 830.679 329.733 831.94 329.733C831.94 328.472 831.94 329.733 833.2 328.472ZM830.679 325.951C807.989 334.775 786.559 343.599 763.869 352.423V353.684C786.559 344.86 807.989 336.036 830.679 327.212V325.951ZM834.461 136.864C834.461 135.604 834.461 134.343 834.461 134.343C834.461 133.082 834.461 133.082 834.461 131.822H833.2C833.2 131.822 833.2 131.822 833.2 133.082C833.2 133.082 833.2 134.343 833.2 135.603L834.461 136.864ZM834.461 131.822C829.419 117.955 823.116 104.089 816.813 90.2226H815.552C821.855 104.089 826.898 117.955 833.2 131.822H834.461ZM816.813 90.2226L815.552 88.962C815.552 88.962 814.292 87.7014 813.031 87.7014C811.771 87.7014 811.771 87.7014 810.51 87.7014C809.25 87.7014 809.249 87.7014 807.989 87.7014V88.962H809.249H810.51C810.51 88.962 811.771 88.962 811.771 90.2226C811.771 90.2226 811.771 90.2226 813.031 90.2226H816.813ZM809.249 88.962C796.644 94.0043 784.038 99.0466 771.432 104.089V105.35C784.038 100.307 796.644 95.2649 809.249 90.2226V88.962ZM771.432 104.089C770.171 104.089 770.171 105.35 768.911 105.35C768.911 105.35 768.911 106.61 767.65 106.61V107.871H768.911C768.911 107.871 768.911 107.871 768.911 106.61C768.911 106.61 768.911 106.61 768.911 105.35C768.911 104.089 770.171 104.089 770.171 104.089H771.432ZM767.65 107.871V109.131C767.65 109.131 767.65 110.392 768.911 110.392C770.171 110.392 770.171 111.652 771.432 111.652L772.693 110.392C771.432 110.392 771.432 109.131 770.171 109.131C770.171 109.131 770.171 109.131 768.911 107.871H767.65ZM772.693 111.652C777.735 114.174 782.777 116.695 789.08 117.955V116.695C784.038 114.174 778.996 112.913 772.693 110.392V111.652ZM787.82 119.216C802.947 125.519 816.813 131.822 833.2 138.125V136.864C816.813 130.561 802.947 124.258 787.82 117.955V119.216ZM848.328 312.085C849.588 312.085 850.849 312.085 852.109 310.824C853.37 310.824 853.37 310.824 854.63 310.824V309.564H853.37C852.109 309.564 850.849 309.564 849.588 310.824L848.328 312.085ZM853.37 310.824C865.976 305.782 878.581 300.739 891.187 295.697V294.437C878.581 299.479 865.976 304.521 853.37 309.564V310.824ZM891.187 295.697C894.969 294.437 896.229 293.176 897.49 290.655C898.751 288.134 897.49 286.873 896.23 284.352H894.969C896.23 286.873 896.23 288.134 896.23 290.655C896.23 291.915 894.969 293.176 891.187 294.437V295.697ZM896.23 284.352C893.708 278.049 891.187 273.007 888.666 266.704C886.145 260.401 883.624 255.359 881.103 249.056H879.842C882.363 255.359 884.884 260.401 887.405 266.704C889.927 273.007 892.448 278.049 894.969 284.352H896.23ZM882.363 250.316C882.363 249.056 881.103 249.056 881.103 247.795C879.842 246.535 879.842 246.535 879.842 245.274L878.581 246.535C878.581 247.795 879.842 247.795 879.842 249.056C879.842 250.316 881.103 250.316 881.103 251.577L882.363 250.316ZM877.321 245.274C876.06 246.535 876.06 246.535 874.8 247.795C873.539 249.056 873.539 249.056 872.278 250.316L873.539 251.577C873.539 250.316 874.8 250.316 874.8 249.056C877.321 247.795 878.581 247.795 877.321 245.274ZM873.539 250.316C868.497 260.401 864.715 270.486 860.933 281.831H862.194C865.976 271.746 871.018 261.662 874.8 251.577L873.539 250.316ZM859.673 280.57C855.891 290.655 852.109 299.479 847.067 310.824H848.328C853.37 299.479 857.152 289.394 860.933 280.57H859.673ZM852.109 151.991C850.849 153.252 850.849 153.252 850.849 153.252L852.109 154.512C852.109 154.512 852.109 154.512 853.37 153.252C852.109 153.252 852.109 153.252 852.109 151.991ZM850.849 154.512C850.849 157.033 852.109 159.555 853.37 162.076H854.63C853.37 159.555 853.37 157.033 852.109 155.773L850.849 154.512ZM852.109 160.815C855.891 170.9 859.673 179.724 863.454 189.808H864.715C860.933 179.724 857.152 169.639 852.109 160.815ZM864.715 191.069C868.497 198.632 871.018 207.457 874.8 215.02H876.06C872.279 207.457 869.757 198.632 865.976 191.069H864.715ZM873.539 215.02C873.539 216.281 874.8 216.281 874.8 217.541C876.06 218.802 876.06 218.802 877.321 218.802L878.581 217.541C877.321 217.541 877.321 216.281 876.06 216.281C874.8 216.281 874.8 215.02 874.8 215.02H873.539ZM878.581 218.802C879.842 218.802 879.842 218.802 879.842 218.802C879.842 218.802 879.842 218.802 881.103 217.541C881.103 217.541 882.363 216.281 882.363 215.02L881.103 213.76L879.842 215.02C879.842 215.02 879.842 215.02 878.581 215.02C878.581 217.541 878.581 217.541 878.581 218.802C878.581 217.541 878.581 217.541 878.581 218.802ZM882.363 216.281C884.884 209.978 887.405 203.675 889.927 197.372C892.448 191.069 894.969 184.766 897.49 178.463H896.23C893.708 184.766 891.187 191.069 888.666 197.372C886.145 203.675 883.624 209.978 881.103 216.281H882.363ZM898.751 177.203C900.011 174.681 900.011 173.421 898.751 172.16C897.49 170.9 896.23 169.639 894.969 168.379V169.639C897.49 170.9 897.49 170.9 898.751 172.16C898.751 173.421 898.751 174.681 898.751 175.942V177.203ZM894.969 168.379C889.927 165.857 884.884 164.597 879.842 162.076V163.336C884.884 165.857 889.927 168.379 894.969 169.639V168.379ZM879.842 162.076C871.018 158.294 862.194 154.512 853.37 150.73V151.991C862.194 155.773 871.018 159.555 879.842 163.336V162.076ZM630.247 216.281C631.508 216.281 631.508 216.281 632.768 216.281V215.02H631.508H630.247V216.281ZM632.768 216.281C637.811 206.196 642.853 196.111 647.895 184.766C652.937 174.681 656.719 163.336 661.762 153.252L660.501 151.991C655.459 162.076 650.416 173.421 646.635 183.506C641.592 193.59 637.81 204.935 631.508 215.02L632.768 216.281ZM661.762 151.991C660.501 151.991 660.501 151.991 659.24 150.73H657.98V151.991C657.98 151.991 657.98 151.991 659.24 151.991C659.24 151.991 660.501 151.991 661.762 153.252V151.991ZM657.98 150.73C651.677 153.252 644.113 155.773 637.81 159.554C631.508 162.076 623.944 164.597 617.641 168.379V169.639C623.944 167.118 631.508 164.597 637.81 160.815C644.113 158.294 651.677 155.773 657.98 151.991V150.73ZM616.381 168.379C615.12 168.379 615.12 169.639 613.859 169.639C613.859 170.9 612.599 170.9 612.599 172.16C612.599 173.421 612.599 175.942 613.859 177.203H615.12C615.12 175.942 613.859 174.681 613.859 173.421V172.16L615.12 170.9L616.381 168.379ZM613.859 177.203C615.12 179.724 616.381 183.505 617.641 186.027C618.902 188.548 620.162 192.33 621.423 194.851H622.684C621.423 192.33 620.162 188.548 618.902 186.027C617.641 183.505 616.381 179.724 615.12 177.203H613.859ZM621.423 193.59C623.944 201.154 627.726 207.457 630.247 215.02H631.508C628.986 207.457 626.465 201.154 622.684 193.59H621.423ZM678.149 135.603C680.67 135.603 681.931 134.343 683.191 134.343C684.452 134.343 685.713 133.082 686.973 133.082L685.713 131.822C684.452 131.822 683.191 133.082 681.931 133.082C680.67 133.082 678.149 134.343 676.889 134.343L678.149 135.603ZM686.973 133.082C688.234 133.082 688.234 133.082 686.973 133.082C688.234 133.082 688.234 133.082 688.234 133.082V131.822L686.973 133.082ZM737.396 111.652C738.657 111.652 738.657 110.392 739.918 110.392C741.178 109.131 741.178 109.131 742.439 107.871L741.178 106.61C739.918 106.61 739.918 107.871 738.657 109.131C737.396 109.131 737.396 110.392 736.136 110.392L737.396 111.652ZM741.178 106.61C739.918 106.61 739.918 105.35 738.657 104.089C737.396 102.828 737.396 102.828 736.136 102.828V104.089C737.396 104.089 737.396 105.35 737.396 105.35C738.657 106.61 739.918 107.871 741.178 106.61ZM737.396 102.828C726.051 97.786 714.706 94.0043 704.621 88.962V90.2226C715.967 95.2649 727.312 100.307 737.396 104.089V102.828ZM704.621 88.962C702.1 87.7014 700.84 87.7014 699.579 88.962C698.318 90.2226 697.058 91.4832 695.797 92.7438H697.058C698.318 90.2226 698.318 90.2226 699.579 88.962C700.84 88.962 702.1 88.962 704.621 88.962ZM694.537 92.7438C690.755 101.568 686.973 110.392 683.191 117.955H684.452C688.234 109.131 692.015 100.307 695.797 92.7438H694.537ZM683.191 117.955C680.67 122.998 679.41 128.04 676.889 134.343H678.149C680.67 128.04 681.931 122.998 684.452 117.955H683.191Z" fill="#1a2230"/>
<path d="M434.857 309.563C475.237 309.563 507.971 276.829 507.971 236.45C507.971 196.07 475.237 163.336 434.857 163.336C394.477 163.336 361.743 196.07 361.743 236.45C361.743 276.829 394.477 309.563 434.857 309.563Z" stroke="#1a2230" stroke-width="5" stroke-miterlimit="22.9256"/>
<path d="M434.857 271.746C454.351 271.746 470.153 255.943 470.153 236.45C470.153 216.956 454.351 201.154 434.857 201.154C415.363 201.154 399.561 216.956 399.561 236.45C399.561 255.943 415.363 271.746 434.857 271.746Z" stroke="#1a2230" stroke-width="5" stroke-miterlimit="22.9256"/>
<path d="M478.82 201.173C483.73 194.414 482.232 184.954 475.474 180.043C468.715 175.132 459.255 176.631 454.344 183.389C449.434 190.148 450.932 199.608 457.69 204.519C464.449 209.429 473.909 207.931 478.82 201.173Z" stroke="#1a2230" stroke-width="5" stroke-miterlimit="22.9256"/>
<path d="M491.059 233.164C499.005 230.582 503.353 222.048 500.772 214.102C498.19 206.157 489.656 201.808 481.71 204.389C473.764 206.971 469.416 215.505 471.997 223.451C474.579 231.397 483.113 235.745 491.059 233.164Z" stroke="#1a2230" stroke-width="5" stroke-miterlimit="22.9256"/>
<path d="M500.744 257.065C503.326 249.119 498.977 240.585 491.031 238.003C483.085 235.422 474.551 239.77 471.97 247.716C469.388 255.662 473.737 264.196 481.683 266.778C489.629 269.359 498.163 265.011 500.744 257.065Z" stroke="#1a2230" stroke-width="5" stroke-miterlimit="22.9256"/>
<path d="M475.637 292.68C482.396 287.77 483.894 278.31 478.983 271.551C474.072 264.792 464.613 263.294 457.854 268.205C451.095 273.116 449.597 282.576 454.508 289.334C459.418 296.093 468.878 297.591 475.637 292.68Z" stroke="#1a2230" stroke-width="5" stroke-miterlimit="22.9256"/>
<path d="M434.857 305.782C443.212 305.782 449.984 299.009 449.984 290.655C449.984 282.301 443.212 275.528 434.857 275.528C426.503 275.528 419.73 282.301 419.73 290.655C419.73 299.009 426.503 305.782 434.857 305.782Z" stroke="#1a2230" stroke-width="5" stroke-miterlimit="22.9256"/>
<path d="M414.97 289.616C419.881 282.857 418.383 273.397 411.624 268.487C404.866 263.576 395.406 265.074 390.495 271.833C385.584 278.592 387.082 288.051 393.841 292.962C400.6 297.873 410.06 296.375 414.97 289.616Z" stroke="#1a2230" stroke-width="5" stroke-miterlimit="22.9256"/>
<path d="M387.828 267.185C395.774 264.603 400.123 256.069 397.541 248.123C394.96 240.178 386.426 235.829 378.48 238.41C370.534 240.992 366.185 249.526 368.767 257.472C371.348 265.418 379.883 269.766 387.828 267.185Z" stroke="#1a2230" stroke-width="5" stroke-miterlimit="22.9256"/>
<path d="M396.959 223.375C399.541 215.429 395.192 206.895 387.246 204.314C379.301 201.732 370.766 206.081 368.185 214.027C365.603 221.973 369.952 230.507 377.898 233.088C385.844 235.67 394.378 231.321 396.959 223.375Z" stroke="#1a2230" stroke-width="5" stroke-miterlimit="22.9256"/>
<path d="M411.232 204.753C417.99 199.842 419.488 190.382 414.578 183.624C409.667 176.865 400.207 175.367 393.448 180.278C386.69 185.188 385.192 194.648 390.102 201.407C395.013 208.166 404.473 209.664 411.232 204.753Z" stroke="#1a2230" stroke-width="5" stroke-miterlimit="22.9256"/>
<path d="M434.857 197.372C443.212 197.372 449.984 190.599 449.984 182.245C449.984 173.89 443.212 167.118 434.857 167.118C426.503 167.118 419.73 173.89 419.73 182.245C419.73 190.599 426.503 197.372 434.857 197.372Z" stroke="#1a2230" stroke-width="5" stroke-miterlimit="22.9256"/>
</svg>
