<svg width="16" height="16" viewBox="0 0 16 16" fill="none" xmlns="http://www.w3.org/2000/svg">
<g clip-path="url(#clip0_329_255)">
<path d="M12.9414 9.56733V9.56681C12.9427 9.56318 12.9424 9.55929 12.9437 9.55565C12.9466 9.54397 12.9492 9.53307 12.9502 9.52087C12.9512 9.50607 12.9512 9.49102 12.9504 9.47648C12.9504 9.47518 12.9505 9.4744 12.9502 9.4731C12.9497 9.47025 12.9486 9.46739 12.9481 9.46454C12.9468 9.45182 12.944 9.4391 12.9403 9.4269C12.9354 9.41029 12.9289 9.39523 12.9209 9.38121L11.1988 6.1775L11.1975 6.17516L11.197 6.17438C11.1962 6.17283 11.1947 6.17101 11.1939 6.16945C11.1869 6.15751 11.1799 6.14635 11.1713 6.13597C11.1638 6.12636 11.1544 6.11857 11.1456 6.11053C11.1433 6.10793 11.1407 6.10508 11.1381 6.103C11.1365 6.10196 11.135 6.10066 11.1339 6.09988C11.1228 6.09132 11.1113 6.08327 11.0984 6.07678C11.0888 6.07185 11.0794 6.06848 11.0693 6.06484C11.0646 6.06277 11.0599 6.06069 11.0553 6.05939H11.054L11.0527 6.05861L7.56784 5.01121H7.56732L7.5655 5.01043C7.55953 5.00862 7.55252 5.00784 7.54629 5.00654C7.53772 5.00472 7.52916 5.00265 7.51981 5.00109C7.50528 4.99927 7.49074 5.00005 7.47672 5.00109C7.47543 5.00109 7.47361 5.00083 7.47205 5.00109C7.46816 5.00109 7.46504 5.00291 7.46167 5.00317C7.44947 5.00472 7.43753 5.00706 7.42611 5.01018C7.41313 5.01407 7.40041 5.01952 7.38873 5.02575C7.38717 5.02653 7.38509 5.02731 7.38353 5.02809L7.38276 5.02861L7.38042 5.0299L4.17619 6.7535L4.17541 6.75402L4.17463 6.75454C4.16996 6.75714 4.16554 6.76103 4.16139 6.76363C4.15256 6.76882 4.144 6.77401 4.13595 6.78076C4.12479 6.78984 4.11441 6.80049 4.10506 6.81139L4.10221 6.8145C4.10221 6.8145 4.10117 6.81606 4.10013 6.8171C4.09078 6.82878 4.08248 6.84124 4.07599 6.85422C4.07028 6.86486 4.06638 6.8755 4.06223 6.88667C4.06119 6.8903 4.05886 6.89342 4.05782 6.89705V6.89757L4.05704 6.89939L3.01016 10.3834L3.00964 10.3853V10.3858C3.00834 10.3894 3.0086 10.3933 3.0073 10.3969C3.00445 10.4086 3.00185 10.4195 3.00081 10.4317C2.99978 10.4465 2.99978 10.4616 3.00056 10.4761C3.00056 10.4774 3.00056 10.4782 3.00081 10.4795C3.00315 10.5005 3.00912 10.5213 3.01691 10.5413C3.01873 10.5465 3.02106 10.5517 3.0234 10.5563C3.02547 10.5602 3.02599 10.5649 3.02885 10.569L4.75479 13.7777C4.75556 13.7792 4.75712 13.7811 4.7579 13.7826C4.76491 13.7946 4.77192 13.8057 4.78048 13.8161C4.78801 13.8257 4.79736 13.8335 4.80618 13.8415C4.80852 13.8441 4.81111 13.847 4.81371 13.8491C4.81786 13.8522 4.82305 13.855 4.82747 13.8579C4.83603 13.8639 4.84408 13.8701 4.85317 13.8748C4.86718 13.8823 4.88198 13.888 4.89677 13.8924H4.89729L8.38525 14.9409H8.38577C8.40082 14.9455 8.4164 14.9481 8.43197 14.9505C8.44209 14.9515 8.45222 14.9505 8.4626 14.9505C8.46805 14.9502 8.4735 14.9512 8.47896 14.9507C8.48285 14.9507 8.48596 14.9489 8.48934 14.9486C8.50154 14.9471 8.51348 14.9448 8.5249 14.9416C8.53788 14.9377 8.5506 14.9323 8.56228 14.9261C8.56384 14.9253 8.56591 14.9245 8.56747 14.9237L8.56825 14.9232L8.57059 14.9219L11.7764 13.1978C11.7803 13.1957 11.7836 13.1929 11.7878 13.19C11.7927 13.1869 11.7966 13.1843 11.8016 13.1812C11.8189 13.1687 11.8356 13.1547 11.8491 13.1386C11.8501 13.1376 11.8501 13.1371 11.8511 13.136C11.8605 13.1243 11.8688 13.1119 11.8753 13.0989C11.881 13.0883 11.8849 13.0776 11.889 13.0664C11.8901 13.0628 11.8924 13.0597 11.8934 13.0561V13.0555L11.8942 13.0537L12.9406 9.56941L12.9411 9.56759L12.9414 9.56733Z" stroke="black" stroke-width="0.3" stroke-linecap="round" stroke-linejoin="round"/>
<path d="M8.20563 12.2501L6.53031 11.7466L5.70148 10.2057L6.20506 8.53039L7.74592 7.70181L9.42098 8.20514L10.2498 9.74599L9.74649 11.4213L8.20563 12.2501Z" stroke="black" stroke-width="0.3" stroke-linecap="round" stroke-linejoin="round"/>
<path d="M9.41394 8.16073L11.1801 6.18118" stroke="black" stroke-width="0.3" stroke-linecap="round" stroke-linejoin="round"/>
<path d="M10.2729 9.75765L13.0055 9.57465" stroke="black" stroke-width="0.3" stroke-linecap="round" stroke-linejoin="round"/>
<path d="M9.76544 11.4462L11.9446 13.1052" stroke="black" stroke-width="0.3" stroke-linecap="round" stroke-linejoin="round"/>
<path d="M8.16852 12.3051L8.39747 14.8843" stroke="black" stroke-width="0.3" stroke-linecap="round" stroke-linejoin="round"/>
<path d="M6.47996 11.7977L4.86694 13.8234" stroke="black" stroke-width="0.3" stroke-linecap="round" stroke-linejoin="round"/>
<path d="M5.62098 10.2007L3.04181 10.4297" stroke="black" stroke-width="0.3" stroke-linecap="round" stroke-linejoin="round"/>
<path d="M6.12847 8.51216L4.14893 6.74573" stroke="black" stroke-width="0.3" stroke-linecap="round" stroke-linejoin="round"/>
<path d="M7.72541 7.65327L7.49646 5.0741" stroke="black" stroke-width="0.3" stroke-linecap="round" stroke-linejoin="round"/>
<path d="M1 1C1.47532 4.07311 2.96352 6.63546 3.8066 7.75445" stroke="black" stroke-width="0.3" stroke-linecap="round"/>
<path d="M15 1C14.5104 4.16545 12.9461 6.789 12.1192 7.85139" stroke="black" stroke-width="0.3"/>
</g>
<defs>
<clipPath id="clip0_329_255">
<rect width="16" height="16" fill="white"/>
</clipPath>
</defs>
</svg>
