<svg width="16" height="16" viewBox="0 0 16 16" fill="none" xmlns="http://www.w3.org/2000/svg">
<g clip-path="url(#clip0_63_460)">
<path d="M8.00009 13.5743C11.0798 13.5743 13.5765 11.0775 13.5765 7.99769C13.5765 4.91784 11.0798 2.42113 8.00009 2.42113C4.92036 2.42113 2.42374 4.91784 2.42374 7.99769C2.42374 11.0775 4.92036 13.5743 8.00009 13.5743Z" stroke="black" stroke-width="0.2" stroke-linecap="round" stroke-linejoin="round"/>
<path d="M8.73078 1.33477L8.49027 1.01822C8.48712 1.01384 8.48309 1.01034 8.47872 1.00771C8.4719 1.0028 8.4635 1 8.45493 1H7.54466C7.53609 1 7.5277 1.0028 7.52087 1.00771C7.5165 1.01051 7.51248 1.01419 7.50933 1.01822L7.26899 1.33477C7.25762 1.34966 7.2578 1.37016 7.26934 1.38487L7.96779 2.27585C7.97548 2.28566 7.98738 2.29144 7.9998 2.29144C8.01222 2.29144 8.02411 2.28584 8.03181 2.27585L8.73025 1.38487C8.7418 1.36998 8.7418 1.34949 8.7306 1.33477H8.73078Z" stroke="black" stroke-width="0.2" stroke-linecap="round" stroke-linejoin="round"/>
<path d="M7.26916 14.6652L7.50968 14.9818C7.51282 14.9862 7.51685 14.9897 7.52122 14.9923C7.52804 14.9972 7.53644 15 7.54501 15H8.45528C8.46385 15 8.47224 14.9972 8.47907 14.9923C8.48344 14.9895 8.48746 14.9858 8.49061 14.9818L8.73095 14.6652C8.74232 14.6503 8.74214 14.6298 8.7306 14.6151L8.03215 13.7241C8.02446 13.7143 8.01256 13.7086 8.00014 13.7086C7.98772 13.7086 7.97583 13.7142 7.96813 13.7241L7.26969 14.6151C7.25814 14.63 7.25814 14.6505 7.26934 14.6652H7.26916Z" stroke="black" stroke-width="0.2" stroke-linecap="round" stroke-linejoin="round"/>
<path d="M1.33497 7.26921L1.01837 7.50973C1.01399 7.51289 1.0105 7.51691 1.0077 7.52129C1.0028 7.52813 1 7.53653 1 7.54512V8.45536C1 8.46395 1.0028 8.47218 1.0077 8.47919C1.0105 8.48357 1.01417 8.4876 1.01837 8.49075L1.33497 8.7311C1.34983 8.74249 1.3703 8.74231 1.38499 8.73075L2.27602 8.0323C2.28582 8.02459 2.29159 8.01268 2.29159 8.00024C2.29159 7.9878 2.28599 7.97589 2.27602 7.96818L1.38499 7.26973C1.37012 7.25817 1.34966 7.25817 1.33497 7.26938V7.26921Z" stroke="black" stroke-width="0.2" stroke-linecap="round" stroke-linejoin="round"/>
<path d="M14.665 8.73093L14.9816 8.4904C14.986 8.48725 14.9895 8.48322 14.9923 8.47884C14.9972 8.47201 15 8.4636 15 8.45502V7.54477C15 7.53619 14.9972 7.52796 14.9923 7.52095C14.9895 7.51657 14.9858 7.51254 14.9816 7.50939L14.665 7.26904C14.6502 7.25765 14.6297 7.25783 14.615 7.26939L13.724 7.96784C13.7142 7.97555 13.7084 7.98746 13.7084 7.9999C13.7084 8.01233 13.714 8.02425 13.724 8.03195L14.615 8.7304C14.6299 8.74197 14.6503 8.74197 14.665 8.73075V8.73093Z" stroke="black" stroke-width="0.2" stroke-linecap="round" stroke-linejoin="round"/>
<path d="M3.80397 2.77019L3.41006 2.71641C3.40481 2.71554 3.39939 2.71589 3.39449 2.71711C3.38627 2.71852 3.37822 2.72237 3.3721 2.7285L2.72841 3.37212C2.72228 3.37825 2.71844 3.38596 2.71704 3.39437C2.71581 3.39945 2.71564 3.40488 2.71634 3.40996L2.77021 3.80377C2.77266 3.82234 2.78735 3.8367 2.80589 3.8388L3.92974 3.97492C3.94216 3.9765 3.95458 3.97212 3.9635 3.96336C3.97224 3.9546 3.97661 3.94216 3.97522 3.92972L3.83913 2.80576C3.83686 2.78701 3.82234 2.77247 3.80397 2.77019V2.77019Z" stroke="black" stroke-width="0.2" stroke-linecap="round" stroke-linejoin="round"/>
<path d="M12.1961 13.23L12.59 13.2838C12.5953 13.2847 12.6007 13.2843 12.6056 13.2831C12.6138 13.2817 12.6218 13.2779 12.628 13.2717L13.2717 12.6281C13.2778 12.622 13.2816 12.6143 13.283 12.6059C13.2843 12.6008 13.2844 12.5954 13.2837 12.5903L13.2299 12.1965C13.2274 12.1779 13.2127 12.1635 13.1942 12.1614L12.0703 12.0253C12.0579 12.0237 12.0455 12.0281 12.0366 12.0369C12.0278 12.0456 12.0235 12.0581 12.0249 12.0705L12.1609 13.1945C12.1632 13.2132 12.1777 13.2278 12.1961 13.23V13.23Z" stroke="black" stroke-width="0.2" stroke-linecap="round" stroke-linejoin="round"/>
<path d="M2.77042 12.1963L2.71672 12.5902C2.71584 12.5955 2.71619 12.6009 2.71742 12.6058C2.71882 12.6141 2.72267 12.622 2.72879 12.6281L3.37248 13.2717C3.3786 13.2778 3.3863 13.2817 3.39487 13.2831C3.39994 13.2843 3.40537 13.2845 3.41044 13.2838L3.80418 13.2298C3.82272 13.2274 3.83706 13.2127 3.83934 13.1943L3.97542 12.0703C3.977 12.0579 3.97262 12.0454 3.9637 12.0367C3.95496 12.0279 3.94254 12.0235 3.92994 12.0251L2.8061 12.1612C2.78738 12.1635 2.77287 12.178 2.77042 12.1963V12.1963Z" stroke="black" stroke-width="0.2" stroke-linecap="round" stroke-linejoin="round"/>
<path d="M13.2296 3.80387L13.2833 3.40988C13.2842 3.40463 13.2838 3.3992 13.2826 3.39429C13.2812 3.38606 13.2774 3.37817 13.2712 3.37204L12.6275 2.72842C12.6214 2.72229 12.6137 2.71844 12.6052 2.71704C12.6001 2.71581 12.5947 2.71564 12.5896 2.71634L12.1959 2.77029C12.1773 2.77275 12.163 2.78746 12.1607 2.80585L12.0246 3.92982C12.023 3.94226 12.0274 3.9547 12.0363 3.96346C12.0451 3.97222 12.0575 3.9766 12.0701 3.97502L13.1939 3.8389C13.2126 3.83663 13.2272 3.82209 13.2296 3.80387V3.80387Z" stroke="black" stroke-width="0.2" stroke-linecap="round" stroke-linejoin="round"/>
<path d="M6.02488 1.59244L5.67854 1.39728C5.674 1.39448 5.66892 1.3929 5.66385 1.3922C5.65563 1.39045 5.64688 1.39115 5.63884 1.39466L4.80343 1.75606C4.79556 1.75939 4.78909 1.76534 4.78472 1.77252C4.78174 1.77673 4.77947 1.78181 4.77842 1.78689L4.68362 2.17281C4.67907 2.19086 4.68746 2.20978 4.70373 2.21854L5.69849 2.75915C5.70951 2.7651 5.72262 2.76563 5.73417 2.76073C5.74554 2.75582 5.75428 2.74583 5.75743 2.73375L6.04482 1.63869C6.04954 1.62047 6.04132 1.60155 6.02523 1.59261L6.02488 1.59244Z" stroke="black" stroke-width="0.2" stroke-linecap="round" stroke-linejoin="round"/>
<path d="M9.9752 14.4078L10.3215 14.6029C10.3261 14.6057 10.3312 14.6073 10.3362 14.608C10.3444 14.6098 10.3532 14.6091 10.3612 14.6056L11.1966 14.2442C11.2045 14.2408 11.211 14.2349 11.2154 14.2277C11.2183 14.2235 11.2206 14.2184 11.2217 14.2133L11.3165 13.8274C11.321 13.8093 11.3126 13.7904 11.2963 13.7817L10.3016 13.2411C10.2906 13.2351 10.2775 13.2346 10.2659 13.2395C10.2545 13.2444 10.2458 13.2544 10.2426 13.2665L9.95526 14.3615C9.95054 14.3797 9.95876 14.3987 9.97485 14.4076L9.9752 14.4078Z" stroke="black" stroke-width="0.2" stroke-linecap="round" stroke-linejoin="round"/>
<path d="M1.59264 9.97523L1.39761 10.3216C1.39481 10.3261 1.39324 10.3312 1.39254 10.3363C1.39079 10.3445 1.39149 10.3533 1.39499 10.3612L1.75637 11.1966C1.75969 11.2045 1.76564 11.211 1.77298 11.2153C1.77718 11.2183 1.78225 11.2206 1.78733 11.2216L2.17319 11.3166C2.19139 11.3211 2.2101 11.3127 2.21902 11.2964L2.75952 10.3016C2.76546 10.2906 2.76599 10.2774 2.76109 10.266C2.75619 10.2546 2.74622 10.2459 2.73398 10.2427L1.63882 9.95543C1.62063 9.9507 1.60174 9.95893 1.59282 9.97487L1.59264 9.97523Z" stroke="black" stroke-width="0.2" stroke-linecap="round" stroke-linejoin="round"/>
<path d="M14.4076 6.02486L14.6026 5.67853C14.6054 5.67397 14.607 5.66889 14.6077 5.66381C14.6094 5.65558 14.6087 5.64682 14.6052 5.63894L14.2439 4.80349C14.2405 4.79561 14.2346 4.78913 14.2272 4.78475C14.223 4.78177 14.218 4.7795 14.2129 4.77844L13.827 4.6835C13.8088 4.67894 13.7901 4.68735 13.7812 4.70364L13.2407 5.6985C13.2348 5.70954 13.2342 5.72267 13.2391 5.73406C13.244 5.74545 13.254 5.75421 13.2662 5.75736L14.3614 6.04466C14.3796 6.04939 14.3985 6.04115 14.4074 6.02521L14.4076 6.02486Z" stroke="black" stroke-width="0.2" stroke-linecap="round" stroke-linejoin="round"/>
<path d="M2.07263 4.86598L1.68974 4.97301C1.68449 4.97442 1.67977 4.97669 1.67557 4.97985C1.6684 4.9844 1.6628 4.99106 1.65965 4.99912L1.32434 5.84542C1.32119 5.85348 1.32066 5.86206 1.32276 5.87047C1.32364 5.87555 1.32556 5.88063 1.32836 5.88501L1.53424 6.22504C1.54386 6.24116 1.56292 6.24851 1.58094 6.24308L2.66648 5.9218C2.67854 5.9183 2.68817 5.90936 2.69271 5.8978C2.69726 5.88624 2.69639 5.8731 2.69009 5.86224L2.11898 4.88472C2.10936 4.86843 2.0903 4.8609 2.07263 4.86598V4.86598Z" stroke="black" stroke-width="0.2" stroke-linecap="round" stroke-linejoin="round"/>
<path d="M13.9274 11.1342L14.3103 11.0272C14.3156 11.0258 14.3203 11.0235 14.3245 11.0204C14.3316 11.0158 14.3372 11.0092 14.3404 11.0011L14.6757 10.1548C14.6789 10.1467 14.6794 10.1381 14.6773 10.1297C14.6764 10.1247 14.6745 10.1196 14.6717 10.1152L14.4658 9.77517C14.4562 9.75905 14.4371 9.7517 14.4191 9.75713L13.3336 10.0784C13.3215 10.0819 13.3119 10.0908 13.3073 10.1024C13.3028 10.114 13.3037 10.1271 13.31 10.138L13.8811 11.1155C13.8907 11.1318 13.9097 11.1393 13.9274 11.1342V11.1342Z" stroke="black" stroke-width="0.2" stroke-linecap="round" stroke-linejoin="round"/>
<path d="M4.86586 13.9276L4.97291 14.3106C4.97431 14.3158 4.97658 14.3206 4.97973 14.3246C4.98428 14.3316 4.99093 14.3374 4.99897 14.3405L5.84522 14.6758C5.85327 14.679 5.86184 14.6795 5.87024 14.6774C5.87531 14.6765 5.88038 14.6746 5.88493 14.6718L6.22497 14.466C6.24106 14.4563 6.24841 14.4372 6.24298 14.4194L5.92184 13.3338C5.91834 13.3217 5.90942 13.312 5.8977 13.3075C5.88615 13.3029 5.87303 13.3038 5.86219 13.3101L4.88475 13.8812C4.86849 13.8908 4.86096 13.9099 4.86604 13.9276H4.86586Z" stroke="black" stroke-width="0.2" stroke-linecap="round" stroke-linejoin="round"/>
<path d="M11.1343 2.07241L11.0272 1.68946C11.0258 1.6842 11.0236 1.67947 11.0204 1.67544C11.0159 1.66844 11.0092 1.66265 11.0012 1.6595L10.1549 1.3242C10.1469 1.32105 10.1383 1.32052 10.1299 1.32263C10.1248 1.3235 10.1198 1.32543 10.1152 1.32823L9.77517 1.53407C9.75908 1.54371 9.75173 1.5628 9.75715 1.58067L10.0783 2.66627C10.0818 2.67836 10.0907 2.68799 10.1024 2.69255C10.114 2.6971 10.1271 2.69623 10.1379 2.68992L11.1154 2.11883C11.1317 2.10919 11.1392 2.0901 11.1341 2.07241H11.1343Z" stroke="black" stroke-width="0.2" stroke-linecap="round" stroke-linejoin="round"/>
</g>
<defs>
<clipPath id="clip0_63_460">
<rect width="16" height="16" fill="white"/>
</clipPath>
</defs>
</svg>
