<svg width="16" height="16" viewBox="0 0 16 16" fill="none" xmlns="http://www.w3.org/2000/svg">
<g clip-path="url(#clip0_335_275)">
<path d="M7.98433 11.1222C7.21538 11.6797 6.26912 12.0064 5.24877 12.0002C2.70006 11.9847 0.638904 9.89845 0.654373 7.34974C0.669916 4.80076 2.75618 2.73961 5.30499 2.75525C7.8537 2.77072 9.91485 4.85698 9.89922 7.40579C9.89312 8.40485 9.56903 9.32871 9.02364 10.0822M8.01226 9.12659C8.33301 8.62683 8.52049 8.03371 8.52437 7.39723C8.53516 5.60639 7.08717 4.14073 5.2965 4.12984C3.50583 4.11896 2.04 5.56704 2.02921 7.35787C2.01833 9.14854 3.4664 10.6144 5.25707 10.6253C5.89188 10.6292 6.48587 10.4497 6.9886 10.1366" stroke="black" stroke-width="0.3" stroke-linecap="round" stroke-linejoin="round"/>
<path d="M7.97334 11.1298L6.98874 10.1362C6.42534 9.36371 6.09541 8.41113 6.10301 7.38389C6.11425 5.85857 6.86682 4.50891 8.0159 3.67503C8.7869 3.11547 9.73613 2.78803 10.7597 2.79568C13.3086 2.81441 15.3668 4.90347 15.3481 7.45233C15.3293 10.001 13.2403 12.0594 10.6914 12.0405C9.67341 12.033 8.73378 11.6954 7.97343 11.13M8.97281 10.1512C9.47214 10.4726 10.0651 10.6611 10.7015 10.6656C12.4923 10.6788 13.9599 9.23271 13.9731 7.44205C13.9864 5.6514 12.5402 4.18367 10.7494 4.17052C8.95873 4.15729 7.491 5.60344 7.47776 7.39409C7.47299 8.04453 7.66072 8.65246 7.98759 9.16355M8.97255 10.1512L7.98759 9.16355" stroke="black" stroke-width="0.3" stroke-linecap="round" stroke-linejoin="round"/>
</g>
<defs>
<clipPath id="clip0_335_275">
<rect width="16" height="16" fill="white"/>
</clipPath>
</defs>
</svg>
