<svg width="214" height="48" viewBox="0 0 214 48" fill="none" xmlns="http://www.w3.org/2000/svg">
<path d="M194.7 42.4H19.5C9.3 42.4 1 34.1 1 23.9C1 13.7 9.3 5.39999 19.5 5.39999H194.7C204.9 5.39999 213.2 13.7 213.2 23.9C213.2 34.1 204.9 42.4 194.7 42.4Z" stroke="black" stroke-miterlimit="22.9256"/>
<path d="M107.5 44.4C118.7 44.4 127.7 35.3 127.7 24.2C127.7 13 118.6 4 107.5 4C96.4 4 87.3 13.1 87.3 24.2C87.2 35.4 96.3 44.4 107.5 44.4Z" fill="white" stroke="black" stroke-width="0.5" stroke-miterlimit="10"/>
<path d="M107.1 6C108.5 6 109.6 4.9 109.6 3.5C109.6 2.1 108.5 1 107.1 1C105.7 1 104.6 2.1 104.6 3.5C104.5 4.8 105.7 6 107.1 6Z" fill="white" stroke="black" stroke-width="0.5" stroke-miterlimit="10"/>
<path d="M114.7 4.69999C115 3.29999 114.2 1.99999 112.9 1.59999C111.5 1.29999 110.2 2.1 109.8 3.4C109.5 4.8 110.3 6.1 111.6 6.5C113 6.9 114.3 5.99999 114.7 4.69999Z" fill="white" stroke="black" stroke-width="0.5" stroke-miterlimit="10"/>
<path d="M119.3 7.19999C120 5.99999 119.5 4.39999 118.3 3.79999C117.1 3.09999 115.5 3.59999 114.9 4.79999C114.3 5.99999 114.7 7.59999 115.9 8.19999C117 8.89999 118.6 8.39999 119.3 7.19999Z" fill="white" stroke="black" stroke-width="0.5" stroke-miterlimit="10"/>
<path d="M123.1 10.7C124.1 9.7 124 8.1 123 7.1C122 6.1 120.4 6.2 119.4 7.2C118.4 8.2 118.5 9.8 119.5 10.8C120.5 11.8 122.1 11.8 123.1 10.7Z" fill="white" stroke="black" stroke-width="0.5" stroke-miterlimit="10"/>
<path d="M125.9 15.2C127.1 14.4 127.4 12.9 126.7 11.7C125.9 10.5 124.4 10.2 123.2 10.9C122 11.7 121.7 13.2 122.4 14.4C123.1 15.6 124.7 15.9 125.9 15.2Z" fill="white" stroke="black" stroke-width="0.5" stroke-miterlimit="10"/>
<path d="M127.5 20.1C128.8 19.7 129.6 18.2 129.1 16.9C128.7 15.6 127.2 14.8 125.9 15.3C124.6 15.7 123.8 17.2 124.3 18.5C124.8 19.8 126.2 20.5 127.5 20.1Z" fill="white" stroke="black" stroke-width="0.5" stroke-miterlimit="10"/>
<path d="M127.9 25.3C129.3 25.2 130.4 24 130.3 22.6C130.2 21.2 129 20.1 127.6 20.2C126.2 20.3 125.1 21.5 125.2 22.9C125.3 24.4 126.5 25.4 127.9 25.3Z" fill="white" stroke="black" stroke-width="0.5" stroke-miterlimit="10"/>
<path d="M129.9 28.5C130.2 27.1 129.3 25.8 127.9 25.5C126.5 25.2 125.2 26.1 124.9 27.5C124.6 28.9 125.5 30.2 126.9 30.5C128.3 30.8 129.6 29.8 129.9 28.5Z" fill="white" stroke="black" stroke-width="0.5" stroke-miterlimit="10"/>
<path d="M128.1 34C128.7 32.7 128.2 31.2 126.9 30.6C125.6 30 124.1 30.5 123.5 31.8C122.9 33.1 123.4 34.6 124.7 35.2C126 35.8 127.5 35.3 128.1 34Z" fill="white" stroke="black" stroke-width="0.5" stroke-miterlimit="10"/>
<path d="M125 38.9C125.9 37.8 125.7 36.2 124.7 35.3C123.6 34.4 122 34.6 121.1 35.6C120.2 36.7 120.4 38.3 121.4 39.2C122.5 40.1 124.1 40 125 38.9Z" fill="white" stroke="black" stroke-width="0.5" stroke-miterlimit="10"/>
<path d="M120.7 42.9C121.8 42.1 122.1 40.5 121.3 39.4C120.5 38.3 118.9 38 117.8 38.8C116.7 39.6 116.4 41.2 117.2 42.3C118 43.4 119.6 43.7 120.7 42.9Z" fill="white" stroke="black" stroke-width="0.5" stroke-miterlimit="10"/>
<path d="M115.6 45.7C116.9 45.2 117.5 43.7 117 42.4C116.5 41.1 115 40.5 113.7 41C112.4 41.5 111.8 43 112.3 44.3C112.8 45.5 114.3 46.2 115.6 45.7Z" fill="white" stroke="black" stroke-width="0.5" stroke-miterlimit="10"/>
<path d="M110 47.1C111.4 46.9 112.4 45.7 112.2 44.3C112 42.9 110.8 41.9 109.4 42.1C108 42.3 107 43.5 107.2 44.9C107.3 46.3 108.6 47.3 110 47.1Z" fill="white" stroke="black" stroke-width="0.5" stroke-miterlimit="10"/>
<path d="M107 44.9C107.2 43.5 106.2 42.2 104.8 42.1C103.4 41.9 102.1 42.9 102 44.3C101.8 45.7 102.8 47 104.2 47.1C105.6 47.3 106.8 46.3 107 44.9Z" fill="white" stroke="black" stroke-width="0.5" stroke-miterlimit="10"/>
<path d="M101.8 44.2C102.3 42.9 101.7 41.4 100.4 40.9C99.1 40.4 97.6 41 97.1 42.3C96.6 43.6 97.2 45.1 98.5 45.6C99.8 46.2 101.3 45.5 101.8 44.2Z" fill="white" stroke="black" stroke-width="0.5" stroke-miterlimit="10"/>
<path d="M97 42.3C97.8 41.2 97.6 39.6 96.4 38.8C95.2 38 93.7 38.2 92.9 39.4C92.1 40.5 92.3 42.1 93.5 42.9C94.6 43.7 96.1 43.5 97 42.3Z" fill="white" stroke="black" stroke-width="0.5" stroke-miterlimit="10"/>
<path d="M92.7 39.3C93.8 38.4 93.9 36.8 93 35.7C92.1 34.6 90.5 34.5 89.4 35.4C88.3 36.3 88.2 37.9 89.1 39C90 40 91.6 40.1 92.7 39.3Z" fill="white" stroke="black" stroke-width="0.5" stroke-miterlimit="10"/>
<path d="M89.5 35.2C90.8 34.6 91.3 33.1 90.7 31.8C90.1 30.5 88.6 30 87.3 30.6C86 31.2 85.5 32.7 86.1 34C86.7 35.2 88.2 35.8 89.5 35.2Z" fill="white" stroke="black" stroke-width="0.5" stroke-miterlimit="10"/>
<path d="M87.2 30.5C88.6 30.2 89.5 28.9 89.2 27.5C88.9 26.1 87.6 25.2 86.2 25.5C84.8 25.8 83.9 27.1 84.2 28.5C84.5 29.8 85.8 30.7 87.2 30.5Z" fill="white" stroke="black" stroke-width="0.5" stroke-miterlimit="10"/>
<path d="M89 23C89.1 21.6 88 20.4 86.6 20.3C85.2 20.2 84 21.3 83.9 22.7C83.8 24.1 84.9 25.3 86.3 25.4C87.7 25.4 88.9 24.4 89 23Z" fill="white" stroke="black" stroke-width="0.5" stroke-miterlimit="10"/>
<path d="M89.8 18.4C90.2 17.1 89.5 15.6 88.2 15.2C86.9 14.8 85.4 15.5 85 16.8C84.6 18.1 85.3 19.6 86.6 20C87.9 20.5 89.4 19.8 89.8 18.4Z" fill="white" stroke="black" stroke-width="0.5" stroke-miterlimit="10"/>
<path d="M91.7 14.4C92.5 13.2 92.1 11.7 90.9 10.9C89.7 10.1 88.2 10.5 87.4 11.7C86.6 12.9 87 14.4 88.2 15.2C89.4 15.9 91 15.6 91.7 14.4Z" fill="white" stroke="black" stroke-width="0.5" stroke-miterlimit="10"/>
<path d="M94.6 10.9C95.6 9.89999 95.7 8.29998 94.7 7.29998C93.7 6.29998 92.1 6.19998 91.1 7.19998C90.1 8.19998 90 9.79998 91 10.8C92 11.8 93.6 11.8 94.6 10.9Z" fill="white" stroke="black" stroke-width="0.5" stroke-miterlimit="10"/>
<path d="M98.4 8.19999C99.6 7.49999 100.1 5.99999 99.4 4.79999C98.7 3.59999 97.2 3.09999 96 3.79999C94.8 4.49999 94.3 5.99999 95 7.19999C95.6 8.39999 97.1 8.79999 98.4 8.19999Z" fill="white" stroke="black" stroke-width="0.5" stroke-miterlimit="10"/>
<path d="M102.6 6.50001C104 6.20001 104.8 4.80001 104.4 3.40001C104.1 2.00001 102.7 1.20001 101.3 1.60001C99.9 1.90001 99.1 3.30001 99.5 4.70001C99.8 6.00001 101.2 6.90001 102.6 6.50001Z" fill="white" stroke="black" stroke-width="0.5" stroke-miterlimit="10"/>
<path d="M107.1 6C108.5 6 109.6 4.9 109.6 3.5C109.6 2.1 108.5 1 107.1 1C105.7 1 104.6 2.1 104.6 3.5C104.5 4.8 105.7 6 107.1 6Z" fill="white" stroke="black" stroke-width="0.5" stroke-miterlimit="10"/>
<path d="M111.8 11.7L95.3 19.8L103.4 36.3L119.9 28.2L111.8 11.7Z" fill="white" stroke="black" stroke-width="0.5" stroke-miterlimit="10"/>
<path d="M101.9 12.3L96 29.7L113.4 35.6L119.3 18.2L101.9 12.3Z" fill="white" stroke="black" stroke-width="0.5" stroke-miterlimit="10"/>
<path d="M93.5 21C94.4 21 95.1 20.3 95.1 19.4C95.1 18.5 94.4 17.8 93.5 17.8C92.6 17.8 91.9 18.5 91.9 19.4C91.9 20.3 92.5 21 93.5 21Z" fill="white" stroke="black" stroke-width="0.5" stroke-miterlimit="10"/>
<path d="M101.1 12.4C102 12.4 102.7 11.7 102.7 10.8C102.7 9.90001 102 9.20001 101.1 9.20001C100.2 9.20001 99.5 9.90001 99.5 10.8C99.4 11.6 100.2 12.4 101.1 12.4Z" fill="white" stroke="black" stroke-width="0.5" stroke-miterlimit="10"/>
<path d="M112.2 11.6C113.1 11.6 113.8 10.9 113.8 9.99999C113.8 9.09999 113.1 8.39999 112.2 8.39999C111.3 8.39999 110.6 9.09999 110.6 9.99999C110.6 10.9 111.3 11.6 112.2 11.6Z" fill="white" stroke="black" stroke-width="0.5" stroke-miterlimit="10"/>
<path d="M103 39.8C103.9 39.8 104.6 39.1 104.6 38.2C104.6 37.3 103.9 36.6 103 36.6C102.1 36.6 101.4 37.3 101.4 38.2C101.3 39.1 102.1 39.8 103 39.8Z" fill="white" stroke="black" stroke-width="0.5" stroke-miterlimit="10"/>
<path d="M94.5 32.1C95.4 32.1 96.1 31.4 96.1 30.5C96.1 29.6 95.4 28.9 94.5 28.9C93.6 28.9 92.9 29.6 92.9 30.5C92.9 31.4 93.6 32.1 94.5 32.1Z" fill="white" stroke="black" stroke-width="0.5" stroke-miterlimit="10"/>
<path d="M121.8 30.2C122.7 30.2 123.4 29.5 123.4 28.6C123.4 27.7 122.7 27 121.8 27C120.9 27 120.2 27.7 120.2 28.6C120.1 29.4 120.9 30.2 121.8 30.2Z" fill="white" stroke="black" stroke-width="0.5" stroke-miterlimit="10"/>
<path d="M121 19.1C121.9 19.1 122.6 18.4 122.6 17.5C122.6 16.6 121.9 15.9 121 15.9C120.1 15.9 119.4 16.6 119.4 17.5C119.3 18.3 120.1 19.1 121 19.1Z" fill="white" stroke="black" stroke-width="0.5" stroke-miterlimit="10"/>
<path d="M113.9 38.9C114.8 38.9 115.5 38.2 115.5 37.3C115.5 36.4 114.8 35.7 113.9 35.7C113 35.7 112.3 36.4 112.3 37.3C112.2 38.2 113 38.9 113.9 38.9Z" fill="white" stroke="black" stroke-width="0.5" stroke-miterlimit="10"/>
<path d="M60.9 37C68.1 37 73.9 31.2 73.9 24C73.9 16.8 68.1 11 60.9 11C53.7 11 47.9 16.8 47.9 24C47.9 31.2 53.7 37 60.9 37Z" fill="white" stroke="black" stroke-width="0.5" stroke-miterlimit="10"/>
<path d="M60.6 12.4C61.5 12.4 62.2 11.7 62.2 10.8C62.2 9.90001 61.5 9.20001 60.6 9.20001C59.7 9.20001 59 9.90001 59 10.8C59 11.6 59.7 12.4 60.6 12.4Z" fill="white" stroke="black" stroke-width="0.5" stroke-miterlimit="10"/>
<path d="M65.5 11.5C65.7 10.6 65.2 9.70001 64.3 9.50001C63.4 9.30001 62.5 9.80001 62.3 10.7C62.1 11.6 62.6 12.5 63.5 12.7C64.4 12.9 65.3 12.4 65.5 11.5Z" fill="white" stroke="black" stroke-width="0.5" stroke-miterlimit="10"/>
<path d="M68.4 13.1C68.8 12.3 68.5 11.3 67.8 10.9C67 10.5 66 10.8 65.6 11.5C65.2 12.2 65.5 13.3 66.2 13.7C67 14.2 68 13.9 68.4 13.1Z" fill="white" stroke="black" stroke-width="0.5" stroke-miterlimit="10"/>
<path d="M70.9 15.4C71.5 14.7 71.5 13.7 70.8 13.1C70.1 12.5 69.1 12.5 68.5 13.2C67.9 13.9 67.9 14.9 68.6 15.5C69.2 16.1 70.2 16.1 70.9 15.4Z" fill="white" stroke="black" stroke-width="0.5" stroke-miterlimit="10"/>
<path d="M72.6 18.2C73.4 17.7 73.6 16.7 73.1 16C72.6 15.2 71.6 15 70.9 15.5C70.1 16 69.9 17 70.4 17.7C70.9 18.5 71.9 18.7 72.6 18.2Z" fill="white" stroke="black" stroke-width="0.5" stroke-miterlimit="10"/>
<path d="M73.7 21.4C74.6 21.1 75 20.2 74.7 19.4C74.4 18.5 73.5 18.1 72.7 18.4C71.8 18.7 71.4 19.6 71.7 20.4C71.9 21.2 72.8 21.7 73.7 21.4Z" fill="white" stroke="black" stroke-width="0.5" stroke-miterlimit="10"/>
<path d="M74 24.8C74.9 24.7 75.6 24 75.5 23.1C75.4 22.2 74.7 21.5 73.8 21.6C72.9 21.7 72.2 22.4 72.3 23.3C72.3 24.2 73.1 24.8 74 24.8Z" fill="white" stroke="black" stroke-width="0.5" stroke-miterlimit="10"/>
<path d="M75.2 26.8C75.4 25.9 74.8 25.1 73.9 24.9C73 24.7 72.2 25.3 72 26.2C71.8 27.1 72.4 27.9 73.3 28.1C74.2 28.2 75 27.7 75.2 26.8Z" fill="white" stroke="black" stroke-width="0.5" stroke-miterlimit="10"/>
<path d="M74.1 30.3C74.5 29.5 74.1 28.5 73.3 28.1C72.5 27.7 71.5 28.1 71.1 28.9C70.7 29.7 71.1 30.7 71.9 31.1C72.7 31.5 73.7 31.1 74.1 30.3Z" fill="white" stroke="black" stroke-width="0.5" stroke-miterlimit="10"/>
<path d="M72.1 33.5C72.7 32.8 72.6 31.8 71.9 31.2C71.2 30.6 70.2 30.7 69.6 31.4C69 32.1 69.1 33.1 69.8 33.7C70.5 34.3 71.5 34.2 72.1 33.5Z" fill="white" stroke="black" stroke-width="0.5" stroke-miterlimit="10"/>
<path d="M69.4 36C70.1 35.5 70.3 34.5 69.8 33.7C69.3 33 68.3 32.8 67.5 33.3C66.7 33.8 66.6 34.8 67.1 35.6C67.6 36.4 68.6 36.5 69.4 36Z" fill="white" stroke="black" stroke-width="0.5" stroke-miterlimit="10"/>
<path d="M66.1 37.8C66.9 37.5 67.3 36.5 67 35.7C66.7 34.9 65.7 34.5 64.9 34.8C64.1 35.1 63.7 36.1 64 36.9C64.3 37.7 65.2 38.1 66.1 37.8Z" fill="white" stroke="black" stroke-width="0.5" stroke-miterlimit="10"/>
<path d="M62.5 38.7C63.4 38.6 64 37.8 63.9 36.9C63.8 36 63 35.4 62.1 35.5C61.2 35.6 60.6 36.4 60.7 37.3C60.8 38.2 61.6 38.9 62.5 38.7Z" fill="white" stroke="black" stroke-width="0.5" stroke-miterlimit="10"/>
<path d="M60.6 37.3C60.7 36.4 60.1 35.6 59.2 35.5C58.3 35.4 57.5 36 57.4 36.9C57.3 37.8 57.9 38.6 58.8 38.7C59.6 38.8 60.4 38.2 60.6 37.3Z" fill="white" stroke="black" stroke-width="0.5" stroke-miterlimit="10"/>
<path d="M57.2 36.9C57.5 36.1 57.1 35.1 56.3 34.8C55.5 34.5 54.5 34.9 54.2 35.7C53.9 36.5 54.3 37.5 55.1 37.8C56 38.1 56.9 37.7 57.2 36.9Z" fill="white" stroke="black" stroke-width="0.5" stroke-miterlimit="10"/>
<path d="M54.1 35.7C54.6 35 54.5 34 53.7 33.4C52.9 32.8 52 33 51.4 33.8C50.9 34.5 51 35.5 51.8 36.1C52.6 36.5 53.6 36.4 54.1 35.7Z" fill="white" stroke="black" stroke-width="0.5" stroke-miterlimit="10"/>
<path d="M51.4 33.7C52.1 33.1 52.2 32.1 51.6 31.4C51 30.7 50 30.6 49.3 31.2C48.6 31.8 48.5 32.8 49.1 33.5C49.7 34.2 50.7 34.3 51.4 33.7Z" fill="white" stroke="black" stroke-width="0.5" stroke-miterlimit="10"/>
<path d="M49.3 31.1C50.1 30.7 50.5 29.8 50.1 28.9C49.7 28.1 48.8 27.7 47.9 28.1C47.1 28.5 46.7 29.4 47.1 30.3C47.5 31.1 48.5 31.5 49.3 31.1Z" fill="white" stroke="black" stroke-width="0.5" stroke-miterlimit="10"/>
<path d="M47.9 28C48.8 27.8 49.4 27 49.2 26.1C49 25.2 48.2 24.6 47.3 24.8C46.4 25 45.8 25.8 46 26.7C46.2 27.6 47 28.2 47.9 28Z" fill="white" stroke="black" stroke-width="0.5" stroke-miterlimit="10"/>
<path d="M49 23.3C49.1 22.4 48.4 21.6 47.5 21.6C46.6 21.5 45.8 22.2 45.8 23.1C45.7 24 46.4 24.8 47.3 24.8C48.2 24.8 49 24.2 49 23.3Z" fill="white" stroke="black" stroke-width="0.5" stroke-miterlimit="10"/>
<path d="M49.5 20.4C49.8 19.5 49.3 18.6 48.5 18.4C47.6 18.1 46.7 18.6 46.5 19.4C46.2 20.3 46.7 21.2 47.5 21.4C48.4 21.7 49.3 21.2 49.5 20.4Z" fill="white" stroke="black" stroke-width="0.5" stroke-miterlimit="10"/>
<path d="M50.8 17.8C51.3 17 51.1 16 50.3 15.6C49.5 15.1 48.5 15.3 48.1 16.1C47.6 16.9 47.8 17.9 48.6 18.3C49.3 18.7 50.3 18.5 50.8 17.8Z" fill="white" stroke="black" stroke-width="0.5" stroke-miterlimit="10"/>
<path d="M52.6 15.5C53.3 14.9 53.3 13.9 52.7 13.2C52.1 12.5 51.1 12.5 50.4 13.1C49.7 13.7 49.7 14.7 50.3 15.4C50.9 16.1 52 16.1 52.6 15.5Z" fill="white" stroke="black" stroke-width="0.5" stroke-miterlimit="10"/>
<path d="M55 13.8C55.8 13.4 56.1 12.4 55.6 11.6C55.2 10.8 54.2 10.5 53.4 11C52.6 11.4 52.3 12.4 52.8 13.2C53.2 13.9 54.2 14.2 55 13.8Z" fill="white" stroke="black" stroke-width="0.5" stroke-miterlimit="10"/>
<path d="M57.7 12.7C58.6 12.5 59.1 11.6 58.9 10.7C58.7 9.80001 57.8 9.30001 56.9 9.50001C56 9.70001 55.5 10.6 55.7 11.5C56 12.4 56.9 12.9 57.7 12.7Z" fill="white" stroke="black" stroke-width="0.5" stroke-miterlimit="10"/>
<path d="M60.6 12.4C61.5 12.4 62.2 11.7 62.2 10.8C62.2 9.90001 61.5 9.20001 60.6 9.20001C59.7 9.20001 59 9.90001 59 10.8C59 11.6 59.7 12.4 60.6 12.4Z" fill="white" stroke="black" stroke-width="0.5" stroke-miterlimit="10"/>
<path d="M63.7 16L53.1 21.2L58.3 31.8L68.9 26.6L63.7 16Z" fill="white" stroke="black" stroke-width="0.5" stroke-miterlimit="10"/>
<path d="M57.3 16.4L53.5 27.6L64.7 31.4L68.5 20.2L57.3 16.4Z" fill="white" stroke="black" stroke-width="0.5" stroke-miterlimit="10"/>
<path d="M51.9 22C52.5 22 53 21.5 53 20.9C53 20.3 52.5 19.8 51.9 19.8C51.3 19.8 50.8 20.3 50.8 20.9C50.8 21.5 51.3 22 51.9 22Z" fill="white" stroke="black" stroke-width="0.5" stroke-miterlimit="10"/>
<path d="M56.8 16.5C57.4 16.5 57.9 16 57.9 15.4C57.9 14.8 57.4 14.3 56.8 14.3C56.2 14.3 55.7 14.8 55.7 15.4C55.7 16 56.2 16.5 56.8 16.5Z" fill="white" stroke="black" stroke-width="0.5" stroke-miterlimit="10"/>
<path d="M63.9 16C64.5 16 65 15.5 65 14.9C65 14.3 64.5 13.8 63.9 13.8C63.3 13.8 62.8 14.3 62.8 14.9C62.8 15.5 63.3 16 63.9 16Z" fill="white" stroke="black" stroke-width="0.5" stroke-miterlimit="10"/>
<path d="M58 34C58.6 34 59.1 33.5 59.1 32.9C59.1 32.3 58.6 31.8 58 31.8C57.4 31.8 56.9 32.3 56.9 32.9C56.9 33.6 57.4 34 58 34Z" fill="white" stroke="black" stroke-width="0.5" stroke-miterlimit="10"/>
<path d="M52.6 29.1C53.2 29.1 53.7 28.6 53.7 28C53.7 27.4 53.2 26.9 52.6 26.9C52 26.9 51.5 27.4 51.5 28C51.5 28.7 52 29.1 52.6 29.1Z" fill="white" stroke="black" stroke-width="0.5" stroke-miterlimit="10"/>
<path d="M70 27.9C70.6 27.9 71.1 27.4 71.1 26.8C71.1 26.2 70.6 25.7 70 25.7C69.4 25.7 68.9 26.2 68.9 26.8C69 27.4 69.5 27.9 70 27.9Z" fill="white" stroke="black" stroke-width="0.5" stroke-miterlimit="10"/>
<path d="M69.5 20.8C70.1 20.8 70.6 20.3 70.6 19.7C70.6 19.1 70.1 18.6 69.5 18.6C68.9 18.6 68.4 19.1 68.4 19.7C68.4 20.3 68.9 20.8 69.5 20.8Z" fill="white" stroke="black" stroke-width="0.5" stroke-miterlimit="10"/>
<path d="M65 33.5C65.6 33.5 66.1 33 66.1 32.4C66.1 31.8 65.6 31.3 65 31.3C64.4 31.3 63.9 31.8 63.9 32.4C63.9 33 64.4 33.5 65 33.5Z" fill="white" stroke="black" stroke-width="0.5" stroke-miterlimit="10"/>
<path d="M153.9 37C161.1 37 166.9 31.2 166.9 24C166.9 16.8 161.1 11 153.9 11C146.7 11 140.9 16.8 140.9 24C140.9 31.2 146.7 37 153.9 37Z" fill="white" stroke="black" stroke-width="0.5" stroke-miterlimit="10"/>
<path d="M153.6 12.4C154.5 12.4 155.2 11.7 155.2 10.8C155.2 9.90001 154.5 9.20001 153.6 9.20001C152.7 9.20001 152 9.90001 152 10.8C152 11.6 152.7 12.4 153.6 12.4Z" fill="white" stroke="black" stroke-width="0.5" stroke-miterlimit="10"/>
<path d="M158.5 11.5C158.7 10.6 158.2 9.70001 157.3 9.50001C156.4 9.30001 155.5 9.80001 155.3 10.7C155.1 11.6 155.6 12.5 156.5 12.7C157.4 12.9 158.3 12.4 158.5 11.5Z" fill="white" stroke="black" stroke-width="0.5" stroke-miterlimit="10"/>
<path d="M161.4 13.1C161.8 12.3 161.5 11.3 160.8 10.9C160 10.5 159 10.8 158.6 11.5C158.2 12.2 158.5 13.3 159.2 13.7C160 14.2 161 13.9 161.4 13.1Z" fill="white" stroke="black" stroke-width="0.5" stroke-miterlimit="10"/>
<path d="M163.9 15.4C164.5 14.7 164.5 13.7 163.8 13.1C163.1 12.5 162.1 12.5 161.5 13.2C160.9 13.9 160.9 14.9 161.6 15.5C162.2 16.1 163.2 16.1 163.9 15.4Z" fill="white" stroke="black" stroke-width="0.5" stroke-miterlimit="10"/>
<path d="M165.6 18.2C166.4 17.7 166.6 16.7 166.1 16C165.6 15.2 164.6 15 163.9 15.5C163.1 16 162.9 17 163.4 17.7C163.9 18.5 164.9 18.7 165.6 18.2Z" fill="white" stroke="black" stroke-width="0.5" stroke-miterlimit="10"/>
<path d="M166.7 21.4C167.6 21.1 168 20.2 167.7 19.4C167.4 18.5 166.5 18.1 165.7 18.4C164.8 18.7 164.4 19.6 164.7 20.4C164.9 21.2 165.8 21.7 166.7 21.4Z" fill="white" stroke="black" stroke-width="0.5" stroke-miterlimit="10"/>
<path d="M167 24.8C167.9 24.7 168.6 24 168.5 23.1C168.4 22.2 167.7 21.5 166.8 21.6C165.9 21.7 165.2 22.4 165.3 23.3C165.3 24.2 166.1 24.8 167 24.8Z" fill="white" stroke="black" stroke-width="0.5" stroke-miterlimit="10"/>
<path d="M168.2 26.8C168.4 25.9 167.8 25.1 166.9 24.9C166 24.7 165.2 25.3 165 26.2C164.8 27.1 165.4 27.9 166.3 28.1C167.2 28.2 168 27.7 168.2 26.8Z" fill="white" stroke="black" stroke-width="0.5" stroke-miterlimit="10"/>
<path d="M167.1 30.3C167.5 29.5 167.1 28.5 166.3 28.1C165.5 27.7 164.5 28.1 164.1 28.9C163.7 29.7 164.1 30.7 164.9 31.1C165.7 31.5 166.7 31.1 167.1 30.3Z" fill="white" stroke="black" stroke-width="0.5" stroke-miterlimit="10"/>
<path d="M165.1 33.5C165.7 32.8 165.6 31.8 164.9 31.2C164.2 30.6 163.2 30.7 162.6 31.4C162 32.1 162.1 33.1 162.8 33.7C163.5 34.3 164.5 34.2 165.1 33.5Z" fill="white" stroke="black" stroke-width="0.5" stroke-miterlimit="10"/>
<path d="M162.4 36C163.1 35.5 163.3 34.5 162.8 33.7C162.3 33 161.3 32.8 160.5 33.3C159.8 33.8 159.6 34.8 160.1 35.6C160.6 36.4 161.6 36.5 162.4 36Z" fill="white" stroke="black" stroke-width="0.5" stroke-miterlimit="10"/>
<path d="M159.1 37.8C159.9 37.5 160.3 36.5 160 35.7C159.7 34.9 158.7 34.5 157.9 34.8C157.1 35.1 156.7 36.1 157 36.9C157.3 37.7 158.2 38.1 159.1 37.8Z" fill="white" stroke="black" stroke-width="0.5" stroke-miterlimit="10"/>
<path d="M155.5 38.7C156.4 38.6 157 37.8 156.9 36.9C156.8 36 156 35.4 155.1 35.5C154.2 35.6 153.6 36.4 153.7 37.3C153.8 38.2 154.6 38.9 155.5 38.7Z" fill="white" stroke="black" stroke-width="0.5" stroke-miterlimit="10"/>
<path d="M153.6 37.3C153.7 36.4 153.1 35.6 152.2 35.5C151.3 35.4 150.5 36 150.4 36.9C150.3 37.8 150.9 38.6 151.8 38.7C152.6 38.8 153.4 38.2 153.6 37.3Z" fill="white" stroke="black" stroke-width="0.5" stroke-miterlimit="10"/>
<path d="M150.2 36.9C150.5 36.1 150.1 35.1 149.3 34.8C148.5 34.5 147.5 34.9 147.2 35.7C146.9 36.5 147.3 37.5 148.1 37.8C149 38.1 149.9 37.7 150.2 36.9Z" fill="white" stroke="black" stroke-width="0.5" stroke-miterlimit="10"/>
<path d="M147.1 35.7C147.6 35 147.5 34 146.7 33.4C146 32.9 145 33 144.4 33.8C143.9 34.5 144 35.5 144.8 36.1C145.6 36.5 146.6 36.4 147.1 35.7Z" fill="white" stroke="black" stroke-width="0.5" stroke-miterlimit="10"/>
<path d="M144.4 33.7C145.1 33.1 145.2 32.1 144.6 31.4C144 30.7 143 30.6 142.3 31.2C141.6 31.8 141.5 32.8 142.1 33.5C142.7 34.2 143.7 34.3 144.4 33.7Z" fill="white" stroke="black" stroke-width="0.5" stroke-miterlimit="10"/>
<path d="M142.3 31.1C143.1 30.7 143.5 29.8 143.1 28.9C142.7 28.1 141.8 27.7 140.9 28.1C140.1 28.5 139.7 29.4 140.1 30.3C140.5 31.1 141.5 31.5 142.3 31.1Z" fill="white" stroke="black" stroke-width="0.5" stroke-miterlimit="10"/>
<path d="M140.9 28C141.8 27.8 142.4 27 142.2 26.1C142 25.2 141.2 24.6 140.3 24.8C139.4 25 138.8 25.8 139 26.7C139.2 27.6 140 28.2 140.9 28Z" fill="white" stroke="black" stroke-width="0.5" stroke-miterlimit="10"/>
<path d="M142 23.3C142.1 22.4 141.4 21.6 140.5 21.6C139.6 21.5 138.8 22.2 138.8 23.1C138.7 24 139.4 24.8 140.3 24.8C141.2 24.8 142 24.2 142 23.3Z" fill="white" stroke="black" stroke-width="0.5" stroke-miterlimit="10"/>
<path d="M142.5 20.4C142.8 19.5 142.3 18.6 141.5 18.4C140.6 18.1 139.7 18.6 139.5 19.4C139.2 20.3 139.7 21.2 140.5 21.4C141.4 21.7 142.3 21.2 142.5 20.4Z" fill="white" stroke="black" stroke-width="0.5" stroke-miterlimit="10"/>
<path d="M143.8 17.8C144.3 17 144.1 16 143.3 15.6C142.5 15.1 141.5 15.3 141.1 16.1C140.6 16.9 140.8 17.9 141.6 18.3C142.3 18.7 143.3 18.5 143.8 17.8Z" fill="white" stroke="black" stroke-width="0.5" stroke-miterlimit="10"/>
<path d="M145.6 15.5C146.3 14.9 146.3 13.9 145.7 13.2C145.1 12.5 144.1 12.5 143.4 13.1C142.7 13.7 142.7 14.7 143.3 15.4C143.9 16.1 145 16.1 145.6 15.5Z" fill="white" stroke="black" stroke-width="0.5" stroke-miterlimit="10"/>
<path d="M148 13.8C148.8 13.4 149.1 12.4 148.6 11.6C148.2 10.8 147.2 10.5 146.4 11C145.6 11.4 145.3 12.4 145.8 13.2C146.2 13.9 147.2 14.2 148 13.8Z" fill="white" stroke="black" stroke-width="0.5" stroke-miterlimit="10"/>
<path d="M150.7 12.7C151.6 12.5 152.1 11.6 151.9 10.7C151.7 9.80001 150.8 9.30001 149.9 9.50001C149 9.70001 148.5 10.6 148.7 11.5C149 12.4 149.9 12.9 150.7 12.7Z" fill="white" stroke="black" stroke-width="0.5" stroke-miterlimit="10"/>
<path d="M153.6 12.4C154.5 12.4 155.2 11.7 155.2 10.8C155.2 9.90001 154.5 9.20001 153.6 9.20001C152.7 9.20001 152 9.90001 152 10.8C152 11.6 152.7 12.4 153.6 12.4Z" fill="white" stroke="black" stroke-width="0.5" stroke-miterlimit="10"/>
<path d="M156.7 16L146.1 21.2L151.3 31.8L161.9 26.6L156.7 16Z" fill="white" stroke="black" stroke-width="0.5" stroke-miterlimit="10"/>
<path d="M150.3 16.4L146.5 27.6L157.7 31.4L161.5 20.2L150.3 16.4Z" fill="white" stroke="black" stroke-width="0.5" stroke-miterlimit="10"/>
<path d="M144.9 22C145.5 22 146 21.5 146 20.9C146 20.3 145.5 19.8 144.9 19.8C144.3 19.8 143.8 20.3 143.8 20.9C143.8 21.5 144.3 22 144.9 22Z" fill="white" stroke="black" stroke-width="0.5" stroke-miterlimit="10"/>
<path d="M149.8 16.5C150.4 16.5 150.9 16 150.9 15.4C150.9 14.8 150.4 14.3 149.8 14.3C149.2 14.3 148.7 14.8 148.7 15.4C148.7 16 149.2 16.5 149.8 16.5Z" fill="white" stroke="black" stroke-width="0.5" stroke-miterlimit="10"/>
<path d="M156.9 16C157.5 16 158 15.5 158 14.9C158 14.3 157.5 13.8 156.9 13.8C156.3 13.8 155.8 14.3 155.8 14.9C155.8 15.5 156.3 16 156.9 16Z" fill="white" stroke="black" stroke-width="0.5" stroke-miterlimit="10"/>
<path d="M151 34C151.6 34 152.1 33.5 152.1 32.9C152.1 32.3 151.6 31.8 151 31.8C150.4 31.8 149.9 32.3 149.9 32.9C149.9 33.6 150.4 34 151 34Z" fill="white" stroke="black" stroke-width="0.5" stroke-miterlimit="10"/>
<path d="M145.6 29.1C146.2 29.1 146.7 28.6 146.7 28C146.7 27.4 146.2 26.9 145.6 26.9C145 26.9 144.5 27.4 144.5 28C144.5 28.7 145 29.1 145.6 29.1Z" fill="white" stroke="black" stroke-width="0.5" stroke-miterlimit="10"/>
<path d="M163 27.9C163.6 27.9 164.1 27.4 164.1 26.8C164.1 26.2 163.6 25.7 163 25.7C162.4 25.7 161.9 26.2 161.9 26.8C162 27.4 162.5 27.9 163 27.9Z" fill="white" stroke="black" stroke-width="0.5" stroke-miterlimit="10"/>
<path d="M162.5 20.8C163.1 20.8 163.6 20.3 163.6 19.7C163.6 19.1 163.1 18.6 162.5 18.6C161.9 18.6 161.4 19.1 161.4 19.7C161.4 20.3 161.9 20.8 162.5 20.8Z" fill="white" stroke="black" stroke-width="0.5" stroke-miterlimit="10"/>
<path d="M158 33.5C158.6 33.5 159.1 33 159.1 32.4C159.1 31.8 158.6 31.3 158 31.3C157.4 31.3 156.9 31.8 156.9 32.4C156.9 33 157.4 33.5 158 33.5Z" fill="white" stroke="black" stroke-width="0.5" stroke-miterlimit="10"/>
</svg>
