<svg width="1510" height="496" viewBox="0 0 1510 496" fill="none" xmlns="http://www.w3.org/2000/svg">
<path d="M1372.65 385H137.353C64.2437 385 5 325.338 5 251.712V240.288C5 166.662 64.2437 107 137.353 107H1372.65C1445.76 107 1505 166.662 1505 240.288V251.712C1505 325.338 1445.76 385 1372.65 385Z" stroke="#1a2230" stroke-width="10" stroke-miterlimit="22.9256"/>
<path d="M762 434C871.353 434 960 345.352 960 236C960 126.648 871.353 38 762 38C652.648 38 564 126.648 564 236C564 345.352 652.648 434 762 434Z" fill="white"/>
<path d="M1101.2 315.872C1141.58 315.872 1174.32 283.138 1174.32 242.759C1174.32 202.379 1141.58 169.645 1101.2 169.645C1060.82 169.645 1028.09 202.379 1028.09 242.759C1028.09 283.138 1060.82 315.872 1101.2 315.872Z" stroke="#1a2230" stroke-width="5" stroke-miterlimit="22.9256"/>
<path d="M1101.2 278.055C1120.7 278.055 1136.5 262.252 1136.5 242.759C1136.5 223.265 1120.7 207.462 1101.2 207.462C1081.71 207.462 1065.91 223.265 1065.91 242.759C1065.91 262.252 1081.71 278.055 1101.2 278.055Z" stroke="#1a2230" stroke-width="5" stroke-miterlimit="22.9256"/>
<path d="M1144.93 207.784C1149.84 201.025 1148.34 191.565 1141.59 186.654C1134.83 181.744 1125.37 183.242 1120.46 190C1115.55 196.759 1117.04 206.219 1123.8 211.13C1130.56 216.041 1140.02 214.542 1144.93 207.784Z" stroke="#1a2230" stroke-width="5" stroke-miterlimit="22.9256"/>
<path d="M1157.84 240.781C1165.79 238.2 1170.13 229.666 1167.55 221.72C1164.97 213.774 1156.44 209.425 1148.49 212.007C1140.55 214.588 1136.2 223.123 1138.78 231.068C1141.36 239.014 1149.89 243.363 1157.84 240.781Z" stroke="#1a2230" stroke-width="5" stroke-miterlimit="22.9256"/>
<path d="M1166.7 263.573C1169.28 255.627 1164.93 247.093 1156.99 244.511C1149.04 241.93 1140.51 246.278 1137.93 254.224C1135.34 262.17 1139.69 270.704 1147.64 273.286C1155.59 275.867 1164.12 271.519 1166.7 263.573Z" stroke="#1a2230" stroke-width="5" stroke-miterlimit="22.9256"/>
<path d="M1141.7 299.063C1148.46 294.152 1149.96 284.692 1145.05 277.933C1140.13 271.174 1130.67 269.676 1123.92 274.587C1117.16 279.498 1115.66 288.958 1120.57 295.717C1125.48 302.475 1134.94 303.973 1141.7 299.063Z" stroke="#1a2230" stroke-width="5" stroke-miterlimit="22.9256"/>
<path d="M1101.2 312.091C1109.56 312.091 1116.33 305.318 1116.33 296.964C1116.33 288.609 1109.56 281.837 1101.2 281.837C1092.85 281.837 1086.08 288.609 1086.08 296.964C1086.08 305.318 1092.85 312.091 1101.2 312.091Z" stroke="#1a2230" stroke-width="5" stroke-miterlimit="22.9256"/>
<path d="M1081.08 296.228C1085.99 289.47 1084.5 280.01 1077.74 275.099C1070.98 270.188 1061.52 271.686 1056.61 278.445C1051.7 285.204 1053.2 294.664 1059.95 299.574C1066.71 304.485 1076.17 302.987 1081.08 296.228Z" stroke="#1a2230" stroke-width="5" stroke-miterlimit="22.9256"/>
<path d="M1054.22 273.604C1062.17 271.023 1066.52 262.488 1063.93 254.542C1061.35 246.597 1052.82 242.248 1044.87 244.83C1036.93 247.411 1032.58 255.945 1035.16 263.891C1037.74 271.837 1046.28 276.186 1054.22 273.604Z" stroke="#1a2230" stroke-width="5" stroke-miterlimit="22.9256"/>
<path d="M1064.12 230.273C1066.7 222.327 1062.35 213.793 1054.4 211.211C1046.46 208.63 1037.92 212.978 1035.34 220.924C1032.76 228.87 1037.11 237.404 1045.05 239.985C1053 242.567 1061.53 238.219 1064.12 230.273Z" stroke="#1a2230" stroke-width="5" stroke-miterlimit="22.9256"/>
<path d="M1077.29 211.135C1084.05 206.225 1085.55 196.765 1080.64 190.006C1075.73 183.247 1066.27 181.749 1059.51 186.66C1052.75 191.57 1051.25 201.03 1056.16 207.789C1061.08 214.548 1070.53 216.046 1077.29 211.135Z" stroke="#1a2230" stroke-width="5" stroke-miterlimit="22.9256"/>
<path d="M1101.2 203.68C1109.56 203.68 1116.33 196.908 1116.33 188.553C1116.33 180.199 1109.56 173.427 1101.2 173.427C1092.85 173.427 1086.08 180.199 1086.08 188.553C1086.08 196.908 1092.85 203.68 1101.2 203.68Z" stroke="#1a2230" stroke-width="5" stroke-miterlimit="22.9256"/>
<path d="M405.364 323.436C445.744 323.436 478.478 290.701 478.478 250.322C478.478 209.942 445.744 177.208 405.364 177.208C364.985 177.208 332.251 209.942 332.251 250.322C332.251 290.701 364.985 323.436 405.364 323.436Z" stroke="#1a2230" stroke-width="5" stroke-miterlimit="22.9256"/>
<path d="M405.365 285.618C424.858 285.618 440.661 269.816 440.661 250.322C440.661 230.828 424.858 215.026 405.365 215.026C385.871 215.026 370.069 230.828 370.069 250.322C370.069 269.816 385.871 285.618 405.365 285.618Z" stroke="#1a2230" stroke-width="5" stroke-miterlimit="22.9256"/>
<path d="M448.922 215.185C453.833 208.427 452.335 198.967 445.576 194.056C438.817 189.145 429.357 190.644 424.447 197.402C419.536 204.161 421.034 213.621 427.793 218.531C434.552 223.442 444.011 221.944 448.922 215.185Z" stroke="#1a2230" stroke-width="5" stroke-miterlimit="22.9256"/>
<path d="M461.933 248.268C469.879 245.686 474.227 237.152 471.646 229.206C469.064 221.26 460.53 216.912 452.584 219.493C444.638 222.075 440.29 230.609 442.871 238.555C445.453 246.501 453.987 250.849 461.933 248.268Z" stroke="#1a2230" stroke-width="5" stroke-miterlimit="22.9256"/>
<path d="M470.639 271.007C473.22 263.061 468.872 254.527 460.926 251.945C452.98 249.364 444.446 253.713 441.864 261.658C439.283 269.604 443.632 278.138 451.577 280.72C459.523 283.301 468.057 278.953 470.639 271.007Z" stroke="#1a2230" stroke-width="5" stroke-miterlimit="22.9256"/>
<path d="M445.779 306.518C452.538 301.607 454.036 292.147 449.126 285.389C444.215 278.63 434.755 277.132 427.996 282.043C421.237 286.953 419.739 296.413 424.65 303.172C429.561 309.931 439.021 311.429 445.779 306.518Z" stroke="#1a2230" stroke-width="5" stroke-miterlimit="22.9256"/>
<path d="M405.365 319.654C413.719 319.654 420.492 312.882 420.492 304.527C420.492 296.173 413.719 289.4 405.365 289.4C397.01 289.4 390.238 296.173 390.238 304.527C390.238 312.882 397.01 319.654 405.365 319.654Z" stroke="#1a2230" stroke-width="5" stroke-miterlimit="22.9256"/>
<path d="M385.073 303.63C389.983 296.871 388.485 287.411 381.726 282.501C374.968 277.59 365.508 279.088 360.597 285.847C355.687 292.605 357.185 302.065 363.943 306.976C370.702 311.887 380.162 310.389 385.073 303.63Z" stroke="#1a2230" stroke-width="5" stroke-miterlimit="22.9256"/>
<path d="M358.315 281.09C366.261 278.509 370.609 269.975 368.028 262.029C365.446 254.083 356.912 249.734 348.966 252.316C341.02 254.897 336.672 263.431 339.253 271.377C341.835 279.323 350.369 283.672 358.315 281.09Z" stroke="#1a2230" stroke-width="5" stroke-miterlimit="22.9256"/>
<path d="M368.053 237.707C370.635 229.761 366.286 221.228 358.34 218.646C350.394 216.064 341.86 220.413 339.279 228.359C336.697 236.305 341.046 244.839 348.992 247.42C356.938 250.002 365.472 245.653 368.053 237.707Z" stroke="#1a2230" stroke-width="5" stroke-miterlimit="22.9256"/>
<path d="M381.374 218.591C388.133 213.681 389.631 204.221 384.72 197.462C379.81 190.703 370.35 189.205 363.591 194.116C356.832 199.027 355.334 208.487 360.245 215.245C365.156 222.004 374.616 223.502 381.374 218.591Z" stroke="#1a2230" stroke-width="5" stroke-miterlimit="22.9256"/>
<path d="M405.365 211.244C413.719 211.244 420.492 204.471 420.492 196.117C420.492 187.762 413.719 180.99 405.365 180.99C397.01 180.99 390.238 187.762 390.238 196.117C390.238 204.471 397.01 211.244 405.365 211.244Z" stroke="#1a2230" stroke-width="5" stroke-miterlimit="22.9256"/>
<path d="M757.066 452.015C643.614 454.536 554.113 356.21 550.331 252.843C546.549 131.827 644.875 41.0653 749.503 37.2835C873.04 33.5018 960.02 131.827 963.801 235.195C970.104 357.471 870.519 455.796 757.066 452.015ZM866.737 246.54C865.476 245.279 865.476 244.019 865.476 242.758C856.652 220.068 847.828 198.638 837.743 175.947C836.483 172.166 832.701 169.645 830.18 168.384C810.011 159.56 789.841 150.736 768.411 141.912C763.369 139.391 758.327 138.13 752.024 140.651C731.854 149.475 710.425 158.299 690.255 167.123C685.213 169.645 682.692 172.166 681.431 175.947C672.607 194.856 663.783 213.765 656.22 232.674C653.699 237.716 649.917 241.498 652.438 247.801C661.262 270.491 670.086 293.181 678.91 315.872C680.171 319.654 683.953 322.175 686.474 323.435C707.904 333.52 730.594 342.344 752.024 352.429C754.545 353.689 758.327 353.689 760.848 352.429C782.278 343.605 804.968 334.781 826.398 325.956C830.18 324.696 833.961 320.914 835.222 317.132C842.786 299.484 850.349 281.836 857.913 264.188C861.694 259.146 864.215 252.843 866.737 246.54ZM625.966 102.834C620.923 101.573 620.923 105.355 620.923 109.137C623.445 131.827 624.705 155.778 627.226 178.469C627.226 182.25 629.747 183.511 633.529 182.25C646.135 177.208 658.741 172.166 672.607 165.863C676.389 164.602 680.171 162.081 681.431 158.299C687.734 144.433 694.037 130.567 700.34 116.7C702.861 111.658 700.34 110.397 696.558 109.137C691.516 107.876 686.473 107.876 682.692 107.876C661.262 107.876 643.614 105.355 625.966 102.834ZM896.99 105.355C871.779 107.876 849.089 110.397 825.138 112.918C821.356 112.918 820.095 115.44 821.356 119.221C826.398 131.827 831.44 144.433 836.483 157.039C839.004 162.081 841.525 165.863 846.567 167.123C859.173 172.166 870.518 177.208 881.864 182.25C888.167 184.771 890.688 184.771 890.688 177.208C893.209 154.517 895.73 133.088 898.251 110.397C899.512 109.137 896.99 106.615 896.99 105.355ZM896.99 376.38C894.469 356.21 893.209 334.781 890.688 314.611C890.688 309.569 888.167 308.308 883.124 309.569C871.779 314.611 859.173 318.393 847.828 323.435C841.525 325.957 835.222 329.738 833.961 337.302C832.701 339.823 831.44 342.344 830.18 344.865C826.398 353.689 822.616 362.513 818.835 371.337C817.574 375.119 817.574 378.901 823.877 378.901C830.18 378.901 836.483 380.161 841.525 380.161C857.912 381.422 874.3 383.943 890.688 385.204C895.73 385.204 896.991 383.943 895.73 378.901C896.991 380.161 896.99 378.901 896.99 376.38ZM625.966 304.527C624.705 307.048 624.705 307.048 624.705 308.308C622.184 330.999 619.663 354.95 617.142 377.64C615.881 382.683 619.663 383.943 623.445 383.943C644.875 381.422 667.565 380.162 688.995 377.64C694.037 377.64 695.298 375.119 692.777 370.077C687.734 358.732 683.953 348.647 680.171 337.302C677.65 329.738 673.868 322.175 665.044 319.654C658.741 318.393 653.699 314.611 647.396 312.09C639.832 310.829 633.529 308.308 625.966 304.527ZM894.469 296.963C899.512 293.181 902.033 290.66 905.815 288.139C920.942 275.533 937.329 262.927 952.456 250.322C954.977 247.8 957.498 246.54 953.717 242.758C936.068 228.892 918.421 213.765 900.772 199.898C896.991 197.377 894.469 196.117 893.209 201.159C888.167 213.765 883.124 225.11 878.082 236.455C875.561 241.498 874.3 247.8 876.821 252.843C880.603 259.146 881.863 265.449 884.385 271.751C886.906 281.836 890.688 288.139 894.469 296.963ZM619.663 293.181C620.923 290.66 622.184 289.4 623.445 288.139C629.748 274.273 636.05 260.406 642.353 246.54C643.614 244.019 643.614 240.237 642.353 237.716C637.311 223.849 632.268 211.244 625.966 197.377C624.705 193.596 623.444 193.595 619.663 196.117C602.015 211.244 583.106 225.11 564.197 238.976C560.415 241.498 561.676 244.019 564.197 246.54C581.845 261.667 600.754 276.794 619.663 293.181ZM757.066 361.253C754.545 362.513 752.024 362.513 749.503 363.774C736.897 368.816 724.291 373.859 712.946 378.901C707.904 380.161 707.903 382.683 710.425 386.464C724.291 404.113 739.418 421.761 753.284 440.669C755.805 444.451 758.327 444.451 760.848 440.669C774.714 424.282 788.58 406.634 802.447 390.246C806.229 385.204 806.229 383.943 799.926 381.422C792.362 377.64 784.799 375.119 777.235 371.337C770.932 367.556 763.369 365.035 757.066 361.253ZM758.327 130.567C759.587 130.567 760.848 130.567 760.848 129.306C775.975 123.003 791.102 116.7 804.968 110.397C808.75 109.137 807.489 106.615 806.229 104.094C791.102 86.4462 775.975 67.5375 762.109 48.6288C759.587 46.1076 758.327 46.1076 755.806 48.6288C740.679 66.2769 726.812 85.1856 711.685 102.834C709.164 106.616 709.164 107.876 712.946 110.397C723.031 114.179 733.115 119.221 743.2 123.003C749.503 126.785 753.284 128.045 758.327 130.567ZM613.36 107.876C610.839 109.137 610.839 110.397 609.578 110.397C595.712 126.785 584.366 143.172 575.542 162.081C574.282 164.602 575.543 165.863 578.064 167.123C589.409 172.166 600.754 177.208 612.1 182.25C618.402 184.771 620.923 184.771 619.663 177.208C618.402 160.82 617.142 144.433 614.62 126.785C614.62 121.742 614.62 115.44 613.36 107.876ZM559.155 251.582C559.155 252.843 557.894 254.103 557.894 255.364C559.155 276.794 562.937 296.963 570.5 315.872C571.761 319.654 573.021 319.654 576.803 318.393C588.148 313.351 599.494 309.569 610.839 304.527C617.142 302.005 618.402 300.745 612.1 295.703C595.712 281.836 579.324 267.97 562.937 254.103C561.676 252.843 560.416 252.843 559.155 251.582ZM620.923 391.507C623.445 394.028 624.705 396.549 625.966 397.81C641.093 410.415 656.22 420.5 673.868 429.324C677.65 430.585 678.91 430.585 680.171 426.803C685.213 414.197 690.255 402.852 695.298 390.246C696.558 386.464 696.558 385.204 691.516 385.204C673.868 386.464 657.48 388.986 639.832 390.246C634.79 390.246 628.487 390.246 620.923 391.507ZM811.271 387.725C794.884 406.634 779.757 425.542 763.369 445.712C765.89 446.972 767.151 446.972 768.411 446.972C787.32 445.712 806.229 441.93 825.138 435.627C830.18 434.366 830.18 431.845 827.658 426.803C822.616 416.718 818.835 405.373 813.792 395.288C815.053 392.767 813.792 390.246 811.271 387.725ZM765.89 43.5864C767.151 46.1076 768.411 48.6288 768.411 48.6288C782.278 65.0163 794.883 82.6644 808.75 99.052C811.271 102.834 813.792 100.313 815.053 97.7914C820.095 86.4462 825.137 73.8404 830.18 62.4951C831.44 58.7134 830.18 56.1922 826.398 56.1922C816.314 53.6711 806.229 49.8894 794.884 47.3682C786.06 46.1076 777.235 46.1076 765.89 43.5864ZM896.99 308.308C896.99 312.09 895.73 313.351 896.99 315.872C899.512 336.041 900.772 356.21 903.293 376.38C903.293 377.64 904.554 378.901 905.815 381.422C907.075 380.161 909.596 380.161 909.596 378.901C919.681 363.774 929.766 348.647 939.85 333.52C942.372 329.738 941.111 327.217 936.068 324.696C931.026 323.435 925.984 320.914 922.202 318.393C914.639 314.611 905.814 312.09 896.99 308.308ZM900.772 191.074C905.815 194.856 909.596 198.638 913.378 201.159C927.245 212.504 939.85 223.849 953.717 233.934C954.977 235.195 956.238 235.195 958.759 236.455C958.759 235.195 960.019 233.934 960.019 232.674C957.498 213.765 954.977 194.856 947.414 175.947C946.153 172.166 943.632 172.166 939.85 173.426C932.287 177.208 923.463 179.729 915.899 183.511C910.857 186.032 907.075 188.553 900.772 191.074ZM749.503 44.847C748.242 44.847 746.981 43.5864 745.721 43.5864C726.812 46.1076 707.903 48.6288 688.995 54.9317C683.952 56.1923 683.952 58.7134 685.213 62.4951C690.255 73.8404 694.037 83.925 697.819 94.0097C700.34 100.313 701.601 100.313 706.643 95.2702C717.988 81.4038 730.594 66.2769 741.939 51.1499C745.721 51.1499 748.242 48.6287 749.503 44.847ZM907.075 111.658C905.815 112.918 905.815 112.918 905.815 112.918C903.293 135.609 900.772 157.039 898.251 179.729C898.251 183.511 900.772 183.511 903.293 182.25C914.639 177.208 925.984 173.426 937.329 168.384C942.371 165.863 943.632 163.342 941.111 159.56C932.287 145.694 923.463 131.827 913.378 117.961C910.857 115.44 908.336 114.179 907.075 111.658ZM894.469 99.052C891.948 96.5308 890.688 94.0097 889.427 94.0097C883.124 88.9673 878.082 83.925 871.779 80.1433C862.955 75.101 854.131 70.0587 845.307 65.0164C841.525 62.4952 837.743 62.4951 835.222 68.798C831.44 80.1433 826.398 91.4885 821.356 102.834C820.095 106.616 821.356 107.876 825.138 107.876C839.004 106.615 852.87 105.355 866.737 102.834C875.561 101.573 883.124 100.313 894.469 99.052ZM899.512 302.006C914.639 308.308 927.244 313.351 941.111 318.393C944.892 319.654 946.153 318.393 947.414 315.872C951.195 298.224 954.977 281.836 958.759 264.188C958.759 261.667 958.759 259.146 960.019 256.625C958.759 256.625 958.759 255.364 958.759 255.364C938.59 270.491 919.681 285.618 899.512 302.006ZM891.948 395.288C891.948 394.028 891.948 394.028 890.688 392.767C885.645 392.767 881.864 391.507 876.821 391.507C859.173 388.985 841.525 387.725 825.138 385.204C822.616 385.204 818.834 385.204 821.356 388.986C826.398 401.591 831.44 412.937 836.483 424.282C837.743 428.064 839.004 428.064 842.786 426.803C854.131 420.5 864.216 414.197 875.561 407.894C880.603 405.373 885.645 400.331 891.948 395.288ZM746.981 446.972C746.981 444.451 746.981 444.451 746.981 444.451C733.115 428.063 720.509 410.415 706.643 394.028C704.122 391.507 701.601 391.507 700.34 395.288C696.558 405.373 692.777 415.458 687.734 425.542C683.953 433.106 685.213 435.627 692.777 438.148C706.643 441.93 720.509 444.451 735.636 448.233C739.418 446.972 743.2 446.972 746.981 446.972ZM608.318 378.901C609.578 378.901 609.578 377.64 610.839 377.64C612.099 372.598 612.1 367.556 612.1 361.253C613.36 346.126 615.881 329.738 617.142 314.611C618.402 308.308 615.881 307.048 612.1 309.569C600.754 314.611 590.67 318.393 579.324 323.435C575.543 324.696 574.282 327.217 576.803 330.999C583.106 341.083 588.148 352.429 595.712 362.513C598.233 368.816 603.275 373.859 608.318 378.901ZM613.36 192.335C610.839 191.074 609.578 188.553 607.057 188.553C596.972 184.771 586.888 179.729 576.803 175.947C573.021 174.687 570.5 174.687 569.239 179.729C562.937 196.117 560.415 213.765 557.894 231.413C557.894 232.674 557.894 233.934 559.155 237.716C578.064 220.068 595.712 206.201 613.36 192.335ZM624.705 95.2702C627.226 96.5308 627.226 97.7914 627.226 97.7914C647.396 100.313 667.565 102.834 688.995 105.355C694.037 106.615 695.298 104.094 692.777 99.052C688.995 88.9673 685.213 80.1432 680.171 70.0586C677.65 62.4951 675.129 62.4952 668.826 66.2769C661.262 70.0587 654.959 73.8404 647.396 78.8827C641.093 82.6645 633.529 88.9673 624.705 95.2702ZM685.213 330.999C685.213 332.259 683.952 332.259 683.952 332.259C688.995 346.126 694.037 358.732 700.34 372.598C700.34 373.859 704.122 375.119 705.382 375.119C709.164 373.858 712.946 372.598 716.728 370.077C725.552 366.295 735.636 362.513 744.46 358.732C744.46 357.471 744.46 357.471 744.46 356.21C725.552 347.386 705.382 339.823 685.213 330.999ZM647.396 254.103C646.135 254.103 646.135 254.103 644.874 254.103C639.832 265.449 634.79 275.533 631.008 286.879C627.226 296.963 627.226 296.963 637.311 302.006C647.396 307.048 658.741 310.829 670.086 315.872C671.346 315.872 671.347 314.611 671.347 314.611C662.523 294.442 654.959 274.273 647.396 254.103ZM767.151 357.471C767.151 358.732 767.151 358.732 768.411 359.992C781.017 366.295 793.623 371.337 807.49 376.38C808.75 377.64 812.532 375.119 813.792 372.598C816.314 367.556 818.835 362.513 820.095 356.21C822.616 348.647 826.398 341.084 828.919 333.52C828.919 332.259 827.658 332.259 827.658 332.259C807.489 341.083 787.32 348.647 767.151 357.471ZM828.919 160.82C828.919 158.299 828.919 157.039 828.919 157.039C823.877 144.433 818.835 131.827 813.792 119.221C813.792 117.961 810.01 116.7 808.75 117.961C797.405 123.003 784.799 126.785 773.454 131.827C772.193 131.827 770.932 134.348 770.932 135.609C770.932 136.869 773.454 138.13 774.714 138.13C779.757 140.651 784.799 141.912 788.581 144.433C802.447 148.215 815.053 154.518 828.919 160.82ZM842.786 319.654C845.307 318.393 846.567 318.393 847.828 318.393C859.173 313.351 870.518 309.569 881.864 304.527C886.906 302.005 888.166 299.484 885.645 294.442C881.864 284.357 876.821 273.012 873.039 262.927C871.779 261.667 870.519 260.406 870.519 259.146C869.258 260.406 867.997 261.667 866.737 262.927C862.955 271.752 859.173 281.836 854.131 290.66C850.349 300.745 847.828 308.308 842.786 319.654ZM846.567 174.687L845.307 175.947C845.307 178.469 846.567 179.729 846.567 182.25C850.349 191.074 854.131 199.898 857.913 208.722C860.434 216.286 864.215 223.849 866.737 231.413C867.997 232.674 869.258 233.934 870.519 235.195C870.519 235.195 873.039 233.934 873.039 232.674C878.082 221.328 883.124 208.723 888.167 197.377C889.427 193.596 888.166 192.335 884.385 191.074C879.342 189.814 875.561 187.293 870.519 184.772C862.955 180.99 854.131 177.208 846.567 174.687ZM644.874 231.413C646.135 231.413 646.135 231.413 647.396 231.413C657.48 212.504 663.783 193.596 673.868 174.687C672.607 174.687 671.346 173.426 670.086 173.426C657.48 178.469 644.874 183.511 633.529 188.553C629.747 189.814 631.008 192.335 632.268 196.117C634.79 201.159 636.05 206.201 638.571 211.244C639.832 218.807 642.353 225.11 644.874 231.413ZM687.734 158.299C691.516 157.039 694.037 157.039 696.558 155.778C711.685 149.475 726.812 143.172 741.939 136.869C743.2 135.609 744.46 134.348 745.721 133.088C744.46 131.827 743.2 130.567 741.939 129.306C731.855 125.524 721.77 120.482 711.685 116.7C707.904 115.44 705.382 115.44 704.122 119.221C700.34 126.785 696.558 134.348 694.037 143.172C691.516 148.215 690.256 153.257 687.734 158.299Z" fill="#1a2230"/>
<path d="M757.067 452.015C643.614 454.536 555.374 356.211 551.592 254.104H550.331C554.113 357.471 643.614 457.057 757.067 453.276V452.015ZM551.592 254.104C547.81 133.088 646.135 42.3263 749.503 39.8051V38.5445C644.875 41.0656 545.289 133.088 550.331 254.104H551.592ZM750.764 39.8051C873.04 36.0234 960.02 134.349 965.062 236.456H966.323C961.28 133.088 874.301 34.7627 750.764 37.2839V39.8051ZM965.062 236.456C970.105 356.211 870.519 455.797 758.327 452.015V453.276C871.779 457.057 972.626 357.471 966.323 236.456H965.062ZM866.737 246.54C865.476 245.28 865.476 244.019 865.476 242.759H864.216C864.216 244.019 865.476 245.28 865.476 246.54H866.737ZM865.476 241.498C856.652 218.808 847.828 197.378 837.744 174.687H836.483C845.307 197.378 855.392 218.808 864.216 241.498H865.476ZM837.744 174.687C836.483 170.905 832.701 168.384 830.18 165.863V167.124C831.441 169.645 835.223 172.166 837.744 174.687ZM830.18 167.124C810.011 158.3 789.842 149.476 768.412 140.652V141.912C788.581 150.736 808.75 159.56 830.18 167.124ZM768.412 140.652C763.369 138.13 757.067 136.87 750.764 139.391V140.652C757.067 138.13 762.109 139.391 767.151 141.912L768.412 140.652ZM750.764 139.391C730.594 148.215 709.164 157.039 688.995 165.863V167.124C710.425 158.3 730.594 149.476 750.764 139.391ZM688.995 165.863C683.953 168.384 681.432 170.905 678.91 175.948H680.171C682.692 172.166 685.213 168.384 688.995 167.124V165.863ZM678.91 174.687C670.086 193.596 661.262 212.505 653.699 231.413H654.96C663.784 213.765 672.608 194.857 678.91 174.687ZM653.699 232.674C653.699 233.934 652.438 235.195 652.438 236.456C652.438 237.716 651.178 238.977 651.178 240.237C649.917 242.759 649.917 245.28 651.178 249.061H652.438C651.178 246.54 651.178 244.019 652.438 241.498C652.438 240.237 653.699 238.977 653.699 237.716C653.699 236.456 654.96 235.195 654.96 233.934L653.699 232.674ZM649.917 247.801C654.96 259.146 658.741 270.491 663.783 281.837C667.565 293.182 672.608 304.527 677.65 315.872H678.91C673.868 304.527 670.086 293.182 665.044 281.837C661.262 270.491 656.22 259.146 651.178 247.801H649.917ZM677.65 315.872C678.91 319.654 682.692 322.175 685.213 324.696V323.436C682.692 322.175 678.91 318.393 677.65 315.872ZM685.213 323.436C706.643 333.52 729.334 342.345 750.764 352.429V351.169C729.334 342.344 707.904 332.26 685.213 323.436ZM750.764 352.429C752.024 352.429 753.285 353.69 755.806 353.69C757.067 353.69 759.588 353.69 760.848 352.429V351.169C759.588 351.169 758.327 352.429 757.067 351.169C755.806 351.169 754.545 351.168 753.285 349.908L750.764 352.429ZM760.848 353.69C782.278 344.866 804.969 336.042 826.399 327.218V325.957C804.969 334.781 782.278 343.605 760.848 352.429V353.69ZM826.399 327.218C830.18 325.957 833.962 322.175 836.483 318.393H835.222C833.962 320.914 830.18 323.436 826.399 327.218ZM836.483 318.393C844.047 300.745 851.61 283.097 859.173 265.449H857.913C850.35 283.097 842.786 300.745 836.483 318.393ZM859.173 265.449C861.695 259.146 864.216 252.843 866.737 246.54H865.476C862.955 252.843 860.434 259.146 859.173 265.449ZM625.966 102.834C624.705 102.834 623.445 102.834 622.184 102.834C620.924 102.834 620.924 104.095 619.663 104.095C619.663 105.355 619.663 105.355 619.663 106.616C619.663 107.876 619.663 107.876 619.663 109.137H620.924C620.924 107.876 620.924 107.876 620.924 106.616C620.924 105.355 620.924 105.355 620.924 104.095C620.924 104.095 620.924 102.834 622.184 102.834C622.184 102.834 623.445 102.834 624.706 102.834H625.966ZM619.663 110.398C620.924 121.743 622.184 133.088 622.184 145.694C623.445 157.039 624.706 168.384 624.706 180.99H625.966C624.705 169.645 623.445 158.3 623.445 145.694C622.184 134.349 620.924 123.003 620.924 110.398H619.663ZM625.966 179.73C625.966 182.251 627.227 183.511 628.487 184.772C629.748 186.032 631.008 184.772 633.53 184.772V183.511C631.008 184.772 631.009 184.772 629.748 183.511C628.487 183.511 628.487 182.251 628.487 179.73H625.966ZM632.269 183.511C644.875 178.469 657.481 173.427 671.347 167.124V165.863C658.741 172.166 646.135 177.208 632.269 182.251V183.511ZM671.347 167.124C672.608 165.863 675.129 165.863 676.389 164.603C677.65 163.342 678.911 162.081 680.171 159.56H678.91C677.65 160.821 676.389 162.081 675.129 163.342C673.868 164.603 672.608 165.863 671.347 167.124ZM680.171 159.56C686.474 145.694 692.777 131.827 699.08 117.961H697.819C691.516 131.827 685.213 145.694 680.171 159.56ZM699.08 119.222C700.34 116.7 700.34 115.44 699.08 114.179C697.819 112.919 696.559 111.658 694.038 111.658V112.919C696.559 112.919 697.819 114.179 697.819 114.179C699.08 114.179 699.08 116.7 699.08 119.222ZM694.038 110.398C691.516 110.398 688.995 110.398 686.474 109.137C683.953 109.137 681.432 109.137 678.91 107.876V109.137C681.432 109.137 683.953 109.137 686.474 110.398C688.995 110.398 691.516 110.398 694.038 111.658V110.398ZM680.171 109.137C662.523 106.616 643.614 104.095 625.966 102.834V104.095C643.614 106.616 662.523 109.137 680.171 110.398V109.137ZM896.991 105.355C884.385 106.616 871.779 107.876 860.434 109.137C849.089 110.398 836.483 111.658 825.138 112.919V114.179C836.483 112.919 849.089 111.658 860.434 110.398C871.779 109.137 884.385 107.876 896.991 106.616V105.355ZM823.877 111.658C822.617 111.658 821.356 111.658 821.356 112.919C820.095 112.919 820.096 114.179 820.096 114.179C820.096 115.44 820.096 115.44 820.096 116.701C820.096 117.961 820.095 117.961 821.356 119.222H822.617C822.617 117.961 821.356 117.961 821.356 116.701V115.44C821.356 115.44 821.356 115.44 822.617 114.179C822.617 114.179 823.877 114.179 825.138 114.179L823.877 111.658ZM820.096 119.222C825.138 131.827 830.18 144.433 835.222 157.039H836.483C831.441 144.433 826.398 131.827 821.356 119.222H820.096ZM836.483 157.039C839.004 162.081 841.525 165.863 847.828 168.384V167.124C842.786 165.863 840.265 162.081 837.744 157.039H836.483ZM846.568 168.384C857.913 173.427 870.519 178.469 881.864 183.511V182.251C870.519 177.208 857.913 172.166 846.568 167.124V168.384ZM881.864 183.511C883.125 184.772 885.646 184.772 885.646 184.772C886.906 184.772 888.167 184.772 888.167 184.772C889.428 184.772 889.428 183.511 889.428 182.251C889.428 180.99 889.427 179.73 890.688 177.208H889.428C889.428 178.469 889.428 180.99 888.167 180.99C888.167 182.251 886.906 182.251 886.906 182.251C886.906 182.251 885.646 182.251 884.385 182.251C885.646 183.511 884.385 182.251 881.864 183.511ZM891.949 177.208C894.47 154.518 896.991 133.088 899.512 110.398H898.251C895.73 133.088 893.209 154.518 890.688 177.208H891.949ZM899.512 110.398C899.512 109.137 899.512 107.876 898.251 106.616C898.251 106.616 898.251 105.355 896.991 105.355V104.095H895.731C895.731 104.095 895.73 105.355 896.991 105.355C896.991 105.355 896.991 106.616 898.251 106.616C898.251 107.876 899.512 107.876 899.512 109.137V110.398ZM896.991 377.641C896.991 376.38 896.991 376.38 896.991 376.38V377.641C896.991 376.38 896.991 376.38 896.991 376.38V377.641ZM896.991 376.38C894.47 356.211 893.209 334.781 890.688 314.612H889.428C890.688 334.781 893.209 356.211 895.731 376.38H896.991ZM891.949 314.612C891.949 312.091 890.688 309.569 889.428 309.569C888.167 308.309 885.646 309.569 883.125 309.569V310.83C885.646 309.569 886.906 309.569 888.167 310.83C889.428 310.83 889.428 312.09 889.428 315.872L891.949 314.612ZM883.125 309.569C871.779 314.612 859.173 318.393 847.828 323.436V324.696C859.173 320.914 871.779 315.872 883.125 310.83V309.569ZM847.828 323.436C841.525 325.957 835.222 329.739 833.962 337.302H835.222C836.483 329.739 841.525 327.217 849.089 324.696L847.828 323.436ZM833.962 337.302C833.962 338.563 832.701 339.823 832.701 341.084C832.701 342.344 831.441 343.605 831.441 344.866H832.701C832.701 343.605 833.962 342.344 833.962 341.084C833.962 339.823 835.222 338.563 835.222 337.302H833.962ZM831.441 344.866C827.659 353.69 823.877 362.514 820.096 371.338H821.356C825.138 362.514 828.92 353.69 832.701 344.866H831.441ZM818.835 372.598C818.835 373.859 817.574 375.119 817.574 375.119C817.574 376.38 817.574 377.641 817.574 377.641C818.835 378.901 820.096 380.162 823.877 380.162V378.901C821.356 378.901 820.096 377.641 818.835 377.641C818.835 377.641 818.835 376.38 818.835 375.119C818.835 373.859 818.835 373.859 820.096 372.598H818.835ZM823.877 380.162C830.18 380.162 835.222 381.422 841.525 381.422V380.162C835.222 378.901 828.92 378.901 823.877 378.901V380.162ZM842.786 382.683C859.174 383.944 875.561 386.465 891.949 387.725V386.465C875.561 383.944 859.174 382.683 842.786 381.422V382.683ZM891.949 387.725C894.47 387.725 895.73 387.725 896.991 386.465C898.251 385.204 898.251 383.944 898.251 381.422H896.991C896.991 383.944 896.991 385.204 895.731 385.204C894.47 386.465 893.209 386.465 891.949 386.465V387.725ZM898.251 381.422C898.251 380.162 898.251 378.901 898.251 377.641H896.991C896.991 378.901 896.991 380.162 898.251 381.422ZM625.966 304.527C625.966 305.788 625.966 305.788 624.706 307.048C624.706 308.309 624.706 308.309 624.706 308.309H625.966V307.048C625.966 305.788 625.966 305.788 627.227 304.527H625.966ZM623.445 308.309C620.924 330.999 618.403 354.95 615.881 377.641H617.142C619.663 354.95 622.185 332.26 624.706 308.309H623.445ZM615.881 377.641C615.881 380.162 615.882 382.683 617.142 383.944C618.403 385.204 620.924 385.204 623.445 385.204V383.944C620.924 383.944 619.663 383.944 618.403 382.683C617.142 381.422 617.142 380.162 617.142 377.641H615.881ZM623.445 385.204C644.875 382.683 667.565 381.422 688.995 378.901V377.641C667.565 380.162 644.875 381.423 623.445 383.944V385.204ZM688.995 378.901C691.516 378.901 692.777 377.641 694.038 376.38C695.298 375.12 694.038 372.598 694.038 370.077H692.777C694.038 372.598 694.038 373.859 692.777 375.119C692.777 376.38 691.516 376.38 688.995 376.38V378.901ZM694.038 370.077C688.995 358.732 685.214 348.647 681.432 337.302H680.171C683.953 348.647 687.735 359.993 692.777 370.077H694.038ZM681.432 337.302C678.911 329.739 675.129 322.175 665.044 319.654V320.915C673.868 323.436 677.65 329.739 680.171 337.302H681.432ZM665.044 319.654C662.523 318.393 658.741 317.133 656.22 315.872C653.699 314.612 649.917 313.351 647.396 312.09V313.351C649.917 314.612 653.699 315.872 656.22 317.133C658.741 318.393 662.523 319.654 665.044 320.915V319.654ZM647.396 312.09C641.093 309.569 633.529 307.048 625.966 303.266V304.527C633.529 307.048 639.833 310.83 647.396 313.351V312.09ZM894.47 298.224C899.512 294.442 902.033 291.921 905.815 289.4L904.554 288.139C902.033 290.661 898.252 293.182 894.47 298.224ZM905.815 288.139C913.378 281.837 920.942 275.534 928.505 269.231C936.069 262.928 943.632 256.625 951.196 250.322L949.935 249.061C942.372 255.364 934.809 261.667 927.245 267.97C920.942 275.534 913.378 280.576 905.815 288.139ZM952.457 251.583C953.717 251.583 953.717 250.322 953.717 250.322L954.978 249.061C954.978 247.801 954.978 247.801 954.978 246.54C954.978 245.28 953.717 245.28 952.457 244.019L951.196 245.28C952.457 246.54 952.457 246.54 952.457 246.54V247.801C952.457 247.801 952.457 249.061 951.196 249.061C953.717 249.061 952.457 249.061 952.457 251.583ZM953.717 242.759C952.456 242.759 952.456 241.498 953.717 242.759C952.456 241.498 952.457 241.498 952.457 241.498L951.196 242.759C951.196 242.759 952.456 244.019 953.717 242.759C952.456 244.019 952.456 244.019 953.717 242.759ZM900.773 199.899C899.512 198.638 899.512 198.638 898.251 198.638C896.991 198.638 896.991 197.378 895.731 198.638C894.47 198.638 894.47 198.638 893.209 199.899C893.209 201.159 891.949 201.159 891.949 202.42H893.209C893.209 201.159 894.47 199.899 894.47 199.899L895.731 198.638H896.991C898.251 199.899 899.512 199.899 900.773 199.899ZM891.949 201.159C886.906 213.765 881.864 225.11 876.822 236.456H878.082C883.124 225.11 888.167 212.505 893.209 201.159H891.949ZM876.822 237.716C874.301 244.019 873.04 249.061 875.561 255.364H876.822C874.301 249.061 875.561 244.019 876.822 237.716ZM875.561 255.364C879.343 261.667 880.604 267.97 883.125 274.273H884.385C881.864 266.71 880.603 260.407 875.561 255.364ZM883.125 274.273C886.906 281.837 889.427 289.4 893.209 296.964H894.47C890.688 288.139 888.167 281.837 884.385 274.273H883.125ZM619.663 293.182C619.663 291.921 620.924 291.921 620.924 290.661C620.924 289.4 622.184 289.4 622.184 288.139H620.924C620.924 289.4 619.663 289.4 619.663 290.661C619.663 290.661 619.663 291.921 619.663 293.182ZM623.445 289.4C629.748 275.534 636.051 261.667 642.354 247.801H641.093C634.79 260.407 628.487 274.273 623.445 289.4ZM642.354 247.801C642.354 246.54 643.614 245.28 643.614 242.759C643.614 241.498 643.614 238.977 642.354 237.716H641.093C641.093 238.977 642.354 240.237 642.354 241.498C642.354 242.759 642.354 244.019 642.354 245.28V247.801ZM641.093 237.716C636.051 223.85 631.009 211.244 624.706 197.378H623.445C628.487 211.244 633.53 223.85 639.832 237.716H641.093ZM625.966 197.378C625.966 196.117 624.706 196.117 624.706 194.856L623.445 193.596C622.184 193.596 622.184 193.596 620.924 193.596C619.663 193.596 619.663 194.856 618.403 194.856L619.663 196.117C620.924 194.856 620.924 194.856 622.184 194.856H623.445C623.445 194.856 623.445 194.856 624.706 196.117C624.706 196.117 625.966 197.378 625.966 198.638V197.378ZM618.403 196.117C600.755 211.244 581.846 225.11 562.937 238.977L564.198 240.237C583.106 225.11 600.755 211.244 618.403 196.117ZM562.937 238.977C561.676 240.237 560.416 241.498 560.416 242.759C560.416 244.019 561.676 245.28 562.937 246.54L564.198 245.28C562.937 244.019 561.677 242.759 561.677 242.759C561.677 242.759 562.937 241.498 562.937 238.977ZM562.937 247.801C580.585 262.928 599.494 278.055 618.403 294.442L619.663 293.182C600.754 276.794 581.846 261.667 562.937 247.801ZM755.806 361.253C753.285 362.514 750.764 362.514 748.242 363.774V365.035C750.764 363.774 753.285 363.774 755.806 362.514V361.253ZM748.242 363.774C735.637 368.817 723.031 373.859 711.686 378.901V380.162C724.291 375.12 736.897 370.077 748.242 365.035V363.774ZM711.686 378.901C710.425 378.901 709.164 380.162 709.164 380.162C707.904 380.162 707.904 381.422 707.904 382.683C707.904 383.944 707.904 383.944 707.904 385.204C707.904 386.465 709.164 386.465 709.164 387.725L710.425 386.465C709.164 385.204 709.164 385.204 709.164 383.944V382.683C709.164 382.683 709.164 381.422 710.425 381.422C710.425 381.422 711.686 380.162 712.946 380.162L711.686 378.901ZM709.164 386.465C723.031 404.113 738.158 421.761 752.024 440.67L753.285 439.409C738.158 421.761 724.291 404.113 709.164 386.465ZM752.024 440.67C753.285 441.93 754.545 443.191 757.067 443.191C758.327 443.191 759.588 441.93 762.109 440.67L760.848 439.409C759.588 440.67 758.327 441.93 757.067 441.93C755.806 441.93 754.545 441.93 752.024 440.67ZM760.848 440.67C774.715 424.282 788.581 406.634 802.447 390.247L801.187 388.986C787.321 405.373 773.454 423.022 760.848 440.67ZM802.447 390.247C803.708 388.986 803.708 387.725 804.969 386.465C804.969 385.204 806.229 385.204 804.969 383.944C804.969 382.683 803.708 382.683 803.708 381.422C802.447 380.162 801.187 380.162 799.926 378.901V380.162C801.187 381.422 802.447 381.422 803.708 381.422C804.968 381.422 804.969 382.683 804.969 382.683V383.944C803.708 386.465 802.447 387.725 802.447 390.247ZM801.187 380.162C797.405 378.901 793.623 376.38 789.841 375.119C786.06 373.859 782.278 371.338 778.496 370.077V371.338C782.278 372.598 786.06 375.12 789.841 376.38C793.623 377.641 797.405 380.162 801.187 381.422V380.162ZM778.496 370.077C770.933 367.556 764.63 363.774 757.067 361.253V362.514C764.63 365.035 770.933 368.817 778.496 371.338V370.077ZM758.327 130.567C759.588 130.567 759.588 130.567 759.588 130.567H760.848V129.306C760.848 129.306 760.848 129.306 759.588 129.306H758.327V130.567ZM760.848 130.567C775.975 124.264 791.102 117.961 804.969 111.658V110.398C789.842 116.701 774.715 123.003 760.848 129.306V130.567ZM804.969 111.658C806.229 111.658 806.229 110.398 807.49 110.398V109.137V107.876L806.229 106.616L804.969 107.876L806.229 109.137V110.398C806.229 110.398 806.229 110.398 806.229 111.658C806.229 109.137 804.969 109.137 804.969 111.658ZM806.229 104.095C791.102 86.4466 775.975 67.5379 762.109 48.6292L760.848 49.8897C775.975 68.7984 789.842 87.7072 806.229 104.095ZM762.109 49.8897C760.848 48.6291 759.588 47.3686 758.327 47.3686C757.066 47.3686 755.806 48.6291 754.545 49.8897L755.806 51.1503C757.067 49.8897 757.066 49.8897 758.327 49.8897C758.327 48.6291 759.588 48.6291 762.109 49.8897ZM754.545 49.8897C746.982 58.7138 739.418 67.5378 733.115 76.3619C725.552 85.186 717.989 94.0101 711.686 102.834L712.946 104.095C720.51 95.2707 728.073 86.4466 734.376 77.6225C741.939 68.7985 748.242 59.9744 754.545 49.8897ZM711.686 104.095C710.425 105.355 709.164 107.876 710.425 109.137C710.425 110.398 711.685 111.658 714.207 112.919V111.658C711.685 110.398 711.686 110.398 711.686 109.137C710.425 106.616 710.425 106.616 711.686 104.095ZM712.946 111.658C723.031 115.44 733.116 120.482 743.2 124.264V123.003C733.116 119.222 723.031 114.179 712.946 110.398V111.658ZM744.461 125.525C749.503 128.046 754.545 129.306 758.327 131.827V130.567C754.545 128.046 749.503 125.525 744.461 125.525ZM613.36 106.616C612.1 107.876 612.1 107.876 610.839 107.876L609.579 109.137L610.839 110.398C610.839 110.398 610.839 110.398 612.1 109.137C612.1 109.137 613.36 109.137 613.36 106.616ZM609.579 110.398C595.712 126.785 584.367 143.173 575.543 163.342H576.803C584.367 144.433 596.973 126.785 609.579 110.398ZM574.282 162.081C573.022 163.342 573.022 164.603 574.282 165.863C574.282 167.124 575.543 167.124 576.803 168.384V167.124C575.543 167.124 574.282 165.863 574.282 165.863C575.543 164.603 575.543 164.603 574.282 162.081ZM578.064 168.384C589.409 173.427 600.755 178.469 612.1 183.511V182.251C600.755 177.208 589.409 172.166 578.064 167.124V168.384ZM612.1 183.511C613.36 184.772 615.881 184.772 615.881 184.772C617.142 184.772 618.403 184.772 618.403 184.772C619.663 184.772 619.663 183.511 619.663 182.251C619.663 180.99 619.663 179.73 619.663 177.208H618.403C618.403 179.73 618.403 180.99 618.403 180.99C618.403 182.251 618.403 182.251 617.142 182.251C617.142 182.251 615.881 182.251 614.621 182.251C615.881 183.511 614.621 183.511 612.1 183.511ZM620.924 177.208C619.663 160.821 618.403 144.433 615.881 126.785H614.621C615.881 143.173 618.402 159.56 619.663 177.208H620.924ZM615.881 126.785C615.881 120.482 614.621 114.179 613.36 106.616H612.1C613.36 114.179 613.36 120.482 614.621 126.785H615.881ZM557.895 251.583C557.895 252.843 557.895 252.843 556.634 254.104C556.634 255.364 556.634 255.364 556.634 256.625H557.895V255.364C557.895 254.104 557.895 254.104 559.155 252.843L557.895 251.583ZM556.634 255.364C557.895 276.794 561.676 296.964 569.24 315.872H570.5C562.937 296.964 559.155 276.794 557.895 255.364H556.634ZM569.24 317.133C570.5 318.393 570.501 319.654 571.761 319.654C573.022 319.654 574.282 319.654 575.543 318.393V317.133C574.282 318.393 573.022 318.393 571.761 317.133C570.501 317.133 570.5 315.872 569.24 314.612V317.133ZM576.803 319.654C588.149 314.612 599.494 310.83 610.839 305.788V304.527C599.494 309.569 588.149 313.351 576.803 318.393V319.654ZM610.839 304.527C612.1 303.266 613.36 303.266 614.621 303.266C615.881 303.266 615.881 302.006 615.881 300.745C615.881 299.485 615.881 299.485 614.621 298.224C613.36 296.964 613.36 296.964 612.1 295.703L610.839 296.964C612.1 298.224 613.36 299.485 613.36 299.485C613.36 300.745 614.621 300.745 614.621 300.745C614.621 300.745 614.621 302.006 613.36 302.006C612.1 302.006 610.839 303.266 609.579 303.266L610.839 304.527ZM612.1 295.703C603.276 288.14 595.712 281.837 586.888 274.273C578.064 266.71 570.501 260.407 561.677 252.843L560.416 254.104C569.24 261.667 576.804 267.97 585.628 275.534C595.712 281.837 603.276 289.4 612.1 295.703ZM562.937 252.843L561.677 251.583C560.416 251.583 560.416 250.322 559.155 250.322L557.895 251.583C559.155 251.583 559.155 252.843 560.416 252.843C561.677 254.104 561.676 254.104 562.937 252.843ZM620.924 391.507C620.924 392.768 622.184 392.768 622.184 392.768L623.445 394.028C624.706 395.289 624.705 395.289 625.966 396.549L627.227 395.289C625.966 395.289 625.966 394.028 624.706 392.768L623.445 391.507C622.184 391.507 622.184 391.507 620.924 391.507ZM625.966 397.81C641.093 410.416 656.22 420.5 673.868 429.324V428.064C657.481 419.24 641.093 409.155 625.966 397.81ZM673.868 429.324C675.129 430.585 677.65 430.585 678.91 430.585C680.171 430.585 681.432 429.325 681.432 426.803H680.171C678.911 428.064 678.91 429.324 677.65 429.324C677.65 428.064 676.389 428.064 673.868 429.324ZM681.432 425.543C686.474 412.937 691.516 401.592 696.559 388.986H695.298C690.256 401.592 685.213 412.937 680.171 425.543H681.432ZM696.559 388.986C696.559 387.725 697.819 386.465 697.819 386.465C697.819 385.204 697.819 385.204 697.819 383.944C697.819 383.944 696.558 382.683 695.298 382.683C694.037 382.683 694.038 382.683 692.777 382.683V383.944C694.038 383.944 695.298 383.944 695.298 383.944C696.558 383.944 696.559 383.944 696.559 383.944C696.559 383.944 696.559 383.944 696.559 385.204C696.559 385.204 696.558 386.465 695.298 387.725L696.559 388.986ZM691.516 383.944C673.868 385.204 657.481 387.725 639.832 388.986V390.247C657.481 388.986 673.868 387.725 691.516 385.204V383.944ZM641.093 388.986C638.572 388.986 634.79 388.986 632.269 390.247C628.487 390.247 625.966 390.246 622.184 391.507V392.768C625.966 392.768 629.748 391.507 632.269 391.507C636.051 391.507 638.572 391.507 641.093 390.247V388.986ZM811.271 387.725C803.708 397.81 794.884 406.634 787.321 416.719C779.757 426.803 772.194 435.627 763.37 445.712L764.63 446.973C772.193 436.888 781.018 428.064 788.581 417.979C796.145 407.895 804.969 397.81 811.271 387.725ZM764.63 445.712C765.89 445.712 767.151 446.973 767.151 446.973C768.412 446.973 768.412 446.973 769.672 446.973V445.712C769.672 445.712 768.412 445.712 767.151 445.712C765.891 445.712 765.891 445.712 763.37 444.451L764.63 445.712ZM769.672 448.233C788.581 446.973 807.49 443.191 826.399 436.888V435.627C807.49 441.93 789.842 445.712 769.672 446.973V448.233ZM826.399 435.627C828.92 434.367 830.18 433.106 830.18 431.846C830.18 430.585 830.18 428.064 828.92 426.803H827.659C828.919 429.325 828.92 430.585 828.92 431.846C828.92 433.106 827.659 434.367 825.138 434.367L826.399 435.627ZM830.18 426.803C827.659 421.761 825.138 416.719 823.877 410.416C821.356 405.373 820.096 400.331 817.574 394.028H816.314C818.835 399.07 821.356 404.113 822.617 410.416C823.877 416.719 826.398 421.761 830.18 426.803ZM816.314 394.028C815.053 391.507 813.793 390.246 812.532 387.725L811.271 388.986C812.532 391.507 815.053 392.768 815.053 395.289L816.314 394.028ZM765.89 44.8474C767.151 46.108 767.151 47.3686 767.151 48.6292C767.151 49.8897 768.412 49.8897 768.412 51.1503L769.672 49.8897C769.672 49.8897 768.412 48.6292 768.412 47.3686C768.412 46.108 767.151 44.8474 765.89 44.8474ZM768.412 49.8897C774.715 58.7138 782.278 66.2773 788.581 75.1013C794.884 83.9254 802.447 91.4889 808.75 100.313L810.011 99.0524C803.708 90.2283 796.144 82.6648 789.841 73.8408C783.539 66.2773 775.975 57.4532 768.412 49.8897ZM808.75 100.313C810.011 101.574 811.272 102.834 812.532 102.834C813.793 102.834 815.053 101.574 815.053 100.313H813.793C813.793 101.574 812.532 102.834 811.271 102.834C812.532 101.574 811.271 101.574 808.75 100.313ZM816.314 99.0524C821.356 87.7072 826.398 75.1013 831.441 63.7561H830.18C825.138 75.1013 820.095 87.7072 815.053 99.0524H816.314ZM831.441 63.7561C832.701 61.2349 832.701 59.9744 831.441 58.7138C830.18 57.4533 828.92 56.1926 826.399 56.1926V57.4532C828.92 57.4532 828.92 58.7138 830.18 59.9744C830.18 61.235 830.18 61.2349 831.441 63.7561ZM826.399 56.1926C821.356 54.932 816.314 53.6714 811.271 51.1503C806.229 49.8897 801.187 48.6292 796.144 47.3686V48.6292C801.187 49.8897 806.229 51.1504 811.271 52.4109C816.314 53.6715 821.356 54.932 826.399 57.4532V56.1926ZM796.144 47.3686C787.32 44.8474 777.236 44.8474 767.151 43.5868V44.8474C778.496 46.108 787.32 47.3686 796.144 48.6292V47.3686ZM896.991 308.309C896.991 309.569 896.991 310.83 896.991 312.09C896.991 313.351 896.991 314.612 896.991 315.872H898.251C898.251 314.612 898.251 314.612 898.251 313.351C898.251 312.091 898.251 310.83 898.251 309.569L896.991 308.309ZM895.731 315.872C898.252 336.042 899.512 356.211 902.033 376.38H903.294C900.773 356.211 899.512 336.042 896.991 315.872H895.731ZM902.033 376.38C902.033 377.641 902.033 377.641 903.294 378.901C903.294 380.162 904.554 380.162 904.554 381.422H905.815C905.815 380.162 904.554 380.162 904.554 378.901C904.554 377.641 903.294 377.641 903.294 376.38H902.033ZM904.554 381.422C905.815 381.422 905.815 380.162 904.554 381.422C905.815 380.162 907.076 380.162 907.076 380.162C908.336 380.162 908.336 378.901 909.597 378.901L908.336 377.641L907.076 378.901H905.815C905.815 378.901 904.554 380.162 904.554 381.422ZM909.597 378.901C919.681 363.774 929.766 348.647 939.851 333.52L938.59 332.26C928.506 347.387 918.421 362.514 909.597 378.901ZM939.851 332.26C941.111 329.739 941.111 328.478 941.111 327.218C939.851 325.957 938.59 324.696 936.069 323.436V324.696C938.59 325.957 939.851 325.957 939.851 327.218C939.851 328.478 939.851 329.739 939.851 332.26ZM936.069 323.436C931.027 322.175 925.984 319.654 922.202 317.133V318.393C927.245 320.914 932.287 322.175 936.069 324.696V323.436ZM922.202 317.133C914.639 313.351 907.076 310.83 898.251 307.048V308.309C907.076 312.091 914.639 314.612 922.202 318.393V317.133ZM899.512 192.335C904.554 196.117 908.336 199.899 912.118 202.42L913.379 201.159C909.597 198.638 905.815 194.857 899.512 192.335ZM912.118 202.42C925.984 213.765 938.59 225.11 952.457 235.195L953.717 233.934C939.851 223.85 925.984 212.505 912.118 202.42ZM952.457 235.195C953.717 236.456 953.717 236.456 954.978 236.456C956.238 236.456 956.238 236.456 957.499 237.716V236.456C956.238 236.456 956.238 235.195 954.978 235.195C954.978 235.195 953.717 235.195 952.457 235.195ZM957.499 237.716C957.499 237.716 957.499 236.456 958.76 236.456C958.76 236.456 960.02 235.195 958.76 233.934H957.499V235.195C957.499 235.195 956.238 236.456 956.238 237.716H957.499ZM960.02 233.934C957.499 215.026 954.977 196.117 947.414 177.208H946.154C953.717 194.856 956.238 213.765 958.76 233.934H960.02ZM947.414 177.208C946.153 174.687 946.154 173.427 943.632 173.427C942.372 173.427 941.111 173.427 938.59 174.687V175.948C939.851 174.687 941.111 174.687 942.372 174.687C943.632 174.687 943.632 175.948 944.893 177.208H947.414ZM938.59 173.427C934.808 174.687 931.027 177.208 927.245 178.469C923.463 179.73 919.681 182.251 915.899 183.511V184.772C919.681 183.511 923.463 180.99 927.245 179.73C931.027 178.469 934.808 175.948 938.59 174.687V173.427ZM915.899 183.511C910.857 186.032 907.076 187.293 900.773 191.075V192.335C907.076 189.814 910.857 187.293 915.899 183.511ZM750.764 44.8474C749.503 44.8474 749.503 44.8474 748.242 44.8474H746.982V46.108C746.982 46.108 746.982 46.108 748.242 46.108C748.242 46.108 749.503 46.108 750.764 46.108V44.8474ZM746.982 43.5868C728.073 46.108 709.164 48.6292 690.256 54.9321V56.1926C707.904 49.8897 726.812 46.108 746.982 44.8474V43.5868ZM690.256 56.1926C687.734 57.4532 686.474 57.4532 685.213 59.9744C683.953 61.235 685.213 63.7562 685.213 65.0167H686.474C685.213 62.4956 685.213 61.235 686.474 61.235C686.474 59.9744 687.734 59.9744 690.256 58.7138V56.1926ZM686.474 65.0167C691.516 76.362 695.298 86.4466 699.08 96.5313H700.341C696.559 85.186 691.516 75.1014 687.735 65.0167H686.474ZM699.08 96.5313C700.34 97.7918 700.341 99.0524 700.341 100.313C700.341 101.574 701.601 101.574 702.861 101.574C704.122 101.574 704.122 101.574 705.383 100.313C706.643 99.0524 706.643 99.0524 707.904 97.7918L706.643 96.5313C705.383 97.7918 704.122 99.0524 704.122 99.0524C702.862 99.0524 702.861 100.313 702.861 100.313C702.861 100.313 701.601 100.313 701.601 99.0524C701.601 97.7918 700.341 96.5312 700.341 95.2706L699.08 96.5313ZM709.164 97.7918C720.51 83.9254 733.116 68.7985 744.461 53.6715L743.2 52.4109C731.855 68.7985 719.249 82.6649 709.164 97.7918ZM744.461 54.9321C746.982 52.4109 748.243 49.8898 750.764 46.108L749.503 44.8474C746.982 48.6291 745.721 51.1503 744.461 54.9321ZM905.815 111.658L904.554 112.919C904.554 112.919 904.554 112.919 904.554 114.179H905.815C905.815 112.919 907.076 112.919 905.815 111.658ZM904.554 112.919C903.294 124.264 902.033 135.609 900.773 145.694C899.512 157.039 898.251 168.384 896.991 178.469H898.251C899.512 167.124 900.773 155.778 902.033 145.694C903.294 134.349 904.554 123.003 905.815 112.919H904.554ZM896.991 179.73C896.991 180.99 896.991 182.251 896.991 182.251C896.991 183.511 898.251 183.511 898.251 183.511C899.512 183.511 900.773 183.511 902.033 183.511V182.251C900.773 182.251 899.512 183.511 898.251 182.251C898.251 182.251 898.251 182.251 896.991 180.99C896.991 180.99 896.991 179.73 896.991 178.469V179.73ZM903.294 183.511C908.336 180.99 914.639 178.469 919.681 177.208C924.724 174.687 931.027 172.166 936.069 170.905V169.645C931.027 172.166 924.724 174.687 919.681 175.948C914.639 178.469 908.336 180.99 903.294 182.251V183.511ZM936.069 169.645C938.59 168.384 939.851 167.124 941.111 165.863C942.372 164.603 941.111 162.081 939.851 159.56L938.59 160.821C939.851 163.342 939.851 164.603 939.851 165.863C939.851 167.124 938.59 168.384 936.069 169.645ZM939.851 159.56C931.027 145.694 922.203 131.827 912.118 117.961C920.942 131.827 929.766 146.954 939.851 159.56ZM913.379 117.961C912.118 116.701 912.118 115.44 910.857 114.179C909.597 112.919 908.336 111.658 907.076 111.658L905.815 112.919C907.076 114.179 908.336 115.44 909.597 116.701C910.857 116.701 910.857 116.701 913.379 117.961ZM894.47 99.0524C893.209 97.7918 891.949 96.5312 891.949 95.2706C890.688 94.01 890.688 94.0101 889.428 92.7495L888.167 94.01C889.428 94.01 889.427 95.2707 890.688 96.5313C891.948 97.7918 891.949 99.0524 894.47 99.0524ZM889.428 94.01C883.125 88.9677 878.082 83.9254 871.779 80.1437L870.519 81.4042C876.822 85.186 883.125 90.2283 889.428 94.01ZM871.779 80.1437C862.955 75.1013 854.131 70.0591 845.307 65.0167L844.047 66.2773C852.871 70.059 861.695 75.1013 871.779 80.1437ZM845.307 63.7561C842.786 62.4955 841.526 62.4955 839.004 62.4955C836.483 62.4955 835.222 65.0167 835.222 67.5379H836.483C837.744 65.0167 839.004 63.7561 840.265 62.4955C840.265 63.7561 842.786 63.7561 845.307 63.7561ZM833.962 68.7984C830.18 80.1437 825.138 91.4889 820.096 102.834H821.356C826.398 91.4889 831.441 80.1437 835.222 68.7984H833.962ZM820.096 101.574C818.835 104.095 818.835 105.355 820.096 106.616C820.096 106.616 821.356 107.876 822.617 107.876C823.877 107.876 823.877 107.876 825.138 107.876V106.616C823.877 106.616 823.877 106.616 822.617 106.616H821.356C821.356 106.616 821.356 105.355 821.356 102.834L820.096 101.574ZM825.138 107.876C839.004 106.616 852.871 105.355 866.737 102.834V101.574C852.871 102.834 839.004 104.095 825.138 106.616V107.876ZM866.737 102.834C875.561 101.574 884.385 100.313 894.47 100.313V99.0524C884.385 100.313 875.561 100.313 866.737 101.574V102.834ZM899.512 302.006C914.639 308.309 927.245 313.351 941.111 318.393V317.133C928.505 312.091 914.639 305.788 899.512 300.745V302.006ZM939.851 319.654C941.111 320.915 943.632 320.915 944.893 319.654C946.154 318.393 947.414 317.133 947.414 315.872H946.154C946.154 317.133 944.893 318.393 944.893 318.393C943.632 318.393 943.632 318.393 941.111 318.393L939.851 319.654ZM947.414 315.872C949.935 307.048 951.196 298.224 953.717 290.661C956.238 281.837 957.499 273.012 960.02 265.449H958.76C956.238 274.273 954.978 283.097 952.457 290.661C949.935 299.485 948.675 308.309 946.154 315.872H947.414ZM958.76 264.188C958.76 261.667 958.759 259.146 960.02 256.625H958.76C958.76 259.146 958.76 261.667 958.76 264.188ZM958.76 255.364L957.499 254.104L956.238 255.364C957.499 256.625 957.499 256.625 958.76 255.364ZM956.238 255.364C937.33 270.491 918.421 285.618 898.251 302.006L899.512 303.266C919.681 285.618 938.59 270.491 956.238 255.364ZM893.209 395.289C893.209 394.028 893.209 394.028 891.949 392.768H890.688C890.688 392.768 890.688 392.768 890.688 394.028C890.688 395.289 891.949 395.289 893.209 395.289ZM891.949 392.768C889.427 392.768 886.906 392.768 885.646 391.507C883.124 391.507 880.603 391.507 879.343 390.247V391.507C881.864 391.507 884.385 391.507 885.646 392.768C888.167 392.768 890.688 392.768 891.949 394.028V392.768ZM878.082 391.507C869.258 390.246 860.434 388.986 851.61 388.986C842.786 387.725 833.962 386.465 825.138 386.465V387.725C833.962 388.986 842.786 390.247 851.61 390.247C860.434 391.507 869.258 392.768 878.082 392.768V391.507ZM825.138 385.204C823.877 385.204 823.877 385.204 822.617 385.204C821.356 385.204 821.356 385.204 820.096 385.204C818.835 385.204 818.835 386.465 818.835 386.465C818.835 387.725 818.835 387.725 818.835 388.986H820.096C820.096 387.725 820.096 387.725 820.096 386.465V385.204H821.356C822.617 385.204 822.617 385.204 823.877 385.204H825.138ZM820.096 391.507C825.138 404.113 830.18 415.458 835.222 426.803H836.483C831.441 414.198 826.398 402.852 821.356 391.507H820.096ZM835.222 426.803C836.483 428.064 836.483 429.325 837.744 430.585C839.004 430.585 840.265 430.585 841.525 429.324L840.265 428.064C839.004 429.325 837.744 429.324 837.744 429.324C836.483 429.324 836.483 428.064 835.222 426.803ZM842.786 429.324C854.131 423.022 864.216 416.719 875.561 410.416L874.3 409.155C864.216 415.458 852.871 421.761 842.786 429.324ZM874.3 410.416C880.603 406.634 885.646 401.592 891.949 396.549L890.688 395.289C885.646 400.331 880.603 405.373 874.3 410.416ZM748.242 446.973C748.242 445.712 748.242 445.712 748.242 444.451C748.242 444.451 748.242 444.452 748.242 443.191C748.242 443.191 748.242 443.191 748.242 441.93L746.982 443.191C746.982 443.191 746.982 444.451 746.982 445.712L748.242 446.973ZM746.982 443.191C733.115 426.803 720.51 409.155 706.643 392.768L705.383 394.028C719.249 410.416 733.115 426.803 746.982 443.191ZM706.643 392.768C705.383 391.507 704.122 390.247 702.861 390.247C701.601 390.247 700.341 391.507 700.341 394.028H701.601C702.861 392.768 702.862 391.507 704.122 391.507C704.122 391.507 704.122 391.507 706.643 392.768ZM699.08 394.028C695.298 404.113 691.516 414.198 686.474 424.282H687.735C691.516 414.198 696.559 404.113 700.341 394.028H699.08ZM687.735 424.282C686.474 426.803 686.474 428.064 686.474 429.324C686.474 430.585 686.474 431.846 686.474 433.106C686.474 434.367 687.734 434.367 688.995 435.627C690.256 436.888 691.516 436.888 694.038 436.888V435.627C691.516 435.627 690.256 434.367 688.995 434.367C687.734 434.367 687.735 433.106 686.474 433.106C686.474 431.846 686.474 431.846 686.474 430.585C686.474 429.325 687.735 428.064 687.735 425.543V424.282ZM694.038 436.888C707.904 440.67 721.77 443.191 736.897 446.973V445.712C723.031 443.191 707.904 439.409 694.038 435.627V436.888ZM735.637 446.973C736.897 446.973 739.418 446.973 740.679 446.973C741.939 446.973 744.461 446.973 746.982 446.973V445.712C744.461 445.712 743.2 445.712 740.679 445.712C739.418 445.712 736.897 445.712 735.637 445.712V446.973ZM608.318 380.162C609.578 378.901 608.318 378.901 608.318 380.162C609.578 380.162 609.579 378.901 610.839 378.901V377.641H609.579C608.318 377.641 608.318 378.901 608.318 380.162ZM610.839 377.641C612.1 372.598 612.1 367.556 612.1 361.253H610.839C610.839 366.296 609.579 371.338 609.579 377.641H610.839ZM612.1 362.514C613.36 354.95 613.36 347.387 614.621 339.823C615.881 332.26 615.882 324.696 617.142 317.133H615.881C614.621 324.696 614.621 332.26 613.36 339.823C612.1 347.387 612.1 354.95 610.839 362.514H612.1ZM618.403 315.872C618.403 314.612 618.403 313.351 618.403 312.09C618.403 310.83 618.403 310.83 617.142 309.569C617.142 309.569 615.881 308.309 614.621 308.309C613.36 308.309 613.36 308.309 612.1 309.569V310.83C613.36 310.83 613.36 309.569 614.621 309.569H615.881V310.83C615.881 312.091 615.881 313.351 615.881 314.612L618.403 315.872ZM612.1 309.569C600.755 314.612 590.67 318.393 579.325 323.436V324.696C590.67 319.654 600.755 315.872 612.1 310.83V309.569ZM579.325 323.436C578.064 324.696 575.543 324.696 575.543 327.218C574.282 328.478 575.543 330.999 576.803 332.26L578.064 330.999C576.803 328.478 576.803 327.218 576.803 327.218C576.803 325.957 578.064 325.957 579.325 324.696V323.436ZM575.543 332.26C581.846 342.344 586.888 353.69 594.451 363.774L595.712 362.514C589.409 352.429 583.106 341.084 575.543 332.26ZM594.451 362.514C598.233 368.817 603.276 373.859 607.057 378.901L608.318 377.641C604.536 372.598 599.494 367.556 594.451 362.514ZM614.621 191.075C613.36 189.814 612.1 189.814 610.839 188.554C609.579 187.293 608.318 187.293 608.318 187.293V188.554C609.578 188.554 609.579 189.814 610.839 189.814C610.839 191.075 612.1 191.075 614.621 191.075ZM608.318 187.293C598.233 183.511 588.149 178.469 578.064 174.687V175.948C588.149 179.73 598.233 184.772 608.318 188.554V187.293ZM573.022 173.427C571.761 173.427 570.5 175.948 569.24 177.208H570.5C571.761 174.687 571.761 173.427 573.022 173.427ZM569.24 178.469C562.937 194.857 559.155 212.505 557.895 230.153H559.155C561.677 212.505 564.198 196.117 570.5 178.469H569.24ZM557.895 228.892C557.895 230.153 557.895 230.153 557.895 231.413C557.895 232.674 557.895 233.935 559.155 235.195H560.416C560.416 233.935 560.416 232.674 559.155 231.413C559.155 230.153 559.155 230.153 559.155 228.892H557.895ZM559.155 236.456C578.064 221.329 595.712 207.462 614.621 192.335L613.36 191.075C594.451 206.202 576.803 220.068 559.155 236.456ZM624.706 95.2706C625.966 96.5312 625.966 96.5313 627.227 96.5313C627.227 96.5313 627.227 96.5313 628.487 96.5313V95.2706C627.227 95.2706 627.227 95.2706 624.706 95.2706ZM628.487 97.7918C648.657 100.313 668.826 102.834 690.256 105.355V104.095C670.086 101.574 649.917 99.0524 628.487 96.5313V97.7918ZM688.995 105.355C690.256 105.355 691.516 105.355 692.777 105.355C694.038 105.355 694.037 105.355 695.298 104.095C695.298 102.834 695.298 102.834 695.298 101.574C695.298 100.313 695.298 99.0524 694.038 97.7918H692.777C692.777 99.0524 694.038 100.313 694.038 101.574C694.038 102.834 694.038 102.834 694.038 102.834C694.038 102.834 694.038 102.834 692.777 104.095C691.516 104.095 691.516 104.095 690.256 104.095L688.995 105.355ZM694.038 97.7918C691.516 92.7495 690.256 87.7072 687.735 83.9255C685.214 78.8831 683.953 73.8407 681.432 70.059H680.171C682.692 75.1013 683.953 80.1437 686.474 83.9255C688.995 88.9678 690.256 94.0101 692.777 97.7918H694.038ZM681.432 68.7984C680.171 67.5378 680.171 65.0167 678.91 65.0167C677.65 63.7562 677.65 63.7561 676.389 62.4955C675.129 62.4955 673.868 62.4955 672.608 62.4955C671.347 62.4955 670.087 63.7562 668.826 65.0167L670.086 66.2773C671.347 65.0167 672.608 65.0167 673.868 63.7561C675.129 63.7561 675.129 63.7561 676.389 63.7561L677.65 65.0167C677.65 66.2773 678.911 67.5378 680.171 68.7984H681.432ZM670.086 65.0167C662.523 68.7985 656.22 72.5802 648.657 77.6225L649.917 78.8831C656.22 73.8408 663.783 70.0591 670.086 65.0167ZM648.657 77.6225C641.093 82.6649 633.53 88.9677 624.706 95.2706L625.966 96.5313C633.529 88.9678 641.093 83.9255 648.657 77.6225ZM685.213 329.739C685.213 330.999 683.953 330.999 685.213 329.739C683.953 330.999 683.953 330.999 683.953 330.999C683.953 330.999 683.953 330.999 683.953 332.26L685.213 330.999C685.213 330.999 685.213 329.739 686.474 329.739H685.213ZM683.953 332.26C688.995 346.126 694.038 358.732 700.341 372.598H701.601C696.558 359.993 691.516 346.126 685.213 332.26H683.953ZM700.341 372.598C701.601 373.859 702.861 373.859 702.861 375.119H704.122H705.383V373.859C705.383 373.859 705.383 373.859 704.122 373.859H702.861H701.601L700.341 372.598ZM705.383 375.119C709.165 373.859 712.946 372.598 716.728 370.077V368.817C712.946 370.077 709.165 372.598 705.383 373.859V375.119ZM717.989 370.077C723.031 368.817 726.813 366.296 731.855 365.035C736.897 363.774 740.679 361.253 745.721 359.993V358.732C740.679 359.993 736.897 362.514 731.855 363.774C726.813 365.035 723.031 367.556 717.989 368.817V370.077ZM745.721 358.732C745.721 357.471 745.721 357.471 745.721 356.211H744.461C744.461 357.471 744.461 357.471 745.721 358.732C744.461 357.471 744.461 358.732 744.461 358.732H745.721ZM745.721 356.211C726.812 346.126 705.383 338.563 686.474 329.739V330.999C705.383 339.823 725.552 347.387 745.721 356.211ZM647.396 254.104C647.396 254.104 646.135 254.104 644.875 254.104V255.364C646.135 255.364 646.135 255.364 647.396 255.364V254.104ZM644.875 254.104C639.832 265.449 634.79 275.534 631.009 286.879H632.269C636.051 276.794 641.093 265.449 644.875 254.104ZM629.748 286.879C628.487 289.4 628.487 291.921 627.227 293.182C627.227 294.442 627.227 295.703 627.227 296.964C627.227 298.224 628.487 299.485 629.748 299.485C631.009 300.745 633.53 300.745 636.051 302.006V300.745C633.53 299.485 632.269 298.224 631.009 298.224C629.748 296.964 628.487 296.964 628.487 295.703C628.487 294.442 628.487 294.442 628.487 291.921C628.487 290.661 629.748 288.14 631.009 285.618L629.748 286.879ZM636.051 303.266C646.135 308.309 657.481 313.351 668.826 317.133V315.872C658.741 310.83 647.396 305.788 636.051 303.266ZM670.086 317.133C671.347 315.872 671.347 315.872 671.347 315.872V314.612H670.086C668.826 314.612 668.826 315.872 670.086 317.133ZM671.347 314.612C663.783 294.442 654.959 274.273 647.396 254.104H646.135C653.699 274.273 662.523 294.442 670.086 314.612H671.347ZM767.151 357.471C767.151 358.732 767.151 358.732 768.412 359.993H769.672V358.732V357.471H767.151ZM767.151 359.993C779.757 366.295 792.363 371.338 806.229 376.38V375.119C793.623 370.077 781.018 365.035 767.151 359.993ZM806.229 376.38H807.49C808.75 376.38 808.75 376.38 810.011 375.119C811.271 373.859 812.532 373.859 813.793 372.598H812.532C812.532 373.859 811.271 373.859 810.011 375.119C810.011 375.119 808.75 375.12 808.75 376.38C807.49 376.38 807.49 376.38 806.229 376.38ZM813.793 373.859C816.314 368.817 818.835 363.774 820.096 357.471H818.835C816.314 362.514 815.053 367.556 813.793 373.859ZM820.096 357.471C822.617 349.908 826.398 342.344 828.92 334.781H827.659C823.877 342.344 821.356 349.908 818.835 357.471H820.096ZM828.92 334.781C828.92 333.52 828.92 333.52 828.92 334.781C827.659 333.52 827.659 333.52 827.659 333.52H826.399C826.399 333.52 826.398 334.781 827.659 334.781C827.659 334.781 827.659 334.781 828.92 334.781ZM827.659 332.26C807.49 339.823 787.32 348.647 767.151 356.211V357.471C787.32 349.908 807.49 341.084 827.659 333.52V332.26ZM830.18 160.821C830.18 159.56 830.18 159.56 830.18 158.3C830.18 157.039 830.18 157.039 830.18 157.039H828.92C828.92 157.039 828.92 157.039 828.92 158.3C828.92 158.3 828.92 159.56 828.92 160.821H830.18ZM830.18 155.779C825.138 143.173 820.095 130.567 815.053 117.961H813.793C818.835 130.567 823.877 143.173 828.92 155.779H830.18ZM815.053 117.961C813.792 117.961 813.792 117.961 815.053 117.961C813.792 116.701 812.532 116.701 812.532 115.44C812.532 115.44 811.271 115.44 810.011 115.44H808.75V116.701C808.75 116.701 808.75 116.701 810.011 116.701H811.271H812.532L815.053 117.961ZM808.75 116.701C797.405 121.743 784.799 125.525 773.454 130.567V131.827C784.799 126.785 796.144 121.743 808.75 117.961V116.701ZM773.454 130.567C772.193 130.567 772.193 131.827 770.933 131.827C770.933 131.827 770.933 133.088 769.672 133.088V134.349H770.933C770.933 134.349 770.933 134.349 770.933 133.088L772.193 131.827L773.454 130.567ZM769.672 134.349C770.933 135.609 770.933 135.609 770.933 136.87C772.193 136.87 772.193 138.13 773.454 138.13V136.87C773.454 136.87 772.193 135.609 770.933 135.609C770.933 135.609 770.933 135.609 769.672 134.349ZM773.454 138.13C778.496 140.652 783.539 141.912 787.321 144.433V143.173C783.539 140.652 779.757 138.13 773.454 138.13ZM788.581 144.433C802.448 149.476 815.053 155.779 828.92 160.821V159.56C815.053 153.257 801.187 148.215 788.581 143.173V144.433ZM842.786 319.654C844.047 319.654 845.307 319.654 846.568 318.393C847.828 318.393 847.828 318.393 847.828 318.393V317.133H846.568C845.307 317.133 845.307 317.133 842.786 318.393V319.654ZM847.828 318.393C859.173 313.351 870.519 309.569 881.864 304.527V303.266C870.519 307.048 859.173 312.091 847.828 317.133V318.393ZM881.864 304.527C884.385 303.266 886.906 302.006 886.906 300.745C886.906 299.485 886.906 296.964 885.646 294.442H884.385C885.646 296.964 885.646 298.224 885.646 299.485C885.646 300.745 884.385 302.006 881.864 303.266V304.527ZM886.906 294.442C884.385 289.4 883.125 284.358 880.603 279.315C878.082 274.273 876.822 269.231 874.3 264.188H873.04C875.561 269.231 876.822 274.273 879.343 279.315C881.864 284.358 883.124 289.4 885.646 294.442H886.906ZM874.3 262.928C874.3 261.667 873.04 261.667 873.04 260.407C873.04 259.146 871.779 259.146 871.779 257.886L870.519 259.146C870.519 260.407 871.779 260.407 871.779 261.667C871.779 262.928 871.779 262.928 874.3 262.928ZM869.258 259.146C869.258 260.407 867.998 260.407 866.737 261.667C865.476 262.928 865.476 262.928 865.476 264.188H866.737C866.737 262.928 867.998 262.928 867.998 261.667C869.258 261.667 870.519 260.407 869.258 259.146ZM865.476 262.928C861.695 271.752 857.913 281.837 852.87 290.661H854.131C859.173 281.837 862.955 273.013 865.476 262.928ZM854.131 290.661C850.349 299.485 846.568 308.309 842.786 318.393H844.047C847.828 308.309 851.61 299.485 855.392 290.661H854.131ZM846.568 174.687C845.307 175.948 845.307 175.948 845.307 175.948L846.568 177.208C846.568 177.208 846.568 177.208 847.828 175.948C846.568 175.948 846.568 174.687 846.568 174.687ZM845.307 175.948C845.307 178.469 846.568 179.73 846.568 182.251H847.828C846.568 179.73 846.568 178.469 846.568 175.948H845.307ZM846.568 182.251C850.349 191.075 854.131 199.899 857.913 208.723H859.173C855.392 199.899 851.61 191.075 847.828 182.251H846.568ZM857.913 208.723C860.434 216.286 864.216 223.85 866.737 231.413H867.998C864.216 223.85 861.695 216.286 859.173 208.723H857.913ZM866.737 231.413C866.737 232.674 867.998 232.674 867.998 233.934C869.258 233.934 869.258 235.195 870.519 235.195L871.779 233.934C870.519 233.934 870.519 232.674 869.258 232.674C867.998 231.413 867.998 231.413 866.737 231.413ZM870.519 235.195C871.779 235.195 871.779 235.195 870.519 235.195C871.779 235.195 871.779 235.195 873.04 233.934L874.3 232.674H873.04L871.779 233.934C870.519 233.934 870.519 233.935 870.519 235.195C870.519 233.935 870.519 233.935 870.519 235.195ZM874.3 232.674C876.822 226.371 879.343 221.329 881.864 215.026C884.385 208.723 886.906 203.681 889.428 197.378H888.167C885.646 203.681 883.125 208.723 880.603 215.026C878.082 221.329 875.561 226.371 873.04 232.674H874.3ZM888.167 197.378C889.428 196.117 889.428 193.596 888.167 192.335C886.906 191.075 885.646 189.814 884.385 189.814V191.075C885.646 191.075 886.906 192.335 886.906 193.596C886.906 194.857 886.906 196.117 886.906 197.378H888.167ZM884.385 189.814C879.343 188.554 875.561 186.032 870.519 183.511V184.772C875.561 187.293 879.343 188.554 884.385 191.075V189.814ZM870.519 183.511C862.955 179.73 854.131 177.208 846.568 173.427V174.687C854.131 178.469 862.955 180.99 870.519 184.772V183.511ZM644.875 232.674C646.135 232.674 646.135 232.674 644.875 232.674C646.135 232.674 646.135 232.674 647.396 232.674V231.413H646.135H644.875V232.674ZM647.396 232.674C652.438 223.85 656.22 213.765 660.002 204.941C663.784 194.857 668.826 186.032 672.608 175.948H671.347C666.305 186.032 662.523 194.857 658.741 204.941C656.22 212.505 651.178 222.589 647.396 232.674ZM673.868 174.687C672.608 174.687 672.608 174.687 671.347 173.427H670.086V174.687C670.086 174.687 670.086 174.687 671.347 174.687C671.347 174.687 672.608 174.687 673.868 175.948V174.687ZM670.086 173.427C663.783 175.948 657.48 178.469 651.178 180.99C644.875 183.511 638.572 186.032 632.269 188.554V189.814C638.572 187.293 644.875 184.772 651.178 182.251C657.48 179.73 663.783 177.208 670.086 174.687V173.427ZM633.53 188.554C632.269 188.554 632.269 189.814 631.009 189.814C631.009 189.814 629.748 191.075 629.748 192.335C629.748 193.596 629.748 194.856 631.009 196.117H632.269C632.269 194.856 631.009 193.596 631.009 192.335V191.075L632.269 189.814L633.53 188.554ZM631.009 197.378C632.269 199.899 633.53 202.42 633.53 204.941C634.79 207.462 636.051 209.983 636.051 212.505H637.311C636.051 209.983 634.79 207.462 634.79 204.941C633.53 202.42 632.269 199.899 632.269 197.378H631.009ZM637.311 212.505C639.833 218.808 642.354 225.11 644.875 231.413H646.135C643.614 225.11 641.093 218.808 638.572 212.505H637.311ZM687.735 159.56C690.256 159.56 691.516 158.3 692.777 158.3C694.038 158.3 695.298 157.039 696.559 157.039V155.779C695.298 155.779 694.038 157.039 692.777 157.039C691.516 157.039 690.256 158.3 687.735 158.3V159.56ZM696.559 157.039C697.819 155.778 697.819 155.778 696.559 157.039C697.819 157.039 697.819 157.039 697.819 157.039V155.779L696.559 157.039ZM741.94 138.13C743.2 138.13 743.2 136.87 744.461 136.87C745.721 135.609 745.721 135.609 745.721 135.609L744.461 134.349C743.2 134.349 743.2 135.609 743.2 135.609C743.2 135.609 741.94 135.609 741.94 138.13ZM745.721 133.088L744.461 131.827C744.461 130.567 743.2 130.567 741.94 130.567V131.827L743.2 133.088C744.461 133.088 744.461 133.088 745.721 133.088ZM741.94 129.306C731.855 125.525 721.77 120.482 711.686 116.701V117.961C721.77 123.003 731.855 126.785 741.94 129.306ZM711.686 116.701C709.165 115.44 707.904 115.44 706.643 116.701C705.383 116.701 704.122 119.222 702.861 120.482H704.122C705.383 119.222 705.383 117.961 706.643 117.961C709.165 116.701 710.425 116.701 711.686 116.701ZM704.122 120.482C700.34 128.046 696.559 135.609 694.038 144.433H695.298C697.819 136.87 701.601 128.046 704.122 120.482ZM692.777 143.173C690.256 148.215 688.995 151.997 686.474 158.3H687.735C690.256 151.997 691.516 148.215 694.038 143.173H692.777Z" fill="#1a2230"/>
<path d="M857.662 69.3189C863.615 52.9635 855.181 34.8793 838.826 28.9268C822.47 22.9743 804.386 31.4075 798.434 47.763C792.481 64.1185 800.914 82.2027 817.27 88.1552C833.625 94.1077 851.71 85.6744 857.662 69.3189Z" fill="white" stroke="#1a2230" stroke-width="10" stroke-miterlimit="22.9256"/>
<path d="M912.544 114.1C923.732 100.767 921.994 80.89 908.662 69.702C895.33 58.5141 875.452 60.2524 864.264 73.5846C853.076 86.9168 854.814 106.794 868.147 117.982C881.479 129.17 901.356 127.432 912.544 114.1Z" fill="white" stroke="#1a2230" stroke-width="10" stroke-miterlimit="22.9256"/>
<path d="M947.674 172.886C962.747 164.184 967.911 144.91 959.209 129.837C950.506 114.765 931.233 109.601 916.16 118.303C901.087 127.006 895.923 146.279 904.626 161.352C913.328 176.425 932.602 181.589 947.674 172.886Z" fill="white" stroke="#1a2230" stroke-width="10" stroke-miterlimit="22.9256"/>
<path d="M960.448 242.552C977.588 239.53 989.034 223.186 986.012 206.045C982.991 188.905 966.646 177.459 949.506 180.481C932.365 183.502 920.92 199.847 923.941 216.987C926.963 234.128 943.307 245.573 960.448 242.552Z" fill="white" stroke="#1a2230" stroke-width="10" stroke-miterlimit="22.9256"/>
<path d="M986.22 285.307C989.241 268.166 977.796 251.822 960.655 248.8C943.515 245.779 927.17 257.225 924.149 274.365C921.127 291.505 932.573 307.85 949.713 310.871C966.854 313.893 983.198 302.447 986.22 285.307Z" fill="white" stroke="#1a2230" stroke-width="10" stroke-miterlimit="22.9256"/>
<path d="M959.18 359.383C967.882 344.311 962.718 325.037 947.645 316.335C932.573 307.632 913.299 312.796 904.597 327.869C895.894 342.942 901.058 362.215 916.131 370.918C931.204 379.62 950.477 374.456 959.18 359.383Z" fill="white" stroke="#1a2230" stroke-width="10" stroke-miterlimit="22.9256"/>
<path d="M908.254 420.374C921.586 409.186 923.324 389.309 912.136 375.977C900.948 362.644 881.071 360.906 867.739 372.094C854.407 383.282 852.668 403.159 863.856 416.492C875.044 429.824 894.922 431.562 908.254 420.374Z" fill="white" stroke="#1a2230" stroke-width="10" stroke-miterlimit="22.9256"/>
<path d="M839.586 460.14C855.942 454.187 864.375 436.103 858.422 419.748C852.47 403.392 834.386 394.959 818.03 400.912C801.675 406.864 793.241 424.948 799.194 441.304C805.146 457.659 823.231 466.092 839.586 460.14Z" fill="white" stroke="#1a2230" stroke-width="10" stroke-miterlimit="22.9256"/>
<path d="M758.5 491C777.554 491 793 474.882 793 455C793 435.118 777.554 419 758.5 419C739.446 419 724 435.118 724 455C724 474.882 739.446 491 758.5 491Z" fill="white" stroke="#1a2230" stroke-width="10" stroke-miterlimit="22.9256"/>
<path d="M722.391 441.837C728.344 425.481 719.91 407.397 703.555 401.444C687.199 395.492 669.115 403.925 663.163 420.281C657.21 436.636 665.643 454.72 681.999 460.673C698.354 466.625 716.439 458.192 722.391 441.837Z" fill="white" stroke="#1a2230" stroke-width="10" stroke-miterlimit="22.9256"/>
<path d="M657.769 417.121C668.957 403.789 667.219 383.911 653.887 372.723C640.554 361.535 620.677 363.274 609.489 376.606C598.301 389.938 600.039 409.815 613.372 421.003C626.704 432.191 646.581 430.453 657.769 417.121Z" fill="white" stroke="#1a2230" stroke-width="10" stroke-miterlimit="22.9256"/>
<path d="M604.962 370.981C620.035 362.279 625.199 343.005 616.496 327.932C607.794 312.86 588.52 307.696 573.447 316.398C558.375 325.101 553.211 344.374 561.913 359.447C570.616 374.52 589.889 379.684 604.962 370.981Z" fill="white" stroke="#1a2230" stroke-width="10" stroke-miterlimit="22.9256"/>
<path d="M572.068 310.411C589.208 307.389 600.654 291.045 597.632 273.905C594.611 256.764 578.267 245.318 561.126 248.34C543.986 251.361 532.54 267.706 535.561 284.846C538.583 301.987 554.927 313.432 572.068 310.411Z" fill="white" stroke="#1a2230" stroke-width="10" stroke-miterlimit="22.9256"/>
<path d="M597.606 215.604C600.628 198.464 589.182 182.119 572.042 179.098C554.901 176.076 538.557 187.522 535.535 204.662C532.514 221.803 543.96 238.147 561.1 241.169C578.24 244.19 594.585 232.744 597.606 215.604Z" fill="white" stroke="#1a2230" stroke-width="10" stroke-miterlimit="22.9256"/>
<path d="M616.348 161.938C625.051 146.865 619.887 127.591 604.814 118.889C589.741 110.186 570.468 115.35 561.765 130.423C553.063 145.496 558.227 164.769 573.3 173.472C588.372 182.174 607.646 177.01 616.348 161.938Z" fill="white" stroke="#1a2230" stroke-width="10" stroke-miterlimit="22.9256"/>
<path d="M653.973 118.063C667.305 106.875 669.043 86.9974 657.855 73.6652C646.667 60.333 626.79 58.5947 613.458 69.7826C600.126 80.9706 598.387 100.848 609.575 114.18C620.763 127.512 640.641 129.251 653.973 118.063Z" fill="white" stroke="#1a2230" stroke-width="10" stroke-miterlimit="22.9256"/>
<path d="M703.437 77.2373C719.792 71.2848 728.225 53.2006 722.273 36.8451C716.32 20.4897 698.236 12.0564 681.881 18.0089C665.525 23.9614 657.092 42.0456 663.045 58.4011C668.997 74.7565 687.081 83.1898 703.437 77.2373Z" fill="white" stroke="#1a2230" stroke-width="10" stroke-miterlimit="22.9256"/>
<path d="M763.5 68C780.897 68 795 53.897 795 36.5C795 19.103 780.897 5 763.5 5C746.103 5 732 19.103 732 36.5C732 53.897 746.103 68 763.5 68Z" fill="white" stroke="#1a2230" stroke-width="10" stroke-miterlimit="22.9256"/>
</svg>
