<svg width="25" height="25" viewBox="0 0 25 25" fill="none" xmlns="http://www.w3.org/2000/svg">
<path d="M17.1932 4.21697C17.4511 3.50837 17.0857 2.72486 16.3771 2.46697C15.6685 2.20907 14.885 2.57445 14.6271 3.28305C14.3692 3.99166 14.7346 4.77517 15.4432 5.03306C16.1518 5.29096 16.9353 4.92558 17.1932 4.21697Z" stroke="#1B2230" stroke-width="0.5" stroke-miterlimit="22.9256"/>
<path d="M19.571 6.15708C20.0557 5.57946 19.9804 4.71826 19.4028 4.23354C18.8251 3.74882 17.9639 3.82413 17.4792 4.40175C16.9945 4.97938 17.0698 5.84058 17.6474 6.3253C18.2251 6.81002 19.0863 6.73471 19.571 6.15708Z" stroke="#1B2230" stroke-width="0.5" stroke-miterlimit="22.9256"/>
<path d="M21.0927 8.70406C21.7458 8.32702 21.9695 7.49198 21.5924 6.83895C21.2154 6.18592 20.3804 5.96218 19.7273 6.33922C19.0743 6.71626 18.8506 7.5513 19.2276 8.20433C19.6047 8.85736 20.4397 9.0811 21.0927 8.70406Z" stroke="#1B2230" stroke-width="0.5" stroke-miterlimit="22.9256"/>
<path d="M21.6468 11.7224C22.3894 11.5915 22.8853 10.8833 22.7544 10.1407C22.6235 9.39809 21.9154 8.9022 21.1728 9.03311C20.4301 9.16402 19.9342 9.87215 20.0652 10.6148C20.1961 11.3574 20.9042 11.8533 21.6468 11.7224Z" stroke="#1B2230" stroke-width="0.5" stroke-miterlimit="22.9256"/>
<path d="M22.7627 13.5747C22.8936 12.8321 22.3977 12.124 21.6551 11.9931C20.9125 11.8622 20.2044 12.358 20.0735 13.1007C19.9425 13.8433 20.4384 14.5514 21.1811 14.6823C21.9237 14.8132 22.6318 14.3173 22.7627 13.5747Z" stroke="#1B2230" stroke-width="0.5" stroke-miterlimit="22.9256"/>
<path d="M21.5915 16.7841C21.9685 16.1311 21.7448 15.2961 21.0917 14.919C20.4387 14.542 19.6037 14.7657 19.2266 15.4187C18.8496 16.0718 19.0733 16.9068 19.7264 17.2839C20.3794 17.6609 21.2144 17.4372 21.5915 16.7841Z" stroke="#1B2230" stroke-width="0.5" stroke-miterlimit="22.9256"/>
<path d="M19.3852 19.4266C19.9628 18.9419 20.0381 18.0807 19.5534 17.503C19.0687 16.9254 18.2075 16.8501 17.6299 17.3348C17.0522 17.8195 16.9769 18.6808 17.4616 19.2584C17.9464 19.836 18.8076 19.9113 19.3852 19.4266Z" stroke="#1B2230" stroke-width="0.5" stroke-miterlimit="22.9256"/>
<path d="M16.4103 21.1495C17.1189 20.8916 17.4843 20.1081 17.2264 19.3995C16.9685 18.6908 16.185 18.3255 15.4764 18.5834C14.7678 18.8413 14.4024 19.6248 14.6603 20.3334C14.9182 21.042 15.7017 21.4074 16.4103 21.1495Z" stroke="#1B2230" stroke-width="0.5" stroke-miterlimit="22.9256"/>
<path d="M13.0526 22.4865C13.983 22.4865 14.7371 21.7323 14.7371 20.802C14.7371 19.8717 13.983 19.1175 13.0526 19.1175C12.1223 19.1175 11.3682 19.8717 11.3682 20.802C11.3682 21.7323 12.1223 22.4865 13.0526 22.4865Z" stroke="#1B2230" stroke-width="0.5" stroke-miterlimit="22.9256"/>
<path d="M11.3324 20.3564C11.5903 19.6478 11.2249 18.8643 10.5163 18.6064C9.80768 18.3485 9.02417 18.7139 8.76628 19.4225C8.50838 20.1311 8.87376 20.9146 9.58236 21.1725C10.291 21.4304 11.0745 21.065 11.3324 20.3564Z" stroke="#1B2230" stroke-width="0.5" stroke-miterlimit="22.9256"/>
<path d="M8.53241 19.2856C9.01714 18.708 8.94182 17.8468 8.3642 17.3621C7.78658 16.8774 6.92538 16.9527 6.44065 17.5303C5.95593 18.1079 6.03124 18.9691 6.60887 19.4538C7.18649 19.9386 8.04769 19.8632 8.53241 19.2856Z" stroke="#1B2230" stroke-width="0.5" stroke-miterlimit="22.9256"/>
<path d="M6.24457 17.2866C6.89761 16.9096 7.12134 16.0745 6.7443 15.4215C6.36726 14.7685 5.53223 14.5447 4.8792 14.9218C4.22616 15.2988 4.00243 16.1338 4.37947 16.7869C4.75651 17.4399 5.59154 17.6636 6.24457 17.2866Z" stroke="#1B2230" stroke-width="0.5" stroke-miterlimit="22.9256"/>
<path d="M4.81966 14.6624C5.56228 14.5315 6.05816 13.8233 5.92726 13.0807C5.79635 12.3381 5.08822 11.8422 4.3456 11.9731C3.60299 12.104 3.1071 12.8122 3.23801 13.5548C3.36891 14.2974 4.07705 14.7933 4.81966 14.6624Z" stroke="#1B2230" stroke-width="0.5" stroke-miterlimit="22.9256"/>
<path d="M5.92628 10.5548C6.05719 9.8122 5.5613 9.10407 4.81868 8.97316C4.07607 8.84226 3.36794 9.33814 3.23703 10.0808C3.10612 10.8234 3.60201 11.5315 4.34463 11.6624C5.08724 11.7933 5.79537 11.2974 5.92628 10.5548Z" stroke="#1B2230" stroke-width="0.5" stroke-miterlimit="22.9256"/>
<path d="M6.73844 8.22968C7.11548 7.57665 6.89175 6.74161 6.23871 6.36458C5.58568 5.98754 4.75065 6.21127 4.37361 6.8643C3.99657 7.51734 4.2203 8.35237 4.87334 8.72941C5.52637 9.10645 6.3614 8.88271 6.73844 8.22968Z" stroke="#1B2230" stroke-width="0.5" stroke-miterlimit="22.9256"/>
<path d="M8.36859 6.32878C8.94622 5.84406 9.02153 4.98286 8.53681 4.40523C8.05209 3.82761 7.19089 3.7523 6.61326 4.23702C6.03564 4.72174 5.96033 5.58294 6.44505 6.16057C6.92977 6.73819 7.79097 6.8135 8.36859 6.32878Z" stroke="#1B2230" stroke-width="0.5" stroke-miterlimit="22.9256"/>
</svg>
