<svg width="25" height="25" viewBox="0 0 25 25" fill="none" xmlns="http://www.w3.org/2000/svg">
<path d="M8.25587 10.1093L6.66517 8.43489C6.49773 8.22559 6.39307 7.9535 6.39307 7.6814C6.39307 7.40931 6.49773 7.13722 6.6861 6.94884C6.87447 6.76047 7.12563 6.63489 7.3768 6.63489C7.64889 6.63489 7.87912 6.73954 8.06749 6.94884L8.25587 7.15815L8.44424 6.94884C8.63261 6.76047 8.88377 6.63489 9.13493 6.63489C9.40703 6.63489 9.63726 6.73954 9.82563 6.94884C10.014 7.13722 10.1187 7.40931 10.1187 7.6814C10.1187 7.9535 10.014 8.22559 9.82563 8.41396L8.25587 10.1093ZM9.99307 6.76047C9.76284 6.50931 9.46982 6.38373 9.13493 6.38373C8.80005 6.38373 8.50703 6.50931 8.2768 6.76047L8.25587 6.80233L8.214 6.76047C8.0047 6.53024 7.69075 6.38373 7.3768 6.38373C7.06284 6.38373 6.74889 6.50931 6.51866 6.76047C6.28842 7.01163 6.16284 7.32559 6.16284 7.6814C6.16284 8.01629 6.28842 8.35117 6.51866 8.5814L8.25587 10.4233L9.99307 8.5814C10.2233 8.35117 10.3489 8.01629 10.3489 7.6814C10.3489 7.32559 10.2233 7.01163 9.99307 6.76047Z" fill="#1B2230"/>
<mask id="path-2-inside-1_350_321" fill="white">
<path d="M8.25643 23.593C7.71667 23.5512 7.19767 23.4675 6.69942 23.2164C5.99358 22.8607 5.57838 22.2329 5.37078 21.4169C5.14242 20.5589 5.22546 19.6801 5.4123 18.8431C5.53686 18.2363 5.70294 17.6713 5.88978 17.0855C6.15967 16.2694 6.53334 15.4743 6.99006 14.7628C7.32222 14.2188 7.71667 13.7166 8.09035 13.2144C8.17339 13.0888 8.23567 13.1098 8.33947 13.2144C9.23215 14.1351 9.89647 15.2232 10.3947 16.4577C10.8514 17.5667 11.1836 18.7176 11.2666 19.9312C11.3289 20.8937 11.1628 21.8144 10.5816 22.5886C10.2494 23.049 9.79267 23.321 9.27367 23.4465C8.92075 23.5093 8.58859 23.5512 8.25643 23.593ZM9.66811 19.1151C9.64735 19.0733 9.64735 19.0314 9.64735 18.9896C9.54355 18.5293 9.43975 18.0689 9.31519 17.5876C9.29443 17.483 9.25291 17.3575 9.19063 17.2738C8.89999 16.8762 8.58859 16.4786 8.27719 16.0811C8.21491 15.9974 8.17338 15.9974 8.1111 16.0811C7.7997 16.4996 7.46755 16.939 7.15615 17.3575C7.09387 17.4412 7.05235 17.5249 7.03159 17.6295C6.90703 18.1317 6.78246 18.6548 6.6579 19.157C6.63714 19.2198 6.63714 19.3035 6.6579 19.3453C6.8655 19.8057 7.05235 20.266 7.25995 20.7263C7.28071 20.7891 7.34298 20.831 7.3845 20.8728C7.5921 21.0402 7.82047 21.1867 8.02807 21.3332C8.11111 21.3959 8.17339 21.3959 8.25643 21.3332C8.46403 21.1448 8.69239 20.9774 8.89999 20.7891C8.94151 20.7473 9.00379 20.6845 9.02455 20.6217C9.19063 20.2451 9.33595 19.8475 9.48127 19.4709C9.56431 19.3662 9.62659 19.2198 9.66811 19.1151ZM6.32575 18.2572C6.38803 18.2154 6.40879 18.1945 6.42955 18.1526C6.59563 17.9224 6.76171 17.6923 6.92779 17.4621C6.96931 17.4202 6.99006 17.3575 6.99006 17.2947C7.09386 16.8553 7.19766 16.4159 7.30146 15.9974C7.34298 15.83 7.38451 15.6417 7.42603 15.4324C7.36375 15.4533 7.34299 15.4533 7.32223 15.4743C7.01082 15.7463 6.69942 15.9974 6.38802 16.2903C6.3465 16.3322 6.32575 16.3949 6.32575 16.4577C6.30499 16.9808 6.30499 17.5249 6.30499 18.0689C6.30499 18.1317 6.30499 18.1735 6.32575 18.2572ZM10.3532 22.0446C10.3947 22.0446 10.4155 22.0446 10.4362 22.0655C10.54 22.0864 10.5608 22.0237 10.5193 21.919C10.3739 21.5424 10.2286 21.1658 10.0833 20.7891C10.0625 20.7473 9.97951 20.6845 9.93799 20.7054C9.70963 20.7473 9.48127 20.7682 9.25291 20.831C9.19063 20.8519 9.12835 20.9147 9.10759 20.9774C9.06607 21.2285 9.06607 21.5005 9.02455 21.7726C9.00379 21.8772 9.04531 21.919 9.12835 21.919C9.54355 21.9609 9.95875 22.0027 10.3532 22.0446ZM10.0003 18.0271C10.0003 17.9852 10.021 17.9224 10.021 17.8597C10.0418 17.3784 10.0625 16.8971 10.0833 16.4159C10.0833 16.3531 10.0418 16.2694 10.0003 16.2275C9.68887 15.9764 9.39823 15.7463 9.08683 15.4952C9.06607 15.4743 9.02455 15.4533 8.96227 15.4324C8.98303 15.5161 8.98303 15.5579 8.98303 15.5998C9.08683 16.0392 9.21139 16.4996 9.29443 16.939C9.37747 17.3993 9.70963 17.6713 9.95875 18.0061C9.95875 18.048 9.97951 18.0271 10.0003 18.0271ZM5.95206 22.0446C6.40878 22.0027 6.82399 21.9609 7.23919 21.919C7.32223 21.919 7.36375 21.8772 7.34299 21.7726C7.30147 21.5424 7.28071 21.3122 7.25995 21.0821C7.23919 20.9774 7.19767 20.9147 7.11463 20.8937C6.88626 20.831 6.67866 20.7682 6.47106 20.7263C6.38802 20.7054 6.32575 20.7263 6.30499 20.831C6.18043 21.1867 6.05586 21.5424 5.9313 21.8981C5.84826 22.0237 5.86902 22.0655 5.95206 22.0446ZM8.2149 13.4446C8.17338 13.5073 8.15263 13.5283 8.15263 13.5492C7.98655 14.0514 7.84122 14.5536 7.6959 15.0558C7.67514 15.0976 7.69591 15.1813 7.73743 15.2232C7.86199 15.3696 8.00731 15.5161 8.15263 15.6626C8.21491 15.7253 8.27719 15.7253 8.33947 15.6626C8.46403 15.5161 8.58859 15.3906 8.71315 15.2441C8.75467 15.2022 8.77543 15.0976 8.75467 15.0558C8.63011 14.6582 8.52631 14.2815 8.40175 13.9049C8.31871 13.7794 8.25642 13.6329 8.2149 13.4446ZM11.059 19.701C11.0383 19.701 11.0175 19.701 11.0175 19.722C10.7476 19.994 10.4985 20.266 10.2286 20.538C10.2079 20.5799 10.1871 20.6636 10.2079 20.7054C10.3324 21.0402 10.457 21.375 10.5816 21.6889C10.6231 21.7935 10.6646 21.8772 10.7061 21.9818C11.0383 21.6261 11.2251 20.1614 11.059 19.701ZM10.1248 20.4125C10.1664 20.3915 10.1871 20.3915 10.1871 20.3915C10.4362 20.1404 10.6853 19.8684 10.9345 19.6173C10.9552 19.5964 10.9345 19.4918 10.9137 19.4499C10.6646 19.1361 10.4155 18.8431 10.1871 18.5292C10.1248 18.4456 10.0833 18.4665 10.0418 18.5711C10.0003 18.6966 9.95875 18.8222 9.89647 18.9268C9.81343 19.0733 9.81343 19.2198 9.87571 19.3662C9.89647 19.4081 9.89647 19.4499 9.89647 19.4918C9.95875 19.7847 10.0418 20.0986 10.1248 20.4125ZM8.2149 23.321C8.25642 23.2791 8.27719 23.2582 8.27719 23.2373C8.46403 22.8607 8.65087 22.4631 8.81695 22.0864C8.83771 22.0446 8.79619 21.9609 8.75467 21.94C8.58859 21.8353 8.40175 21.7516 8.23567 21.6679C8.19415 21.647 8.15262 21.647 8.1111 21.6679C7.94502 21.7516 7.77894 21.8563 7.5921 21.9609C7.50906 22.0027 7.50907 22.0446 7.55059 22.1283C7.65439 22.3166 7.75819 22.5049 7.84123 22.6933C7.98655 22.8816 8.09034 23.0908 8.2149 23.321ZM10.976 19.3035C10.9968 19.3035 11.0175 19.2825 11.0383 19.2825C10.893 18.32 10.6231 17.4202 10.2494 16.4996C10.2286 16.5623 10.2079 16.5833 10.2079 16.6251C10.1871 17.1482 10.1664 17.6713 10.1456 18.1735C10.1456 18.2363 10.1871 18.32 10.2286 18.3828C10.3947 18.6129 10.5816 18.8222 10.7684 19.0524C10.8307 19.1361 10.9137 19.2198 10.976 19.3035ZM10.0003 16.0601C10.021 16.0392 10.021 16.0392 10.021 16.0183C9.58507 15.0976 9.06607 14.2606 8.38099 13.5283C8.36023 13.5701 8.36023 13.612 8.38099 13.6329C8.50555 14.0514 8.65087 14.4489 8.77543 14.8674C8.83771 15.0767 8.94151 15.2232 9.10759 15.3487C9.37747 15.537 9.62659 15.7672 9.89647 15.9555C9.93799 16.0183 9.97951 16.0183 10.0003 16.0601ZM5.7237 22.0027C5.86902 21.5842 6.01434 21.1658 6.15966 20.7682C6.20118 20.6636 6.18043 20.6008 6.11815 20.538C5.91055 20.3078 5.70295 20.0986 5.49535 19.8894C5.47459 19.8684 5.43307 19.8475 5.39155 19.8057C5.26698 20.3915 5.43306 21.647 5.7237 22.0027ZM6.2427 20.4543C6.26346 20.4125 6.28422 20.4125 6.28422 20.3915C6.36726 20.0568 6.42955 19.7429 6.51259 19.4081C6.51259 19.3662 6.53335 19.3244 6.51259 19.2825C6.42955 19.0733 6.3465 18.885 6.2427 18.6757C6.20118 18.6966 6.18042 18.6966 6.15966 18.7176C5.95206 18.9896 5.7237 19.2616 5.53686 19.5546C5.5161 19.5755 5.53686 19.6801 5.55762 19.722C5.7237 19.9312 5.91054 20.1195 6.09739 20.3288C6.13891 20.3706 6.18042 20.4125 6.2427 20.4543ZM5.49535 19.429C5.51611 19.3872 5.53686 19.3244 5.57838 19.2825C5.74446 19.0524 5.91054 18.8431 6.07662 18.6339C6.15966 18.5292 6.20119 18.4037 6.20119 18.2572C6.20119 17.9015 6.22195 17.5249 6.22195 17.1691C6.22195 17.0227 6.22195 16.8971 6.22195 16.7297C5.95207 17.0018 5.39155 19.0942 5.49535 19.429ZM10.6231 22.2748C10.6023 22.2538 10.6023 22.2329 10.6023 22.2329C10.1248 22.1701 9.62659 22.1074 9.14911 22.0446C9.14911 22.0655 9.12835 22.0864 9.12835 22.0864C9.29443 22.4003 9.46051 22.7351 9.62659 23.049C9.66811 23.1327 9.73039 23.1118 9.79267 23.0908C9.95875 22.9653 10.1456 22.8397 10.3117 22.6933C10.4155 22.5677 10.4985 22.4003 10.6231 22.2748ZM7.98655 13.612C7.96579 13.612 7.96579 13.591 7.94503 13.591C7.38451 14.3234 6.88627 15.1185 6.51259 15.9974C6.55411 15.9974 6.57486 15.9974 6.57486 15.9764C6.8655 15.7253 7.17691 15.4743 7.46755 15.2022C7.50907 15.1604 7.52983 15.1185 7.55059 15.0558C7.65439 14.7419 7.75819 14.428 7.84123 14.1142C7.88275 13.9468 7.92427 13.7794 7.98655 13.612ZM7.42603 22.1283C7.38451 22.1911 7.36375 22.2329 7.32223 22.2748C7.17691 22.5259 7.05234 22.777 6.88626 23.0071C6.82398 23.1117 6.82399 23.1745 6.94855 23.2164C7.28071 23.3001 7.63363 23.3628 7.96579 23.4256C8.04883 23.4465 8.09035 23.3838 8.02807 23.3001C7.96579 23.1745 7.90351 23.0699 7.84123 22.9444C7.71667 22.6723 7.59211 22.4003 7.42603 22.1283ZM7.2807 22.1074C7.2807 22.0864 7.25995 22.0655 7.25995 22.0655C6.78247 22.1074 6.30498 22.1701 5.84826 22.212C5.84826 22.2538 5.84826 22.2538 5.84826 22.2538C6.05586 22.5886 6.32574 22.8397 6.6579 23.028C6.67866 23.049 6.7617 23.0071 6.78246 22.9862C6.8655 22.8607 6.94854 22.7142 7.01083 22.5886C7.09387 22.4212 7.1769 22.2748 7.2807 22.1074ZM8.54707 23.4465C8.81695 23.3838 9.10759 23.321 9.39823 23.2373C9.48127 23.2164 9.50203 23.1745 9.46051 23.0699C9.31519 22.7979 9.16987 22.5049 9.02455 22.2329C8.96227 22.1074 8.94151 22.1074 8.87923 22.2329C8.71315 22.5677 8.56783 22.8816 8.4225 23.2164C8.40174 23.2582 8.38099 23.321 8.38099 23.3628C8.40175 23.4047 8.48479 23.4256 8.54707 23.4465ZM7.5921 15.3487C7.44678 15.9555 7.32222 16.4996 7.1769 17.0645C7.21842 17.0645 7.21843 17.0645 7.21843 17.0645C7.48831 16.7088 7.77895 16.3322 8.04883 15.9764C8.06959 15.9555 8.06959 15.8927 8.04883 15.8509C7.92427 15.6835 7.77894 15.537 7.5921 15.3487ZM9.14911 17.0018C9.14911 16.939 9.16987 16.9181 9.16987 16.8971C9.06607 16.4368 8.96227 15.9764 8.83771 15.5161C8.81695 15.4324 8.77543 15.4324 8.71315 15.4743C8.65087 15.537 8.58859 15.5998 8.50555 15.6835C8.29795 15.9137 8.29795 15.9137 8.48479 16.1648C8.71315 16.4159 8.92075 16.6879 9.14911 17.0018ZM9.75115 19.4081C9.73039 19.4081 9.70963 19.4081 9.70963 19.4081C9.54355 19.8266 9.37747 20.2241 9.21139 20.6426C9.23215 20.6636 9.23215 20.6636 9.25291 20.6845C9.48127 20.6426 9.70963 20.6008 9.93799 20.538C9.95875 20.538 10.0003 20.4543 9.97951 20.4125C9.95875 20.266 9.91723 20.1404 9.89647 19.994C9.83419 19.8057 9.79267 19.6173 9.75115 19.4081ZM6.63715 19.5964C6.61639 19.5964 6.61638 19.5964 6.59562 19.5964C6.57486 19.6592 6.55411 19.722 6.53335 19.7847C6.49183 19.9312 6.47107 20.0777 6.42955 20.2241C6.32575 20.5799 6.32575 20.5799 6.63715 20.6426C6.78247 20.6845 6.92778 20.7054 7.0731 20.7473C7.0731 20.7263 7.09386 20.7263 7.09386 20.7054C6.9693 20.3497 6.80323 19.9731 6.63715 19.5964ZM8.98303 21.0193C8.96227 21.0193 8.94151 20.9984 8.92075 20.9984C8.73391 21.1658 8.52631 21.3332 8.29795 21.5215C8.50555 21.6261 8.67163 21.7307 8.89999 21.8353C8.94151 21.5424 8.96227 21.2913 8.98303 21.0193ZM6.8655 17.8597C6.82398 17.8806 6.80322 17.8806 6.80322 17.9015C6.6579 18.0898 6.51258 18.2991 6.36726 18.4874C6.3465 18.5083 6.32574 18.5502 6.3465 18.5711C6.40878 18.7385 6.49182 18.9059 6.5541 19.0733C6.57486 19.0733 6.59562 19.0524 6.59562 19.0524C6.67866 18.6548 6.78246 18.2572 6.8655 17.8597ZM7.40526 21.0821C7.3845 21.103 7.38451 21.103 7.36375 21.1239C7.38451 21.3541 7.42603 21.5633 7.44679 21.7935C7.44679 21.8144 7.52983 21.8353 7.57135 21.8144C7.67515 21.7726 7.77895 21.7098 7.86199 21.647C7.90351 21.6261 7.94503 21.5843 8.02807 21.5424C7.82047 21.3541 7.61286 21.2076 7.40526 21.0821ZM9.52279 17.6923C9.50203 17.755 9.50203 17.7969 9.50203 17.8178C9.56431 18.1317 9.64735 18.4246 9.70963 18.7176C9.70963 18.7385 9.75115 18.7594 9.77191 18.7803C9.79267 18.7594 9.81343 18.7385 9.83419 18.7176C10.0003 18.32 10.0003 18.32 9.75115 17.9852C9.66811 17.9015 9.60583 17.8178 9.52279 17.6923Z"/>
</mask>
<path d="M8.25643 23.593C7.71667 23.5512 7.19767 23.4675 6.69942 23.2164C5.99358 22.8607 5.57838 22.2329 5.37078 21.4169C5.14242 20.5589 5.22546 19.6801 5.4123 18.8431C5.53686 18.2363 5.70294 17.6713 5.88978 17.0855C6.15967 16.2694 6.53334 15.4743 6.99006 14.7628C7.32222 14.2188 7.71667 13.7166 8.09035 13.2144C8.17339 13.0888 8.23567 13.1098 8.33947 13.2144C9.23215 14.1351 9.89647 15.2232 10.3947 16.4577C10.8514 17.5667 11.1836 18.7176 11.2666 19.9312C11.3289 20.8937 11.1628 21.8144 10.5816 22.5886C10.2494 23.049 9.79267 23.321 9.27367 23.4465C8.92075 23.5093 8.58859 23.5512 8.25643 23.593ZM9.66811 19.1151C9.64735 19.0733 9.64735 19.0314 9.64735 18.9896C9.54355 18.5293 9.43975 18.0689 9.31519 17.5876C9.29443 17.483 9.25291 17.3575 9.19063 17.2738C8.89999 16.8762 8.58859 16.4786 8.27719 16.0811C8.21491 15.9974 8.17338 15.9974 8.1111 16.0811C7.7997 16.4996 7.46755 16.939 7.15615 17.3575C7.09387 17.4412 7.05235 17.5249 7.03159 17.6295C6.90703 18.1317 6.78246 18.6548 6.6579 19.157C6.63714 19.2198 6.63714 19.3035 6.6579 19.3453C6.8655 19.8057 7.05235 20.266 7.25995 20.7263C7.28071 20.7891 7.34298 20.831 7.3845 20.8728C7.5921 21.0402 7.82047 21.1867 8.02807 21.3332C8.11111 21.3959 8.17339 21.3959 8.25643 21.3332C8.46403 21.1448 8.69239 20.9774 8.89999 20.7891C8.94151 20.7473 9.00379 20.6845 9.02455 20.6217C9.19063 20.2451 9.33595 19.8475 9.48127 19.4709C9.56431 19.3662 9.62659 19.2198 9.66811 19.1151ZM6.32575 18.2572C6.38803 18.2154 6.40879 18.1945 6.42955 18.1526C6.59563 17.9224 6.76171 17.6923 6.92779 17.4621C6.96931 17.4202 6.99006 17.3575 6.99006 17.2947C7.09386 16.8553 7.19766 16.4159 7.30146 15.9974C7.34298 15.83 7.38451 15.6417 7.42603 15.4324C7.36375 15.4533 7.34299 15.4533 7.32223 15.4743C7.01082 15.7463 6.69942 15.9974 6.38802 16.2903C6.3465 16.3322 6.32575 16.3949 6.32575 16.4577C6.30499 16.9808 6.30499 17.5249 6.30499 18.0689C6.30499 18.1317 6.30499 18.1735 6.32575 18.2572ZM10.3532 22.0446C10.3947 22.0446 10.4155 22.0446 10.4362 22.0655C10.54 22.0864 10.5608 22.0237 10.5193 21.919C10.3739 21.5424 10.2286 21.1658 10.0833 20.7891C10.0625 20.7473 9.97951 20.6845 9.93799 20.7054C9.70963 20.7473 9.48127 20.7682 9.25291 20.831C9.19063 20.8519 9.12835 20.9147 9.10759 20.9774C9.06607 21.2285 9.06607 21.5005 9.02455 21.7726C9.00379 21.8772 9.04531 21.919 9.12835 21.919C9.54355 21.9609 9.95875 22.0027 10.3532 22.0446ZM10.0003 18.0271C10.0003 17.9852 10.021 17.9224 10.021 17.8597C10.0418 17.3784 10.0625 16.8971 10.0833 16.4159C10.0833 16.3531 10.0418 16.2694 10.0003 16.2275C9.68887 15.9764 9.39823 15.7463 9.08683 15.4952C9.06607 15.4743 9.02455 15.4533 8.96227 15.4324C8.98303 15.5161 8.98303 15.5579 8.98303 15.5998C9.08683 16.0392 9.21139 16.4996 9.29443 16.939C9.37747 17.3993 9.70963 17.6713 9.95875 18.0061C9.95875 18.048 9.97951 18.0271 10.0003 18.0271ZM5.95206 22.0446C6.40878 22.0027 6.82399 21.9609 7.23919 21.919C7.32223 21.919 7.36375 21.8772 7.34299 21.7726C7.30147 21.5424 7.28071 21.3122 7.25995 21.0821C7.23919 20.9774 7.19767 20.9147 7.11463 20.8937C6.88626 20.831 6.67866 20.7682 6.47106 20.7263C6.38802 20.7054 6.32575 20.7263 6.30499 20.831C6.18043 21.1867 6.05586 21.5424 5.9313 21.8981C5.84826 22.0237 5.86902 22.0655 5.95206 22.0446ZM8.2149 13.4446C8.17338 13.5073 8.15263 13.5283 8.15263 13.5492C7.98655 14.0514 7.84122 14.5536 7.6959 15.0558C7.67514 15.0976 7.69591 15.1813 7.73743 15.2232C7.86199 15.3696 8.00731 15.5161 8.15263 15.6626C8.21491 15.7253 8.27719 15.7253 8.33947 15.6626C8.46403 15.5161 8.58859 15.3906 8.71315 15.2441C8.75467 15.2022 8.77543 15.0976 8.75467 15.0558C8.63011 14.6582 8.52631 14.2815 8.40175 13.9049C8.31871 13.7794 8.25642 13.6329 8.2149 13.4446ZM11.059 19.701C11.0383 19.701 11.0175 19.701 11.0175 19.722C10.7476 19.994 10.4985 20.266 10.2286 20.538C10.2079 20.5799 10.1871 20.6636 10.2079 20.7054C10.3324 21.0402 10.457 21.375 10.5816 21.6889C10.6231 21.7935 10.6646 21.8772 10.7061 21.9818C11.0383 21.6261 11.2251 20.1614 11.059 19.701ZM10.1248 20.4125C10.1664 20.3915 10.1871 20.3915 10.1871 20.3915C10.4362 20.1404 10.6853 19.8684 10.9345 19.6173C10.9552 19.5964 10.9345 19.4918 10.9137 19.4499C10.6646 19.1361 10.4155 18.8431 10.1871 18.5292C10.1248 18.4456 10.0833 18.4665 10.0418 18.5711C10.0003 18.6966 9.95875 18.8222 9.89647 18.9268C9.81343 19.0733 9.81343 19.2198 9.87571 19.3662C9.89647 19.4081 9.89647 19.4499 9.89647 19.4918C9.95875 19.7847 10.0418 20.0986 10.1248 20.4125ZM8.2149 23.321C8.25642 23.2791 8.27719 23.2582 8.27719 23.2373C8.46403 22.8607 8.65087 22.4631 8.81695 22.0864C8.83771 22.0446 8.79619 21.9609 8.75467 21.94C8.58859 21.8353 8.40175 21.7516 8.23567 21.6679C8.19415 21.647 8.15262 21.647 8.1111 21.6679C7.94502 21.7516 7.77894 21.8563 7.5921 21.9609C7.50906 22.0027 7.50907 22.0446 7.55059 22.1283C7.65439 22.3166 7.75819 22.5049 7.84123 22.6933C7.98655 22.8816 8.09034 23.0908 8.2149 23.321ZM10.976 19.3035C10.9968 19.3035 11.0175 19.2825 11.0383 19.2825C10.893 18.32 10.6231 17.4202 10.2494 16.4996C10.2286 16.5623 10.2079 16.5833 10.2079 16.6251C10.1871 17.1482 10.1664 17.6713 10.1456 18.1735C10.1456 18.2363 10.1871 18.32 10.2286 18.3828C10.3947 18.6129 10.5816 18.8222 10.7684 19.0524C10.8307 19.1361 10.9137 19.2198 10.976 19.3035ZM10.0003 16.0601C10.021 16.0392 10.021 16.0392 10.021 16.0183C9.58507 15.0976 9.06607 14.2606 8.38099 13.5283C8.36023 13.5701 8.36023 13.612 8.38099 13.6329C8.50555 14.0514 8.65087 14.4489 8.77543 14.8674C8.83771 15.0767 8.94151 15.2232 9.10759 15.3487C9.37747 15.537 9.62659 15.7672 9.89647 15.9555C9.93799 16.0183 9.97951 16.0183 10.0003 16.0601ZM5.7237 22.0027C5.86902 21.5842 6.01434 21.1658 6.15966 20.7682C6.20118 20.6636 6.18043 20.6008 6.11815 20.538C5.91055 20.3078 5.70295 20.0986 5.49535 19.8894C5.47459 19.8684 5.43307 19.8475 5.39155 19.8057C5.26698 20.3915 5.43306 21.647 5.7237 22.0027ZM6.2427 20.4543C6.26346 20.4125 6.28422 20.4125 6.28422 20.3915C6.36726 20.0568 6.42955 19.7429 6.51259 19.4081C6.51259 19.3662 6.53335 19.3244 6.51259 19.2825C6.42955 19.0733 6.3465 18.885 6.2427 18.6757C6.20118 18.6966 6.18042 18.6966 6.15966 18.7176C5.95206 18.9896 5.7237 19.2616 5.53686 19.5546C5.5161 19.5755 5.53686 19.6801 5.55762 19.722C5.7237 19.9312 5.91054 20.1195 6.09739 20.3288C6.13891 20.3706 6.18042 20.4125 6.2427 20.4543ZM5.49535 19.429C5.51611 19.3872 5.53686 19.3244 5.57838 19.2825C5.74446 19.0524 5.91054 18.8431 6.07662 18.6339C6.15966 18.5292 6.20119 18.4037 6.20119 18.2572C6.20119 17.9015 6.22195 17.5249 6.22195 17.1691C6.22195 17.0227 6.22195 16.8971 6.22195 16.7297C5.95207 17.0018 5.39155 19.0942 5.49535 19.429ZM10.6231 22.2748C10.6023 22.2538 10.6023 22.2329 10.6023 22.2329C10.1248 22.1701 9.62659 22.1074 9.14911 22.0446C9.14911 22.0655 9.12835 22.0864 9.12835 22.0864C9.29443 22.4003 9.46051 22.7351 9.62659 23.049C9.66811 23.1327 9.73039 23.1118 9.79267 23.0908C9.95875 22.9653 10.1456 22.8397 10.3117 22.6933C10.4155 22.5677 10.4985 22.4003 10.6231 22.2748ZM7.98655 13.612C7.96579 13.612 7.96579 13.591 7.94503 13.591C7.38451 14.3234 6.88627 15.1185 6.51259 15.9974C6.55411 15.9974 6.57486 15.9974 6.57486 15.9764C6.8655 15.7253 7.17691 15.4743 7.46755 15.2022C7.50907 15.1604 7.52983 15.1185 7.55059 15.0558C7.65439 14.7419 7.75819 14.428 7.84123 14.1142C7.88275 13.9468 7.92427 13.7794 7.98655 13.612ZM7.42603 22.1283C7.38451 22.1911 7.36375 22.2329 7.32223 22.2748C7.17691 22.5259 7.05234 22.777 6.88626 23.0071C6.82398 23.1117 6.82399 23.1745 6.94855 23.2164C7.28071 23.3001 7.63363 23.3628 7.96579 23.4256C8.04883 23.4465 8.09035 23.3838 8.02807 23.3001C7.96579 23.1745 7.90351 23.0699 7.84123 22.9444C7.71667 22.6723 7.59211 22.4003 7.42603 22.1283ZM7.2807 22.1074C7.2807 22.0864 7.25995 22.0655 7.25995 22.0655C6.78247 22.1074 6.30498 22.1701 5.84826 22.212C5.84826 22.2538 5.84826 22.2538 5.84826 22.2538C6.05586 22.5886 6.32574 22.8397 6.6579 23.028C6.67866 23.049 6.7617 23.0071 6.78246 22.9862C6.8655 22.8607 6.94854 22.7142 7.01083 22.5886C7.09387 22.4212 7.1769 22.2748 7.2807 22.1074ZM8.54707 23.4465C8.81695 23.3838 9.10759 23.321 9.39823 23.2373C9.48127 23.2164 9.50203 23.1745 9.46051 23.0699C9.31519 22.7979 9.16987 22.5049 9.02455 22.2329C8.96227 22.1074 8.94151 22.1074 8.87923 22.2329C8.71315 22.5677 8.56783 22.8816 8.4225 23.2164C8.40174 23.2582 8.38099 23.321 8.38099 23.3628C8.40175 23.4047 8.48479 23.4256 8.54707 23.4465ZM7.5921 15.3487C7.44678 15.9555 7.32222 16.4996 7.1769 17.0645C7.21842 17.0645 7.21843 17.0645 7.21843 17.0645C7.48831 16.7088 7.77895 16.3322 8.04883 15.9764C8.06959 15.9555 8.06959 15.8927 8.04883 15.8509C7.92427 15.6835 7.77894 15.537 7.5921 15.3487ZM9.14911 17.0018C9.14911 16.939 9.16987 16.9181 9.16987 16.8971C9.06607 16.4368 8.96227 15.9764 8.83771 15.5161C8.81695 15.4324 8.77543 15.4324 8.71315 15.4743C8.65087 15.537 8.58859 15.5998 8.50555 15.6835C8.29795 15.9137 8.29795 15.9137 8.48479 16.1648C8.71315 16.4159 8.92075 16.6879 9.14911 17.0018ZM9.75115 19.4081C9.73039 19.4081 9.70963 19.4081 9.70963 19.4081C9.54355 19.8266 9.37747 20.2241 9.21139 20.6426C9.23215 20.6636 9.23215 20.6636 9.25291 20.6845C9.48127 20.6426 9.70963 20.6008 9.93799 20.538C9.95875 20.538 10.0003 20.4543 9.97951 20.4125C9.95875 20.266 9.91723 20.1404 9.89647 19.994C9.83419 19.8057 9.79267 19.6173 9.75115 19.4081ZM6.63715 19.5964C6.61639 19.5964 6.61638 19.5964 6.59562 19.5964C6.57486 19.6592 6.55411 19.722 6.53335 19.7847C6.49183 19.9312 6.47107 20.0777 6.42955 20.2241C6.32575 20.5799 6.32575 20.5799 6.63715 20.6426C6.78247 20.6845 6.92778 20.7054 7.0731 20.7473C7.0731 20.7263 7.09386 20.7263 7.09386 20.7054C6.9693 20.3497 6.80323 19.9731 6.63715 19.5964ZM8.98303 21.0193C8.96227 21.0193 8.94151 20.9984 8.92075 20.9984C8.73391 21.1658 8.52631 21.3332 8.29795 21.5215C8.50555 21.6261 8.67163 21.7307 8.89999 21.8353C8.94151 21.5424 8.96227 21.2913 8.98303 21.0193ZM6.8655 17.8597C6.82398 17.8806 6.80322 17.8806 6.80322 17.9015C6.6579 18.0898 6.51258 18.2991 6.36726 18.4874C6.3465 18.5083 6.32574 18.5502 6.3465 18.5711C6.40878 18.7385 6.49182 18.9059 6.5541 19.0733C6.57486 19.0733 6.59562 19.0524 6.59562 19.0524C6.67866 18.6548 6.78246 18.2572 6.8655 17.8597ZM7.40526 21.0821C7.3845 21.103 7.38451 21.103 7.36375 21.1239C7.38451 21.3541 7.42603 21.5633 7.44679 21.7935C7.44679 21.8144 7.52983 21.8353 7.57135 21.8144C7.67515 21.7726 7.77895 21.7098 7.86199 21.647C7.90351 21.6261 7.94503 21.5843 8.02807 21.5424C7.82047 21.3541 7.61286 21.2076 7.40526 21.0821ZM9.52279 17.6923C9.50203 17.755 9.50203 17.7969 9.50203 17.8178C9.56431 18.1317 9.64735 18.4246 9.70963 18.7176C9.70963 18.7385 9.75115 18.7594 9.77191 18.7803C9.79267 18.7594 9.81343 18.7385 9.83419 18.7176C10.0003 18.32 10.0003 18.32 9.75115 17.9852C9.66811 17.9015 9.60583 17.8178 9.52279 17.6923Z" fill="#2B2B2B" stroke="#2B2B2B" stroke-width="4" mask="url(#path-2-inside-1_350_321)"/>
<path d="M8.25581 6.83095L8.21353 2.81485C8.21353 2.08438 7.62156 1.5 6.88161 1.5C6.14165 1.5 5.54968 2.08438 5.54968 2.81485C5.54968 2.81485 5.80338 4.50537 5 4.75581" stroke="#1B2230" stroke-width="0.5"/>
<circle cx="8.13956" cy="11.6163" r="1.01163" stroke="#1B2230"/>
<path d="M16.9768 10.1093L15.3861 8.43489C15.2187 8.22559 15.114 7.9535 15.114 7.6814C15.114 7.40931 15.2187 7.13722 15.407 6.94884C15.5954 6.76047 15.8466 6.63489 16.0977 6.63489C16.3698 6.63489 16.6001 6.73954 16.7884 6.94884L16.9768 7.15815L17.1652 6.94884C17.3536 6.76047 17.6047 6.63489 17.8559 6.63489C18.128 6.63489 18.3582 6.73954 18.5466 6.94884C18.735 7.13722 18.8396 7.40931 18.8396 7.6814C18.8396 7.9535 18.735 8.22559 18.5466 8.41396L16.9768 10.1093ZM18.714 6.76047C18.4838 6.50931 18.1908 6.38373 17.8559 6.38373C17.521 6.38373 17.228 6.50931 16.9977 6.76047L16.9768 6.80233L16.935 6.76047C16.7256 6.53024 16.4117 6.38373 16.0977 6.38373C15.7838 6.38373 15.4698 6.50931 15.2396 6.76047C15.0094 7.01163 14.8838 7.32559 14.8838 7.6814C14.8838 8.01629 15.0094 8.35117 15.2396 8.5814L16.9768 10.4233L18.714 8.5814C18.9443 8.35117 19.0698 8.01629 19.0698 7.6814C19.0698 7.32559 18.9443 7.01163 18.714 6.76047Z" fill="#1B2230"/>
<mask id="path-6-inside-2_350_321" fill="white">
<path d="M16.9774 23.593C16.4376 23.5512 15.9186 23.4675 15.4204 23.2164C14.7145 22.8607 14.2993 22.2329 14.0917 21.4169C13.8634 20.5589 13.9464 19.6801 14.1332 18.8431C14.2578 18.2363 14.4239 17.6713 14.6107 17.0855C14.8806 16.2694 15.2543 15.4743 15.711 14.7628C16.0432 14.2188 16.4376 13.7166 16.8113 13.2144C16.8943 13.0888 16.9566 13.1098 17.0604 13.2144C17.9531 14.1351 18.6174 15.2232 19.1157 16.4577C19.5724 17.5667 19.9045 18.7176 19.9876 19.9312C20.0499 20.8937 19.8838 21.8144 19.3025 22.5886C18.9703 23.049 18.5136 23.321 17.9946 23.4465C17.6417 23.5093 17.3095 23.5512 16.9774 23.593ZM18.3891 19.1151C18.3683 19.0733 18.3683 19.0314 18.3683 18.9896C18.2645 18.5293 18.1607 18.0689 18.0361 17.5876C18.0154 17.483 17.9739 17.3575 17.9116 17.2738C17.6209 16.8762 17.3095 16.4786 16.9981 16.0811C16.9359 15.9974 16.8943 15.9974 16.8321 16.0811C16.5207 16.4996 16.1885 16.939 15.8771 17.3575C15.8148 17.4412 15.7733 17.5249 15.7525 17.6295C15.628 18.1317 15.5034 18.6548 15.3788 19.157C15.3581 19.2198 15.3581 19.3035 15.3788 19.3453C15.5864 19.8057 15.7733 20.266 15.9809 20.7263C16.0017 20.7891 16.0639 20.831 16.1055 20.8728C16.3131 21.0402 16.5414 21.1867 16.749 21.3332C16.8321 21.3959 16.8943 21.3959 16.9774 21.3332C17.185 21.1448 17.4133 20.9774 17.6209 20.7891C17.6625 20.7473 17.7247 20.6845 17.7455 20.6217C17.9116 20.2451 18.0569 19.8475 18.2022 19.4709C18.2853 19.3662 18.3475 19.2198 18.3891 19.1151ZM15.0467 18.2572C15.109 18.2154 15.1297 18.1945 15.1505 18.1526C15.3166 17.9224 15.4827 17.6923 15.6487 17.4621C15.6903 17.4202 15.711 17.3575 15.711 17.2947C15.8148 16.8553 15.9186 16.4159 16.0224 15.9974C16.0639 15.83 16.1055 15.6417 16.147 15.4324C16.0847 15.4533 16.0639 15.4533 16.0432 15.4743C15.7318 15.7463 15.4204 15.9974 15.109 16.2903C15.0675 16.3322 15.0467 16.3949 15.0467 16.4577C15.0259 16.9808 15.0259 17.5249 15.0259 18.0689C15.0259 18.1317 15.0259 18.1735 15.0467 18.2572ZM19.0741 22.0446C19.1157 22.0446 19.1364 22.0446 19.1572 22.0655C19.261 22.0864 19.2817 22.0237 19.2402 21.919C19.0949 21.5424 18.9496 21.1658 18.8043 20.7891C18.7835 20.7473 18.7005 20.6845 18.6589 20.7054C18.4306 20.7473 18.2022 20.7682 17.9739 20.831C17.9116 20.8519 17.8493 20.9147 17.8285 20.9774C17.787 21.2285 17.787 21.5005 17.7455 21.7726C17.7247 21.8772 17.7663 21.919 17.8493 21.919C18.2645 21.9609 18.6797 22.0027 19.0741 22.0446ZM18.7212 18.0271C18.7212 17.9852 18.742 17.9224 18.742 17.8597C18.7627 17.3784 18.7835 16.8971 18.8043 16.4159C18.8043 16.3531 18.7627 16.2694 18.7212 16.2275C18.4098 15.9764 18.1192 15.7463 17.8078 15.4952C17.787 15.4743 17.7455 15.4533 17.6832 15.4324C17.704 15.5161 17.704 15.5579 17.704 15.5998C17.8078 16.0392 17.9323 16.4996 18.0154 16.939C18.0984 17.3993 18.4306 17.6713 18.6797 18.0061C18.6797 18.048 18.7005 18.0271 18.7212 18.0271ZM14.673 22.0446C15.1297 22.0027 15.5449 21.9609 15.9601 21.919C16.0432 21.919 16.0847 21.8772 16.0639 21.7726C16.0224 21.5424 16.0017 21.3122 15.9809 21.0821C15.9601 20.9774 15.9186 20.9147 15.8356 20.8937C15.6072 20.831 15.3996 20.7682 15.192 20.7263C15.109 20.7054 15.0467 20.7263 15.0259 20.831C14.9014 21.1867 14.7768 21.5424 14.6522 21.8981C14.5692 22.0237 14.59 22.0655 14.673 22.0446ZM16.9359 13.4446C16.8943 13.5073 16.8736 13.5283 16.8736 13.5492C16.7075 14.0514 16.5622 14.5536 16.4169 15.0558C16.3961 15.0976 16.4169 15.1813 16.4584 15.2232C16.5829 15.3696 16.7283 15.5161 16.8736 15.6626C16.9359 15.7253 16.9981 15.7253 17.0604 15.6626C17.185 15.5161 17.3095 15.3906 17.4341 15.2441C17.4756 15.2022 17.4964 15.0976 17.4756 15.0558C17.3511 14.6582 17.2473 14.2815 17.1227 13.9049C17.0397 13.7794 16.9774 13.6329 16.9359 13.4446ZM19.78 19.701C19.7592 19.701 19.7385 19.701 19.7385 19.722C19.4686 19.994 19.2195 20.266 18.9496 20.538C18.9288 20.5799 18.9081 20.6636 18.9288 20.7054C19.0534 21.0402 19.1779 21.375 19.3025 21.6889C19.344 21.7935 19.3855 21.8772 19.4271 21.9818C19.7592 21.6261 19.9461 20.1614 19.78 19.701ZM18.8458 20.4125C18.8873 20.3915 18.9081 20.3915 18.9081 20.3915C19.1572 20.1404 19.4063 19.8684 19.6554 19.6173C19.6762 19.5964 19.6554 19.4918 19.6347 19.4499C19.3855 19.1361 19.1364 18.8431 18.9081 18.5292C18.8458 18.4456 18.8043 18.4665 18.7627 18.5711C18.7212 18.6966 18.6797 18.8222 18.6174 18.9268C18.5344 19.0733 18.5344 19.2198 18.5967 19.3662C18.6174 19.4081 18.6174 19.4499 18.6174 19.4918C18.6797 19.7847 18.7627 20.0986 18.8458 20.4125ZM16.9359 23.321C16.9774 23.2791 16.9981 23.2582 16.9981 23.2373C17.185 22.8607 17.3718 22.4631 17.5379 22.0864C17.5587 22.0446 17.5171 21.9609 17.4756 21.94C17.3095 21.8353 17.1227 21.7516 16.9566 21.6679C16.9151 21.647 16.8736 21.647 16.8321 21.6679C16.666 21.7516 16.4999 21.8563 16.3131 21.9609C16.23 22.0027 16.23 22.0446 16.2715 22.1283C16.3753 22.3166 16.4791 22.5049 16.5622 22.6933C16.7075 22.8816 16.8113 23.0908 16.9359 23.321ZM19.6969 19.3035C19.7177 19.3035 19.7385 19.2825 19.7592 19.2825C19.6139 18.32 19.344 17.4202 18.9703 16.4996C18.9496 16.5623 18.9288 16.5833 18.9288 16.6251C18.9081 17.1482 18.8873 17.6713 18.8665 18.1735C18.8665 18.2363 18.9081 18.32 18.9496 18.3828C19.1157 18.6129 19.3025 18.8222 19.4893 19.0524C19.5516 19.1361 19.6347 19.2198 19.6969 19.3035ZM18.7212 16.0601C18.742 16.0392 18.742 16.0392 18.742 16.0183C18.306 15.0976 17.787 14.2606 17.1019 13.5283C17.0812 13.5701 17.0812 13.612 17.1019 13.6329C17.2265 14.0514 17.3718 14.4489 17.4964 14.8674C17.5587 15.0767 17.6625 15.2232 17.8285 15.3487C18.0984 15.537 18.3475 15.7672 18.6174 15.9555C18.6589 16.0183 18.7005 16.0183 18.7212 16.0601ZM14.4446 22.0027C14.59 21.5842 14.7353 21.1658 14.8806 20.7682C14.9221 20.6636 14.9014 20.6008 14.8391 20.538C14.6315 20.3078 14.4239 20.0986 14.2163 19.8894C14.1955 19.8684 14.154 19.8475 14.1125 19.8057C13.9879 20.3915 14.154 21.647 14.4446 22.0027ZM14.9636 20.4543C14.9844 20.4125 15.0052 20.4125 15.0052 20.3915C15.0882 20.0568 15.1505 19.7429 15.2335 19.4081C15.2335 19.3662 15.2543 19.3244 15.2335 19.2825C15.1505 19.0733 15.0674 18.885 14.9636 18.6757C14.9221 18.6966 14.9014 18.6966 14.8806 18.7176C14.673 18.9896 14.4446 19.2616 14.2578 19.5546C14.237 19.5755 14.2578 19.6801 14.2786 19.722C14.4447 19.9312 14.6315 20.1195 14.8183 20.3288C14.8599 20.3706 14.9014 20.4125 14.9636 20.4543ZM14.2163 19.429C14.2371 19.3872 14.2578 19.3244 14.2993 19.2825C14.4654 19.0524 14.6315 18.8431 14.7976 18.6339C14.8806 18.5292 14.9221 18.4037 14.9221 18.2572C14.9221 17.9015 14.9429 17.5249 14.9429 17.1691C14.9429 17.0227 14.9429 16.8971 14.9429 16.7297C14.673 17.0018 14.1125 19.0942 14.2163 19.429ZM19.344 22.2748C19.3233 22.2538 19.3233 22.2329 19.3233 22.2329C18.8458 22.1701 18.3475 22.1074 17.8701 22.0446C17.8701 22.0655 17.8493 22.0864 17.8493 22.0864C18.0154 22.4003 18.1815 22.7351 18.3475 23.049C18.3891 23.1327 18.4513 23.1118 18.5136 23.0908C18.6797 22.9653 18.8665 22.8397 19.0326 22.6933C19.1364 22.5677 19.2195 22.4003 19.344 22.2748ZM16.7075 13.612C16.6867 13.612 16.6867 13.591 16.666 13.591C16.1055 14.3234 15.6072 15.1185 15.2335 15.9974C15.2751 15.9974 15.2958 15.9974 15.2958 15.9764C15.5865 15.7253 15.8979 15.4743 16.1885 15.2022C16.23 15.1604 16.2508 15.1185 16.2715 15.0558C16.3753 14.7419 16.4791 14.428 16.5622 14.1142C16.6037 13.9468 16.6452 13.7794 16.7075 13.612ZM16.147 22.1283C16.1055 22.1911 16.0847 22.2329 16.0432 22.2748C15.8979 22.5259 15.7733 22.777 15.6072 23.0071C15.5449 23.1117 15.5449 23.1745 15.6695 23.2164C16.0017 23.3001 16.3546 23.3628 16.6867 23.4256C16.7698 23.4465 16.8113 23.3838 16.749 23.3001C16.6867 23.1745 16.6245 23.0699 16.5622 22.9444C16.4376 22.6723 16.3131 22.4003 16.147 22.1283ZM16.0017 22.1074C16.0017 22.0864 15.9809 22.0655 15.9809 22.0655C15.5034 22.1074 15.0259 22.1701 14.5692 22.212C14.5692 22.2538 14.5692 22.2538 14.5692 22.2538C14.7768 22.5886 15.0467 22.8397 15.3788 23.028C15.3996 23.049 15.4827 23.0071 15.5034 22.9862C15.5865 22.8607 15.6695 22.7142 15.7318 22.5886C15.8148 22.4212 15.8979 22.2748 16.0017 22.1074ZM17.268 23.4465C17.5379 23.3838 17.8285 23.321 18.1192 23.2373C18.2022 23.2164 18.223 23.1745 18.1815 23.0699C18.0361 22.7979 17.8908 22.5049 17.7455 22.2329C17.6832 22.1074 17.6625 22.1074 17.6002 22.2329C17.4341 22.5677 17.2888 22.8816 17.1435 23.2164C17.1227 23.2582 17.1019 23.321 17.1019 23.3628C17.1227 23.4047 17.2057 23.4256 17.268 23.4465ZM16.3131 15.3487C16.1677 15.9555 16.0432 16.4996 15.8979 17.0645C15.9394 17.0645 15.9394 17.0645 15.9394 17.0645C16.2093 16.7088 16.4999 16.3322 16.7698 15.9764C16.7905 15.9555 16.7905 15.8927 16.7698 15.8509C16.6452 15.6835 16.4999 15.537 16.3131 15.3487ZM17.8701 17.0018C17.8701 16.939 17.8908 16.9181 17.8908 16.8971C17.787 16.4368 17.6832 15.9764 17.5587 15.5161C17.5379 15.4324 17.4964 15.4324 17.4341 15.4743C17.3718 15.537 17.3095 15.5998 17.2265 15.6835C17.0189 15.9137 17.0189 15.9137 17.2057 16.1648C17.4341 16.4159 17.6417 16.6879 17.8701 17.0018ZM18.4721 19.4081C18.4513 19.4081 18.4306 19.4081 18.4306 19.4081C18.2645 19.8266 18.0984 20.2241 17.9323 20.6426C17.9531 20.6636 17.9531 20.6636 17.9739 20.6845C18.2022 20.6426 18.4306 20.6008 18.6589 20.538C18.6797 20.538 18.7212 20.4543 18.7005 20.4125C18.6797 20.266 18.6382 20.1404 18.6174 19.994C18.5551 19.8057 18.5136 19.6173 18.4721 19.4081ZM15.3581 19.5964C15.3373 19.5964 15.3373 19.5964 15.3166 19.5964C15.2958 19.6592 15.2751 19.722 15.2543 19.7847C15.2128 19.9312 15.192 20.0777 15.1505 20.2241C15.0467 20.5799 15.0467 20.5799 15.3581 20.6426C15.5034 20.6845 15.6487 20.7054 15.7941 20.7473C15.7941 20.7263 15.8148 20.7263 15.8148 20.7054C15.6903 20.3497 15.5242 19.9731 15.3581 19.5964ZM17.704 21.0193C17.6832 21.0193 17.6625 20.9984 17.6417 20.9984C17.4549 21.1658 17.2473 21.3332 17.0189 21.5215C17.2265 21.6261 17.3926 21.7307 17.6209 21.8353C17.6625 21.5424 17.6832 21.2913 17.704 21.0193ZM15.5864 17.8597C15.5449 17.8806 15.5242 17.8806 15.5242 17.9015C15.3789 18.0898 15.2335 18.2991 15.0882 18.4874C15.0675 18.5083 15.0467 18.5502 15.0674 18.5711C15.1297 18.7385 15.2128 18.9059 15.275 19.0733C15.2958 19.0733 15.3166 19.0524 15.3166 19.0524C15.3996 18.6548 15.5034 18.2572 15.5864 17.8597ZM16.1262 21.0821C16.1055 21.103 16.1055 21.103 16.0847 21.1239C16.1055 21.3541 16.147 21.5633 16.1677 21.7935C16.1677 21.8144 16.2508 21.8353 16.2923 21.8144C16.3961 21.7726 16.4999 21.7098 16.5829 21.647C16.6245 21.6261 16.666 21.5843 16.749 21.5424C16.5414 21.3541 16.3338 21.2076 16.1262 21.0821ZM18.2437 17.6923C18.223 17.755 18.223 17.7969 18.223 17.8178C18.2853 18.1317 18.3683 18.4246 18.4306 18.7176C18.4306 18.7385 18.4721 18.7594 18.4929 18.7803C18.5136 18.7594 18.5344 18.7385 18.5551 18.7176C18.7212 18.32 18.7212 18.32 18.4721 17.9852C18.3891 17.9015 18.3268 17.8178 18.2437 17.6923Z"/>
</mask>
<path d="M16.9774 23.593C16.4376 23.5512 15.9186 23.4675 15.4204 23.2164C14.7145 22.8607 14.2993 22.2329 14.0917 21.4169C13.8634 20.5589 13.9464 19.6801 14.1332 18.8431C14.2578 18.2363 14.4239 17.6713 14.6107 17.0855C14.8806 16.2694 15.2543 15.4743 15.711 14.7628C16.0432 14.2188 16.4376 13.7166 16.8113 13.2144C16.8943 13.0888 16.9566 13.1098 17.0604 13.2144C17.9531 14.1351 18.6174 15.2232 19.1157 16.4577C19.5724 17.5667 19.9045 18.7176 19.9876 19.9312C20.0499 20.8937 19.8838 21.8144 19.3025 22.5886C18.9703 23.049 18.5136 23.321 17.9946 23.4465C17.6417 23.5093 17.3095 23.5512 16.9774 23.593ZM18.3891 19.1151C18.3683 19.0733 18.3683 19.0314 18.3683 18.9896C18.2645 18.5293 18.1607 18.0689 18.0361 17.5876C18.0154 17.483 17.9739 17.3575 17.9116 17.2738C17.6209 16.8762 17.3095 16.4786 16.9981 16.0811C16.9359 15.9974 16.8943 15.9974 16.8321 16.0811C16.5207 16.4996 16.1885 16.939 15.8771 17.3575C15.8148 17.4412 15.7733 17.5249 15.7525 17.6295C15.628 18.1317 15.5034 18.6548 15.3788 19.157C15.3581 19.2198 15.3581 19.3035 15.3788 19.3453C15.5864 19.8057 15.7733 20.266 15.9809 20.7263C16.0017 20.7891 16.0639 20.831 16.1055 20.8728C16.3131 21.0402 16.5414 21.1867 16.749 21.3332C16.8321 21.3959 16.8943 21.3959 16.9774 21.3332C17.185 21.1448 17.4133 20.9774 17.6209 20.7891C17.6625 20.7473 17.7247 20.6845 17.7455 20.6217C17.9116 20.2451 18.0569 19.8475 18.2022 19.4709C18.2853 19.3662 18.3475 19.2198 18.3891 19.1151ZM15.0467 18.2572C15.109 18.2154 15.1297 18.1945 15.1505 18.1526C15.3166 17.9224 15.4827 17.6923 15.6487 17.4621C15.6903 17.4202 15.711 17.3575 15.711 17.2947C15.8148 16.8553 15.9186 16.4159 16.0224 15.9974C16.0639 15.83 16.1055 15.6417 16.147 15.4324C16.0847 15.4533 16.0639 15.4533 16.0432 15.4743C15.7318 15.7463 15.4204 15.9974 15.109 16.2903C15.0675 16.3322 15.0467 16.3949 15.0467 16.4577C15.0259 16.9808 15.0259 17.5249 15.0259 18.0689C15.0259 18.1317 15.0259 18.1735 15.0467 18.2572ZM19.0741 22.0446C19.1157 22.0446 19.1364 22.0446 19.1572 22.0655C19.261 22.0864 19.2817 22.0237 19.2402 21.919C19.0949 21.5424 18.9496 21.1658 18.8043 20.7891C18.7835 20.7473 18.7005 20.6845 18.6589 20.7054C18.4306 20.7473 18.2022 20.7682 17.9739 20.831C17.9116 20.8519 17.8493 20.9147 17.8285 20.9774C17.787 21.2285 17.787 21.5005 17.7455 21.7726C17.7247 21.8772 17.7663 21.919 17.8493 21.919C18.2645 21.9609 18.6797 22.0027 19.0741 22.0446ZM18.7212 18.0271C18.7212 17.9852 18.742 17.9224 18.742 17.8597C18.7627 17.3784 18.7835 16.8971 18.8043 16.4159C18.8043 16.3531 18.7627 16.2694 18.7212 16.2275C18.4098 15.9764 18.1192 15.7463 17.8078 15.4952C17.787 15.4743 17.7455 15.4533 17.6832 15.4324C17.704 15.5161 17.704 15.5579 17.704 15.5998C17.8078 16.0392 17.9323 16.4996 18.0154 16.939C18.0984 17.3993 18.4306 17.6713 18.6797 18.0061C18.6797 18.048 18.7005 18.0271 18.7212 18.0271ZM14.673 22.0446C15.1297 22.0027 15.5449 21.9609 15.9601 21.919C16.0432 21.919 16.0847 21.8772 16.0639 21.7726C16.0224 21.5424 16.0017 21.3122 15.9809 21.0821C15.9601 20.9774 15.9186 20.9147 15.8356 20.8937C15.6072 20.831 15.3996 20.7682 15.192 20.7263C15.109 20.7054 15.0467 20.7263 15.0259 20.831C14.9014 21.1867 14.7768 21.5424 14.6522 21.8981C14.5692 22.0237 14.59 22.0655 14.673 22.0446ZM16.9359 13.4446C16.8943 13.5073 16.8736 13.5283 16.8736 13.5492C16.7075 14.0514 16.5622 14.5536 16.4169 15.0558C16.3961 15.0976 16.4169 15.1813 16.4584 15.2232C16.5829 15.3696 16.7283 15.5161 16.8736 15.6626C16.9359 15.7253 16.9981 15.7253 17.0604 15.6626C17.185 15.5161 17.3095 15.3906 17.4341 15.2441C17.4756 15.2022 17.4964 15.0976 17.4756 15.0558C17.3511 14.6582 17.2473 14.2815 17.1227 13.9049C17.0397 13.7794 16.9774 13.6329 16.9359 13.4446ZM19.78 19.701C19.7592 19.701 19.7385 19.701 19.7385 19.722C19.4686 19.994 19.2195 20.266 18.9496 20.538C18.9288 20.5799 18.9081 20.6636 18.9288 20.7054C19.0534 21.0402 19.1779 21.375 19.3025 21.6889C19.344 21.7935 19.3855 21.8772 19.4271 21.9818C19.7592 21.6261 19.9461 20.1614 19.78 19.701ZM18.8458 20.4125C18.8873 20.3915 18.9081 20.3915 18.9081 20.3915C19.1572 20.1404 19.4063 19.8684 19.6554 19.6173C19.6762 19.5964 19.6554 19.4918 19.6347 19.4499C19.3855 19.1361 19.1364 18.8431 18.9081 18.5292C18.8458 18.4456 18.8043 18.4665 18.7627 18.5711C18.7212 18.6966 18.6797 18.8222 18.6174 18.9268C18.5344 19.0733 18.5344 19.2198 18.5967 19.3662C18.6174 19.4081 18.6174 19.4499 18.6174 19.4918C18.6797 19.7847 18.7627 20.0986 18.8458 20.4125ZM16.9359 23.321C16.9774 23.2791 16.9981 23.2582 16.9981 23.2373C17.185 22.8607 17.3718 22.4631 17.5379 22.0864C17.5587 22.0446 17.5171 21.9609 17.4756 21.94C17.3095 21.8353 17.1227 21.7516 16.9566 21.6679C16.9151 21.647 16.8736 21.647 16.8321 21.6679C16.666 21.7516 16.4999 21.8563 16.3131 21.9609C16.23 22.0027 16.23 22.0446 16.2715 22.1283C16.3753 22.3166 16.4791 22.5049 16.5622 22.6933C16.7075 22.8816 16.8113 23.0908 16.9359 23.321ZM19.6969 19.3035C19.7177 19.3035 19.7385 19.2825 19.7592 19.2825C19.6139 18.32 19.344 17.4202 18.9703 16.4996C18.9496 16.5623 18.9288 16.5833 18.9288 16.6251C18.9081 17.1482 18.8873 17.6713 18.8665 18.1735C18.8665 18.2363 18.9081 18.32 18.9496 18.3828C19.1157 18.6129 19.3025 18.8222 19.4893 19.0524C19.5516 19.1361 19.6347 19.2198 19.6969 19.3035ZM18.7212 16.0601C18.742 16.0392 18.742 16.0392 18.742 16.0183C18.306 15.0976 17.787 14.2606 17.1019 13.5283C17.0812 13.5701 17.0812 13.612 17.1019 13.6329C17.2265 14.0514 17.3718 14.4489 17.4964 14.8674C17.5587 15.0767 17.6625 15.2232 17.8285 15.3487C18.0984 15.537 18.3475 15.7672 18.6174 15.9555C18.6589 16.0183 18.7005 16.0183 18.7212 16.0601ZM14.4446 22.0027C14.59 21.5842 14.7353 21.1658 14.8806 20.7682C14.9221 20.6636 14.9014 20.6008 14.8391 20.538C14.6315 20.3078 14.4239 20.0986 14.2163 19.8894C14.1955 19.8684 14.154 19.8475 14.1125 19.8057C13.9879 20.3915 14.154 21.647 14.4446 22.0027ZM14.9636 20.4543C14.9844 20.4125 15.0052 20.4125 15.0052 20.3915C15.0882 20.0568 15.1505 19.7429 15.2335 19.4081C15.2335 19.3662 15.2543 19.3244 15.2335 19.2825C15.1505 19.0733 15.0674 18.885 14.9636 18.6757C14.9221 18.6966 14.9014 18.6966 14.8806 18.7176C14.673 18.9896 14.4446 19.2616 14.2578 19.5546C14.237 19.5755 14.2578 19.6801 14.2786 19.722C14.4447 19.9312 14.6315 20.1195 14.8183 20.3288C14.8599 20.3706 14.9014 20.4125 14.9636 20.4543ZM14.2163 19.429C14.2371 19.3872 14.2578 19.3244 14.2993 19.2825C14.4654 19.0524 14.6315 18.8431 14.7976 18.6339C14.8806 18.5292 14.9221 18.4037 14.9221 18.2572C14.9221 17.9015 14.9429 17.5249 14.9429 17.1691C14.9429 17.0227 14.9429 16.8971 14.9429 16.7297C14.673 17.0018 14.1125 19.0942 14.2163 19.429ZM19.344 22.2748C19.3233 22.2538 19.3233 22.2329 19.3233 22.2329C18.8458 22.1701 18.3475 22.1074 17.8701 22.0446C17.8701 22.0655 17.8493 22.0864 17.8493 22.0864C18.0154 22.4003 18.1815 22.7351 18.3475 23.049C18.3891 23.1327 18.4513 23.1118 18.5136 23.0908C18.6797 22.9653 18.8665 22.8397 19.0326 22.6933C19.1364 22.5677 19.2195 22.4003 19.344 22.2748ZM16.7075 13.612C16.6867 13.612 16.6867 13.591 16.666 13.591C16.1055 14.3234 15.6072 15.1185 15.2335 15.9974C15.2751 15.9974 15.2958 15.9974 15.2958 15.9764C15.5865 15.7253 15.8979 15.4743 16.1885 15.2022C16.23 15.1604 16.2508 15.1185 16.2715 15.0558C16.3753 14.7419 16.4791 14.428 16.5622 14.1142C16.6037 13.9468 16.6452 13.7794 16.7075 13.612ZM16.147 22.1283C16.1055 22.1911 16.0847 22.2329 16.0432 22.2748C15.8979 22.5259 15.7733 22.777 15.6072 23.0071C15.5449 23.1117 15.5449 23.1745 15.6695 23.2164C16.0017 23.3001 16.3546 23.3628 16.6867 23.4256C16.7698 23.4465 16.8113 23.3838 16.749 23.3001C16.6867 23.1745 16.6245 23.0699 16.5622 22.9444C16.4376 22.6723 16.3131 22.4003 16.147 22.1283ZM16.0017 22.1074C16.0017 22.0864 15.9809 22.0655 15.9809 22.0655C15.5034 22.1074 15.0259 22.1701 14.5692 22.212C14.5692 22.2538 14.5692 22.2538 14.5692 22.2538C14.7768 22.5886 15.0467 22.8397 15.3788 23.028C15.3996 23.049 15.4827 23.0071 15.5034 22.9862C15.5865 22.8607 15.6695 22.7142 15.7318 22.5886C15.8148 22.4212 15.8979 22.2748 16.0017 22.1074ZM17.268 23.4465C17.5379 23.3838 17.8285 23.321 18.1192 23.2373C18.2022 23.2164 18.223 23.1745 18.1815 23.0699C18.0361 22.7979 17.8908 22.5049 17.7455 22.2329C17.6832 22.1074 17.6625 22.1074 17.6002 22.2329C17.4341 22.5677 17.2888 22.8816 17.1435 23.2164C17.1227 23.2582 17.1019 23.321 17.1019 23.3628C17.1227 23.4047 17.2057 23.4256 17.268 23.4465ZM16.3131 15.3487C16.1677 15.9555 16.0432 16.4996 15.8979 17.0645C15.9394 17.0645 15.9394 17.0645 15.9394 17.0645C16.2093 16.7088 16.4999 16.3322 16.7698 15.9764C16.7905 15.9555 16.7905 15.8927 16.7698 15.8509C16.6452 15.6835 16.4999 15.537 16.3131 15.3487ZM17.8701 17.0018C17.8701 16.939 17.8908 16.9181 17.8908 16.8971C17.787 16.4368 17.6832 15.9764 17.5587 15.5161C17.5379 15.4324 17.4964 15.4324 17.4341 15.4743C17.3718 15.537 17.3095 15.5998 17.2265 15.6835C17.0189 15.9137 17.0189 15.9137 17.2057 16.1648C17.4341 16.4159 17.6417 16.6879 17.8701 17.0018ZM18.4721 19.4081C18.4513 19.4081 18.4306 19.4081 18.4306 19.4081C18.2645 19.8266 18.0984 20.2241 17.9323 20.6426C17.9531 20.6636 17.9531 20.6636 17.9739 20.6845C18.2022 20.6426 18.4306 20.6008 18.6589 20.538C18.6797 20.538 18.7212 20.4543 18.7005 20.4125C18.6797 20.266 18.6382 20.1404 18.6174 19.994C18.5551 19.8057 18.5136 19.6173 18.4721 19.4081ZM15.3581 19.5964C15.3373 19.5964 15.3373 19.5964 15.3166 19.5964C15.2958 19.6592 15.2751 19.722 15.2543 19.7847C15.2128 19.9312 15.192 20.0777 15.1505 20.2241C15.0467 20.5799 15.0467 20.5799 15.3581 20.6426C15.5034 20.6845 15.6487 20.7054 15.7941 20.7473C15.7941 20.7263 15.8148 20.7263 15.8148 20.7054C15.6903 20.3497 15.5242 19.9731 15.3581 19.5964ZM17.704 21.0193C17.6832 21.0193 17.6625 20.9984 17.6417 20.9984C17.4549 21.1658 17.2473 21.3332 17.0189 21.5215C17.2265 21.6261 17.3926 21.7307 17.6209 21.8353C17.6625 21.5424 17.6832 21.2913 17.704 21.0193ZM15.5864 17.8597C15.5449 17.8806 15.5242 17.8806 15.5242 17.9015C15.3789 18.0898 15.2335 18.2991 15.0882 18.4874C15.0675 18.5083 15.0467 18.5502 15.0674 18.5711C15.1297 18.7385 15.2128 18.9059 15.275 19.0733C15.2958 19.0733 15.3166 19.0524 15.3166 19.0524C15.3996 18.6548 15.5034 18.2572 15.5864 17.8597ZM16.1262 21.0821C16.1055 21.103 16.1055 21.103 16.0847 21.1239C16.1055 21.3541 16.147 21.5633 16.1677 21.7935C16.1677 21.8144 16.2508 21.8353 16.2923 21.8144C16.3961 21.7726 16.4999 21.7098 16.5829 21.647C16.6245 21.6261 16.666 21.5843 16.749 21.5424C16.5414 21.3541 16.3338 21.2076 16.1262 21.0821ZM18.2437 17.6923C18.223 17.755 18.223 17.7969 18.223 17.8178C18.2853 18.1317 18.3683 18.4246 18.4306 18.7176C18.4306 18.7385 18.4721 18.7594 18.4929 18.7803C18.5136 18.7594 18.5344 18.7385 18.5551 18.7176C18.7212 18.32 18.7212 18.32 18.4721 17.9852C18.3891 17.9015 18.3268 17.8178 18.2437 17.6923Z" fill="#1B2230" stroke="#1B2230" stroke-width="4" mask="url(#path-6-inside-2_350_321)"/>
<path d="M16.9768 6.83095L16.9345 2.81485C16.9345 2.08438 16.3425 1.5 15.6026 1.5C14.8626 1.5 14.2706 2.08438 14.2706 2.81485C14.2706 2.81485 14.5243 4.50537 13.7209 4.75581" stroke="#1B2230" stroke-width="0.5"/>
<circle cx="16.8605" cy="11.6163" r="1.01163" stroke="#1B2230"/>
</svg>
