<svg width="25" height="25" viewBox="0 0 25 25" fill="none" xmlns="http://www.w3.org/2000/svg">
<path d="M15.0684 3.20105L14.2057 2.06573C14.1944 2.05013 14.18 2.03745 14.1644 2.0277C14.14 2.00995 14.1099 2 14.0789 2H10.8142C10.7834 2 10.7535 2.00975 10.7288 2.0277C10.7131 2.03745 10.6985 2.05071 10.6874 2.06573L9.82552 3.20105C9.78476 3.2541 9.78554 3.32783 9.82689 3.38049L12.332 6.5762C12.3597 6.6117 12.4024 6.63218 12.447 6.63218C12.4917 6.63218 12.5342 6.61189 12.5621 6.5762L15.0672 3.38049C15.1087 3.32705 15.1087 3.25352 15.0686 3.20105H15.0684Z" stroke="black" stroke-width="0.3" stroke-linecap="round" stroke-linejoin="round"/>
<path d="M9.79541 3.28787H15.0671" stroke="black" stroke-width="0.3" stroke-linecap="round" stroke-linejoin="round"/>
<path d="M11.5234 3.28787L12.4364 6.63221" stroke="black" stroke-width="0.3" stroke-linecap="round" stroke-linejoin="round"/>
<path d="M13.3708 3.2879L12.458 6.63224" stroke="black" stroke-width="0.3" stroke-linecap="round" stroke-linejoin="round"/>
<path d="M10.729 2.02771L11.5236 3.28786" stroke="black" stroke-width="0.3" stroke-linecap="round" stroke-linejoin="round"/>
<path d="M12.5493 2L11.5234 3.28784" stroke="black" stroke-width="0.3" stroke-linecap="round" stroke-linejoin="round"/>
<path d="M13.3709 3.28784L12.5498 2" stroke="black" stroke-width="0.3" stroke-linecap="round" stroke-linejoin="round"/>
<path d="M14.1651 2.02771L13.3711 3.28786" stroke="black" stroke-width="0.3" stroke-linecap="round" stroke-linejoin="round"/>
<circle cx="12.5" cy="15.1364" r="8.3" stroke="black" stroke-width="0.4"/>
<circle cx="12.5" cy="15.1364" r="6.75455" stroke="black" stroke-width="0.4"/>
</svg>
