<svg width="25" height="25" viewBox="0 0 25 25" fill="none" xmlns="http://www.w3.org/2000/svg">
<path d="M18.3228 18.2831V18.2826C18.324 18.2792 18.3237 18.2756 18.325 18.2722C18.3276 18.2612 18.3301 18.251 18.331 18.2396C18.332 18.2257 18.332 18.2116 18.3313 18.1979C18.3313 18.1967 18.3313 18.196 18.331 18.1948C18.3306 18.1921 18.3296 18.1894 18.3291 18.1867C18.3279 18.1748 18.3252 18.1629 18.3218 18.1514C18.3172 18.1359 18.3111 18.1217 18.3035 18.1086L16.6886 15.1042L16.6874 15.102L16.6869 15.1013C16.6862 15.0998 16.6848 15.0981 16.684 15.0967C16.6774 15.0855 16.6709 15.075 16.6628 15.0653C16.6558 15.0563 16.647 15.049 16.6387 15.0414C16.6366 15.039 16.6341 15.0363 16.6317 15.0344C16.6302 15.0334 16.6288 15.0322 16.6278 15.0314C16.6173 15.0234 16.6066 15.0159 16.5944 15.0098C16.5854 15.0052 16.5767 15.002 16.5672 14.9986C16.5628 14.9966 16.5584 14.9947 16.554 14.9935H16.5528L16.5516 14.9927L13.2836 14.0105H13.2831L13.2814 14.0098C13.2758 14.0081 13.2692 14.0074 13.2634 14.0061C13.2554 14.0044 13.2473 14.0025 13.2386 14.001C13.2249 13.9993 13.2113 14 13.1982 14.001C13.1969 14.001 13.1952 14.0008 13.1938 14.001C13.1901 14.001 13.1872 14.0027 13.184 14.003C13.1726 14.0044 13.1614 14.0066 13.1507 14.0095C13.1385 14.0132 13.1266 14.0183 13.1156 14.0241C13.1142 14.0249 13.1122 14.0256 13.1108 14.0263L13.11 14.0268L13.1078 14.028L10.103 15.6444L10.1023 15.6449L10.1015 15.6454C10.0972 15.6478 10.093 15.6515 10.0891 15.6539C10.0808 15.6588 10.0728 15.6636 10.0653 15.67C10.0548 15.6785 10.0451 15.6885 10.0363 15.6987L10.0336 15.7016C10.0336 15.7016 10.0326 15.7031 10.0317 15.704C10.0229 15.715 10.0151 15.7267 10.009 15.7388C10.0037 15.7488 10 15.7588 9.99613 15.7693C9.99516 15.7727 9.99297 15.7756 9.99199 15.779V15.7795L9.99126 15.7812L9.00953 19.0485L9.00904 19.0502V19.0507C9.00782 19.0541 9.00807 19.0577 9.00685 19.0611C9.00417 19.0721 9.00174 19.0823 9.00076 19.0937C8.99979 19.1076 8.99979 19.1217 9.00052 19.1354C9.00052 19.1366 9.00052 19.1373 9.00076 19.1385C9.00295 19.1582 9.00855 19.1777 9.01586 19.1965C9.01756 19.2013 9.01975 19.2062 9.02194 19.2106C9.02389 19.2142 9.02438 19.2186 9.02705 19.2225L10.6456 22.2315C10.6463 22.233 10.6478 22.2347 10.6485 22.2361C10.6551 22.2473 10.6617 22.2578 10.6697 22.2675C10.6768 22.2765 10.6855 22.2838 10.6938 22.2914C10.696 22.2938 10.6984 22.2965 10.7009 22.2984C10.7047 22.3014 10.7096 22.304 10.7138 22.3067C10.7218 22.3123 10.7293 22.3182 10.7379 22.3225C10.751 22.3296 10.7649 22.335 10.7787 22.3391H10.7792L14.0502 23.3223H14.0506C14.0648 23.3267 14.0794 23.3291 14.094 23.3313C14.1035 23.3323 14.113 23.3313 14.1227 23.3313C14.1278 23.3311 14.1329 23.332 14.138 23.3315C14.1417 23.3315 14.1446 23.3298 14.1478 23.3296C14.1592 23.3281 14.1704 23.3259 14.1811 23.323C14.1933 23.3194 14.2052 23.3143 14.2162 23.3084C14.2176 23.3077 14.2196 23.307 14.221 23.3062L14.2218 23.3057L14.224 23.3045L17.2303 21.6877C17.2339 21.6857 17.2371 21.6831 17.241 21.6804C17.2456 21.6775 17.2493 21.675 17.2539 21.6721C17.2702 21.6604 17.2858 21.6473 17.2984 21.6322C17.2994 21.6312 17.2994 21.6307 17.3004 21.6298C17.3091 21.6188 17.3169 21.6071 17.323 21.5949C17.3284 21.585 17.332 21.575 17.3359 21.5645C17.3369 21.5611 17.3391 21.5582 17.3401 21.5548V21.5543L17.3408 21.5526L18.322 18.2851L18.3225 18.2834L18.3228 18.2831Z" stroke="black" stroke-width="0.5" stroke-linecap="round" stroke-linejoin="round"/>
<path d="M13.882 20.799L12.311 20.3268L11.5337 18.8818L12.0059 17.3107L13.4509 16.5337L15.0217 17.0057L15.799 18.4507L15.327 20.0217L13.882 20.799Z" stroke="black" stroke-width="0.5" stroke-linecap="round" stroke-linejoin="round"/>
<path d="M15.0142 16.964L16.6704 15.1077" stroke="black" stroke-width="0.5" stroke-linecap="round" stroke-linejoin="round"/>
<path d="M15.8208 18.4616L18.3833 18.2899" stroke="black" stroke-width="0.5" stroke-linecap="round" stroke-linejoin="round"/>
<path d="M15.3438 20.0451L17.3873 21.6008" stroke="black" stroke-width="0.5" stroke-linecap="round" stroke-linejoin="round"/>
<path d="M13.8462 20.8506L14.0609 23.2693" stroke="black" stroke-width="0.5" stroke-linecap="round" stroke-linejoin="round"/>
<path d="M12.2641 20.3747L10.7515 22.2744" stroke="black" stroke-width="0.5" stroke-linecap="round" stroke-linejoin="round"/>
<path d="M11.4582 18.8772L9.03955 19.0919" stroke="black" stroke-width="0.5" stroke-linecap="round" stroke-linejoin="round"/>
<path d="M11.9335 17.2936L10.0771 15.6371" stroke="black" stroke-width="0.5" stroke-linecap="round" stroke-linejoin="round"/>
<path d="M13.4315 16.4882L13.2168 14.0695" stroke="black" stroke-width="0.5" stroke-linecap="round" stroke-linejoin="round"/>
<path d="M2.5 2C3 9 9.09882 15.1717 10 16" stroke="black" stroke-width="0.5" stroke-linecap="round"/>
<path d="M22 2C21 10 17.5741 14.2247 17 15" stroke="black" stroke-width="0.5"/>
</svg>
