<svg width="16" height="16" viewBox="0 0 16 16" fill="none" xmlns="http://www.w3.org/2000/svg">
<path d="M11.7879 11.606C11.7879 12.5151 11.4242 13.3485 10.8485 13.9545C10.2273 14.606 9.36364 15 8.39394 15C7.33333 15 6.39394 14.5151 5.77273 13.7727C5.28788 13.1818 5 12.4242 5 11.606C5 11.1818 5.07576 10.5909 5.22727 9.93937C5.42424 9.04544 5.75758 8.03028 6.16667 7.13634C6.75758 5.86362 7.54545 4.86362 8.39394 4.86362C9.18182 4.86362 9.90909 5.72725 10.4848 6.86362C11.2879 8.43937 11.7879 10.5151 11.7879 11.606Z" stroke="black" stroke-width="0.3"/>
<path d="M8.42423 4.87879C8.89283 4.87879 9.27271 4.49891 9.27271 4.03031C9.27271 3.5617 8.89283 3.18182 8.42423 3.18182C7.95562 3.18182 7.57574 3.5617 7.57574 4.03031C7.57574 4.49891 7.95562 4.87879 8.42423 4.87879Z" stroke="black" stroke-width="0.3"/>
<path d="M8.42428 3.18182L8.39397 1.95455C8.39397 1.42424 7.96973 1 7.43943 1C6.90912 1 6.48488 1.42424 6.48488 1.95455C6.48488 1.95455 6.6667 3.18182 6.09094 3.36364" stroke="black" stroke-width="0.3"/>
<path d="M11.7879 11.6061C11.7879 12.5152 11.4242 13.3485 10.8485 13.9546C10.2273 14.6061 9.36364 15 8.39394 15C7.33333 15 6.39394 14.5152 5.77273 13.7727C5.28788 13.1818 5 12.4243 5 11.6061C5 11.1818 5.07576 10.5909 5.22727 9.93941C5.42424 9.04547 5.75758 8.03031 6.16667 7.13637C6.75758 5.86365 7.54545 4.86365 8.39394 4.86365C9.18182 4.86365 9.90909 5.72728 10.4848 6.86365C11.2879 8.43941 11.7879 10.5152 11.7879 11.6061Z" stroke="black" stroke-width="0.3"/>
<path d="M8.42429 4.87879C8.8929 4.87879 9.27278 4.49891 9.27278 4.03031C9.27278 3.5617 8.8929 3.18182 8.42429 3.18182C7.95569 3.18182 7.57581 3.5617 7.57581 4.03031C7.57581 4.49891 7.95569 4.87879 8.42429 4.87879Z" stroke="black" stroke-width="0.3"/>
<path d="M8.42428 3.18182L8.39397 1.95455C8.39397 1.42424 7.96973 1 7.43943 1C6.90912 1 6.48488 1.42424 6.48488 1.95455C6.48488 1.95455 6.6667 3.18182 6.09094 3.36364" stroke="black" stroke-width="0.3"/>
<path d="M10.3333 11.2727C10.3333 12.3333 9.46971 13.197 8.40911 13.197C7.3485 13.197 6.48486 12.3333 6.48486 11.2727C6.48486 10.2121 7.3485 7.01517 8.40911 7.01517C9.46971 7.01517 10.3333 10.2121 10.3333 11.2727Z" stroke="black" stroke-width="0.3"/>
<path d="M8.39392 4.87878L8.42422 7.01515" stroke="black" stroke-width="0.3"/>
<path d="M8.42422 13.1818L8.39392 15" stroke="black" stroke-width="0.3"/>
<path d="M10.1364 9.93939H11.5606" stroke="black" stroke-width="0.3"/>
<path d="M5.22729 9.93939H6.69699" stroke="black" stroke-width="0.3"/>
<path d="M7.2576 8.28787L6.16669 7.13635" stroke="black" stroke-width="0.3"/>
<path d="M9.53033 8.15153L10.5606 7.01517" stroke="black" stroke-width="0.3"/>
<path d="M5.65149 13.6212L6.99997 12.5455" stroke="black" stroke-width="0.3"/>
<path d="M9.84845 12.5455L11.0757 13.697" stroke="black" stroke-width="0.3"/>
</svg>
