<svg width="16" height="16" viewBox="0 0 16 16" fill="none" xmlns="http://www.w3.org/2000/svg">
<g clip-path="url(#clip0_329_115)">
<path d="M5.73563 14.792C4.71951 14.4374 3.7647 13.8433 2.96758 13.0099C0.27836 10.1906 0.357197 5.71329 3.13401 2.99145C5.91082 0.269605 10.3432 0.349398 13.0324 3.1599C15.7216 5.9704 15.6428 10.4566 12.866 13.1784C12.1039 13.9231 11.2104 14.464 10.2731 14.792" stroke="black" stroke-width="0.3" stroke-miterlimit="10"/>
<path d="M6.06852 14.331C5.07868 14.0207 4.15015 13.4533 3.3793 12.6465C0.909078 10.0665 0.979155 5.94381 3.53698 3.44362C6.0948 0.943429 10.1593 1.01436 12.6207 3.60321C15.0822 6.19206 15.0209 10.3058 12.4631 12.7972C11.8849 13.3646 11.2367 13.7902 10.5359 14.1005" stroke="black" stroke-width="0.3" stroke-miterlimit="10"/>
<path d="M14.4602 4.97743C14.2763 4.55186 13.9434 4.29475 13.7157 4.40114C13.4879 4.50753 13.4529 4.9331 13.6368 5.3498C13.8208 5.77536 14.1537 6.03247 14.3814 5.92608C14.6092 5.82856 14.6442 5.40299 14.4602 4.97743ZM13.812 5.27C13.6894 4.98629 13.6982 4.71145 13.8295 4.65825C13.9609 4.59619 14.1624 4.78238 14.2851 5.05722C14.4077 5.34093 14.3989 5.61577 14.2675 5.66897C14.1361 5.73103 13.9347 5.55371 13.812 5.27Z" fill="white" stroke="black" stroke-width="0.1" stroke-miterlimit="10"/>
<path d="M14.7318 10.5363C14.8983 10.1019 14.8369 9.68521 14.6092 9.58768C14.3727 9.49902 14.0573 9.77387 13.8909 10.2083C13.7245 10.6427 13.7858 11.0594 14.0135 11.157C14.2413 11.2367 14.5654 10.9619 14.7318 10.5363ZM14.0661 10.2792C14.1712 9.99552 14.3727 9.80047 14.5041 9.85366C14.6355 9.90686 14.6618 10.1817 14.5479 10.4654C14.4428 10.7491 14.2413 10.9442 14.1099 10.891C13.9785 10.8378 13.961 10.5629 14.0661 10.2792Z" fill="white" stroke="black" stroke-width="0.1" stroke-miterlimit="10"/>
<path d="M10.5885 14.8807C11.009 14.6945 11.263 14.3576 11.1579 14.1271C11.0528 13.8965 10.6323 13.8611 10.2206 14.0473C9.80013 14.2334 9.5461 14.5704 9.65122 14.8009C9.74758 15.0314 10.168 15.0668 10.5885 14.8807ZM10.2994 14.2157C10.5797 14.0916 10.8513 14.1005 10.9039 14.2334C10.9652 14.3664 10.7812 14.5704 10.5097 14.6945C10.2294 14.8186 9.95781 14.8097 9.90525 14.6767C9.84393 14.5526 10.0191 14.3398 10.2994 14.2157Z" fill="white" stroke="black" stroke-width="0.1" stroke-miterlimit="10"/>
<path d="M5.43783 14.8186C5.82325 14.9693 6.19992 14.9161 6.28752 14.7033C6.36635 14.4906 6.12108 14.198 5.73566 14.0473C5.35023 13.8965 4.97357 13.9497 4.88597 14.1625C4.79837 14.3753 5.0524 14.6679 5.43783 14.8186ZM5.66558 14.2157C5.91961 14.3132 6.0948 14.4994 6.04224 14.6236C5.99845 14.7477 5.75318 14.7654 5.49039 14.6679C5.23636 14.5704 5.06116 14.3842 5.11372 14.2601C5.16628 14.1359 5.41155 14.1093 5.66558 14.2157Z" fill="white" stroke="black" stroke-width="0.1" stroke-miterlimit="10"/>
<path d="M1.40838 10.8733C1.59233 11.2988 1.9252 11.5559 2.15295 11.4495C2.3807 11.3432 2.41574 10.9176 2.23179 10.5009C2.04784 10.0753 1.71497 9.81822 1.48722 9.92461C1.25947 10.031 1.22443 10.4566 1.40838 10.8733ZM2.0566 10.5896C2.17923 10.8733 2.17047 11.1481 2.03908 11.2013C1.90768 11.2634 1.70621 11.0772 1.58357 10.8023C1.46094 10.5186 1.4697 10.2438 1.60109 10.1906C1.73249 10.1285 1.93396 10.3058 2.0566 10.5896Z" fill="white" stroke="black" stroke-width="0.1" stroke-miterlimit="10"/>
<path d="M1.44337 5.28773C1.29445 5.66896 1.34701 6.04133 1.55724 6.12113C1.75871 6.20092 2.04778 5.95267 2.18794 5.57144C2.33685 5.1902 2.28429 4.81784 2.07406 4.73804C1.87259 4.65825 1.59228 4.90649 1.44337 5.28773ZM2.03026 5.50938C1.93391 5.76649 1.75871 5.92608 1.64484 5.88175C1.5222 5.83742 1.50468 5.58917 1.60104 5.34093C1.6974 5.08381 1.87259 4.92423 1.98646 4.96856C2.1091 5.02175 2.12662 5.26113 2.03026 5.50938Z" fill="white" stroke="black" stroke-width="0.1" stroke-miterlimit="10"/>
<path d="M5.06111 1.47536C4.64065 1.66155 4.38662 1.99845 4.49173 2.22897C4.59685 2.45948 5.01731 2.49495 5.42902 2.30876C5.84948 2.12258 6.10351 1.78567 5.9984 1.55516C5.90204 1.32464 5.48158 1.28918 5.06111 1.47536ZM5.35018 2.13144C5.06987 2.25557 4.79832 2.2467 4.74576 2.11371C4.68445 1.98072 4.8684 1.7768 5.13995 1.65268C5.42026 1.52856 5.69181 1.53742 5.74437 1.67041C5.80568 1.79454 5.63049 2.00732 5.35018 2.13144Z" fill="white" stroke="black" stroke-width="0.1" stroke-miterlimit="10"/>
<path d="M9.62494 14.6856C8.42486 15.0048 7.47882 14.9605 6.29626 14.7299" stroke="#231F20" stroke-width="0.2" stroke-miterlimit="10" stroke-linecap="round"/>
<path d="M10.4834 1.27144C10.0541 1.10299 9.64243 1.16505 9.54607 1.39557C9.45848 1.63495 9.73003 1.95412 10.1592 2.12257C10.5885 2.29102 11.0002 2.22896 11.0965 1.99845C11.1841 1.75907 10.9126 1.4399 10.4834 1.27144ZM10.2293 1.94525C9.94902 1.83886 9.7563 1.63495 9.80886 1.50196C9.86142 1.36897 10.133 1.34237 10.4133 1.45763C10.6936 1.56402 10.8863 1.76793 10.8337 1.90092C10.7812 2.03391 10.5096 2.05164 10.2293 1.94525Z" fill="white" stroke="black" stroke-width="0.1" stroke-miterlimit="10"/>
<circle cx="8" cy="14.85" r="0.4" fill="white" stroke="black" stroke-width="0.2"/>
</g>
<defs>
<clipPath id="clip0_329_115">
<rect width="16" height="16" fill="white"/>
</clipPath>
</defs>
</svg>
