<svg width="14" height="14" viewBox="0 0 14 14" fill="none" xmlns="http://www.w3.org/2000/svg">
<path d="M13.6626 0C13.5783 0 13.494 0.0838298 13.494 0.167662C13.494 1.25748 13.3253 2.34731 13.0723 3.35329H12.988C12.4819 3.35329 12.0602 3.77245 12.0602 4.27545C12.0602 4.61078 12.2289 4.86228 12.4819 5.02994C12.3976 5.28144 12.2289 5.53294 12.1446 5.78443C12.0602 5.78443 11.9759 5.7006 11.8916 5.7006C11.3855 5.7006 10.9639 6.11976 10.9639 6.62276C10.9639 6.87425 11.0482 7.04192 11.2169 7.20958C11.0482 7.37725 10.9639 7.62875 10.7952 7.79641C10.6265 7.71258 10.5422 7.71257 10.3735 7.71257C9.86747 7.71257 9.44578 8.13174 9.44578 8.63474C9.44578 8.8024 9.53012 8.97006 9.61446 9.13773C9.27711 9.38923 9.10844 9.64072 8.93976 9.80838C8.77109 8.88623 7.92771 8.13174 6.91566 8.13174C5.90361 8.13174 5.06024 8.88623 4.89157 9.80838C4.72289 9.64072 4.46988 9.47306 4.21687 9.13773C4.3012 8.97006 4.38554 8.8024 4.38554 8.63474C4.38554 8.13174 3.96386 7.71257 3.45784 7.71257C3.28916 7.71257 3.12049 7.79641 3.03615 7.79641C2.86747 7.62875 2.6988 7.37725 2.61446 7.20958C2.78314 7.04192 2.86748 6.79042 2.86748 6.62276C2.86748 6.11976 2.44578 5.7006 1.93976 5.7006C1.85542 5.7006 1.77108 5.7006 1.68675 5.78443C1.51807 5.53294 1.43374 5.28144 1.3494 5.02994C1.60241 4.86228 1.77109 4.61078 1.77109 4.27545C1.77109 3.77245 1.3494 3.35329 0.843373 3.35329H0.759044C0.421694 2.34731 0.337357 1.25748 0.337357 0.167662C0.337357 0.0838298 0.253009 0 0.168672 0C0.0843347 0 0 0.0838298 0 0.167662C0 1.25748 0.16868 2.43114 0.506029 3.52096C0.253017 3.68862 0 3.94012 0 4.27545C0 4.77844 0.421692 5.1976 0.927716 5.1976C1.01205 5.1976 1.01205 5.1976 1.09639 5.1976C1.18072 5.4491 1.34939 5.7006 1.43373 5.9521C1.26506 6.11976 1.09639 6.37126 1.09639 6.62276C1.09639 7.12575 1.51808 7.54491 2.0241 7.54491C2.19278 7.54491 2.27711 7.54491 2.36145 7.46108C2.53012 7.62875 2.6988 7.88024 2.78313 8.0479C2.61446 8.21557 2.61446 8.38324 2.61446 8.63474C2.61446 9.13773 3.03614 9.55689 3.54216 9.55689C3.71084 9.55689 3.87952 9.47305 4.04819 9.38922C4.46988 9.80838 4.80723 10.0599 4.97591 10.2275V11.988C4.97591 13.0778 5.90361 14 7 14C8.09639 14 9.02409 13.0778 9.02409 11.988V10.2275C9.19277 10.1437 9.53012 9.80838 9.95181 9.38922C10.1205 9.47305 10.2892 9.55689 10.4578 9.55689C10.9639 9.55689 11.3855 9.13773 11.3855 8.63474C11.3855 8.38324 11.3012 8.21557 11.2169 8.0479C11.3855 7.88024 11.5542 7.62875 11.6386 7.46108C11.7229 7.54491 11.8916 7.54491 11.9759 7.54491C12.4819 7.54491 12.9036 7.12575 12.9036 6.62276C12.9036 6.37126 12.7349 6.11976 12.5663 5.9521C12.7349 5.7006 12.8193 5.4491 12.9036 5.1976C12.9879 5.1976 12.9879 5.1976 13.0723 5.1976C13.5783 5.1976 14 4.77844 14 4.27545C14 3.94012 13.8313 3.68862 13.494 3.52096C13.8313 2.43114 14 1.34132 14 0.167662C13.8313 0.0838298 13.8313 0 13.6626 0ZM0.168672 4.27545C0.168672 3.94012 0.421694 3.68862 0.759044 3.68862C1.09639 3.68862 1.3494 3.94012 1.3494 4.27545C1.3494 4.61078 1.09639 4.86228 0.759044 4.86228C0.421694 4.77845 0.168672 4.61078 0.168672 4.27545ZM8.51807 10.8144H7.75903V10.1437C7.75903 9.89222 7.6747 9.72455 7.59036 9.55689L8.18072 8.97006C8.43373 9.22156 8.51807 9.64072 8.51807 10.0599V10.8144ZM6.24097 11.8204V10.1437C6.24097 9.80838 6.49398 9.55689 6.83133 9.55689C7.16868 9.55689 7.42169 9.80838 7.42169 10.1437V11.8204C7.42169 12.1557 7.16868 12.4072 6.83133 12.4072C6.49398 12.4072 6.24097 12.1557 6.24097 11.8204ZM7.92772 8.71857L7.33734 9.30539C7.16867 9.22156 7 9.13773 6.83133 9.13773C6.66265 9.13773 6.49397 9.22156 6.3253 9.30539L5.73494 8.71857C5.98795 8.46707 6.40964 8.2994 6.83133 8.2994C7.25301 8.2994 7.59037 8.5509 7.92772 8.71857ZM5.56627 8.97006L6.15663 9.55689C5.98795 9.72455 5.98795 9.89222 5.98795 10.1437V10.8144H5.22891V10.0599C5.14457 9.64072 5.31326 9.30539 5.56627 8.97006ZM1.26506 6.62276C1.26506 6.28743 1.51807 6.03593 1.85542 6.03593C2.19277 6.03593 2.44579 6.28743 2.44579 6.62276C2.44579 6.95809 2.19277 7.20958 1.85542 7.20958C1.51807 7.20958 1.26506 6.87425 1.26506 6.62276ZM2.78313 8.5509C2.78313 8.21557 3.03614 7.96407 3.37349 7.96407C3.71084 7.96407 3.96385 8.21557 3.96385 8.5509C3.96385 8.88623 3.71084 9.13773 3.37349 9.13773C3.03614 9.13773 2.78313 8.88623 2.78313 8.5509ZM5.14458 11.1497H5.90361V11.8204C5.90361 12.0719 5.98795 12.2395 6.07228 12.4072L5.48193 12.994C5.22891 12.7425 5.14458 12.3234 5.14458 11.9042V11.1497ZM5.81928 13.2455L6.40964 12.6587C6.57832 12.7425 6.74698 12.8264 6.91566 12.8264C7.08433 12.8264 7.25301 12.7425 7.42169 12.6587L8.01204 13.2455C7.75903 13.497 7.33734 13.6647 6.91566 13.6647C6.40963 13.5808 6.07229 13.497 5.81928 13.2455ZM8.18072 12.994L7.59036 12.4072C7.75903 12.2395 7.75903 12.0719 7.75903 11.8204V11.1497H8.51807V11.9042C8.51807 12.3234 8.43373 12.6587 8.18072 12.994ZM10.2892 9.13773C9.9518 9.13773 9.69879 8.88623 9.69879 8.5509C9.69879 8.21557 9.9518 7.96407 10.2892 7.96407C10.6265 7.96407 10.8795 8.21557 10.8795 8.5509C10.8795 8.88623 10.6265 9.13773 10.2892 9.13773ZM11.8072 7.12575C11.4699 7.12575 11.2169 6.87426 11.2169 6.53893C11.2169 6.2036 11.4699 5.9521 11.8072 5.9521C12.1446 5.9521 12.3976 6.2036 12.3976 6.53893C12.3976 6.87426 12.1446 7.12575 11.8072 7.12575ZM12.988 4.77844C12.6506 4.77844 12.3976 4.52695 12.3976 4.19162C12.3976 3.85629 12.6506 3.60479 12.988 3.60479C13.3253 3.60479 13.5783 3.85629 13.5783 4.19162C13.494 4.61078 13.241 4.77844 12.988 4.77844Z" fill="black"/>
</svg>
