<svg width="16" height="16" viewBox="0 0 16 16" fill="none" xmlns="http://www.w3.org/2000/svg">
<g clip-path="url(#clip0_63_498)">
<path d="M3.24954 12.9497C4.49516 14.2165 6.21598 15 8.11674 15C11.9183 15 15 11.866 15 8C15 4.13401 11.9183 1 8.11674 1C5.77766 1 3.71109 2.18652 2.46724 4C2.05296 4.60401 1.72994 5.27757 1.51852 6M1.51852 6L1 4.76923M1.51852 6L2.55556 5.30769" stroke="black" stroke-width="0.2" stroke-linecap="round"/>
<path d="M5 6.71429L6.39286 5M5 6.71429H7.08929M5 6.71429L8.25 11M11.5 6.71429L10.1071 5M11.5 6.71429H9.17857M11.5 6.71429L8.25 11M6.39286 5H8.25M6.39286 5L7.08929 6.71429M8.25 5H10.1071M8.25 5L7.08929 6.71429M8.25 5L9.17857 6.71429M10.1071 5L9.17857 6.71429M7.08929 6.71429H9.17857M7.08929 6.71429L8.25 11M9.17857 6.71429L8.25 11" stroke="black" stroke-width="0.2" stroke-linecap="round" stroke-linejoin="round"/>
</g>
<defs>
<clipPath id="clip0_63_498">
<rect width="16" height="16" fill="white"/>
</clipPath>
</defs>
</svg>
