<svg width="182" height="182" viewBox="0 0 182 182" fill="none" xmlns="http://www.w3.org/2000/svg">
<mask id="path-1-inside-1_186_282" fill="white">
<path d="M90.7924 181.945C40.8689 183.037 1.51308 139.742 0.0554561 94.6287C-1.76657 41.5112 41.5977 1.49124 87.5127 0.0359719C141.809 -1.4193 180.072 41.5113 181.894 86.9886C184.445 140.106 140.716 183.764 90.7924 181.945ZM138.529 91.7182C138.165 90.9905 138.165 90.2629 137.801 89.8991C133.792 80.076 129.784 70.2529 125.775 60.4298C125.046 58.9745 123.589 57.5193 122.496 56.7916C113.386 52.7896 104.64 49.1515 95.5296 45.1495C92.9788 44.058 90.7924 43.3304 88.2415 44.7856C79.4958 48.7876 70.0213 52.4258 61.2755 56.064C59.0891 56.7916 57.9959 58.2469 57.2671 60.066C53.623 68.4338 49.6146 76.8017 46.3349 85.1695C45.6061 87.3524 43.7841 89.1714 44.8773 91.7182C48.8858 101.541 52.5298 111.728 56.5383 121.551C57.2671 123.007 58.3603 124.462 59.8179 124.826C69.2925 129.191 79.1314 133.557 88.9703 137.559C90.0636 137.923 91.8856 138.287 92.9788 137.559C102.818 133.921 112.292 129.919 122.131 125.917C123.589 125.189 125.411 123.734 126.14 122.279C129.784 114.639 132.699 106.999 135.979 98.9945C136.343 96.8116 137.436 94.2649 138.529 91.7182ZM32.8519 28.4138C30.3011 28.05 30.3011 29.5053 30.6655 31.3244C31.7587 41.5113 32.4875 51.6982 33.2163 61.8851C33.2163 63.7042 33.9451 64.068 35.7672 63.3404C41.2333 60.7936 47.0637 58.6107 52.5298 56.064C53.9874 55.3364 55.8095 54.2449 56.5383 52.7896C59.4535 46.9685 62.0044 40.7836 64.5552 34.9625C65.6484 33.1435 64.5552 32.052 62.7332 31.6881C60.5467 31.3243 58.3603 31.3243 56.5383 30.9605C48.5214 30.5967 40.5044 29.5053 32.8519 28.4138ZM152.012 29.5053C141.08 30.5967 130.877 31.6882 120.309 32.7796C118.487 33.1434 118.123 33.8711 118.852 35.3263C121.038 40.7836 123.589 46.6047 125.775 52.062C126.868 54.2449 127.962 55.7002 130.513 56.7916C135.614 58.6107 141.08 61.1575 146.182 63.3404C149.097 64.7956 149.826 64.4318 150.19 61.1574C151.284 51.3344 152.377 41.5112 153.47 31.6881C153.106 30.9605 152.012 30.2329 152.012 29.5053ZM152.012 148.838C151.284 139.742 150.19 130.647 149.462 121.551C149.097 119.005 148.368 118.641 146.182 119.732C141.08 121.915 135.979 123.734 130.877 125.917C127.962 127.009 125.775 128.464 124.682 131.738C124.318 132.83 123.589 133.921 123.224 135.013C121.402 139.015 119.945 143.017 118.123 146.655C117.394 148.474 117.394 149.929 119.945 149.929C122.496 149.929 125.046 150.293 127.962 150.657C135.25 151.384 142.538 152.112 149.826 153.203C152.012 153.567 152.741 152.476 152.377 150.657C152.012 149.929 152.012 149.565 152.012 148.838ZM32.8519 117.185C32.4875 118.277 32.1231 118.641 32.1231 119.005C31.0299 129.191 29.9367 139.378 28.4791 149.201C28.1147 151.748 29.2079 152.112 31.3943 152.112C40.8688 151.384 50.7078 150.293 60.1823 149.565C62.3688 149.201 62.7332 148.474 62.0044 146.291C60.1823 141.561 57.9959 136.832 56.5383 131.738C55.4451 128.1 53.623 125.189 49.6146 124.098C47.0637 123.37 44.5129 121.915 41.9621 120.824C39.0468 119.732 36.1316 118.277 32.8519 117.185ZM150.919 113.547C152.741 112.092 154.563 110.637 156.021 109.545C162.945 104.088 169.504 98.6307 176.428 93.1735C177.521 92.082 178.25 91.3543 176.792 89.8991C169.14 83.7142 161.487 77.1654 153.47 70.9805C152.012 69.5253 150.919 69.5252 150.19 71.7082C148.004 76.8016 145.818 82.2589 143.267 87.3523C142.174 89.8991 141.445 92.082 142.902 94.6287C144.36 97.5393 145.089 100.086 146.546 102.997C148.004 106.999 149.462 109.909 150.919 113.547ZM29.9367 112.092C30.6655 111.364 31.0299 110.637 31.3943 109.909C34.3096 103.724 36.8604 97.9031 39.4112 91.7182C39.7756 90.6267 39.7756 89.1714 39.4112 88.08C37.2248 82.2589 34.674 76.074 32.4875 70.2529C31.7587 68.4338 31.0299 68.4338 29.5723 69.5253C21.5554 76.074 13.5385 82.2589 5.52154 88.4438C4.06391 89.5353 4.06391 90.6267 5.52154 91.7182C13.5385 98.2669 21.5554 105.179 29.9367 112.092ZM90.428 141.925C89.3348 142.289 87.8771 142.653 87.1483 143.017C81.6822 145.199 76.2162 147.382 70.7501 149.565C68.5637 150.293 68.5637 151.021 69.6569 152.84C75.8518 160.844 82.4111 168.484 88.6059 176.488C89.6992 177.943 90.7924 177.943 92.25 176.488C98.4449 169.211 104.64 161.571 110.835 154.295C112.657 152.112 112.292 151.384 109.741 150.293C106.462 148.838 103.182 147.382 99.9025 145.927C96.6229 144.836 93.3432 143.38 90.428 141.925ZM90.7924 40.4198C91.5212 40.4198 91.5212 40.4198 91.8856 40.056C98.4449 37.1454 105.004 34.5987 111.563 31.6881C113.021 30.9605 112.657 30.2329 111.928 29.1414C105.369 21.1374 98.8093 13.1335 92.25 5.12946C91.1568 4.03801 90.428 4.03801 89.6992 5.12946C83.1399 13.1335 76.945 20.7736 70.3857 28.7776C69.2925 30.2329 69.2925 31.3244 71.1145 32.052C75.4873 33.8711 80.2246 35.6902 84.5975 37.8731C87.1483 38.6007 88.9703 39.6922 90.7924 40.4198ZM27.3859 30.5967C26.2926 31.3244 25.9282 31.6881 25.9282 31.6881C19.7333 38.6007 14.6317 46.2409 10.6232 54.6087C9.8944 56.064 10.6232 56.4278 11.7164 57.1554C16.8181 59.3383 21.9198 61.5213 27.0214 63.7042C29.9367 65.1594 30.6655 64.7956 30.3011 61.1574C29.5723 53.8811 28.8435 46.6047 28.1147 39.3284C28.1147 36.4178 27.7503 33.8711 27.3859 30.5967ZM3.3351 93.9011C2.9707 94.6287 2.9707 95.3564 2.9707 95.7202C3.69951 104.816 5.15713 113.911 8.43678 122.279C9.16559 123.734 9.8944 123.734 10.9876 123.37C16.0893 121.187 20.8266 119.368 25.9282 117.185C28.8435 116.094 28.8435 115.366 26.657 113.547C19.3689 107.362 12.0808 101.177 4.79272 94.9925C4.42832 94.2649 4.06391 94.2649 3.3351 93.9011ZM30.6655 155.023C31.7587 156.114 32.1231 157.205 32.8519 157.569C39.4112 163.027 46.3349 167.756 53.9874 171.394C55.4451 172.122 56.5383 172.122 56.9027 170.303C59.0891 164.846 61.2755 159.752 63.462 154.295C64.1908 152.476 63.8264 152.112 61.64 152.112C53.9874 152.84 46.6993 153.567 39.0468 154.295C36.8604 154.295 34.3096 154.659 30.6655 155.023ZM114.843 153.567C107.919 161.935 100.996 170.303 94.072 178.671C95.1652 179.035 95.894 179.398 96.6229 179.398C105.004 178.671 113.386 177.215 121.402 174.305C123.589 173.577 123.589 172.486 122.86 170.667C120.674 165.937 118.852 161.207 117.03 156.478C115.936 155.75 115.572 155.023 114.843 153.567ZM94.4364 2.58269C95.1652 4.03796 95.5297 4.40182 95.8941 5.12946C101.725 12.4058 107.919 19.6822 113.75 27.3223C114.843 28.7776 115.936 28.05 116.301 26.9586C118.487 21.8651 120.674 16.7716 122.86 11.3144C123.589 9.85909 122.86 8.76762 121.038 8.4038C116.301 7.31235 111.928 5.49326 107.555 4.76562C103.547 3.67417 99.5381 3.31032 94.4364 2.58269ZM152.377 118.641C152.377 120.096 152.012 120.824 152.012 121.915C152.741 130.647 153.834 139.742 154.563 148.474C154.563 149.201 155.292 149.929 155.292 150.657C156.021 150.293 156.75 149.929 157.114 149.565C161.487 143.016 165.86 136.104 170.233 129.555C171.326 127.736 170.597 126.645 168.775 125.917C166.589 125.189 164.402 124.098 162.58 123.37C159.665 121.551 156.021 120.096 152.377 118.641ZM153.47 67.3423C155.657 69.1614 157.114 70.6167 158.936 72.072C164.767 76.8016 170.597 81.8951 176.428 86.6247C177.156 86.9885 177.885 87.3524 178.614 87.7162C178.978 86.9885 179.343 86.6247 179.343 86.2609C178.25 77.8931 177.156 69.5253 173.877 61.5213C173.148 59.7022 172.055 59.7022 170.597 60.4298C167.317 61.8851 163.673 63.3404 160.029 64.7956C158.207 65.1594 156.385 66.2509 153.47 67.3423ZM87.5127 3.31037C86.7839 3.31037 86.4195 2.94653 86.0551 2.94653C77.6738 4.03798 69.2925 5.12942 61.2755 8.03996C59.4535 8.7676 58.7247 9.49527 59.4535 11.3144C61.2755 16.044 63.462 20.7736 65.284 25.5032C66.3772 28.4138 67.106 28.4138 68.9281 26.2309C74.0297 20.046 79.4958 13.4973 84.5975 6.94855C85.6907 5.8571 86.4195 4.76564 87.5127 3.31037ZM156.385 32.4158C155.657 33.1435 155.657 33.1435 155.657 33.1435C154.563 42.9665 153.47 52.7896 152.377 62.2489C152.012 64.068 153.47 64.068 154.563 63.7042C159.665 61.8851 164.402 59.7022 169.504 57.5193C171.69 56.7916 172.419 55.3363 170.962 53.5172C166.953 47.3323 162.945 41.1475 158.936 34.9625C158.207 33.8711 157.114 33.1435 156.385 32.4158ZM150.919 26.9586C149.826 25.8671 149.462 25.1394 148.733 24.4118C146.182 22.2289 143.631 20.046 140.716 18.2269C137.072 15.6802 133.063 13.4973 129.055 11.3144C127.233 10.2229 125.775 10.5867 124.682 12.7696C122.86 17.8631 120.674 22.5927 118.487 27.6862C117.758 29.5053 118.487 29.8691 120.309 29.8691C126.504 29.1414 132.699 28.4138 138.529 28.05C142.538 27.6861 146.182 27.3224 150.919 26.9586ZM153.106 115.73C159.665 118.641 165.495 120.824 171.326 123.007C172.784 123.734 173.512 123.007 173.877 121.551C175.699 113.911 177.156 106.635 178.978 98.9945C179.343 97.9031 179.343 96.8116 179.343 95.7202C178.978 95.7202 178.614 95.3563 178.614 95.3563C170.233 101.905 161.851 108.818 153.106 115.73ZM149.826 157.205C149.826 156.842 149.462 156.478 149.462 156.478C147.64 156.114 145.453 156.114 143.631 155.75C135.979 155.023 128.326 153.931 120.674 153.203C119.216 153.203 117.758 153.203 118.852 155.023C121.038 160.116 123.224 165.573 125.411 170.667C126.14 172.122 126.869 172.122 127.962 171.394C132.699 168.484 137.436 165.937 142.174 163.027C145.089 161.207 147.275 159.025 149.826 157.205ZM86.0551 179.398C86.0551 178.671 86.0551 178.307 85.6907 177.943C79.8602 170.667 74.0297 163.027 67.8348 155.75C66.7416 154.295 65.6484 154.659 65.284 156.478C63.462 160.844 61.64 165.209 59.8179 169.575C58.3603 173.213 58.7247 173.941 62.3688 174.669C68.5637 176.124 74.7585 177.579 80.9534 179.035C82.7755 179.398 84.5975 179.398 86.0551 179.398ZM25.1994 149.565C25.5638 149.565 25.9282 149.201 26.2926 149.201C26.657 147.019 27.0214 144.472 27.0214 142.289C27.7503 135.376 28.4791 128.828 29.5723 121.915C29.9367 119.368 29.2079 118.641 27.3859 119.732C22.6486 121.551 17.5469 123.734 12.8096 125.553C11.352 126.281 10.6232 127.009 11.7164 128.828C14.6317 133.193 16.8181 137.923 19.7333 142.289C20.8266 144.836 23.013 147.382 25.1994 149.565ZM27.7503 67.3423C26.657 66.6147 25.9282 65.8871 25.1994 65.5233C20.8266 63.7042 16.4537 61.8851 12.0808 60.066C10.2588 59.3383 9.16559 59.3384 8.43678 61.5213C5.52153 68.7976 4.42832 76.4378 3.3351 84.078C3.3351 84.8056 3.3351 85.1694 3.69951 86.6247C11.7164 80.076 19.3689 73.8911 27.7503 67.3423ZM32.4875 25.1395C33.5807 25.8671 33.5807 26.2309 33.9451 26.2309C42.6909 27.3223 51.801 28.4138 60.9111 29.5053C63.0976 29.8691 63.8264 28.7776 62.7332 26.5947C60.9111 22.2289 59.0891 18.2269 57.2671 13.8611C56.1739 10.5867 55.4451 10.5867 52.1654 12.042C49.2502 13.8611 45.9705 15.3163 43.0553 17.4993C39.4112 19.6822 36.1316 22.2289 32.4875 25.1395ZM59.0891 128.464C58.7247 128.828 58.7247 129.191 58.7247 129.191C60.9111 135.013 63.0976 140.834 65.6484 146.655C66.0128 147.382 67.106 147.746 67.8348 147.382C69.6569 147.019 71.1145 146.291 72.9365 145.563C76.945 144.108 80.9534 142.289 84.9619 140.834C84.9619 140.47 84.9619 140.106 84.9619 140.106C76.945 135.74 67.8348 132.102 59.0891 128.464ZM42.3265 94.9925C41.9621 94.9925 41.5977 94.9925 41.2333 94.9925C39.0468 99.7222 36.8604 104.452 35.0384 109.181C33.2163 113.911 33.2163 113.911 37.5892 115.73C42.3265 117.913 47.0637 119.732 51.801 121.915C52.1654 121.915 52.1654 121.551 52.5298 121.551C49.2502 112.82 45.6061 103.724 42.3265 94.9925ZM95.1652 140.106C95.1652 140.47 95.5296 140.834 95.5296 141.197C100.996 143.744 106.826 146.291 112.657 148.474C113.386 148.838 114.843 147.746 115.572 147.019C116.665 144.836 117.758 142.289 118.487 140.106C119.945 136.832 121.038 133.557 122.496 130.283C122.131 129.919 122.131 129.919 121.767 129.555C112.657 133.193 103.911 136.468 95.1652 140.106ZM122.496 53.5172C122.496 52.4258 122.86 52.062 122.496 51.6981C120.309 46.2409 118.123 40.7836 115.572 35.3263C115.208 34.5987 113.75 34.2349 113.021 34.5987C107.919 36.4178 102.818 38.6007 97.7161 40.7836C96.9873 41.1474 96.6229 41.8751 96.6229 42.2389C96.6229 42.6027 97.3517 43.3304 98.0805 43.3304C100.267 44.4218 102.453 45.1495 104.275 45.8771C110.106 48.4238 115.936 50.9705 122.496 53.5172ZM128.326 123.37C129.419 123.007 130.148 123.007 130.513 123.007C135.614 121.187 140.351 119.005 145.453 117.185C148.004 116.094 148.004 115.003 147.275 112.82C145.453 108.09 143.631 103.724 141.445 98.9945C141.08 98.2669 140.351 97.9031 139.987 97.1754C139.258 97.9031 138.894 98.2669 138.529 98.9945C136.707 102.997 134.885 106.999 133.428 111.364C131.606 115.003 130.148 119.005 128.326 123.37ZM130.148 60.066C129.784 60.4298 129.784 60.4298 129.419 60.7936C129.784 61.8851 129.784 62.6127 130.148 63.7042C131.606 67.7062 133.428 71.3443 134.885 75.3463C136.343 78.6207 137.436 81.8951 138.894 85.1695C139.258 85.8971 139.987 86.2609 140.351 86.6247C140.351 86.6247 141.08 85.8971 141.445 85.5333C143.631 80.4398 145.818 75.3463 148.004 69.8891C148.733 68.4338 148.368 67.3424 146.546 66.9786C144.36 66.2509 142.538 65.1594 140.351 64.4318C137.072 62.6127 133.428 61.1574 130.148 60.066ZM41.5977 84.8056C41.9621 84.8056 42.3265 84.8057 42.3265 85.1695C46.6993 77.1655 49.6146 68.4338 53.623 60.066C52.8942 59.7022 52.5298 59.7022 52.1654 59.7022C46.6993 61.8851 41.2333 64.068 35.7672 66.6147C34.3095 67.3424 34.674 68.4338 35.0384 69.8891C36.1316 72.072 36.8604 74.6187 37.5892 76.8016C39.0468 79.3484 40.14 81.8951 41.5977 84.8056ZM60.1823 52.7896C62.0044 52.4258 63.0976 52.062 63.8264 51.6981C70.3857 48.7876 77.3094 46.2409 83.8687 43.3304C84.5975 42.9666 84.9619 42.2389 85.6907 41.8751C84.9619 41.5112 84.5975 40.7836 84.2331 40.4198C79.8602 38.6007 75.4873 36.7816 71.1145 34.5987C69.6569 33.8711 68.5637 34.2349 67.8348 36.054C66.3772 39.3284 64.9196 42.9665 63.0976 46.2409C62.0044 48.4238 61.2755 50.2429 60.1823 52.7896Z"/>
</mask>
<path d="M90.7924 181.945C40.8689 183.037 1.51308 139.742 0.0554561 94.6287C-1.76657 41.5112 41.5977 1.49124 87.5127 0.0359719C141.809 -1.4193 180.072 41.5113 181.894 86.9886C184.445 140.106 140.716 183.764 90.7924 181.945ZM138.529 91.7182C138.165 90.9905 138.165 90.2629 137.801 89.8991C133.792 80.076 129.784 70.2529 125.775 60.4298C125.046 58.9745 123.589 57.5193 122.496 56.7916C113.386 52.7896 104.64 49.1515 95.5296 45.1495C92.9788 44.058 90.7924 43.3304 88.2415 44.7856C79.4958 48.7876 70.0213 52.4258 61.2755 56.064C59.0891 56.7916 57.9959 58.2469 57.2671 60.066C53.623 68.4338 49.6146 76.8017 46.3349 85.1695C45.6061 87.3524 43.7841 89.1714 44.8773 91.7182C48.8858 101.541 52.5298 111.728 56.5383 121.551C57.2671 123.007 58.3603 124.462 59.8179 124.826C69.2925 129.191 79.1314 133.557 88.9703 137.559C90.0636 137.923 91.8856 138.287 92.9788 137.559C102.818 133.921 112.292 129.919 122.131 125.917C123.589 125.189 125.411 123.734 126.14 122.279C129.784 114.639 132.699 106.999 135.979 98.9945C136.343 96.8116 137.436 94.2649 138.529 91.7182ZM32.8519 28.4138C30.3011 28.05 30.3011 29.5053 30.6655 31.3244C31.7587 41.5113 32.4875 51.6982 33.2163 61.8851C33.2163 63.7042 33.9451 64.068 35.7672 63.3404C41.2333 60.7936 47.0637 58.6107 52.5298 56.064C53.9874 55.3364 55.8095 54.2449 56.5383 52.7896C59.4535 46.9685 62.0044 40.7836 64.5552 34.9625C65.6484 33.1435 64.5552 32.052 62.7332 31.6881C60.5467 31.3243 58.3603 31.3243 56.5383 30.9605C48.5214 30.5967 40.5044 29.5053 32.8519 28.4138ZM152.012 29.5053C141.08 30.5967 130.877 31.6882 120.309 32.7796C118.487 33.1434 118.123 33.8711 118.852 35.3263C121.038 40.7836 123.589 46.6047 125.775 52.062C126.868 54.2449 127.962 55.7002 130.513 56.7916C135.614 58.6107 141.08 61.1575 146.182 63.3404C149.097 64.7956 149.826 64.4318 150.19 61.1574C151.284 51.3344 152.377 41.5112 153.47 31.6881C153.106 30.9605 152.012 30.2329 152.012 29.5053ZM152.012 148.838C151.284 139.742 150.19 130.647 149.462 121.551C149.097 119.005 148.368 118.641 146.182 119.732C141.08 121.915 135.979 123.734 130.877 125.917C127.962 127.009 125.775 128.464 124.682 131.738C124.318 132.83 123.589 133.921 123.224 135.013C121.402 139.015 119.945 143.017 118.123 146.655C117.394 148.474 117.394 149.929 119.945 149.929C122.496 149.929 125.046 150.293 127.962 150.657C135.25 151.384 142.538 152.112 149.826 153.203C152.012 153.567 152.741 152.476 152.377 150.657C152.012 149.929 152.012 149.565 152.012 148.838ZM32.8519 117.185C32.4875 118.277 32.1231 118.641 32.1231 119.005C31.0299 129.191 29.9367 139.378 28.4791 149.201C28.1147 151.748 29.2079 152.112 31.3943 152.112C40.8688 151.384 50.7078 150.293 60.1823 149.565C62.3688 149.201 62.7332 148.474 62.0044 146.291C60.1823 141.561 57.9959 136.832 56.5383 131.738C55.4451 128.1 53.623 125.189 49.6146 124.098C47.0637 123.37 44.5129 121.915 41.9621 120.824C39.0468 119.732 36.1316 118.277 32.8519 117.185ZM150.919 113.547C152.741 112.092 154.563 110.637 156.021 109.545C162.945 104.088 169.504 98.6307 176.428 93.1735C177.521 92.082 178.25 91.3543 176.792 89.8991C169.14 83.7142 161.487 77.1654 153.47 70.9805C152.012 69.5253 150.919 69.5252 150.19 71.7082C148.004 76.8016 145.818 82.2589 143.267 87.3523C142.174 89.8991 141.445 92.082 142.902 94.6287C144.36 97.5393 145.089 100.086 146.546 102.997C148.004 106.999 149.462 109.909 150.919 113.547ZM29.9367 112.092C30.6655 111.364 31.0299 110.637 31.3943 109.909C34.3096 103.724 36.8604 97.9031 39.4112 91.7182C39.7756 90.6267 39.7756 89.1714 39.4112 88.08C37.2248 82.2589 34.674 76.074 32.4875 70.2529C31.7587 68.4338 31.0299 68.4338 29.5723 69.5253C21.5554 76.074 13.5385 82.2589 5.52154 88.4438C4.06391 89.5353 4.06391 90.6267 5.52154 91.7182C13.5385 98.2669 21.5554 105.179 29.9367 112.092ZM90.428 141.925C89.3348 142.289 87.8771 142.653 87.1483 143.017C81.6822 145.199 76.2162 147.382 70.7501 149.565C68.5637 150.293 68.5637 151.021 69.6569 152.84C75.8518 160.844 82.4111 168.484 88.6059 176.488C89.6992 177.943 90.7924 177.943 92.25 176.488C98.4449 169.211 104.64 161.571 110.835 154.295C112.657 152.112 112.292 151.384 109.741 150.293C106.462 148.838 103.182 147.382 99.9025 145.927C96.6229 144.836 93.3432 143.38 90.428 141.925ZM90.7924 40.4198C91.5212 40.4198 91.5212 40.4198 91.8856 40.056C98.4449 37.1454 105.004 34.5987 111.563 31.6881C113.021 30.9605 112.657 30.2329 111.928 29.1414C105.369 21.1374 98.8093 13.1335 92.25 5.12946C91.1568 4.03801 90.428 4.03801 89.6992 5.12946C83.1399 13.1335 76.945 20.7736 70.3857 28.7776C69.2925 30.2329 69.2925 31.3244 71.1145 32.052C75.4873 33.8711 80.2246 35.6902 84.5975 37.8731C87.1483 38.6007 88.9703 39.6922 90.7924 40.4198ZM27.3859 30.5967C26.2926 31.3244 25.9282 31.6881 25.9282 31.6881C19.7333 38.6007 14.6317 46.2409 10.6232 54.6087C9.8944 56.064 10.6232 56.4278 11.7164 57.1554C16.8181 59.3383 21.9198 61.5213 27.0214 63.7042C29.9367 65.1594 30.6655 64.7956 30.3011 61.1574C29.5723 53.8811 28.8435 46.6047 28.1147 39.3284C28.1147 36.4178 27.7503 33.8711 27.3859 30.5967ZM3.3351 93.9011C2.9707 94.6287 2.9707 95.3564 2.9707 95.7202C3.69951 104.816 5.15713 113.911 8.43678 122.279C9.16559 123.734 9.8944 123.734 10.9876 123.37C16.0893 121.187 20.8266 119.368 25.9282 117.185C28.8435 116.094 28.8435 115.366 26.657 113.547C19.3689 107.362 12.0808 101.177 4.79272 94.9925C4.42832 94.2649 4.06391 94.2649 3.3351 93.9011ZM30.6655 155.023C31.7587 156.114 32.1231 157.205 32.8519 157.569C39.4112 163.027 46.3349 167.756 53.9874 171.394C55.4451 172.122 56.5383 172.122 56.9027 170.303C59.0891 164.846 61.2755 159.752 63.462 154.295C64.1908 152.476 63.8264 152.112 61.64 152.112C53.9874 152.84 46.6993 153.567 39.0468 154.295C36.8604 154.295 34.3096 154.659 30.6655 155.023ZM114.843 153.567C107.919 161.935 100.996 170.303 94.072 178.671C95.1652 179.035 95.894 179.398 96.6229 179.398C105.004 178.671 113.386 177.215 121.402 174.305C123.589 173.577 123.589 172.486 122.86 170.667C120.674 165.937 118.852 161.207 117.03 156.478C115.936 155.75 115.572 155.023 114.843 153.567ZM94.4364 2.58269C95.1652 4.03796 95.5297 4.40182 95.8941 5.12946C101.725 12.4058 107.919 19.6822 113.75 27.3223C114.843 28.7776 115.936 28.05 116.301 26.9586C118.487 21.8651 120.674 16.7716 122.86 11.3144C123.589 9.85909 122.86 8.76762 121.038 8.4038C116.301 7.31235 111.928 5.49326 107.555 4.76562C103.547 3.67417 99.5381 3.31032 94.4364 2.58269ZM152.377 118.641C152.377 120.096 152.012 120.824 152.012 121.915C152.741 130.647 153.834 139.742 154.563 148.474C154.563 149.201 155.292 149.929 155.292 150.657C156.021 150.293 156.75 149.929 157.114 149.565C161.487 143.016 165.86 136.104 170.233 129.555C171.326 127.736 170.597 126.645 168.775 125.917C166.589 125.189 164.402 124.098 162.58 123.37C159.665 121.551 156.021 120.096 152.377 118.641ZM153.47 67.3423C155.657 69.1614 157.114 70.6167 158.936 72.072C164.767 76.8016 170.597 81.8951 176.428 86.6247C177.156 86.9885 177.885 87.3524 178.614 87.7162C178.978 86.9885 179.343 86.6247 179.343 86.2609C178.25 77.8931 177.156 69.5253 173.877 61.5213C173.148 59.7022 172.055 59.7022 170.597 60.4298C167.317 61.8851 163.673 63.3404 160.029 64.7956C158.207 65.1594 156.385 66.2509 153.47 67.3423ZM87.5127 3.31037C86.7839 3.31037 86.4195 2.94653 86.0551 2.94653C77.6738 4.03798 69.2925 5.12942 61.2755 8.03996C59.4535 8.7676 58.7247 9.49527 59.4535 11.3144C61.2755 16.044 63.462 20.7736 65.284 25.5032C66.3772 28.4138 67.106 28.4138 68.9281 26.2309C74.0297 20.046 79.4958 13.4973 84.5975 6.94855C85.6907 5.8571 86.4195 4.76564 87.5127 3.31037ZM156.385 32.4158C155.657 33.1435 155.657 33.1435 155.657 33.1435C154.563 42.9665 153.47 52.7896 152.377 62.2489C152.012 64.068 153.47 64.068 154.563 63.7042C159.665 61.8851 164.402 59.7022 169.504 57.5193C171.69 56.7916 172.419 55.3363 170.962 53.5172C166.953 47.3323 162.945 41.1475 158.936 34.9625C158.207 33.8711 157.114 33.1435 156.385 32.4158ZM150.919 26.9586C149.826 25.8671 149.462 25.1394 148.733 24.4118C146.182 22.2289 143.631 20.046 140.716 18.2269C137.072 15.6802 133.063 13.4973 129.055 11.3144C127.233 10.2229 125.775 10.5867 124.682 12.7696C122.86 17.8631 120.674 22.5927 118.487 27.6862C117.758 29.5053 118.487 29.8691 120.309 29.8691C126.504 29.1414 132.699 28.4138 138.529 28.05C142.538 27.6861 146.182 27.3224 150.919 26.9586ZM153.106 115.73C159.665 118.641 165.495 120.824 171.326 123.007C172.784 123.734 173.512 123.007 173.877 121.551C175.699 113.911 177.156 106.635 178.978 98.9945C179.343 97.9031 179.343 96.8116 179.343 95.7202C178.978 95.7202 178.614 95.3563 178.614 95.3563C170.233 101.905 161.851 108.818 153.106 115.73ZM149.826 157.205C149.826 156.842 149.462 156.478 149.462 156.478C147.64 156.114 145.453 156.114 143.631 155.75C135.979 155.023 128.326 153.931 120.674 153.203C119.216 153.203 117.758 153.203 118.852 155.023C121.038 160.116 123.224 165.573 125.411 170.667C126.14 172.122 126.869 172.122 127.962 171.394C132.699 168.484 137.436 165.937 142.174 163.027C145.089 161.207 147.275 159.025 149.826 157.205ZM86.0551 179.398C86.0551 178.671 86.0551 178.307 85.6907 177.943C79.8602 170.667 74.0297 163.027 67.8348 155.75C66.7416 154.295 65.6484 154.659 65.284 156.478C63.462 160.844 61.64 165.209 59.8179 169.575C58.3603 173.213 58.7247 173.941 62.3688 174.669C68.5637 176.124 74.7585 177.579 80.9534 179.035C82.7755 179.398 84.5975 179.398 86.0551 179.398ZM25.1994 149.565C25.5638 149.565 25.9282 149.201 26.2926 149.201C26.657 147.019 27.0214 144.472 27.0214 142.289C27.7503 135.376 28.4791 128.828 29.5723 121.915C29.9367 119.368 29.2079 118.641 27.3859 119.732C22.6486 121.551 17.5469 123.734 12.8096 125.553C11.352 126.281 10.6232 127.009 11.7164 128.828C14.6317 133.193 16.8181 137.923 19.7333 142.289C20.8266 144.836 23.013 147.382 25.1994 149.565ZM27.7503 67.3423C26.657 66.6147 25.9282 65.8871 25.1994 65.5233C20.8266 63.7042 16.4537 61.8851 12.0808 60.066C10.2588 59.3383 9.16559 59.3384 8.43678 61.5213C5.52153 68.7976 4.42832 76.4378 3.3351 84.078C3.3351 84.8056 3.3351 85.1694 3.69951 86.6247C11.7164 80.076 19.3689 73.8911 27.7503 67.3423ZM32.4875 25.1395C33.5807 25.8671 33.5807 26.2309 33.9451 26.2309C42.6909 27.3223 51.801 28.4138 60.9111 29.5053C63.0976 29.8691 63.8264 28.7776 62.7332 26.5947C60.9111 22.2289 59.0891 18.2269 57.2671 13.8611C56.1739 10.5867 55.4451 10.5867 52.1654 12.042C49.2502 13.8611 45.9705 15.3163 43.0553 17.4993C39.4112 19.6822 36.1316 22.2289 32.4875 25.1395ZM59.0891 128.464C58.7247 128.828 58.7247 129.191 58.7247 129.191C60.9111 135.013 63.0976 140.834 65.6484 146.655C66.0128 147.382 67.106 147.746 67.8348 147.382C69.6569 147.019 71.1145 146.291 72.9365 145.563C76.945 144.108 80.9534 142.289 84.9619 140.834C84.9619 140.47 84.9619 140.106 84.9619 140.106C76.945 135.74 67.8348 132.102 59.0891 128.464ZM42.3265 94.9925C41.9621 94.9925 41.5977 94.9925 41.2333 94.9925C39.0468 99.7222 36.8604 104.452 35.0384 109.181C33.2163 113.911 33.2163 113.911 37.5892 115.73C42.3265 117.913 47.0637 119.732 51.801 121.915C52.1654 121.915 52.1654 121.551 52.5298 121.551C49.2502 112.82 45.6061 103.724 42.3265 94.9925ZM95.1652 140.106C95.1652 140.47 95.5296 140.834 95.5296 141.197C100.996 143.744 106.826 146.291 112.657 148.474C113.386 148.838 114.843 147.746 115.572 147.019C116.665 144.836 117.758 142.289 118.487 140.106C119.945 136.832 121.038 133.557 122.496 130.283C122.131 129.919 122.131 129.919 121.767 129.555C112.657 133.193 103.911 136.468 95.1652 140.106ZM122.496 53.5172C122.496 52.4258 122.86 52.062 122.496 51.6981C120.309 46.2409 118.123 40.7836 115.572 35.3263C115.208 34.5987 113.75 34.2349 113.021 34.5987C107.919 36.4178 102.818 38.6007 97.7161 40.7836C96.9873 41.1474 96.6229 41.8751 96.6229 42.2389C96.6229 42.6027 97.3517 43.3304 98.0805 43.3304C100.267 44.4218 102.453 45.1495 104.275 45.8771C110.106 48.4238 115.936 50.9705 122.496 53.5172ZM128.326 123.37C129.419 123.007 130.148 123.007 130.513 123.007C135.614 121.187 140.351 119.005 145.453 117.185C148.004 116.094 148.004 115.003 147.275 112.82C145.453 108.09 143.631 103.724 141.445 98.9945C141.08 98.2669 140.351 97.9031 139.987 97.1754C139.258 97.9031 138.894 98.2669 138.529 98.9945C136.707 102.997 134.885 106.999 133.428 111.364C131.606 115.003 130.148 119.005 128.326 123.37ZM130.148 60.066C129.784 60.4298 129.784 60.4298 129.419 60.7936C129.784 61.8851 129.784 62.6127 130.148 63.7042C131.606 67.7062 133.428 71.3443 134.885 75.3463C136.343 78.6207 137.436 81.8951 138.894 85.1695C139.258 85.8971 139.987 86.2609 140.351 86.6247C140.351 86.6247 141.08 85.8971 141.445 85.5333C143.631 80.4398 145.818 75.3463 148.004 69.8891C148.733 68.4338 148.368 67.3424 146.546 66.9786C144.36 66.2509 142.538 65.1594 140.351 64.4318C137.072 62.6127 133.428 61.1574 130.148 60.066ZM41.5977 84.8056C41.9621 84.8056 42.3265 84.8057 42.3265 85.1695C46.6993 77.1655 49.6146 68.4338 53.623 60.066C52.8942 59.7022 52.5298 59.7022 52.1654 59.7022C46.6993 61.8851 41.2333 64.068 35.7672 66.6147C34.3095 67.3424 34.674 68.4338 35.0384 69.8891C36.1316 72.072 36.8604 74.6187 37.5892 76.8016C39.0468 79.3484 40.14 81.8951 41.5977 84.8056ZM60.1823 52.7896C62.0044 52.4258 63.0976 52.062 63.8264 51.6981C70.3857 48.7876 77.3094 46.2409 83.8687 43.3304C84.5975 42.9666 84.9619 42.2389 85.6907 41.8751C84.9619 41.5112 84.5975 40.7836 84.2331 40.4198C79.8602 38.6007 75.4873 36.7816 71.1145 34.5987C69.6569 33.8711 68.5637 34.2349 67.8348 36.054C66.3772 39.3284 64.9196 42.9665 63.0976 46.2409C62.0044 48.4238 61.2755 50.2429 60.1823 52.7896Z" fill="#1a2230" stroke="#1a2230" stroke-width="4" mask="url(#path-1-inside-1_186_282)"/>
</svg>
