<svg width="1510" height="469" viewBox="0 0 1510 469" fill="none" xmlns="http://www.w3.org/2000/svg">
<path d="M1367.47 360.279H142.509C66.8158 360.279 5 298.242 5 222.279C5 146.316 66.8158 84.2793 142.509 84.2793H1367.47C1443.17 84.2793 1504.98 146.316 1504.98 222.279C1506.24 298.242 1444.43 360.279 1367.47 360.279Z" stroke="#1a2230" stroke-width="10" stroke-miterlimit="22.9256"/>
<path d="M744.024 463.851C870.732 463.851 973.449 361.134 973.449 234.426C973.449 107.717 870.732 5 744.024 5C617.315 5 514.598 107.717 514.598 234.426C514.598 361.134 617.315 463.851 744.024 463.851Z" fill="white"/>
<path d="M744.024 463.851C870.732 463.851 973.449 361.134 973.449 234.426C973.449 107.717 870.732 5 744.024 5C617.315 5 514.598 107.717 514.598 234.426C514.598 361.134 617.315 463.851 744.024 463.851Z" stroke="#1a2230" stroke-width="10" stroke-miterlimit="22.9256"/>
<path d="M832.264 444.942L790.665 342.835L698.643 345.357" stroke="#1a2230" stroke-width="10" stroke-miterlimit="22.9256"/>
<path d="M658.304 21.3875L701.164 123.494L631.832 182.742L533.507 143.664" stroke="#1a2230" stroke-width="10" stroke-miterlimit="22.9256"/>
<path d="M834.786 23.9087L793.187 122.234L858.736 187.784" stroke="#1a2230" stroke-width="10" stroke-miterlimit="22.9256"/>
<path d="M655.783 446.203L698.643 345.357L634.353 279.807" stroke="#1a2230" stroke-width="10" stroke-miterlimit="22.9256"/>
<path d="M955.801 147.446L858.736 187.784L862.518 276.025" stroke="#1a2230" stroke-width="10" stroke-miterlimit="22.9256"/>
<path d="M532.246 321.406L634.353 279.806L631.832 182.742" stroke="#1a2230" stroke-width="10" stroke-miterlimit="22.9256"/>
<path d="M958.322 315.103L862.518 276.025L790.665 342.836" stroke="#1a2230" stroke-width="10" stroke-miterlimit="22.9256"/>
<path d="M701.164 123.494L793.187 122.234" stroke="#1a2230" stroke-width="10" stroke-miterlimit="22.9256"/>
</svg>
