<svg width="16" height="16" viewBox="0 0 16 16" fill="none" xmlns="http://www.w3.org/2000/svg">
<path d="M9.66204 1.77717L9.10385 1.04255C9.09653 1.03245 9.08719 1.02425 9.07709 1.01794C9.06132 1.00645 9.04188 1.00002 9.02182 1.00002H6.90932C6.88938 1.00002 6.87008 1.00633 6.85405 1.01794C6.84395 1.02425 6.83449 1.03283 6.82729 1.04255L6.26961 1.77717C6.24323 1.81149 6.24374 1.8592 6.27049 1.89327L7.89143 3.96109C7.90935 3.98406 7.93698 3.99731 7.96589 3.99731C7.99479 3.99731 8.0223 3.98418 8.04034 3.96109L9.66128 1.89327C9.68816 1.85869 9.68816 1.81111 9.66216 1.77717H9.66204Z" stroke="black" stroke-width="0.2" stroke-linecap="round" stroke-linejoin="round"/>
<path d="M6.25002 1.83331H9.66112" stroke="black" stroke-width="0.2" stroke-linecap="round" stroke-linejoin="round"/>
<path d="M7.36816 1.83331L7.95891 3.99729" stroke="black" stroke-width="0.2" stroke-linecap="round" stroke-linejoin="round"/>
<path d="M8.56331 1.83334L7.97269 3.99732" stroke="black" stroke-width="0.2" stroke-linecap="round" stroke-linejoin="round"/>
<path d="M6.85402 1.01791L7.36816 1.8333" stroke="black" stroke-width="0.2" stroke-linecap="round" stroke-linejoin="round"/>
<path d="M8.03199 1L7.36816 1.83331" stroke="black" stroke-width="0.2" stroke-linecap="round" stroke-linejoin="round"/>
<path d="M8.56329 1.83331L8.03198 1" stroke="black" stroke-width="0.2" stroke-linecap="round" stroke-linejoin="round"/>
<path d="M9.07706 1.01791L8.56329 1.8333" stroke="black" stroke-width="0.2" stroke-linecap="round" stroke-linejoin="round"/>
<circle cx="8" cy="9.5" r="5.4" stroke="black" stroke-width="0.2"/>
<circle cx="8" cy="9.5" r="4.4" stroke="black" stroke-width="0.2"/>
<mask id="path-11-inside-1_63_263" fill="white">
<path d="M9.50118 8.99635L9.43712 9.10845C9.41368 9.14999 9.36367 9.16724 9.31914 9.15078C9.22694 9.11629 9.14256 9.0669 9.06834 9.00497C9.0324 8.97519 9.02302 8.92266 9.04646 8.8819L9.11053 8.76981C9.05662 8.70709 9.01443 8.63419 8.9863 8.55502H8.85738C8.8105 8.55502 8.76987 8.52131 8.76206 8.47428C8.74644 8.38021 8.74565 8.28144 8.76206 8.18346C8.76987 8.13642 8.8105 8.10193 8.85738 8.10193H8.9863C9.01443 8.02276 9.05662 7.94986 9.11053 7.88714L9.04646 7.77505C9.02302 7.73429 9.03162 7.68177 9.06834 7.65198C9.14256 7.59005 9.22772 7.54067 9.31914 7.50617C9.36367 7.48971 9.41368 7.50696 9.43712 7.5485L9.50118 7.6606C9.58322 7.64571 9.66682 7.64571 9.74886 7.6606L9.81293 7.5485C9.83637 7.50696 9.88637 7.48971 9.93091 7.50617C10.0231 7.54067 10.1075 7.59005 10.1817 7.65198C10.2177 7.68177 10.227 7.73429 10.2036 7.77505L10.1395 7.88714C10.1934 7.94986 10.2356 8.02276 10.2637 8.10193H10.3927C10.4395 8.10193 10.4802 8.13564 10.488 8.18267C10.5036 8.27674 10.5044 8.37551 10.488 8.4735C10.4802 8.52053 10.4395 8.55502 10.3927 8.55502H10.2637C10.2356 8.63419 10.1934 8.70709 10.1395 8.76981L10.2036 8.8819C10.227 8.92266 10.2184 8.97519 10.1817 9.00497C10.1075 9.0669 10.0223 9.11629 9.93091 9.15078C9.88637 9.16724 9.83637 9.14999 9.81293 9.10845L9.74886 8.99635C9.66761 9.01124 9.58322 9.01124 9.50118 8.99635ZM9.41915 8.53542C9.71995 8.76745 10.063 8.42333 9.83168 8.12153C9.53088 7.88871 9.18788 8.23362 9.41915 8.53542ZM8.51829 9.74183L8.78159 9.87352C8.86051 9.91899 8.89489 10.0154 8.86363 10.1016C8.7941 10.2913 8.65737 10.4654 8.53079 10.6174C8.47298 10.6872 8.37297 10.7044 8.29405 10.659L8.06669 10.5273C7.94168 10.6347 7.79636 10.7201 7.63775 10.7758V11.0392C7.63775 11.1301 7.5729 11.2085 7.48383 11.2242C7.29163 11.2571 7.09005 11.2587 6.89081 11.2242C6.80096 11.2085 6.73455 11.1309 6.73455 11.0392V10.7758C6.57594 10.7193 6.43062 10.6347 6.30561 10.5273L6.07825 10.6582C6.00011 10.7037 5.89933 10.6864 5.84151 10.6167C5.71493 10.4646 5.58133 10.2906 5.51179 10.1016C5.48054 10.0162 5.51492 9.91977 5.59383 9.87352L5.85401 9.74183C5.82354 9.578 5.82354 9.40946 5.85401 9.24484L5.59383 9.11237C5.51492 9.0669 5.47976 8.97048 5.51179 8.88504C5.58133 8.69534 5.71493 8.52131 5.84151 8.36924C5.89933 8.29947 5.99933 8.28223 6.07825 8.32769L6.30561 8.45939C6.43062 8.35199 6.57594 8.26655 6.73455 8.21089V7.94672C6.73455 7.85657 6.79862 7.77818 6.88769 7.76251C7.07989 7.72958 7.28225 7.72802 7.48149 7.76172C7.57134 7.7774 7.63775 7.85501 7.63775 7.94672V8.21011C7.79636 8.26655 7.94168 8.35121 8.06669 8.4586L8.29405 8.32691C8.37219 8.28144 8.47298 8.29869 8.53079 8.36845C8.65737 8.52053 8.79019 8.69455 8.85973 8.88425C8.89098 8.9697 8.86051 9.06612 8.78159 9.11237L8.51829 9.24406C8.54876 9.40868 8.54876 9.57721 8.51829 9.74183ZM7.59947 9.90723C8.062 9.30364 7.37523 8.6146 6.77362 9.07866C6.31108 9.68225 6.99785 10.3713 7.59947 9.90723ZM9.50118 11.3394L9.43712 11.4515C9.41368 11.493 9.36367 11.5103 9.31914 11.4938C9.22694 11.4593 9.14256 11.4099 9.06834 11.348C9.0324 11.3182 9.02302 11.2657 9.04646 11.225L9.11053 11.1129C9.05662 11.0501 9.01443 10.9772 8.9863 10.8981H8.85738C8.8105 10.8981 8.76987 10.8644 8.76206 10.8173C8.74644 10.7233 8.74565 10.6245 8.76206 10.5265C8.76987 10.4795 8.8105 10.445 8.85738 10.445H8.9863C9.01443 10.3658 9.05662 10.2929 9.11053 10.2302L9.04646 10.1181C9.02302 10.0773 9.03162 10.0248 9.06834 9.99503C9.14256 9.9331 9.22772 9.88371 9.31914 9.84922C9.36367 9.83276 9.41368 9.85001 9.43712 9.89155L9.50118 10.0036C9.58322 9.98876 9.66682 9.98876 9.74886 10.0036L9.81293 9.89155C9.83637 9.85001 9.88637 9.83276 9.93091 9.84922C10.0231 9.88371 10.1075 9.9331 10.1817 9.99503C10.2177 10.0248 10.227 10.0773 10.2036 10.1181L10.1395 10.2302C10.1934 10.2929 10.2356 10.3658 10.2637 10.445H10.3927C10.4395 10.445 10.4802 10.4787 10.488 10.5257C10.5036 10.6198 10.5044 10.7186 10.488 10.8165C10.4802 10.8636 10.4395 10.8981 10.3927 10.8981H10.2637C10.2356 10.9772 10.1934 11.0501 10.1395 11.1129L10.2036 11.225C10.227 11.2657 10.2184 11.3182 10.1817 11.348C10.1075 11.4099 10.0223 11.4593 9.93091 11.4938C9.88637 11.5103 9.83637 11.493 9.81293 11.4515L9.74886 11.3394C9.66761 11.3543 9.58322 11.3543 9.50118 11.3394ZM9.41915 10.8777C9.71995 11.1097 10.063 10.7656 9.83168 10.4638C9.53088 10.2318 9.18788 10.5759 9.41915 10.8777Z"/>
</mask>
<path d="M9.50118 8.99635L9.43712 9.10845C9.41368 9.14999 9.36367 9.16724 9.31914 9.15078C9.22694 9.11629 9.14256 9.0669 9.06834 9.00497C9.0324 8.97519 9.02302 8.92266 9.04646 8.8819L9.11053 8.76981C9.05662 8.70709 9.01443 8.63419 8.9863 8.55502H8.85738C8.8105 8.55502 8.76987 8.52131 8.76206 8.47428C8.74644 8.38021 8.74565 8.28144 8.76206 8.18346C8.76987 8.13642 8.8105 8.10193 8.85738 8.10193H8.9863C9.01443 8.02276 9.05662 7.94986 9.11053 7.88714L9.04646 7.77505C9.02302 7.73429 9.03162 7.68177 9.06834 7.65198C9.14256 7.59005 9.22772 7.54067 9.31914 7.50617C9.36367 7.48971 9.41368 7.50696 9.43712 7.5485L9.50118 7.6606C9.58322 7.64571 9.66682 7.64571 9.74886 7.6606L9.81293 7.5485C9.83637 7.50696 9.88637 7.48971 9.93091 7.50617C10.0231 7.54067 10.1075 7.59005 10.1817 7.65198C10.2177 7.68177 10.227 7.73429 10.2036 7.77505L10.1395 7.88714C10.1934 7.94986 10.2356 8.02276 10.2637 8.10193H10.3927C10.4395 8.10193 10.4802 8.13564 10.488 8.18267C10.5036 8.27674 10.5044 8.37551 10.488 8.4735C10.4802 8.52053 10.4395 8.55502 10.3927 8.55502H10.2637C10.2356 8.63419 10.1934 8.70709 10.1395 8.76981L10.2036 8.8819C10.227 8.92266 10.2184 8.97519 10.1817 9.00497C10.1075 9.0669 10.0223 9.11629 9.93091 9.15078C9.88637 9.16724 9.83637 9.14999 9.81293 9.10845L9.74886 8.99635C9.66761 9.01124 9.58322 9.01124 9.50118 8.99635ZM9.41915 8.53542C9.71995 8.76745 10.063 8.42333 9.83168 8.12153C9.53088 7.88871 9.18788 8.23362 9.41915 8.53542ZM8.51829 9.74183L8.78159 9.87352C8.86051 9.91899 8.89489 10.0154 8.86363 10.1016C8.7941 10.2913 8.65737 10.4654 8.53079 10.6174C8.47298 10.6872 8.37297 10.7044 8.29405 10.659L8.06669 10.5273C7.94168 10.6347 7.79636 10.7201 7.63775 10.7758V11.0392C7.63775 11.1301 7.5729 11.2085 7.48383 11.2242C7.29163 11.2571 7.09005 11.2587 6.89081 11.2242C6.80096 11.2085 6.73455 11.1309 6.73455 11.0392V10.7758C6.57594 10.7193 6.43062 10.6347 6.30561 10.5273L6.07825 10.6582C6.00011 10.7037 5.89933 10.6864 5.84151 10.6167C5.71493 10.4646 5.58133 10.2906 5.51179 10.1016C5.48054 10.0162 5.51492 9.91977 5.59383 9.87352L5.85401 9.74183C5.82354 9.578 5.82354 9.40946 5.85401 9.24484L5.59383 9.11237C5.51492 9.0669 5.47976 8.97048 5.51179 8.88504C5.58133 8.69534 5.71493 8.52131 5.84151 8.36924C5.89933 8.29947 5.99933 8.28223 6.07825 8.32769L6.30561 8.45939C6.43062 8.35199 6.57594 8.26655 6.73455 8.21089V7.94672C6.73455 7.85657 6.79862 7.77818 6.88769 7.76251C7.07989 7.72958 7.28225 7.72802 7.48149 7.76172C7.57134 7.7774 7.63775 7.85501 7.63775 7.94672V8.21011C7.79636 8.26655 7.94168 8.35121 8.06669 8.4586L8.29405 8.32691C8.37219 8.28144 8.47298 8.29869 8.53079 8.36845C8.65737 8.52053 8.79019 8.69455 8.85973 8.88425C8.89098 8.9697 8.86051 9.06612 8.78159 9.11237L8.51829 9.24406C8.54876 9.40868 8.54876 9.57721 8.51829 9.74183ZM7.59947 9.90723C8.062 9.30364 7.37523 8.6146 6.77362 9.07866C6.31108 9.68225 6.99785 10.3713 7.59947 9.90723ZM9.50118 11.3394L9.43712 11.4515C9.41368 11.493 9.36367 11.5103 9.31914 11.4938C9.22694 11.4593 9.14256 11.4099 9.06834 11.348C9.0324 11.3182 9.02302 11.2657 9.04646 11.225L9.11053 11.1129C9.05662 11.0501 9.01443 10.9772 8.9863 10.8981H8.85738C8.8105 10.8981 8.76987 10.8644 8.76206 10.8173C8.74644 10.7233 8.74565 10.6245 8.76206 10.5265C8.76987 10.4795 8.8105 10.445 8.85738 10.445H8.9863C9.01443 10.3658 9.05662 10.2929 9.11053 10.2302L9.04646 10.1181C9.02302 10.0773 9.03162 10.0248 9.06834 9.99503C9.14256 9.9331 9.22772 9.88371 9.31914 9.84922C9.36367 9.83276 9.41368 9.85001 9.43712 9.89155L9.50118 10.0036C9.58322 9.98876 9.66682 9.98876 9.74886 10.0036L9.81293 9.89155C9.83637 9.85001 9.88637 9.83276 9.93091 9.84922C10.0231 9.88371 10.1075 9.9331 10.1817 9.99503C10.2177 10.0248 10.227 10.0773 10.2036 10.1181L10.1395 10.2302C10.1934 10.2929 10.2356 10.3658 10.2637 10.445H10.3927C10.4395 10.445 10.4802 10.4787 10.488 10.5257C10.5036 10.6198 10.5044 10.7186 10.488 10.8165C10.4802 10.8636 10.4395 10.8981 10.3927 10.8981H10.2637C10.2356 10.9772 10.1934 11.0501 10.1395 11.1129L10.2036 11.225C10.227 11.2657 10.2184 11.3182 10.1817 11.348C10.1075 11.4099 10.0223 11.4593 9.93091 11.4938C9.88637 11.5103 9.83637 11.493 9.81293 11.4515L9.74886 11.3394C9.66761 11.3543 9.58322 11.3543 9.50118 11.3394ZM9.41915 10.8777C9.71995 11.1097 10.063 10.7656 9.83168 10.4638C9.53088 10.2318 9.18788 10.5759 9.41915 10.8777Z" stroke="black" stroke-width="0.2" mask="url(#path-11-inside-1_63_263)"/>
</svg>
