<svg width="1508" height="494" viewBox="0 0 1508 494" fill="none" xmlns="http://www.w3.org/2000/svg">
<path d="M1365.66 382H142.325C66.7335 382 5 319.963 5 244C5 168.037 66.7335 106 142.325 106H1365.66C1441.25 106 1502.98 168.037 1502.98 244C1504.24 319.963 1442.51 382 1365.66 382Z" stroke="#1a2230" stroke-width="10" stroke-miterlimit="22.9256"/>
<path d="M768.5 474C893.592 474 995 372.145 995 246.5C995 120.855 893.592 19 768.5 19C643.407 19 542 120.855 542 246.5C542 372.145 643.407 474 768.5 474Z" fill="white"/>
<path d="M767.384 217.154C821.687 217.154 865.709 173.132 865.709 118.828C865.709 64.5247 821.687 20.5031 767.384 20.5031C713.08 20.5031 669.058 64.5247 669.058 118.828C669.058 173.132 713.08 217.154 767.384 217.154Z" stroke="#1a2230" stroke-width="10" stroke-miterlimit="22.9256"/>
<path d="M906.405 163.051C926.019 112.413 900.87 55.4619 850.232 35.8475C799.594 16.233 742.643 41.3827 723.028 92.0207C703.414 142.659 728.564 199.61 779.202 219.224C829.84 238.839 886.791 213.689 906.405 163.051Z" stroke="#1a2230" stroke-width="10" stroke-miterlimit="22.9256"/>
<path d="M927.692 219.39C964.276 179.26 961.401 117.071 921.271 80.4863C881.141 43.902 818.951 46.7766 782.367 86.9069C745.783 127.037 748.657 189.227 788.788 225.811C828.918 262.395 891.107 259.521 927.692 219.39Z" stroke="#1a2230" stroke-width="10" stroke-miterlimit="22.9256"/>
<path d="M927.413 278.991C976.025 254.788 995.813 195.759 971.61 147.146C947.407 98.5338 888.378 78.746 839.766 102.949C791.153 127.152 771.365 186.181 795.568 234.794C819.772 283.406 878.8 303.194 927.413 278.991Z" stroke="#1a2230" stroke-width="10" stroke-miterlimit="22.9256"/>
<path d="M906.194 333.875C960.264 328.864 1000.04 280.97 995.025 226.9C990.014 172.83 942.12 133.059 888.05 138.07C833.98 143.08 794.209 190.975 799.22 245.045C804.23 299.115 852.124 338.885 906.194 333.875Z" stroke="#1a2230" stroke-width="10" stroke-miterlimit="22.9256"/>
<path d="M987.166 311.066C1002.03 258.837 971.737 204.448 919.508 189.585C867.279 174.722 812.89 205.013 798.027 257.242C783.164 309.472 813.456 363.86 865.685 378.723C917.914 393.586 972.303 363.295 987.166 311.066Z" stroke="#1a2230" stroke-width="10" stroke-miterlimit="22.9256"/>
<path d="M949.528 386.228C982.252 342.894 973.65 281.237 930.316 248.514C886.982 215.791 825.325 224.393 792.601 267.727C759.878 311.061 768.48 372.718 811.814 405.441C855.148 438.165 916.805 429.563 949.528 386.228Z" stroke="#1a2230" stroke-width="10" stroke-miterlimit="22.9256"/>
<path d="M887.022 442.242C933.191 413.656 947.446 353.056 918.86 306.887C890.275 260.718 829.674 246.464 783.505 275.049C737.337 303.635 723.082 364.235 751.668 410.404C780.253 456.573 840.853 470.827 887.022 442.242Z" stroke="#1a2230" stroke-width="10" stroke-miterlimit="22.9256"/>
<path d="M809.396 472.806C862.777 462.83 897.963 411.47 887.988 358.09C878.012 304.709 826.652 269.523 773.272 279.498C719.891 289.474 684.705 340.834 694.68 394.214C704.656 447.595 756.016 482.781 809.396 472.806Z" stroke="#1a2230" stroke-width="10" stroke-miterlimit="22.9256"/>
<path d="M840.285 394.005C850.26 340.624 815.074 289.264 761.693 279.289C708.313 269.313 656.953 304.5 646.977 357.88C637.002 411.261 672.188 462.621 725.569 472.596C778.949 482.572 830.309 447.385 840.285 394.005Z" stroke="#1a2230" stroke-width="10" stroke-miterlimit="22.9256"/>
<path d="M782.465 410.061C811.05 363.892 796.796 303.292 750.627 274.706C704.458 246.121 643.858 260.375 615.272 306.544C586.687 352.713 600.941 413.313 647.11 441.899C693.279 470.484 753.879 456.23 782.465 410.061Z" stroke="#1a2230" stroke-width="10" stroke-miterlimit="22.9256"/>
<path d="M723.344 405.168C766.679 372.444 775.281 310.788 742.557 267.453C709.834 224.119 648.177 215.517 604.843 248.241C561.509 280.964 552.907 342.621 585.63 385.955C618.354 429.289 680.01 437.891 723.344 405.168Z" stroke="#1a2230" stroke-width="10" stroke-miterlimit="22.9256"/>
<path d="M669.557 378.399C721.786 363.536 752.078 309.147 737.215 256.918C722.352 204.689 667.963 174.398 615.734 189.261C563.505 204.124 533.213 258.512 548.076 310.742C562.939 362.971 617.328 393.262 669.557 378.399Z" stroke="#1a2230" stroke-width="10" stroke-miterlimit="22.9256"/>
<path d="M735.795 245.988C740.806 191.918 701.035 144.024 646.965 139.013C592.895 134.003 545.001 173.774 539.99 227.844C534.98 281.914 574.751 329.808 628.821 334.818C682.891 339.829 730.785 300.058 735.795 245.988Z" stroke="#1a2230" stroke-width="10" stroke-miterlimit="22.9256"/>
<path d="M739.624 234.008C763.827 185.396 744.039 126.367 695.426 102.164C646.814 77.9608 587.785 97.7486 563.582 146.361C539.379 194.974 559.167 254.002 607.779 278.205C656.392 302.409 715.421 282.621 739.624 234.008Z" stroke="#1a2230" stroke-width="10" stroke-miterlimit="22.9256"/>
<path d="M746.949 225.065C787.079 188.48 789.954 126.291 753.369 86.1607C716.785 46.0304 654.595 43.1557 614.465 79.74C574.335 116.324 571.46 178.514 608.044 218.644C644.629 258.775 706.818 261.649 746.949 225.065Z" stroke="#1a2230" stroke-width="10" stroke-miterlimit="22.9256"/>
<path d="M756.444 219.38C807.082 199.766 832.232 142.815 812.618 92.177C793.003 41.5389 736.052 16.3893 685.414 36.0038C634.776 55.6182 609.627 112.569 629.241 163.207C648.856 213.845 705.806 238.995 756.444 219.38Z" stroke="#1a2230" stroke-width="10" stroke-miterlimit="22.9256"/>
<path d="M767.384 217.154C821.687 217.154 865.709 173.132 865.709 118.828C865.709 64.5247 821.687 20.5031 767.384 20.5031C713.08 20.5031 669.058 64.5247 669.058 118.828C669.058 173.132 713.08 217.154 767.384 217.154Z" stroke="#1a2230" stroke-width="10" stroke-miterlimit="22.9256"/>
<path d="M767.384 343.211C822.383 343.211 866.969 298.625 866.969 243.626C866.969 188.626 822.383 144.04 767.384 144.04C712.384 144.04 667.798 188.626 667.798 243.626C667.798 298.625 712.384 343.211 767.384 343.211Z" fill="white" stroke="#1a2230" stroke-width="10" stroke-miterlimit="22.9256"/>
<path d="M370.3 232.28C403.717 232.28 430.808 205.19 430.808 171.772C430.808 138.355 403.717 111.264 370.3 111.264C336.882 111.264 309.792 138.355 309.792 171.772C309.792 205.19 336.882 232.28 370.3 232.28Z" stroke="#1a2230" stroke-width="5" stroke-miterlimit="22.9256"/>
<path d="M455.316 198.454C467.387 167.292 451.91 132.245 420.748 120.175C389.586 108.105 354.54 123.581 342.469 154.743C330.399 185.905 345.875 220.952 377.037 233.022C408.199 245.092 443.246 229.616 455.316 198.454Z" stroke="#1a2230" stroke-width="5" stroke-miterlimit="22.9256"/>
<path d="M467.833 233.242C490.346 208.546 488.577 170.276 463.882 147.762C439.186 125.249 400.916 127.018 378.402 151.714C355.889 176.409 357.658 214.68 382.354 237.193C407.049 259.707 445.32 257.937 467.833 233.242Z" stroke="#1a2230" stroke-width="5" stroke-miterlimit="22.9256"/>
<path d="M468.074 270.331C497.989 255.437 510.166 219.111 495.272 189.196C480.378 159.28 444.052 147.103 414.137 161.997C384.222 176.892 372.044 213.217 386.939 243.132C401.833 273.048 438.158 285.225 468.074 270.331Z" stroke="#1a2230" stroke-width="5" stroke-miterlimit="22.9256"/>
<path d="M455.24 303.775C488.514 300.691 512.988 271.218 509.905 237.944C506.821 204.67 477.348 180.196 444.074 183.279C410.8 186.362 386.326 215.836 389.409 249.11C392.493 282.384 421.966 306.858 455.24 303.775Z" stroke="#1a2230" stroke-width="5" stroke-miterlimit="22.9256"/>
<path d="M504.775 289.772C513.921 257.631 495.28 224.162 463.139 215.015C430.998 205.869 397.528 224.509 388.382 256.65C379.235 288.791 397.876 322.262 430.017 331.408C462.158 340.554 495.628 321.913 504.775 289.772Z" stroke="#1a2230" stroke-width="5" stroke-miterlimit="22.9256"/>
<path d="M482.109 335.504C502.246 308.837 496.953 270.894 470.286 250.757C443.618 230.619 405.676 235.913 385.538 262.58C365.401 289.247 370.694 327.19 397.362 347.327C424.029 367.465 461.972 362.171 482.109 335.504Z" stroke="#1a2230" stroke-width="5" stroke-miterlimit="22.9256"/>
<path d="M443.657 369.601C472.069 352.01 480.841 314.718 463.25 286.306C445.659 257.894 408.366 249.123 379.955 266.714C351.543 284.305 342.771 321.597 360.362 350.009C377.953 378.42 415.246 387.192 443.657 369.601Z" stroke="#1a2230" stroke-width="5" stroke-miterlimit="22.9256"/>
<path d="M396.415 387.635C429.264 381.496 450.917 349.89 444.779 317.04C438.64 284.191 407.034 262.538 374.184 268.676C341.335 274.815 319.681 306.421 325.82 339.271C331.959 372.12 363.565 393.774 396.415 387.635Z" stroke="#1a2230" stroke-width="5" stroke-miterlimit="22.9256"/>
<path d="M414.963 338.964C421.102 306.114 399.448 274.508 366.599 268.369C333.749 262.23 302.143 283.884 296.004 316.733C289.866 349.583 311.519 381.189 344.368 387.328C377.218 393.467 408.824 371.813 414.963 338.964Z" stroke="#1a2230" stroke-width="5" stroke-miterlimit="22.9256"/>
<path d="M380.046 349.958C397.637 321.547 388.865 284.254 360.454 266.663C332.042 249.072 294.75 257.844 277.159 286.256C259.568 314.667 268.339 351.96 296.751 369.551C325.163 387.142 362.455 378.37 380.046 349.958Z" stroke="#1a2230" stroke-width="5" stroke-miterlimit="22.9256"/>
<path d="M344.021 347.321C370.688 327.183 375.981 289.241 355.844 262.574C335.707 235.906 297.764 230.613 271.097 250.75C244.43 270.888 239.136 308.83 259.274 335.498C279.411 362.165 317.354 367.458 344.021 347.321Z" stroke="#1a2230" stroke-width="5" stroke-miterlimit="22.9256"/>
<path d="M311.271 330.616C343.412 321.47 362.053 287.999 352.907 255.858C343.76 223.717 310.29 205.077 278.149 214.223C246.008 223.369 227.367 256.839 236.514 288.98C245.66 321.121 279.13 339.762 311.271 330.616Z" stroke="#1a2230" stroke-width="5" stroke-miterlimit="22.9256"/>
<path d="M352.038 248.7C355.121 215.426 330.647 185.953 297.373 182.869C264.099 179.786 234.626 204.26 231.543 237.534C228.459 270.808 252.933 300.281 286.207 303.365C319.481 306.448 348.955 281.974 352.038 248.7Z" stroke="#1a2230" stroke-width="5" stroke-miterlimit="22.9256"/>
<path d="M354.138 242.474C369.032 212.558 356.855 176.233 326.94 161.339C297.025 146.444 260.699 158.621 245.805 188.537C230.911 218.452 243.088 254.778 273.003 269.672C302.919 284.566 339.244 272.389 354.138 242.474Z" stroke="#1a2230" stroke-width="5" stroke-miterlimit="22.9256"/>
<path d="M357.793 236.605C382.489 214.092 384.258 175.821 361.745 151.126C339.231 126.43 300.961 124.661 276.265 147.175C251.57 169.688 249.801 207.958 272.314 232.654C294.828 257.35 333.098 259.119 357.793 236.605Z" stroke="#1a2230" stroke-width="5" stroke-miterlimit="22.9256"/>
<path d="M363.114 233.581C394.276 221.511 409.752 186.464 397.682 155.302C385.612 124.14 350.565 108.664 319.403 120.734C288.241 132.805 272.764 167.851 284.835 199.013C296.905 230.175 331.952 245.652 363.114 233.581Z" stroke="#1a2230" stroke-width="5" stroke-miterlimit="22.9256"/>
<path d="M370.3 232.28C403.717 232.28 430.808 205.19 430.808 171.772C430.808 138.355 403.717 111.264 370.3 111.264C336.882 111.264 309.792 138.355 309.792 171.772C309.792 205.19 336.882 232.28 370.3 232.28Z" stroke="#1a2230" stroke-width="5" stroke-miterlimit="22.9256"/>
<path d="M370.3 309.176C403.717 309.176 430.808 282.086 430.808 248.668C430.808 215.251 403.717 188.16 370.3 188.16C336.882 188.16 309.792 215.251 309.792 248.668C309.792 282.086 336.882 309.176 370.3 309.176Z" fill="white" stroke="#1a2230" stroke-width="5" stroke-miterlimit="22.9256"/>
<path d="M1150.6 228.498C1184.02 228.498 1211.11 201.408 1211.11 167.99C1211.11 134.572 1184.02 107.482 1150.6 107.482C1117.18 107.482 1090.09 134.572 1090.09 167.99C1090.09 201.408 1117.18 228.498 1150.6 228.498Z" stroke="#1a2230" stroke-width="5" stroke-miterlimit="22.9256"/>
<path d="M1235.53 194.426C1247.6 163.264 1232.12 128.218 1200.96 116.147C1169.8 104.077 1134.75 119.554 1122.68 150.715C1110.61 181.877 1126.09 216.924 1157.25 228.994C1188.41 241.065 1223.46 225.588 1235.53 194.426Z" stroke="#1a2230" stroke-width="5" stroke-miterlimit="22.9256"/>
<path d="M1248.13 229.3C1270.64 204.605 1268.87 166.334 1244.18 143.821C1219.48 121.307 1181.21 123.076 1158.7 147.772C1136.18 172.468 1137.95 210.738 1162.65 233.251C1187.34 255.765 1225.61 253.996 1248.13 229.3Z" stroke="#1a2230" stroke-width="5" stroke-miterlimit="22.9256"/>
<path d="M1248.41 266.485C1278.33 251.591 1290.51 215.266 1275.61 185.35C1260.72 155.435 1224.39 143.258 1194.48 158.152C1164.56 173.046 1152.38 209.372 1167.28 239.287C1182.17 269.202 1218.5 281.38 1248.41 266.485Z" stroke="#1a2230" stroke-width="5" stroke-miterlimit="22.9256"/>
<path d="M1234.26 300.09C1267.54 297.007 1292.01 267.534 1288.93 234.26C1285.85 200.986 1256.37 176.512 1223.1 179.595C1189.82 182.679 1165.35 212.152 1168.43 245.426C1171.52 278.7 1200.99 303.174 1234.26 300.09Z" stroke="#1a2230" stroke-width="5" stroke-miterlimit="22.9256"/>
<path d="M1285.03 285.774C1294.18 253.633 1275.54 220.163 1243.4 211.016C1211.25 201.87 1177.78 220.511 1168.64 252.652C1159.49 284.793 1178.13 318.263 1210.27 327.409C1242.41 336.556 1275.88 317.915 1285.03 285.774Z" stroke="#1a2230" stroke-width="5" stroke-miterlimit="22.9256"/>
<path d="M1261.36 330.795C1281.49 304.127 1276.2 266.185 1249.53 246.047C1222.87 225.91 1184.92 231.203 1164.79 257.87C1144.65 284.538 1149.94 322.48 1176.61 342.618C1203.28 362.755 1241.22 357.462 1261.36 330.795Z" stroke="#1a2230" stroke-width="5" stroke-miterlimit="22.9256"/>
<path d="M1223.95 365.732C1252.36 348.141 1261.14 310.848 1243.54 282.437C1225.95 254.025 1188.66 245.253 1160.25 262.844C1131.84 280.435 1123.07 317.728 1140.66 346.139C1158.25 374.551 1195.54 383.323 1223.95 365.732Z" stroke="#1a2230" stroke-width="5" stroke-miterlimit="22.9256"/>
<path d="M1176.75 383.854C1209.6 377.715 1231.25 346.109 1225.11 313.259C1218.97 280.41 1187.37 258.757 1154.52 264.896C1121.67 271.034 1100.01 302.641 1106.15 335.49C1112.29 368.34 1143.9 389.993 1176.75 383.854Z" stroke="#1a2230" stroke-width="5" stroke-miterlimit="22.9256"/>
<path d="M1194.9 336.153C1201.04 303.304 1179.39 271.698 1146.54 265.559C1113.69 259.42 1082.09 281.073 1075.95 313.923C1069.81 346.772 1091.46 378.379 1124.31 384.517C1157.16 390.656 1188.77 369.003 1194.9 336.153Z" stroke="#1a2230" stroke-width="5" stroke-miterlimit="22.9256"/>
<path d="M1160.29 345.991C1177.88 317.58 1169.11 280.287 1140.7 262.696C1112.29 245.105 1074.99 253.877 1057.4 282.289C1039.81 310.7 1048.58 347.993 1076.99 365.584C1105.41 383.175 1142.7 374.403 1160.29 345.991Z" stroke="#1a2230" stroke-width="5" stroke-miterlimit="22.9256"/>
<path d="M1123.55 342.43C1150.22 322.293 1155.51 284.35 1135.38 257.683C1115.24 231.015 1077.3 225.722 1050.63 245.859C1023.96 265.997 1018.67 303.939 1038.8 330.607C1058.94 357.274 1096.88 362.567 1123.55 342.43Z" stroke="#1a2230" stroke-width="5" stroke-miterlimit="22.9256"/>
<path d="M1091.56 326.75C1123.7 317.604 1142.34 284.133 1133.2 251.992C1124.05 219.851 1090.58 201.211 1058.44 210.357C1026.3 219.503 1007.66 252.973 1016.81 285.114C1025.95 317.255 1059.42 335.896 1091.56 326.75Z" stroke="#1a2230" stroke-width="5" stroke-miterlimit="22.9256"/>
<path d="M1132.12 245.943C1135.2 212.669 1110.73 183.196 1077.45 180.112C1044.18 177.029 1014.7 201.503 1011.62 234.777C1008.54 268.051 1033.01 297.524 1066.29 300.608C1099.56 303.691 1129.03 279.217 1132.12 245.943Z" stroke="#1a2230" stroke-width="5" stroke-miterlimit="22.9256"/>
<path d="M1134.36 238.452C1149.26 208.536 1137.08 172.211 1107.17 157.317C1077.25 142.422 1040.92 154.599 1026.03 184.515C1011.14 214.43 1023.31 250.756 1053.23 265.65C1083.14 280.544 1119.47 268.367 1134.36 238.452Z" stroke="#1a2230" stroke-width="5" stroke-miterlimit="22.9256"/>
<path d="M1138.08 232.671C1162.78 210.158 1164.55 171.887 1142.03 147.192C1119.52 122.496 1081.25 120.727 1056.56 143.241C1031.86 165.754 1030.09 204.025 1052.6 228.72C1075.12 253.416 1113.39 255.185 1138.08 232.671Z" stroke="#1a2230" stroke-width="5" stroke-miterlimit="22.9256"/>
<path d="M1143.45 229.757C1174.61 217.686 1190.09 182.64 1178.02 151.478C1165.95 120.316 1130.9 104.839 1099.74 116.91C1068.58 128.98 1053.1 164.027 1065.17 195.189C1077.24 226.351 1112.29 241.827 1143.45 229.757Z" stroke="#1a2230" stroke-width="5" stroke-miterlimit="22.9256"/>
<path d="M1150.6 228.498C1184.02 228.498 1211.11 201.408 1211.11 167.99C1211.11 134.572 1184.02 107.482 1150.6 107.482C1117.18 107.482 1090.09 134.572 1090.09 167.99C1090.09 201.408 1117.18 228.498 1150.6 228.498Z" stroke="#1a2230" stroke-width="5" stroke-miterlimit="22.9256"/>
<path d="M1150.6 305.393C1184.02 305.393 1211.11 278.303 1211.11 244.885C1211.11 211.467 1184.02 184.377 1150.6 184.377C1117.18 184.377 1090.09 211.467 1090.09 244.885C1090.09 278.303 1117.18 305.393 1150.6 305.393Z" fill="white" stroke="#1a2230" stroke-width="5" stroke-miterlimit="22.9256"/>
</svg>
