<svg width="16" height="16" viewBox="0 0 16 16" fill="none" xmlns="http://www.w3.org/2000/svg">
<path d="M5.95805 12.9545L7.26167 14.8666C7.31918 14.951 7.40751 15 7.50013 15C7.59276 15 7.68108 14.9517 7.7386 14.8666L12.935 7.24502C13.0212 7.1177 13.0212 6.94208 12.9376 6.81712" stroke="black" stroke-width="0.3" stroke-linecap="round" stroke-linejoin="round"/>
<path d="M10.0425 3.95242H4.11338C4.04952 3.95242 3.98771 3.97561 3.93617 4.01855C3.90368 4.04174 3.87342 4.07373 3.85046 4.10915L2.06262 6.81694C1.97803 6.94362 1.97953 7.11924 2.06524 7.24484L3.14571 8.82975" stroke="black" stroke-width="0.3" stroke-linecap="round" stroke-linejoin="round"/>
<path d="M2 7.0239H12.935" stroke="black" stroke-width="0.3" stroke-linecap="round" stroke-linejoin="round"/>
<path d="M5.58446 7.0239L7.47798 15" stroke="black" stroke-width="0.3" stroke-linecap="round" stroke-linejoin="round"/>
<path d="M9.41577 7.02377L7.52206 14.9999" stroke="black" stroke-width="0.3" stroke-linecap="round" stroke-linejoin="round"/>
<path d="M3.93592 4.01871L5.58445 7.02386" stroke="black" stroke-width="0.3" stroke-linecap="round" stroke-linejoin="round"/>
<path d="M7.71253 3.95255L5.58446 7.02382" stroke="black" stroke-width="0.3" stroke-linecap="round" stroke-linejoin="round"/>
<path d="M9.41573 7.02382L7.71249 3.95255" stroke="black" stroke-width="0.3" stroke-linecap="round" stroke-linejoin="round"/>
<path d="M10.3496 5.31975L9.41568 7.02382" stroke="black" stroke-width="0.3" stroke-linecap="round" stroke-linejoin="round"/>
<path d="M2.13206 9.74944V10.0446C2.13206 10.6799 1.61227 11.1995 0.977188 11.1995H0.681976" stroke="black" stroke-width="0.3" stroke-linecap="round" stroke-linejoin="round"/>
<path d="M3.35034 9.74954V10.0448C3.35034 10.6801 3.87013 11.1996 4.50521 11.1996H4.80042" stroke="black" stroke-width="0.3" stroke-linecap="round" stroke-linejoin="round"/>
<path d="M2.13205 13.6545V13.3592C2.13205 12.7239 1.61226 12.2044 0.977179 12.2044H0.681967" stroke="black" stroke-width="0.3" stroke-linecap="round" stroke-linejoin="round"/>
<path d="M3.35034 13.6545V13.3592C3.35034 12.7239 3.87013 12.2044 4.50521 12.2044H4.80042" stroke="black" stroke-width="0.3" stroke-linecap="round" stroke-linejoin="round"/>
<path d="M12.4498 2.00003V2.29524C12.4498 2.93054 11.93 3.45011 11.2949 3.45011H10.9997" stroke="black" stroke-width="0.3" stroke-linecap="round" stroke-linejoin="round"/>
<path d="M13.6679 2V2.29521C13.6679 2.93051 14.1877 3.45008 14.8228 3.45008H15.118" stroke="black" stroke-width="0.3" stroke-linecap="round" stroke-linejoin="round"/>
<path d="M12.4498 5.90495V5.60973C12.4498 4.97444 11.93 4.45486 11.2949 4.45486H10.9997" stroke="black" stroke-width="0.3" stroke-linecap="round" stroke-linejoin="round"/>
<path d="M13.6679 5.90495V5.60973C13.6679 4.97444 14.1877 4.45486 14.8228 4.45486H15.118" stroke="black" stroke-width="0.3" stroke-linecap="round" stroke-linejoin="round"/>
</svg>
